<svg width="24" height="24" viewBox="0 0 24 24" fill="none" xmlns="http://www.w3.org/2000/svg">
<path d="M12 20.85C12 20.9551 12 21.0077 12.008 21.0705C12.0663 21.5291 12.5262 21.939 12.9885 21.9443C13.0518 21.945 13.0837 21.9413 13.1475 21.934C15.3773 21.6765 17.4682 20.6739 19.0711 19.0711C20.9464 17.1957 22 14.6522 22 12C22 9.34784 20.9464 6.8043 19.0711 4.92893C17.4682 3.32608 15.3773 2.32354 13.1476 2.06603C13.0838 2.05866 13.0518 2.05497 12.9886 2.0557C12.5262 2.06099 12.0663 2.47087 12.008 2.92954C12 2.99233 12 3.04489 12 3.15L12 12L12 20.85Z" fill="#D580FF"/>
</svg>
