<svg width="24" height="24" viewBox="0 0 24 24" fill="none" xmlns="http://www.w3.org/2000/svg">
<path d="M12 20.85C12 20.9551 12 21.0077 11.992 21.0705C11.9337 21.5291 11.4738 21.939 11.0115 21.9443C10.9482 21.945 10.9163 21.9413 10.8525 21.934C8.62275 21.6765 6.53179 20.6739 4.92893 19.0711C3.05357 17.1957 2 14.6522 2 12C2 9.34784 3.05357 6.8043 4.92893 4.92893C6.53179 3.32608 8.62275 2.32354 10.8524 2.06603C10.9162 2.05866 10.9482 2.05497 11.0114 2.0557C11.4738 2.06099 11.9337 2.47087 11.992 2.92954C12 2.99233 12 3.04489 12 3.15L12 12L12 20.85Z" fill="#D580FF"/>
</svg>
