<svg width="28" height="28" viewBox="0 0 28 28" fill="none" xmlns="http://www.w3.org/2000/svg">
<rect x="1.37195" y="6.10913" width="10.0858" height="1.90909" rx="0.954545" fill="#6A9CFF"/>
<path d="M1.37195 13.8361C1.37195 13.309 1.79931 12.8816 2.32649 12.8816H8.12283C8.65001 12.8816 9.07737 13.309 9.07737 13.8361V13.8361C9.07737 14.3633 8.65001 14.7907 8.12282 14.7907H2.32649C1.79931 14.7907 1.37195 14.3633 1.37195 13.8361V13.8361Z" fill="#6A9CFF"/>
<path d="M1.37195 20.6086C1.37195 20.0814 1.79931 19.6541 2.32649 19.6541H24.5508C25.078 19.6541 25.5053 20.0814 25.5053 20.6086V20.6086C25.5053 21.1358 25.078 21.5631 24.5508 21.5631H2.3265C1.79931 21.5631 1.37195 21.1358 1.37195 20.6086V20.6086Z" fill="#6A9CFF"/>
<path d="M23.3849 10.1917C23.3972 10.1917 23.4095 10.1864 23.4242 10.1864C24.7259 10.1864 25.7821 11.3229 25.7821 12.7237C25.7821 14.1244 24.7259 15.2609 23.4242 15.2609H22.6922H15.5647C14.263 15.2609 13.2068 14.1244 13.2068 12.7237C13.2068 11.6004 13.8896 10.6569 14.8303 10.3239C14.7984 10.1415 14.7787 9.95651 14.7787 9.76358C14.7787 8.12759 16.0093 6.80347 17.5296 6.80347C18.5931 6.80347 19.5043 7.45892 19.9611 8.41038C20.3222 7.94787 20.8551 7.64921 21.4593 7.64921C22.5449 7.64921 23.4242 8.59539 23.4242 9.76358C23.4242 9.91158 23.4119 10.0543 23.3849 10.1917Z" fill="#6A9CFF"/>
</svg>
