<svg xmlns="http://www.w3.org/2000/svg" fill="none" viewBox="0 0 44 44"><rect fill="#37F" width="8" height="3" x="9" y="14" rx="1.5"/><rect fill="#37F" width="10" height="3" x="9" y="22" rx="1.5"/><rect fill="#37F" width="23" height="3" x="9" y="30" rx="1.5"/><path d="M29 11.83c2.11 0 3.31 1.49 3.48 3.28h.06a2.33 2.33 0 0 1 1.74.77 2.63 2.63 0 0 1 .72 1.84 2.75 2.75 0 0 1-.72 1.85 2.45 2.45 0 0 1-1.74.76h-.4L31.1 22.2a.5.5 0 0 1-.28.24.47.47 0 0 1-.37-.03.52.52 0 0 1-.25-.3.56.56 0 0 1 0-.38l.04-.06.77-1.34h-1.4l-1.05 1.87a.5.5 0 0 1-.3.24.47.47 0 0 1-.36-.03.52.52 0 0 1-.24-.3.56.56 0 0 1 0-.38l.03-.06.77-1.34H27l-1.06 1.87a.5.5 0 0 1-.29.24.47.47 0 0 1-.37-.03.52.52 0 0 1-.24-.3.56.56 0 0 1 0-.38l.03-.06.77-1.34h-.38a2.33 2.33 0 0 1-1.74-.76 2.63 2.63 0 0 1-.72-1.85 2.75 2.75 0 0 1 .72-1.84 2.45 2.45 0 0 1 1.74-.77h.05c.18-1.8 1.38-3.28 3.5-3.28Z" fill="#3FD5FE"/></svg>