<svg width="177" height="176" fill="none" xmlns="http://www.w3.org/2000/svg"><rect x=".711" width="175.741" height="175.741" rx="30" fill="url(#a)"/><path d="M56.429 111.411c0-8.432 6.835-15.268 15.267-15.268h1.018s0-22.393 21.884-22.393 21.884 22.393 21.884 22.393h2.036c8.432 0 15.268 6.836 15.268 15.268s-6.836 15.268-15.268 15.268H71.696c-8.432 0-15.267-6.836-15.267-15.268Z" stroke="#FEB800" stroke-width="4" stroke-linejoin="round"/><path d="M55.29 88.349a20.357 20.357 0 0 1 30.02-26.52M56.588 42.165l2.763 5.526M87.988 43.974l-2.895 5.459M36.701 64.643l5.58 2.653M37.266 91.096l5.726-2.321" stroke="#FEB800" stroke-width="4" stroke-linecap="round"/><defs><linearGradient id="a" x1=".711" y1="19.971" x2="55.685" y2="201.436" gradientUnits="userSpaceOnUse"><stop stop-color="#192D52"/><stop offset="1" stop-color="#112645"/></linearGradient></defs></svg>