<svg width="8" height="15" viewBox="0 0 8 15" fill="none" xmlns="http://www.w3.org/2000/svg">
<path d="M7.00125 7.99875C7.00171 8.2324 6.92033 8.45884 6.77125 8.63875L1.77125 14.6387C1.60151 14.843 1.3576 14.9714 1.09318 14.9958C0.82875 15.0201 0.565469 14.9385 0.361252 14.7687C0.157035 14.599 0.0286113 14.3551 0.00423152 14.0907C-0.0201482 13.8262 0.0615132 13.563 0.231252 13.3587L4.71125 7.99875L0.391253 2.63875C0.308187 2.53646 0.246155 2.41876 0.208723 2.29242C0.171291 2.16608 0.159198 2.03359 0.173137 1.90256C0.187076 1.77154 0.226773 1.64455 0.289947 1.52892C0.353121 1.41328 0.438526 1.31127 0.541252 1.22875C0.644074 1.13717 0.7647 1.06781 0.895574 1.02501C1.02645 0.982222 1.16475 0.966919 1.30181 0.980062C1.43887 0.993205 1.57175 1.03451 1.6921 1.10139C1.81246 1.16828 1.91771 1.2593 2.00125 1.36875L6.83125 7.36875C6.95677 7.55383 7.01662 7.77565 7.00125 7.99875Z" fill="#6892B9"/>
</svg>
