<svg xmlns="http://www.w3.org/2000/svg" fill="none" viewBox="0 0 44 44"><rect fill="#3FD5FE" width="26.4" height="22.88" x="8.8" y="12.32" rx="6"/><rect fill="#37F" width="26.4" height="22.88" x="8.8" y="12.32" rx="4"/><path d="M10.56 17.6h22.88v12.84a3 3 0 0 1-3 3H13.56a3 3 0 0 1-3-3V17.6Z" fill="#3FD5FE"/><path d="M25.96 29.22a.62.62 0 0 1 .62-.62h2.28a.62.62 0 0 1 .62.62v2.28a.62.62 0 0 1-.62.62h-2.28a.62.62 0 0 1-.62-.62v-2.28Zm-5.72 0a.62.62 0 0 1 .62-.62h2.28a.62.62 0 0 1 .62.62v2.28a.62.62 0 0 1-.62.62h-2.28a.62.62 0 0 1-.62-.62v-2.28Zm-5.72 0a.62.62 0 0 1 .62-.62h2.28a.62.62 0 0 1 .62.62v2.28a.62.62 0 0 1-.62.62h-2.28a.62.62 0 0 1-.62-.62v-2.28Zm11.44-4.4a.62.62 0 0 1 .62-.62h2.28a.62.62 0 0 1 .62.62v2.28a.62.62 0 0 1-.62.62h-2.28a.62.62 0 0 1-.62-.62v-2.28Zm-5.72 0a.62.62 0 0 1 .62-.62h2.28a.62.62 0 0 1 .62.62v2.28a.62.62 0 0 1-.62.62h-2.28a.62.62 0 0 1-.62-.62v-2.28Zm-5.72 0a.62.62 0 0 1 .62-.62h2.28a.62.62 0 0 1 .62.62v2.28a.62.62 0 0 1-.62.62h-2.28a.62.62 0 0 1-.62-.62v-2.28Zm11.44-4.4a.62.62 0 0 1 .62-.62h2.28a.62.62 0 0 1 .62.62v2.28a.62.62 0 0 1-.62.62h-2.28a.62.62 0 0 1-.62-.62v-2.28Zm-5.72 0a.62.62 0 0 1 .62-.62h2.28a.62.62 0 0 1 .62.62v2.28a.62.62 0 0 1-.62.62h-2.28a.62.62 0 0 1-.62-.62v-2.28Zm-5.72 0a.62.62 0 0 1 .62-.62h2.28a.62.62 0 0 1 .62.62v2.28a.62.62 0 0 1-.62.62h-2.28a.62.62 0 0 1-.62-.62v-2.28Z" fill="#37F"/><path d="M14.96 12.32v-1.5c0-.63.5-1.14 1.1-1.14.6 0 1.1.51 1.1 1.15v1.49h-2.2Zm11 12.5a.62.62 0 0 1 .62-.62h2.28a.62.62 0 0 1 .62.62v2.28a.62.62 0 0 1-.62.62h-2.28a.62.62 0 0 1-.62-.62v-2.28Zm-11.44-4.4a.62.62 0 0 1 .62-.62h2.28a.62.62 0 0 1 .62.62v2.28a.62.62 0 0 1-.62.62h-2.28a.62.62 0 0 1-.62-.62v-2.28Zm5.72 0a.62.62 0 0 1 .62-.62h2.28a.62.62 0 0 1 .62.62v2.28a.62.62 0 0 1-.62.62h-2.28a.62.62 0 0 1-.62-.62v-2.28Zm5.72 0a.62.62 0 0 1 .62-.62h2.28a.62.62 0 0 1 .62.62v2.28a.62.62 0 0 1-.62.62h-2.28a.62.62 0 0 1-.62-.62v-2.28Zm-11.44 4.4a.62.62 0 0 1 .62-.62h2.28a.62.62 0 0 1 .62.62v2.28a.62.62 0 0 1-.62.62h-2.28a.62.62 0 0 1-.62-.62v-2.28Zm5.72 0a.62.62 0 0 1 .62-.62h2.28a.62.62 0 0 1 .62.62v2.28a.62.62 0 0 1-.62.62h-2.28a.62.62 0 0 1-.62-.62v-2.28Zm-5.72 4.4a.62.62 0 0 1 .62-.62h2.28a.62.62 0 0 1 .62.62v2.28a.62.62 0 0 1-.62.62h-2.28a.62.62 0 0 1-.62-.62v-2.28Zm5.72 0a.62.62 0 0 1 .62-.62h2.28a.62.62 0 0 1 .62.62v2.28a.62.62 0 0 1-.62.62h-2.28a.62.62 0 0 1-.62-.62v-2.28Zm6.6-18.4v1.5h2.2v-1.5c0-.63-.5-1.14-1.1-1.14-.6 0-1.1.51-1.1 1.15Z" fill="#37F"/><path d="M26.84 13.81v-1.5h2.2v1.5c0 .64-.5 1.15-1.1 1.15-.6 0-1.1-.51-1.1-1.15Z" fill="#3FD5FE"/><path d="M14.96 10.83v1.49h2.2v-1.5c0-.63-.5-1.14-1.1-1.14-.6 0-1.1.51-1.1 1.15Z" fill="#37F"/><path d="M14.96 13.81v-1.5h2.2v1.5c0 .64-.5 1.15-1.1 1.15-.6 0-1.1-.51-1.1-1.15Z" fill="#3FD5FE"/></svg>