<svg width="28" height="28" viewBox="0 0 28 28" fill="none" xmlns="http://www.w3.org/2000/svg">
<rect x="2.21558" y="3.56531" width="23.5688" height="20.4263" rx="4" stroke="#6A9CFF" stroke-width="2"/>
<path d="M17.5353 17.9262C17.5353 17.7804 17.5932 17.6405 17.6964 17.5374C17.7995 17.4342 17.9394 17.3763 18.0852 17.3763H20.1278C20.2737 17.3763 20.4136 17.4342 20.5167 17.5374C20.6198 17.6405 20.6778 17.7804 20.6778 17.9262V19.9688C20.6778 20.1147 20.6198 20.2546 20.5167 20.3577C20.4136 20.4608 20.2737 20.5188 20.1278 20.5188H18.0852C17.9394 20.5188 17.7995 20.4608 17.6964 20.3577C17.5932 20.2546 17.5353 20.1147 17.5353 19.9688V17.9262Z" fill="#6A9CFF"/>
<path d="M12.4287 17.9262C12.4287 17.7804 12.4867 17.6405 12.5898 17.5374C12.6929 17.4342 12.8328 17.3763 12.9786 17.3763H15.0213C15.1671 17.3763 15.307 17.4342 15.4101 17.5374C15.5133 17.6405 15.5712 17.7804 15.5712 17.9262V19.9688C15.5712 20.1147 15.5133 20.2546 15.4101 20.3577C15.307 20.4608 15.1671 20.5188 15.0213 20.5188H12.9786C12.8328 20.5188 12.6929 20.4608 12.5898 20.3577C12.4867 20.2546 12.4287 20.1147 12.4287 19.9688V17.9262Z" fill="#6A9CFF"/>
<path d="M7.32214 17.9262C7.32214 17.7804 7.38008 17.6405 7.48322 17.5374C7.58635 17.4342 7.72623 17.3763 7.87208 17.3763H9.91471C10.0606 17.3763 10.2004 17.4342 10.3036 17.5374C10.4067 17.6405 10.4646 17.7804 10.4646 17.9262V19.9688C10.4646 20.1147 10.4067 20.2546 10.3036 20.3577C10.2004 20.4608 10.0606 20.5188 9.91471 20.5188H7.87208C7.72623 20.5188 7.58635 20.4608 7.48322 20.3577C7.38008 20.2546 7.32214 20.1147 7.32214 19.9688V17.9262Z" fill="#6A9CFF"/>
<path d="M17.5353 13.9981C17.5353 13.8522 17.5932 13.7123 17.6964 13.6092C17.7995 13.5061 17.9394 13.4481 18.0852 13.4481H20.1278C20.2737 13.4481 20.4136 13.5061 20.5167 13.6092C20.6198 13.7123 20.6778 13.8522 20.6778 13.9981V16.0407C20.6778 16.1865 20.6198 16.3264 20.5167 16.4296C20.4136 16.5327 20.2737 16.5906 20.1278 16.5906H18.0852C17.9394 16.5906 17.7995 16.5327 17.6964 16.4296C17.5932 16.3264 17.5353 16.1865 17.5353 16.0407V13.9981Z" fill="#6A9CFF"/>
<path d="M12.4287 13.9981C12.4287 13.8522 12.4867 13.7123 12.5898 13.6092C12.6929 13.5061 12.8328 13.4481 12.9786 13.4481H15.0213C15.1671 13.4481 15.307 13.5061 15.4101 13.6092C15.5133 13.7123 15.5712 13.8522 15.5712 13.9981V16.0407C15.5712 16.1865 15.5133 16.3264 15.4101 16.4296C15.307 16.5327 15.1671 16.5906 15.0213 16.5906H12.9786C12.8328 16.5906 12.6929 16.5327 12.5898 16.4296C12.4867 16.3264 12.4287 16.1865 12.4287 16.0407V13.9981Z" fill="#6A9CFF"/>
<path d="M7.32214 13.9981C7.32214 13.8522 7.38008 13.7123 7.48322 13.6092C7.58635 13.5061 7.72623 13.4481 7.87208 13.4481H9.91471C10.0606 13.4481 10.2004 13.5061 10.3036 13.6092C10.4067 13.7123 10.4646 13.8522 10.4646 13.9981V16.0407C10.4646 16.1865 10.4067 16.3264 10.3036 16.4296C10.2004 16.5327 10.0606 16.5906 9.91471 16.5906H7.87208C7.72623 16.5906 7.58635 16.5327 7.48322 16.4296C7.38008 16.3264 7.32214 16.1865 7.32214 16.0407V13.9981Z" fill="#6A9CFF"/>
<path d="M17.5353 10.07C17.5353 9.92411 17.5932 9.78423 17.6964 9.68109C17.7995 9.57796 17.9394 9.52002 18.0852 9.52002H20.1278C20.2737 9.52002 20.4136 9.57796 20.5167 9.68109C20.6198 9.78423 20.6778 9.92411 20.6778 10.07V12.1126C20.6778 12.2584 20.6198 12.3983 20.5167 12.5015C20.4136 12.6046 20.2737 12.6625 20.1278 12.6625H18.0852C17.9394 12.6625 17.7995 12.6046 17.6964 12.5015C17.5932 12.3983 17.5353 12.2584 17.5353 12.1126V10.07Z" fill="#6A9CFF"/>
<path d="M12.4287 10.07C12.4287 9.92411 12.4867 9.78423 12.5898 9.68109C12.6929 9.57796 12.8328 9.52002 12.9786 9.52002H15.0213C15.1671 9.52002 15.307 9.57796 15.4101 9.68109C15.5133 9.78423 15.5712 9.92411 15.5712 10.07V12.1126C15.5712 12.2584 15.5133 12.3983 15.4101 12.5015C15.307 12.6046 15.1671 12.6625 15.0213 12.6625H12.9786C12.8328 12.6625 12.6929 12.6046 12.5898 12.5015C12.4867 12.3983 12.4287 12.2584 12.4287 12.1126V10.07Z" fill="#6A9CFF"/>
<path d="M7.32214 10.07C7.32214 9.92411 7.38008 9.78423 7.48322 9.68109C7.58635 9.57796 7.72623 9.52002 7.87208 9.52002H9.91471C10.0606 9.52002 10.2004 9.57796 10.3036 9.68109C10.4067 9.78423 10.4646 9.92411 10.4646 10.07V12.1126C10.4646 12.2584 10.4067 12.3983 10.3036 12.5015C10.2004 12.6046 10.0606 12.6625 9.91471 12.6625H7.87208C7.72623 12.6625 7.58635 12.6046 7.48322 12.5015C7.38008 12.3983 7.32214 12.2584 7.32214 12.1126V10.07Z" fill="#6A9CFF"/>
<path d="M18.3209 2.23289V3.56531H20.285V2.23289C20.285 1.66567 19.8466 1.20844 19.303 1.20844C18.7593 1.20844 18.3209 1.66567 18.3209 2.23289Z" fill="#6A9CFF"/>
<path d="M18.3209 4.89772V3.5653H20.285V4.89772C20.285 5.46495 19.8466 5.92218 19.303 5.92218C18.7593 5.92218 18.3209 5.46495 18.3209 4.89772Z" fill="#6A9CFF"/>
<path d="M7.71497 2.23289V3.56531H9.67903V2.23289C9.67903 1.66567 9.24065 1.20844 8.697 1.20844C8.15335 1.20844 7.71497 1.66567 7.71497 2.23289Z" fill="#6A9CFF"/>
<path d="M7.71497 4.89772V3.5653H9.67903V4.89772C9.67903 5.46495 9.24065 5.92218 8.697 5.92218C8.15335 5.92218 7.71497 5.46495 7.71497 4.89772Z" fill="#6A9CFF"/>
</svg>
