<svg xmlns="http://www.w3.org/2000/svg" fill="none" viewBox="0 0 24 25"><path d="M12 2.21a.64.64 0 0 1 .64.65v1.28a.64.64 0 1 1-1.28 0V2.86A.64.64 0 0 1 12 2.2Zm5.14 10.3a5.14 5.14 0 1 1-10.29 0 5.14 5.14 0 0 1 10.3 0Zm4.5.63a.64.64 0 1 0 0-1.28h-1.28a.64.64 0 1 0 0 1.28h1.28ZM12 20.22a.64.64 0 0 1 .64.64v1.28a.64.64 0 1 1-1.28 0v-1.28a.64.64 0 0 1 .64-.64Zm-8.36-7.08a.64.64 0 1 0 0-1.28H2.36a.64.64 0 1 0 0 1.28h1.28Zm.83-8.17a.64.64 0 0 1 .91 0l1.3 1.29a.64.64 0 0 1-.92.9L4.47 5.89a.64.64 0 0 1 0-.92Zm.91 15.05a.64.64 0 0 1-.9-.9l1.28-1.29a.64.64 0 0 1 .9.9l-1.28 1.3ZM19.52 4.97a.64.64 0 0 0-.9 0l-1.29 1.29a.64.64 0 0 0 .9.9l1.3-1.28a.64.64 0 0 0 0-.9Zm-.9 15.06a.64.64 0 1 0 .9-.91l-1.28-1.29a.64.64 0 0 0-1.06.7.8.8 0 0 0 .15.21l1.29 1.3Z" fill="#FEB800"/></svg>