<svg width="25" height="25" viewBox="0 0 25 25" fill="none" xmlns="http://www.w3.org/2000/svg">
<path d="M5.64231 16.7572C7.99284 20.8285 13.1986 22.2233 17.2699 19.8728C18.3645 19.2423 19.3046 18.3753 20.0212 17.335C20.0768 17.2545 20.113 17.1623 20.1273 17.0655C20.1415 16.9687 20.1333 16.8699 20.1032 16.7768C20.0732 16.6837 20.0222 16.5988 19.9541 16.5285C19.886 16.4583 19.8027 16.4046 19.7106 16.3717C16.5048 15.2245 14.7874 13.8952 13.7909 11.9923C12.7424 9.98983 12.4709 7.79674 13.2045 4.79007C13.2282 4.6933 13.2288 4.59233 13.2065 4.49525C13.1841 4.39817 13.1393 4.30767 13.0757 4.231C13.0121 4.15432 12.9315 4.0936 12.8402 4.0537C12.7489 4.01379 12.6496 3.9958 12.5501 4.00117C11.2143 4.07307 9.91459 4.46005 8.75706 5.13048C4.68576 7.48101 3.29093 12.6867 5.64231 16.7572Z" fill="#D580FF"/>
</svg>
