<svg xmlns="http://www.w3.org/2000/svg" fill="none" viewBox="0 0 120 120"><path d="M55.6 18c0-1.1.9-2 2-2h4.8a2 2 0 0 1 2 2v9.2a2 2 0 0 1-2 2h-4.8a2 2 0 0 1-2-2V18ZM16 57.58c0-1.1.9-2 2-2h9.2a2 2 0 0 1 2 2v4.8a2 2 0 0 1-2 2H18a2 2 0 0 1-2-2v-4.8Zm74.8 0c0-1.1.9-2 2-2h9.2a2 2 0 0 1 2 2v4.8a2 2 0 0 1-2 2h-9.2a2 2 0 0 1-2-2v-4.8ZM80.08 36.52a2 2 0 0 1 0-2.83l6.5-6.53a2 2 0 0 1 2.84 0l3.39 3.38a2 2 0 0 1 0 2.83l-6.5 6.5a2 2 0 0 1-2.84 0l-3.4-3.4Zm-43.55 3.4a2 2 0 0 1-2.83 0l-6.5-6.5a2 2 0 0 1 0-2.84l3.4-3.4a2 2 0 0 1 2.82.01l6.5 6.5a2 2 0 0 1 0 2.83l-3.4 3.4Z" fill="#F7D056"/><path d="M55.6 102c0 1.1.9 2 2 2h4.8a2 2 0 0 0 2-2v-9.2a2 2 0 0 0-2-2h-4.8a2 2 0 0 0-2 2v9.2ZM16 62.42c0 1.1.9 2 2 2h9.2a2 2 0 0 0 2-2v-4.8a2 2 0 0 0-2-2H18a2 2 0 0 0-2 2v4.8Zm74.8 0c0 1.1.9 2 2 2h9.2a2 2 0 0 0 2-2v-4.8a2 2 0 0 0-2-2h-9.2a2 2 0 0 0-2 2v4.8ZM80.08 83.48a2 2 0 0 0 0 2.83l6.5 6.5a2 2 0 0 0 2.84 0l3.39-3.39a2 2 0 0 0 0-2.83l-6.5-6.5a2 2 0 0 0-2.84 0l-3.4 3.4Zm-43.55-3.4a2 2 0 0 0-2.83 0l-6.5 6.5a2 2 0 0 0 0 2.84l3.4 3.4a2 2 0 0 0 2.82 0l6.5-6.5a2 2 0 0 0 0-2.83l-3.4-3.4Z" fill="#F7D056"/></svg>