<svg width="50" height="50" viewBox="0 0 50 50" fill="none" xmlns="http://www.w3.org/2000/svg">
<path d="M43.3738 27.6639H41.6706C41.9039 26.8799 42.0283 26.0567 42.0283 25.1942C42.0283 20.4509 38.2175 16.6093 33.5122 16.6093C32.4545 16.6093 31.4435 16.8131 30.5102 17.1659C28.3092 12.9087 23.8917 10 18.8054 10C11.5181 10 5.60741 15.9585 5.60741 23.3048C5.60741 24.8336 5.86405 26.2997 6.33846 27.6717C2.81536 27.8207 0 30.7372 0 34.328C0 38.0129 2.96313 41 6.61844 41H43.3816C47.0369 41 50 38.0129 50 34.328C50 30.6431 47.0369 27.656 43.3816 27.656L43.3738 27.6639Z" fill="#3FD5FE"/>
</svg>
