<svg width="16" height="17" viewBox="0 0 16 17" fill="none" xmlns="http://www.w3.org/2000/svg">
<path d="M8.09606 10.8817C7.94029 10.882 7.78933 10.8278 7.66939 10.7284L3.66939 7.39507C3.53325 7.28191 3.44763 7.1193 3.43138 6.94302C3.41513 6.76673 3.46957 6.59121 3.58273 6.45507C3.69589 6.31892 3.85849 6.23331 4.03478 6.21705C4.21106 6.2008 4.38658 6.25524 4.52273 6.3684L8.09606 9.35507L11.6694 6.47507C11.7376 6.41969 11.8161 6.37834 11.9003 6.35338C11.9845 6.32843 12.0728 6.32037 12.1602 6.32966C12.2475 6.33895 12.3322 6.36542 12.4093 6.40753C12.4864 6.44965 12.5544 6.50658 12.6094 6.57507C12.6704 6.64362 12.7167 6.72403 12.7452 6.81128C12.7737 6.89853 12.7839 6.99073 12.7752 7.08211C12.7664 7.17348 12.7389 7.26206 12.6943 7.3423C12.6497 7.42254 12.589 7.49271 12.5161 7.5484L8.51606 10.7684C8.39267 10.8521 8.24479 10.892 8.09606 10.8817V10.8817Z" fill="#6892B9"/>
</svg>
