<svg xmlns="http://www.w3.org/2000/svg" fill="none" viewBox="0 0 120 120"><circle fill="#FDF72A" cx="60" cy="60" r="23"/><path d="M60 71c2.3 0 4.4-.74 6.02-1.95.89-.65 2.14-.77 2.98-.05.84.72.94 2 .1 2.71A14 14 0 0 1 60 75a14 14 0 0 1-9.1-3.28c-.84-.71-.74-2 .1-2.7.84-.72 2.1-.6 2.98.05A10.07 10.07 0 0 0 60 71ZM33 51a5 5 0 0 1 5-5h12a5 5 0 0 1 4.58 3h9.84A5 5 0 0 1 69 46h12a5 5 0 0 1 5 5v7a5 5 0 0 1-5 5H69a5 5 0 0 1-5-5v-3h-9v3a5 5 0 0 1-5 5H38a5 5 0 0 1-5-5v-7Z" fill="#F7D056" fill-rule="evenodd" clip-rule="evenodd"/><path d="M82.85 62.65A22.9 22.9 0 0 0 78.25 46H69a5 5 0 0 0-4.58 3h-9.84A5 5 0 0 0 50 46h-8.25a22.9 22.9 0 0 0-4.56 16.93c.26.05.53.07.81.07h12a5 5 0 0 0 5-5v-3h9v3a5 5 0 0 0 5 5h12c.65 0 1.28-.13 1.85-.35Z" fill="#FEB800" fill-rule="evenodd" clip-rule="evenodd"/></svg>