<svg xmlns="http://www.w3.org/2000/svg" fill="none" viewBox="0 0 20 20"><path d="M14.69 5.03c-.07.07-.19.28-.19.8a.75.75 0 0 1-1.5 0c0-.73.17-1.35.56-1.8.4-.45.95-.61 1.44-.61.46 0 .86.13 1.17.41.28.26.42.58.5.78.1.25.39.52.69.42.33-.1.22-.54.22-.86a.75.75 0 0 1 1.5 0c0 .5-.12 1.2-.5 1.73-.2.29-.5.55-.89.68-.4.13-.83.1-1.26-.04-.44-.14-.7-.43-.87-.71-.11-.2-.2-.43-.25-.58-.1-.25-.38-.5-.62-.22Zm-11.36.33a4 4 0 1 1 8 0v4.3a5.65 5.65 0 0 1-4 9.67 5.67 5.67 0 0 1-4-9.68v-4.3Zm1.5 4.97V5.36a2.5 2.5 0 0 1 5 0v4.97a4.16 4.16 0 1 1-5 0Z" fill="#6A9CFF" fill-rule="evenodd" clip-rule="evenodd"/><path d="M7.3 8a.86.86 0 0 0-.86.86v3a2.29 2.29 0 1 0 1.72-.02V8.86A.86.86 0 0 0 7.3 8Z" fill="#6A9CFF" fill-rule="evenodd" clip-rule="evenodd"/></svg>