<svg width="20" height="21" viewBox="0 0 20 21" fill="none" xmlns="http://www.w3.org/2000/svg">
<path d="M13.75 6.33329C13.75 5.08329 14.3333 4.66663 15 4.66663C16.25 4.66663 15.7828 6.03866 16.6667 6.33329C17.9167 6.74996 18.3333 5.49996 18.3333 4.66663" stroke="#6A9CFF" stroke-width="1.5" stroke-linecap="round" stroke-linejoin="round"/>
<mask id="path-2-outside-1_1621_17021" maskUnits="userSpaceOnUse" x="1.16675" y="1.35718" width="12" height="19" fill="black">
<rect fill="white" x="1.16675" y="1.35718" width="12" height="19"/>
<path fill-rule="evenodd" clip-rule="evenodd" d="M7.33342 3.35718C5.95271 3.35718 4.83342 4.47647 4.83342 5.85718V10.8331C3.82138 11.5933 3.16675 12.8035 3.16675 14.1667C3.16675 16.4679 5.03223 18.3334 7.33341 18.3334C9.6346 18.3334 11.5001 16.4679 11.5001 14.1667C11.5001 12.8035 10.8455 11.5933 9.83342 10.8331V5.85718C9.83342 4.47647 8.71413 3.35718 7.33342 3.35718Z"/>
</mask>
<path d="M4.83342 10.8331L5.73428 12.0324L6.33342 11.5824V10.8331H4.83342ZM9.83342 10.8331H8.33342V11.5824L8.93255 12.0324L9.83342 10.8331ZM6.33342 5.85718C6.33342 5.30489 6.78114 4.85718 7.33342 4.85718V1.85718C5.12428 1.85718 3.33342 3.64804 3.33342 5.85718H6.33342ZM6.33342 10.8331V5.85718H3.33342V10.8331H6.33342ZM4.66675 14.1667C4.66675 13.2953 5.08319 12.5215 5.73428 12.0324L3.93256 9.63373C2.55956 10.665 1.66675 12.3118 1.66675 14.1667H4.66675ZM7.33341 16.8334C5.86066 16.8334 4.66675 15.6395 4.66675 14.1667H1.66675C1.66675 17.2963 4.2038 19.8334 7.33341 19.8334V16.8334ZM10.0001 14.1667C10.0001 15.6395 8.80617 16.8334 7.33341 16.8334V19.8334C10.463 19.8334 13.0001 17.2963 13.0001 14.1667H10.0001ZM8.93255 12.0324C9.58364 12.5215 10.0001 13.2953 10.0001 14.1667H13.0001C13.0001 12.3118 12.1073 10.665 10.7343 9.63375L8.93255 12.0324ZM8.33342 5.85718V10.8331H11.3334V5.85718H8.33342ZM7.33342 4.85718C7.8857 4.85718 8.33342 5.30489 8.33342 5.85718H11.3334C11.3334 3.64804 9.54256 1.85718 7.33342 1.85718V4.85718Z" fill="#6A9CFF" mask="url(#path-2-outside-1_1621_17021)"/>
<path fill-rule="evenodd" clip-rule="evenodd" d="M7.29897 8.5C6.82493 8.5 6.44064 8.88429 6.44064 9.35833V12.3647C5.62005 12.7126 5.04443 13.5256 5.04443 14.473C5.04443 15.7371 6.0692 16.7619 7.33332 16.7619C8.59743 16.7619 9.6222 15.7371 9.6222 14.473C9.6222 13.4994 9.01428 12.6677 8.15731 12.3369V9.35833C8.15731 8.88429 7.77302 8.5 7.29897 8.5Z" fill="#6A9CFF"/>
</svg>
