<svg width="337" height="218" viewBox="0 0 337 218" fill="none" xmlns="http://www.w3.org/2000/svg">
<path d="M190.509 34.9073C190.753 35.0104 190.753 35.3573 190.509 35.4603L146.661 53.9176C146.396 54.0292 146.141 53.7396 146.285 53.4906L156.808 35.3343C156.861 35.2412 156.861 35.1264 156.807 35.0334L146.283 16.877C146.139 16.6281 146.394 16.3384 146.659 16.4501L190.509 34.9073Z" stroke="#6892B9" stroke-width="1.5"/>
<path d="M50.707 100.941C50.061 100.941 49.738 100.612 49.738 99.955V97.269C49.738 96.6003 50.078 96.266 50.758 96.266H50.928C51.9933 94.9287 52.526 92.5543 52.526 89.143V87.171C52.526 86.4003 52.9113 86.015 53.682 86.015H59.853C60.6237 86.015 61.009 86.4003 61.009 87.171V96.266H61.689C62.369 96.266 62.709 96.6003 62.709 97.269V99.955C62.709 100.612 62.3917 100.941 61.757 100.941C61.0997 100.941 60.771 100.612 60.771 99.955V98H51.676V99.955C51.676 100.612 51.353 100.941 50.707 100.941ZM53.138 96.266H58.816V87.749H54.549V89.347C54.549 90.979 54.43 92.356 54.192 93.478C53.9653 94.6 53.614 95.5293 53.138 96.266ZM67.8551 98.17C66.9937 98.17 66.2457 97.9943 65.6111 97.643C64.9764 97.2917 64.4834 96.793 64.1321 96.147C63.7807 95.4897 63.6051 94.719 63.6051 93.835C63.6051 92.951 63.7807 92.186 64.1321 91.54C64.4834 90.894 64.9764 90.3953 65.6111 90.044C66.2457 89.6927 66.9937 89.517 67.8551 89.517C68.7164 89.517 69.4644 89.6927 70.0991 90.044C70.7337 90.3953 71.2267 90.894 71.5781 91.54C71.9294 92.186 72.1051 92.951 72.1051 93.835C72.1051 94.719 71.9294 95.4897 71.5781 96.147C71.2267 96.793 70.7337 97.2917 70.0991 97.643C69.4644 97.9943 68.7164 98.17 67.8551 98.17ZM67.8551 96.555C68.4897 96.555 68.9997 96.3283 69.3851 95.875C69.7704 95.4103 69.9631 94.7303 69.9631 93.835C69.9631 92.9283 69.7704 92.254 69.3851 91.812C68.9997 91.3587 68.4897 91.132 67.8551 91.132C67.2204 91.132 66.7104 91.3587 66.3251 91.812C65.9397 92.254 65.7471 92.9283 65.7471 93.835C65.7471 94.7303 65.9397 95.4103 66.3251 95.875C66.7104 96.3283 67.2204 96.555 67.8551 96.555ZM77.7274 98.17C76.3901 98.17 75.3304 97.762 74.5484 96.946C73.7778 96.13 73.3924 94.9287 73.3924 93.342V92.101C73.3924 90.4237 73.7664 89.1487 74.5144 88.276C75.2738 87.392 76.3844 86.7743 77.8464 86.423L80.0564 85.879C80.3511 85.7997 80.6004 85.8167 80.8044 85.93C81.0084 86.032 81.1388 86.2247 81.1954 86.508C81.2521 86.7913 81.2068 87.035 81.0594 87.239C80.9121 87.4317 80.6854 87.562 80.3794 87.63L77.9994 88.191C77.1494 88.395 76.5034 88.7747 76.0614 89.33C75.6194 89.874 75.3984 90.5653 75.3984 91.404V91.489C75.6478 90.979 76.0161 90.5653 76.5034 90.248C77.0021 89.9307 77.6084 89.772 78.3224 89.772C79.0138 89.772 79.6258 89.942 80.1584 90.282C80.7024 90.6107 81.1274 91.081 81.4334 91.693C81.7394 92.305 81.8924 93.036 81.8924 93.886C81.8924 94.7587 81.7168 95.518 81.3654 96.164C81.0254 96.7987 80.5438 97.2917 79.9204 97.643C79.2971 97.9943 78.5661 98.17 77.7274 98.17ZM77.6424 96.555C78.3111 96.555 78.8268 96.334 79.1894 95.892C79.5634 95.45 79.7504 94.8097 79.7504 93.971C79.7504 93.1437 79.5634 92.509 79.1894 92.067C78.8268 91.6137 78.3111 91.387 77.6424 91.387C76.9851 91.387 76.4694 91.608 76.0954 92.05C75.7214 92.492 75.5344 93.104 75.5344 93.886C75.5344 94.7587 75.7158 95.4217 76.0784 95.875C76.4524 96.3283 76.9738 96.555 77.6424 96.555ZM86.3758 98.17C85.7751 98.17 85.2368 98.0567 84.7608 97.83C84.2961 97.592 83.9278 97.2747 83.6558 96.878C83.3951 96.4813 83.2648 96.0337 83.2648 95.535C83.2648 94.923 83.4234 94.4413 83.7408 94.09C84.0581 93.7273 84.5738 93.4667 85.2878 93.308C86.0018 93.1493 86.9594 93.07 88.1608 93.07H88.7558V92.713C88.7558 92.1463 88.6311 91.7383 88.3818 91.489C88.1324 91.2397 87.7131 91.115 87.1238 91.115C86.7951 91.115 86.4381 91.1547 86.0528 91.234C85.6788 91.3133 85.2821 91.4493 84.8628 91.642C84.5908 91.7667 84.3641 91.7837 84.1828 91.693C84.0014 91.591 83.8768 91.438 83.8088 91.234C83.7521 91.0187 83.7634 90.8033 83.8428 90.588C83.9334 90.3727 84.1091 90.214 84.3698 90.112C84.8911 89.8967 85.3898 89.7437 85.8658 89.653C86.3531 89.5623 86.7951 89.517 87.1918 89.517C88.4044 89.517 89.3054 89.8003 89.8948 90.367C90.4841 90.9223 90.7788 91.7893 90.7788 92.968V97.048C90.7788 97.7733 90.4501 98.136 89.7928 98.136C89.1241 98.136 88.7898 97.7733 88.7898 97.048V96.674C88.5971 97.1387 88.2911 97.507 87.8718 97.779C87.4524 98.0397 86.9538 98.17 86.3758 98.17ZM86.8178 96.708C87.3731 96.708 87.8321 96.5153 88.1948 96.13C88.5688 95.7447 88.7558 95.2573 88.7558 94.668V94.294H88.1778C87.1124 94.294 86.3701 94.379 85.9508 94.549C85.5428 94.7077 85.3388 95.0023 85.3388 95.433C85.3388 95.807 85.4691 96.113 85.7298 96.351C85.9904 96.589 86.3531 96.708 86.8178 96.708ZM93.9651 98C93.2624 98 92.9111 97.6487 92.9111 96.946V90.741C92.9111 90.0383 93.2624 89.687 93.9651 89.687H97.3991C98.4757 89.687 99.2464 89.8797 99.7111 90.265C100.187 90.639 100.425 91.1717 100.425 91.863C100.425 92.2937 100.306 92.6677 100.068 92.985C99.8301 93.3023 99.5014 93.5347 99.0821 93.682C99.6261 93.8067 100.034 94.0447 100.306 94.396C100.578 94.7473 100.714 95.1723 100.714 95.671C100.714 96.385 100.442 96.9517 99.8981 97.371C99.3541 97.7903 98.5664 98 97.5351 98H93.9651ZM94.8831 93.104H97.1951C97.6031 93.104 97.9204 93.0133 98.1471 92.832C98.3737 92.6393 98.4871 92.373 98.4871 92.033C98.4871 91.693 98.3737 91.438 98.1471 91.268C97.9204 91.0867 97.6031 90.996 97.1951 90.996H94.8831V93.104ZM94.8831 96.691H97.3481C98.3001 96.691 98.7761 96.3113 98.7761 95.552C98.7761 94.7927 98.3001 94.413 97.3481 94.413H94.8831V96.691ZM103.319 98.136C102.662 98.136 102.333 97.7563 102.333 96.997V90.571C102.333 89.891 102.656 89.551 103.302 89.551C103.937 89.551 104.254 89.891 104.254 90.571V95.229L108.011 90.231C108.136 90.0723 108.289 89.9193 108.47 89.772C108.652 89.6247 108.901 89.551 109.218 89.551C109.864 89.551 110.187 89.925 110.187 90.673V97.116C110.187 97.796 109.87 98.136 109.235 98.136C108.589 98.136 108.266 97.796 108.266 97.116V92.458L104.509 97.456C104.396 97.6147 104.249 97.7677 104.067 97.915C103.897 98.0623 103.648 98.136 103.319 98.136ZM115.175 98.136C114.461 98.136 114.104 97.7733 114.104 97.048V91.353H112.03C111.418 91.353 111.112 91.0753 111.112 90.52C111.112 89.9647 111.418 89.687 112.03 89.687H118.303C118.915 89.687 119.221 89.9647 119.221 90.52C119.221 91.0753 118.915 91.353 118.303 91.353H116.229V97.048C116.229 97.7733 115.878 98.136 115.175 98.136ZM121.202 98C120.499 98 120.148 97.6487 120.148 96.946V90.622C120.148 89.908 120.505 89.551 121.219 89.551C121.922 89.551 122.273 89.908 122.273 90.622V92.441H124.466C125.565 92.441 126.393 92.6733 126.948 93.138C127.515 93.6027 127.798 94.2827 127.798 95.178C127.798 96.028 127.498 96.7137 126.897 97.235C126.308 97.745 125.497 98 124.466 98H121.202ZM122.273 96.606H124.143C124.676 96.606 125.089 96.4927 125.384 96.266C125.679 96.028 125.826 95.671 125.826 95.195C125.826 94.7303 125.679 94.3903 125.384 94.175C125.089 93.9483 124.676 93.835 124.143 93.835H122.273V96.606ZM134.938 98C134.167 98 133.782 97.6147 133.782 96.844V87.171C133.782 86.4003 134.167 86.015 134.938 86.015H139.018C140.276 86.015 141.25 86.2927 141.942 86.848C142.633 87.392 142.979 88.1513 142.979 89.126C142.979 89.772 142.814 90.3273 142.486 90.792C142.157 91.2567 141.704 91.5967 141.126 91.812C141.806 92.0047 142.333 92.3447 142.707 92.832C143.092 93.308 143.285 93.9143 143.285 94.651C143.285 95.7163 142.922 96.5437 142.197 97.133C141.483 97.711 140.485 98 139.205 98H134.938ZM135.873 91.098H138.644C140.128 91.098 140.871 90.5257 140.871 89.381C140.871 88.2363 140.128 87.664 138.644 87.664H135.873V91.098ZM135.873 96.351H138.933C140.429 96.351 141.177 95.7503 141.177 94.549C141.177 93.3477 140.429 92.747 138.933 92.747H135.873V96.351ZM147.898 98.17C147.297 98.17 146.759 98.0567 146.283 97.83C145.818 97.592 145.45 97.2747 145.178 96.878C144.917 96.4813 144.787 96.0337 144.787 95.535C144.787 94.923 144.946 94.4413 145.263 94.09C145.58 93.7273 146.096 93.4667 146.81 93.308C147.524 93.1493 148.482 93.07 149.683 93.07H150.278V92.713C150.278 92.1463 150.153 91.7383 149.904 91.489C149.655 91.2397 149.235 91.115 148.646 91.115C148.317 91.115 147.96 91.1547 147.575 91.234C147.201 91.3133 146.804 91.4493 146.385 91.642C146.113 91.7667 145.886 91.7837 145.705 91.693C145.524 91.591 145.399 91.438 145.331 91.234C145.274 91.0187 145.286 90.8033 145.365 90.588C145.456 90.3727 145.631 90.214 145.892 90.112C146.413 89.8967 146.912 89.7437 147.388 89.653C147.875 89.5623 148.317 89.517 148.714 89.517C149.927 89.517 150.828 89.8003 151.417 90.367C152.006 90.9223 152.301 91.7893 152.301 92.968V97.048C152.301 97.7733 151.972 98.136 151.315 98.136C150.646 98.136 150.312 97.7733 150.312 97.048V96.674C150.119 97.1387 149.813 97.507 149.394 97.779C148.975 98.0397 148.476 98.17 147.898 98.17ZM148.34 96.708C148.895 96.708 149.354 96.5153 149.717 96.13C150.091 95.7447 150.278 95.2573 150.278 94.668V94.294H149.7C148.635 94.294 147.892 94.379 147.473 94.549C147.065 94.7077 146.861 95.0023 146.861 95.433C146.861 95.807 146.991 96.113 147.252 96.351C147.513 96.589 147.875 96.708 148.34 96.708ZM155.487 98C154.785 98 154.433 97.6487 154.433 96.946V90.622C154.433 90.2707 154.518 90.0043 154.688 89.823C154.87 89.6417 155.119 89.551 155.436 89.551C156.105 89.551 156.439 89.908 156.439 90.622V96.334H159.295V90.622C159.295 90.2707 159.38 90.0043 159.55 89.823C159.732 89.6417 159.981 89.551 160.298 89.551C160.967 89.551 161.301 89.908 161.301 90.622V96.334H164.157V90.622C164.157 90.2707 164.242 90.0043 164.412 89.823C164.594 89.6417 164.843 89.551 165.16 89.551C165.829 89.551 166.163 89.908 166.163 90.622V96.946C166.163 97.6487 165.812 98 165.109 98H155.487ZM170.463 101.196C170.077 101.196 169.811 101.054 169.664 100.771C169.516 100.488 169.522 100.165 169.681 99.802L170.65 97.66L167.743 90.962C167.584 90.588 167.584 90.2593 167.743 89.976C167.901 89.6927 168.213 89.551 168.678 89.551C168.938 89.551 169.148 89.6133 169.307 89.738C169.465 89.8513 169.607 90.0723 169.732 90.401L171.772 95.501L173.863 90.384C173.987 90.0667 174.135 89.8513 174.305 89.738C174.475 89.6133 174.701 89.551 174.985 89.551C175.347 89.551 175.602 89.6927 175.75 89.976C175.897 90.2593 175.891 90.5823 175.733 90.945L171.602 100.38C171.454 100.697 171.296 100.913 171.126 101.026C170.956 101.139 170.735 101.196 170.463 101.196ZM182.725 98.136C182.011 98.136 181.654 97.7677 181.654 97.031V90.877C181.654 90.0837 182.05 89.687 182.844 89.687H187.179C187.779 89.687 188.08 89.9647 188.08 90.52C188.08 91.0753 187.779 91.353 187.179 91.353H183.779V97.031C183.779 97.7677 183.427 98.136 182.725 98.136ZM193.297 98.17C192.356 98.17 191.546 97.9943 190.866 97.643C190.186 97.2917 189.659 96.793 189.285 96.147C188.922 95.501 188.741 94.736 188.741 93.852C188.741 92.9907 188.917 92.237 189.268 91.591C189.631 90.945 190.124 90.4407 190.747 90.078C191.382 89.704 192.101 89.517 192.906 89.517C194.085 89.517 195.014 89.891 195.694 90.639C196.385 91.387 196.731 92.407 196.731 93.699C196.731 94.1183 196.459 94.328 195.915 94.328H190.781C190.94 95.8127 191.79 96.555 193.331 96.555C193.626 96.555 193.954 96.521 194.317 96.453C194.691 96.3737 195.042 96.2433 195.371 96.062C195.666 95.892 195.915 95.841 196.119 95.909C196.323 95.9657 196.465 96.0847 196.544 96.266C196.635 96.4473 196.646 96.6513 196.578 96.878C196.521 97.0933 196.363 97.2803 196.102 97.439C195.705 97.6883 195.246 97.8753 194.725 98C194.215 98.1133 193.739 98.17 193.297 98.17ZM192.991 90.962C192.368 90.962 191.863 91.1547 191.478 91.54C191.093 91.9253 190.86 92.4467 190.781 93.104H194.963C194.918 92.4127 194.725 91.8857 194.385 91.523C194.056 91.149 193.592 90.962 192.991 90.962ZM202.197 98.17C201.336 98.17 200.588 97.9943 199.953 97.643C199.319 97.2917 198.826 96.793 198.474 96.147C198.123 95.4897 197.947 94.719 197.947 93.835C197.947 92.951 198.123 92.186 198.474 91.54C198.826 90.894 199.319 90.3953 199.953 90.044C200.588 89.6927 201.336 89.517 202.197 89.517C203.059 89.517 203.807 89.6927 204.441 90.044C205.076 90.3953 205.569 90.894 205.92 91.54C206.272 92.186 206.447 92.951 206.447 93.835C206.447 94.719 206.272 95.4897 205.92 96.147C205.569 96.793 205.076 97.2917 204.441 97.643C203.807 97.9943 203.059 98.17 202.197 98.17ZM202.197 96.555C202.832 96.555 203.342 96.3283 203.727 95.875C204.113 95.4103 204.305 94.7303 204.305 93.835C204.305 92.9283 204.113 92.254 203.727 91.812C203.342 91.3587 202.832 91.132 202.197 91.132C201.563 91.132 201.053 91.3587 200.667 91.812C200.282 92.254 200.089 92.9283 200.089 93.835C200.089 94.7303 200.282 95.4103 200.667 95.875C201.053 96.3283 201.563 96.555 202.197 96.555ZM214.675 98.136C213.972 98.136 213.621 97.7733 213.621 97.048V91.353H211.003V92.322C211.003 93.8973 210.804 95.144 210.408 96.062C210.022 96.98 209.388 97.626 208.504 98C208.198 98.1247 207.931 98.1417 207.705 98.051C207.478 97.9603 207.308 97.813 207.195 97.609C207.093 97.3937 207.07 97.167 207.127 96.929C207.183 96.691 207.353 96.4927 207.637 96.334C208.203 96.0053 208.577 95.518 208.759 94.872C208.951 94.226 209.048 93.3533 209.048 92.254V90.877C209.048 90.0837 209.444 89.687 210.238 89.687H214.556C215.349 89.687 215.746 90.0837 215.746 90.877V97.048C215.746 97.7733 215.389 98.136 214.675 98.136ZM221.722 98.17C220.861 98.17 220.113 97.9943 219.478 97.643C218.844 97.2917 218.351 96.793 217.999 96.147C217.648 95.4897 217.472 94.719 217.472 93.835C217.472 92.951 217.648 92.186 217.999 91.54C218.351 90.894 218.844 90.3953 219.478 90.044C220.113 89.6927 220.861 89.517 221.722 89.517C222.584 89.517 223.332 89.6927 223.966 90.044C224.601 90.3953 225.094 90.894 225.445 91.54C225.797 92.186 225.972 92.951 225.972 93.835C225.972 94.719 225.797 95.4897 225.445 96.147C225.094 96.793 224.601 97.2917 223.966 97.643C223.332 97.9943 222.584 98.17 221.722 98.17ZM221.722 96.555C222.357 96.555 222.867 96.3283 223.252 95.875C223.638 95.4103 223.83 94.7303 223.83 93.835C223.83 92.9283 223.638 92.254 223.252 91.812C222.867 91.3587 222.357 91.132 221.722 91.132C221.088 91.132 220.578 91.3587 220.192 91.812C219.807 92.254 219.614 92.9283 219.614 93.835C219.614 94.7303 219.807 95.4103 220.192 95.875C220.578 96.3283 221.088 96.555 221.722 96.555ZM228.773 98.136C228.059 98.136 227.702 97.7733 227.702 97.048V90.656C227.702 89.9307 228.059 89.568 228.773 89.568C229.475 89.568 229.827 89.9307 229.827 90.656V92.917H231.034L233.159 90.061C233.363 89.789 233.589 89.636 233.839 89.602C234.099 89.568 234.332 89.619 234.536 89.755C234.74 89.891 234.87 90.078 234.927 90.316C234.983 90.554 234.91 90.809 234.706 91.081L233.006 93.41C233.266 93.546 233.499 93.7387 233.703 93.988C233.918 94.226 234.133 94.532 234.349 94.906L235.352 96.691C235.522 96.9857 235.556 97.252 235.454 97.49C235.363 97.728 235.199 97.898 234.961 98C234.723 98.1133 234.473 98.136 234.213 98.068C233.952 98.0113 233.737 97.8357 233.567 97.541L232.428 95.552C232.212 95.1667 231.991 94.906 231.765 94.77C231.549 94.634 231.255 94.566 230.881 94.566H229.827V97.048C229.827 97.7733 229.475 98.136 228.773 98.136ZM239.712 98.17C239.111 98.17 238.573 98.0567 238.097 97.83C237.632 97.592 237.264 97.2747 236.992 96.878C236.731 96.4813 236.601 96.0337 236.601 95.535C236.601 94.923 236.759 94.4413 237.077 94.09C237.394 93.7273 237.91 93.4667 238.624 93.308C239.338 93.1493 240.295 93.07 241.497 93.07H242.092V92.713C242.092 92.1463 241.967 91.7383 241.718 91.489C241.468 91.2397 241.049 91.115 240.46 91.115C240.131 91.115 239.774 91.1547 239.389 91.234C239.015 91.3133 238.618 91.4493 238.199 91.642C237.927 91.7667 237.7 91.7837 237.519 91.693C237.337 91.591 237.213 91.438 237.145 91.234C237.088 91.0187 237.099 90.8033 237.179 90.588C237.269 90.3727 237.445 90.214 237.706 90.112C238.227 89.8967 238.726 89.7437 239.202 89.653C239.689 89.5623 240.131 89.517 240.528 89.517C241.74 89.517 242.641 89.8003 243.231 90.367C243.82 90.9223 244.115 91.7893 244.115 92.968V97.048C244.115 97.7733 243.786 98.136 243.129 98.136C242.46 98.136 242.126 97.7733 242.126 97.048V96.674C241.933 97.1387 241.627 97.507 241.208 97.779C240.788 98.0397 240.29 98.17 239.712 98.17ZM240.154 96.708C240.709 96.708 241.168 96.5153 241.531 96.13C241.905 95.7447 242.092 95.2573 242.092 94.668V94.294H241.514C240.448 94.294 239.706 94.379 239.287 94.549C238.879 94.7077 238.675 95.0023 238.675 95.433C238.675 95.807 238.805 96.113 239.066 96.351C239.326 96.589 239.689 96.708 240.154 96.708ZM254.373 100.346C253.772 100.346 253.472 100.034 253.472 99.411V98H247.301C246.598 98 246.247 97.6487 246.247 96.946V90.622C246.247 89.908 246.604 89.551 247.318 89.551C248.021 89.551 248.372 89.908 248.372 90.622V96.334H251.789V90.622C251.789 89.908 252.146 89.551 252.86 89.551C253.563 89.551 253.914 89.908 253.914 90.622V96.334H254.288C254.945 96.334 255.274 96.657 255.274 97.303V99.411C255.274 100.034 254.974 100.346 254.373 100.346ZM257.585 98.136C256.928 98.136 256.599 97.7563 256.599 96.997V90.571C256.599 89.891 256.922 89.551 257.568 89.551C258.203 89.551 258.52 89.891 258.52 90.571V95.229L262.277 90.231C262.402 90.0723 262.555 89.9193 262.736 89.772C262.917 89.6247 263.167 89.551 263.484 89.551C264.13 89.551 264.453 89.925 264.453 90.673V97.116C264.453 97.796 264.136 98.136 263.501 98.136C262.855 98.136 262.532 97.796 262.532 97.116V92.458L258.775 97.456C258.662 97.6147 258.514 97.7677 258.333 97.915C258.163 98.0623 257.914 98.136 257.585 98.136ZM274.269 98.17C273.113 98.17 272.166 97.847 271.43 97.201C270.693 96.555 270.251 95.6767 270.104 94.566H268.693V97.048C268.693 97.7733 268.353 98.136 267.673 98.136C266.97 98.136 266.619 97.7733 266.619 97.048V90.622C266.619 89.908 266.97 89.551 267.673 89.551C268.353 89.551 268.693 89.908 268.693 90.622V92.9H270.121C270.302 91.8347 270.755 91.0073 271.481 90.418C272.217 89.8173 273.147 89.517 274.269 89.517C275.13 89.517 275.878 89.6927 276.513 90.044C277.147 90.3953 277.64 90.894 277.992 91.54C278.343 92.186 278.519 92.951 278.519 93.835C278.519 94.719 278.343 95.4897 277.992 96.147C277.64 96.793 277.147 97.2917 276.513 97.643C275.878 97.9943 275.13 98.17 274.269 98.17ZM274.269 96.555C274.903 96.555 275.413 96.3283 275.799 95.875C276.184 95.4103 276.377 94.7303 276.377 93.835C276.377 92.9283 276.184 92.254 275.799 91.812C275.413 91.3587 274.903 91.132 274.269 91.132C273.645 91.132 273.135 91.3587 272.739 91.812C272.353 92.254 272.161 92.9283 272.161 93.835C272.161 94.7303 272.353 95.4103 272.739 95.875C273.135 96.3283 273.645 96.555 274.269 96.555ZM282.676 94.532C282.46 94.532 282.29 94.464 282.166 94.328C282.052 94.1807 281.996 93.988 281.996 93.75C281.996 93.2287 282.092 92.7413 282.285 92.288C282.489 91.8347 282.829 91.3417 283.305 90.809C283.667 90.4123 283.917 90.0723 284.053 89.789C284.2 89.5057 284.274 89.2053 284.274 88.888C284.274 88.514 284.138 88.2193 283.866 88.004C283.594 87.7887 283.208 87.681 282.71 87.681C282.256 87.681 281.843 87.7433 281.469 87.868C281.106 87.9813 280.738 88.1457 280.364 88.361C280.058 88.5423 279.786 88.6047 279.548 88.548C279.321 88.48 279.157 88.344 279.055 88.14C278.953 87.936 278.936 87.7093 279.004 87.46C279.072 87.2107 279.253 86.9897 279.548 86.797C280.012 86.491 280.545 86.2587 281.146 86.1C281.746 85.93 282.313 85.845 282.846 85.845C283.56 85.845 284.183 85.964 284.716 86.202C285.26 86.44 285.679 86.7687 285.974 87.188C286.28 87.6073 286.433 88.1003 286.433 88.667C286.433 89.1883 286.314 89.6757 286.076 90.129C285.849 90.5823 285.441 91.0753 284.852 91.608C284.319 92.0953 283.951 92.5147 283.747 92.866C283.543 93.2173 283.412 93.5913 283.356 93.988C283.344 94.1467 283.276 94.277 283.152 94.379C283.038 94.481 282.88 94.532 282.676 94.532ZM282.642 98.085C282.256 98.085 281.945 97.966 281.707 97.728C281.48 97.49 281.367 97.184 281.367 96.81C281.367 96.4473 281.48 96.1527 281.707 95.926C281.945 95.688 282.256 95.569 282.642 95.569C283.038 95.569 283.344 95.688 283.56 95.926C283.786 96.1527 283.9 96.4473 283.9 96.81C283.9 97.184 283.786 97.49 283.56 97.728C283.344 97.966 283.038 98.085 282.642 98.085Z" fill="white"/>
<path d="M8.24527 128.105C8.04527 128.105 7.89027 128.05 7.78027 127.94C7.68027 127.82 7.63027 127.66 7.63027 127.46V118.055C7.63027 117.845 7.68527 117.69 7.79527 117.59C7.90527 117.48 8.06027 117.425 8.26027 117.425H11.8153C12.9453 117.425 13.8153 117.705 14.4253 118.265C15.0353 118.815 15.3403 119.595 15.3403 120.605C15.3403 121.605 15.0353 122.385 14.4253 122.945C13.8153 123.505 12.9453 123.785 11.8153 123.785H8.86027V127.46C8.86027 127.66 8.81027 127.82 8.71027 127.94C8.61027 128.05 8.45527 128.105 8.24527 128.105ZM8.86027 122.75H11.6653C12.4753 122.75 13.0853 122.57 13.4953 122.21C13.9153 121.84 14.1253 121.305 14.1253 120.605C14.1253 119.895 13.9153 119.36 13.4953 119C13.0853 118.63 12.4753 118.445 11.6653 118.445H8.86027V122.75ZM18.9263 128.135C18.4263 128.135 17.9763 128.04 17.5763 127.85C17.1863 127.65 16.8763 127.38 16.6463 127.04C16.4163 126.7 16.3013 126.32 16.3013 125.9C16.3013 125.36 16.4363 124.935 16.7063 124.625C16.9863 124.315 17.4413 124.095 18.0713 123.965C18.7113 123.835 19.5813 123.77 20.6813 123.77H21.3563V124.565H20.6963C19.8863 124.565 19.2463 124.605 18.7763 124.685C18.3163 124.755 17.9913 124.88 17.8013 125.06C17.6213 125.24 17.5313 125.495 17.5313 125.825C17.5313 126.235 17.6713 126.57 17.9513 126.83C18.2413 127.09 18.6313 127.22 19.1213 127.22C19.5213 127.22 19.8713 127.125 20.1713 126.935C20.4813 126.745 20.7213 126.485 20.8913 126.155C21.0713 125.825 21.1613 125.445 21.1613 125.015V123.305C21.1613 122.685 21.0363 122.24 20.7863 121.97C20.5363 121.69 20.1263 121.55 19.5563 121.55C19.2063 121.55 18.8563 121.595 18.5063 121.685C18.1563 121.775 17.7863 121.92 17.3963 122.12C17.2563 122.19 17.1363 122.215 17.0363 122.195C16.9363 122.165 16.8563 122.11 16.7963 122.03C16.7363 121.95 16.7013 121.86 16.6913 121.76C16.6813 121.65 16.7013 121.545 16.7513 121.445C16.8113 121.345 16.9013 121.265 17.0213 121.205C17.4613 120.985 17.8963 120.825 18.3263 120.725C18.7563 120.625 19.1663 120.575 19.5563 120.575C20.1863 120.575 20.7063 120.68 21.1163 120.89C21.5263 121.09 21.8313 121.4 22.0313 121.82C22.2313 122.23 22.3313 122.76 22.3313 123.41V127.475C22.3313 127.675 22.2813 127.83 22.1813 127.94C22.0913 128.05 21.9563 128.105 21.7763 128.105C21.5863 128.105 21.4413 128.05 21.3413 127.94C21.2413 127.83 21.1913 127.675 21.1913 127.475V126.305H21.3263C21.2463 126.685 21.0913 127.01 20.8613 127.28C20.6413 127.55 20.3663 127.76 20.0363 127.91C19.7063 128.06 19.3363 128.135 18.9263 128.135ZM26.8773 128.135C26.3573 128.135 25.8523 128.075 25.3623 127.955C24.8723 127.835 24.4523 127.66 24.1023 127.43C23.9823 127.35 23.8973 127.26 23.8473 127.16C23.8073 127.06 23.7923 126.96 23.8023 126.86C23.8123 126.76 23.8473 126.675 23.9073 126.605C23.9773 126.535 24.0673 126.495 24.1773 126.485C24.2973 126.465 24.4223 126.5 24.5523 126.59C24.8723 126.79 25.2323 126.94 25.6323 127.04C26.0423 127.14 26.4473 127.19 26.8473 127.19C27.5773 127.19 28.0973 127.085 28.4073 126.875C28.7173 126.655 28.8723 126.345 28.8723 125.945C28.8723 125.555 28.7373 125.26 28.4673 125.06C28.2073 124.86 27.8373 124.76 27.3573 124.76H26.0523C25.8923 124.76 25.7623 124.72 25.6623 124.64C25.5723 124.55 25.5273 124.435 25.5273 124.295C25.5273 124.155 25.5723 124.045 25.6623 123.965C25.7623 123.885 25.8923 123.845 26.0523 123.845H27.2073C27.6373 123.845 27.9773 123.745 28.2273 123.545C28.4873 123.345 28.6173 123.07 28.6173 122.72C28.6173 122.35 28.4823 122.06 28.2123 121.85C27.9423 121.63 27.4873 121.52 26.8473 121.52C26.4573 121.52 26.0823 121.565 25.7223 121.655C25.3623 121.735 25.0173 121.87 24.6873 122.06C24.5073 122.15 24.3573 122.18 24.2373 122.15C24.1173 122.11 24.0273 122.035 23.9673 121.925C23.9073 121.815 23.8973 121.695 23.9373 121.565C23.9773 121.435 24.0723 121.33 24.2223 121.25C24.6123 121.02 25.0423 120.85 25.5123 120.74C25.9823 120.63 26.4773 120.575 26.9973 120.575C27.9173 120.575 28.6073 120.755 29.0673 121.115C29.5373 121.475 29.7723 121.98 29.7723 122.63C29.7723 123.09 29.6123 123.48 29.2923 123.8C28.9723 124.12 28.5473 124.31 28.0173 124.37V124.175C28.6273 124.195 29.1123 124.37 29.4723 124.7C29.8423 125.02 30.0273 125.45 30.0273 125.99C30.0273 126.64 29.7623 127.16 29.2323 127.55C28.7023 127.94 27.9173 128.135 26.8773 128.135ZM32.2933 130.805C32.0933 130.805 31.9433 130.75 31.8433 130.64C31.7433 130.54 31.6933 130.39 31.6933 130.19V121.22C31.6933 121.02 31.7433 120.87 31.8433 120.77C31.9433 120.66 32.0883 120.605 32.2783 120.605C32.4783 120.605 32.6283 120.66 32.7283 120.77C32.8383 120.87 32.8933 121.02 32.8933 121.22V122.645L32.7283 122.435C32.8883 121.865 33.2033 121.415 33.6733 121.085C34.1533 120.745 34.7233 120.575 35.3833 120.575C36.0333 120.575 36.5983 120.73 37.0783 121.04C37.5683 121.34 37.9433 121.775 38.2033 122.345C38.4733 122.905 38.6083 123.575 38.6083 124.355C38.6083 125.125 38.4733 125.795 38.2033 126.365C37.9433 126.925 37.5733 127.36 37.0933 127.67C36.6133 127.98 36.0433 128.135 35.3833 128.135C34.7233 128.135 34.1583 127.97 33.6883 127.64C33.2183 127.3 32.8983 126.85 32.7283 126.29H32.9083V130.19C32.9083 130.39 32.8533 130.54 32.7433 130.64C32.6333 130.75 32.4833 130.805 32.2933 130.805ZM35.1283 127.16C35.5883 127.16 35.9833 127.05 36.3133 126.83C36.6533 126.61 36.9133 126.29 37.0933 125.87C37.2833 125.45 37.3783 124.945 37.3783 124.355C37.3783 123.445 37.1733 122.75 36.7633 122.27C36.3633 121.79 35.8183 121.55 35.1283 121.55C34.6783 121.55 34.2833 121.66 33.9433 121.88C33.6033 122.09 33.3383 122.405 33.1483 122.825C32.9683 123.235 32.8783 123.745 32.8783 124.355C32.8783 125.255 33.0833 125.95 33.4933 126.44C33.9033 126.92 34.4483 127.16 35.1283 127.16ZM43.6299 128.135C42.8599 128.135 42.1949 127.985 41.6349 127.685C41.0849 127.375 40.6549 126.94 40.3449 126.38C40.0449 125.82 39.8949 125.15 39.8949 124.37C39.8949 123.61 40.0449 122.95 40.3449 122.39C40.6449 121.82 41.0549 121.375 41.5749 121.055C42.1049 120.735 42.7149 120.575 43.4049 120.575C43.8949 120.575 44.3349 120.66 44.7249 120.83C45.1149 120.99 45.4449 121.225 45.7149 121.535C45.9949 121.845 46.2049 122.22 46.3449 122.66C46.4949 123.1 46.5699 123.595 46.5699 124.145C46.5699 124.305 46.5249 124.425 46.4349 124.505C46.3449 124.575 46.2149 124.61 46.0449 124.61H40.8249V123.815H45.7599L45.5199 124.01C45.5199 123.47 45.4399 123.015 45.2799 122.645C45.1199 122.265 44.8849 121.975 44.5749 121.775C44.2749 121.575 43.8949 121.475 43.4349 121.475C42.9249 121.475 42.4899 121.595 42.1299 121.835C41.7799 122.065 41.5149 122.39 41.3349 122.81C41.1549 123.22 41.0649 123.7 41.0649 124.25V124.34C41.0649 125.26 41.2849 125.96 41.7249 126.44C42.1749 126.92 42.8099 127.16 43.6299 127.16C43.9699 127.16 44.3049 127.115 44.6349 127.025C44.9749 126.935 45.3049 126.785 45.6249 126.575C45.7649 126.485 45.8899 126.445 45.9999 126.455C46.1199 126.455 46.2149 126.49 46.2849 126.56C46.3549 126.62 46.3999 126.7 46.4199 126.8C46.4499 126.89 46.4399 126.99 46.3899 127.1C46.3499 127.21 46.2649 127.305 46.1349 127.385C45.8049 127.625 45.4149 127.81 44.9649 127.94C44.5149 128.07 44.0699 128.135 43.6299 128.135ZM48.8498 128C48.6498 128 48.4948 127.945 48.3848 127.835C48.2748 127.725 48.2198 127.57 48.2198 127.37V121.22C48.2198 121.01 48.2698 120.855 48.3698 120.755C48.4698 120.655 48.6148 120.605 48.8048 120.605C48.9948 120.605 49.1398 120.655 49.2398 120.755C49.3398 120.855 49.3898 121.01 49.3898 121.22V127.025H52.4348V121.22C52.4348 121.01 52.4848 120.855 52.5848 120.755C52.6848 120.655 52.8298 120.605 53.0198 120.605C53.1998 120.605 53.3398 120.655 53.4398 120.755C53.5398 120.855 53.5898 121.01 53.5898 121.22V127.025H56.6348V121.22C56.6348 121.01 56.6848 120.855 56.7848 120.755C56.8948 120.655 57.0398 120.605 57.2198 120.605C57.4098 120.605 57.5548 120.655 57.6548 120.755C57.7548 120.855 57.8048 121.01 57.8048 121.22V127.37C57.8048 127.57 57.7498 127.725 57.6398 127.835C57.5298 127.945 57.3748 128 57.1748 128H48.8498ZM60.5172 128.105C60.4072 128.105 60.3072 128.08 60.2172 128.03C60.1372 127.99 60.0722 127.92 60.0222 127.82C59.9822 127.72 59.9622 127.595 59.9622 127.445V121.205C59.9622 121.005 60.0122 120.855 60.1122 120.755C60.2122 120.655 60.3472 120.605 60.5172 120.605C60.6972 120.605 60.8322 120.655 60.9222 120.755C61.0222 120.855 61.0722 121.005 61.0722 121.205V126.845H60.6972L65.0622 120.995C65.1422 120.885 65.2372 120.795 65.3472 120.725C65.4572 120.645 65.5972 120.605 65.7672 120.605C65.8872 120.605 65.9872 120.625 66.0672 120.665C66.1472 120.705 66.2072 120.775 66.2472 120.875C66.2972 120.965 66.3222 121.09 66.3222 121.25V127.505C66.3222 127.695 66.2722 127.845 66.1722 127.955C66.0822 128.055 65.9472 128.105 65.7672 128.105C65.5872 128.105 65.4472 128.055 65.3472 127.955C65.2572 127.845 65.2122 127.695 65.2122 127.505V121.85H65.5872L61.2072 127.715C61.1372 127.815 61.0472 127.905 60.9372 127.985C60.8372 128.065 60.6972 128.105 60.5172 128.105ZM70.612 128.105C70.422 128.105 70.272 128.05 70.162 127.94C70.052 127.83 69.997 127.675 69.997 127.475V121.685H67.807C67.427 121.685 67.237 121.52 67.237 121.19C67.237 121.04 67.287 120.925 67.387 120.845C67.487 120.755 67.627 120.71 67.807 120.71H73.417C73.787 120.71 73.972 120.87 73.972 121.19C73.972 121.35 73.922 121.475 73.822 121.565C73.732 121.645 73.597 121.685 73.417 121.685H71.212V127.475C71.212 127.675 71.162 127.83 71.062 127.94C70.972 128.05 70.822 128.105 70.612 128.105ZM78.1777 128.135C77.4077 128.135 76.7427 127.985 76.1827 127.685C75.6327 127.375 75.2027 126.94 74.8927 126.38C74.5927 125.82 74.4427 125.15 74.4427 124.37C74.4427 123.61 74.5927 122.95 74.8927 122.39C75.1927 121.82 75.6027 121.375 76.1227 121.055C76.6527 120.735 77.2627 120.575 77.9527 120.575C78.4427 120.575 78.8827 120.66 79.2727 120.83C79.6627 120.99 79.9927 121.225 80.2627 121.535C80.5427 121.845 80.7527 122.22 80.8927 122.66C81.0427 123.1 81.1177 123.595 81.1177 124.145C81.1177 124.305 81.0727 124.425 80.9827 124.505C80.8927 124.575 80.7627 124.61 80.5927 124.61H75.3727V123.815H80.3077L80.0677 124.01C80.0677 123.47 79.9877 123.015 79.8277 122.645C79.6677 122.265 79.4327 121.975 79.1227 121.775C78.8227 121.575 78.4427 121.475 77.9827 121.475C77.4727 121.475 77.0377 121.595 76.6777 121.835C76.3277 122.065 76.0627 122.39 75.8827 122.81C75.7027 123.22 75.6127 123.7 75.6127 124.25V124.34C75.6127 125.26 75.8327 125.96 76.2727 126.44C76.7227 126.92 77.3577 127.16 78.1777 127.16C78.5177 127.16 78.8527 127.115 79.1827 127.025C79.5227 126.935 79.8527 126.785 80.1727 126.575C80.3127 126.485 80.4377 126.445 80.5477 126.455C80.6677 126.455 80.7627 126.49 80.8327 126.56C80.9027 126.62 80.9477 126.7 80.9677 126.8C80.9977 126.89 80.9877 126.99 80.9377 127.1C80.8977 127.21 80.8127 127.305 80.6827 127.385C80.3527 127.625 79.9627 127.81 79.5127 127.94C79.0627 128.07 78.6177 128.135 78.1777 128.135ZM89.4398 128.135C88.7298 128.135 88.1148 127.98 87.5948 127.67C87.0748 127.36 86.6698 126.925 86.3798 126.365C86.0998 125.795 85.9598 125.125 85.9598 124.355C85.9598 123.775 86.0398 123.255 86.1998 122.795C86.3598 122.325 86.5948 121.925 86.9048 121.595C87.2148 121.265 87.5798 121.015 87.9998 120.845C88.4298 120.665 88.9098 120.575 89.4398 120.575C90.1498 120.575 90.7648 120.73 91.2848 121.04C91.8048 121.35 92.2048 121.79 92.4848 122.36C92.7748 122.92 92.9198 123.585 92.9198 124.355C92.9198 124.935 92.8398 125.455 92.6798 125.915C92.5198 126.375 92.2848 126.775 91.9748 127.115C91.6648 127.445 91.2948 127.7 90.8648 127.88C90.4448 128.05 89.9698 128.135 89.4398 128.135ZM89.4398 127.16C89.8898 127.16 90.2848 127.05 90.6248 126.83C90.9648 126.61 91.2248 126.29 91.4048 125.87C91.5948 125.45 91.6898 124.945 91.6898 124.355C91.6898 123.445 91.4848 122.75 91.0748 122.27C90.6748 121.79 90.1298 121.55 89.4398 121.55C88.9798 121.55 88.5798 121.66 88.2398 121.88C87.9098 122.09 87.6498 122.405 87.4598 122.825C87.2798 123.235 87.1898 123.745 87.1898 124.355C87.1898 125.255 87.3948 125.95 87.8048 126.44C88.2148 126.92 88.7598 127.16 89.4398 127.16ZM95.2659 128.105C95.0659 128.105 94.9109 128.05 94.8009 127.94C94.7009 127.83 94.6509 127.675 94.6509 127.475V121.4C94.6509 121.17 94.7109 121 94.8309 120.89C94.9509 120.77 95.1209 120.71 95.3409 120.71H100.321C100.541 120.71 100.711 120.77 100.831 120.89C100.951 121 101.011 121.17 101.011 121.4V127.475C101.011 127.675 100.956 127.83 100.846 127.94C100.736 128.05 100.586 128.105 100.396 128.105C100.206 128.105 100.056 128.05 99.9459 127.94C99.8459 127.83 99.7959 127.675 99.7959 127.475V121.685H95.8659V127.475C95.8659 127.675 95.8159 127.83 95.7159 127.94C95.6159 128.05 95.4659 128.105 95.2659 128.105ZM103.786 130.805C103.586 130.805 103.436 130.75 103.336 130.64C103.236 130.54 103.186 130.39 103.186 130.19V121.22C103.186 121.02 103.236 120.87 103.336 120.77C103.436 120.66 103.581 120.605 103.771 120.605C103.971 120.605 104.121 120.66 104.221 120.77C104.331 120.87 104.386 121.02 104.386 121.22V122.645L104.221 122.435C104.381 121.865 104.696 121.415 105.166 121.085C105.646 120.745 106.216 120.575 106.876 120.575C107.526 120.575 108.091 120.73 108.571 121.04C109.061 121.34 109.436 121.775 109.696 122.345C109.966 122.905 110.101 123.575 110.101 124.355C110.101 125.125 109.966 125.795 109.696 126.365C109.436 126.925 109.066 127.36 108.586 127.67C108.106 127.98 107.536 128.135 106.876 128.135C106.216 128.135 105.651 127.97 105.181 127.64C104.711 127.3 104.391 126.85 104.221 126.29H104.401V130.19C104.401 130.39 104.346 130.54 104.236 130.64C104.126 130.75 103.976 130.805 103.786 130.805ZM106.621 127.16C107.081 127.16 107.476 127.05 107.806 126.83C108.146 126.61 108.406 126.29 108.586 125.87C108.776 125.45 108.871 124.945 108.871 124.355C108.871 123.445 108.666 122.75 108.256 122.27C107.856 121.79 107.311 121.55 106.621 121.55C106.171 121.55 105.776 121.66 105.436 121.88C105.096 122.09 104.831 122.405 104.641 122.825C104.461 123.235 104.371 123.745 104.371 124.355C104.371 125.255 104.576 125.95 104.986 126.44C105.396 126.92 105.941 127.16 106.621 127.16ZM115.122 128.135C114.352 128.135 113.687 127.985 113.127 127.685C112.577 127.375 112.147 126.94 111.837 126.38C111.537 125.82 111.387 125.15 111.387 124.37C111.387 123.61 111.537 122.95 111.837 122.39C112.137 121.82 112.547 121.375 113.067 121.055C113.597 120.735 114.207 120.575 114.897 120.575C115.387 120.575 115.827 120.66 116.217 120.83C116.607 120.99 116.937 121.225 117.207 121.535C117.487 121.845 117.697 122.22 117.837 122.66C117.987 123.1 118.062 123.595 118.062 124.145C118.062 124.305 118.017 124.425 117.927 124.505C117.837 124.575 117.707 124.61 117.537 124.61H112.317V123.815H117.252L117.012 124.01C117.012 123.47 116.932 123.015 116.772 122.645C116.612 122.265 116.377 121.975 116.067 121.775C115.767 121.575 115.387 121.475 114.927 121.475C114.417 121.475 113.982 121.595 113.622 121.835C113.272 122.065 113.007 122.39 112.827 122.81C112.647 123.22 112.557 123.7 112.557 124.25V124.34C112.557 125.26 112.777 125.96 113.217 126.44C113.667 126.92 114.302 127.16 115.122 127.16C115.462 127.16 115.797 127.115 116.127 127.025C116.467 126.935 116.797 126.785 117.117 126.575C117.257 126.485 117.382 126.445 117.492 126.455C117.612 126.455 117.707 126.49 117.777 126.56C117.847 126.62 117.892 126.7 117.912 126.8C117.942 126.89 117.932 126.99 117.882 127.1C117.842 127.21 117.757 127.305 117.627 127.385C117.297 127.625 116.907 127.81 116.457 127.94C116.007 128.07 115.562 128.135 115.122 128.135ZM119.442 130.055C119.272 130.055 119.142 130.005 119.052 129.905C118.962 129.805 118.917 129.665 118.917 129.485V127.625C118.917 127.225 119.117 127.025 119.517 127.025H120.237L119.517 127.28C119.787 126.92 120.002 126.53 120.162 126.11C120.332 125.68 120.457 125.2 120.537 124.67C120.617 124.14 120.657 123.535 120.657 122.855V121.4C120.657 121.17 120.717 121 120.837 120.89C120.957 120.77 121.127 120.71 121.347 120.71H125.127C125.357 120.71 125.527 120.77 125.637 120.89C125.757 121 125.817 121.17 125.817 121.4V127.58L125.262 127.025H126.372C126.562 127.025 126.707 127.075 126.807 127.175C126.917 127.275 126.972 127.425 126.972 127.625V129.485C126.972 129.865 126.797 130.055 126.447 130.055C126.277 130.055 126.147 130.005 126.057 129.905C125.967 129.805 125.922 129.665 125.922 129.485V128H119.952V129.485C119.952 129.865 119.782 130.055 119.442 130.055ZM120.852 127.025H124.662V121.67H121.737V123.065C121.737 123.815 121.662 124.54 121.512 125.24C121.362 125.93 121.142 126.525 120.852 127.025ZM131.649 128.135C130.879 128.135 130.214 127.985 129.654 127.685C129.104 127.375 128.674 126.94 128.364 126.38C128.064 125.82 127.914 125.15 127.914 124.37C127.914 123.61 128.064 122.95 128.364 122.39C128.664 121.82 129.074 121.375 129.594 121.055C130.124 120.735 130.734 120.575 131.424 120.575C131.914 120.575 132.354 120.66 132.744 120.83C133.134 120.99 133.464 121.225 133.734 121.535C134.014 121.845 134.224 122.22 134.364 122.66C134.514 123.1 134.589 123.595 134.589 124.145C134.589 124.305 134.544 124.425 134.454 124.505C134.364 124.575 134.234 124.61 134.064 124.61H128.844V123.815H133.779L133.539 124.01C133.539 123.47 133.459 123.015 133.299 122.645C133.139 122.265 132.904 121.975 132.594 121.775C132.294 121.575 131.914 121.475 131.454 121.475C130.944 121.475 130.509 121.595 130.149 121.835C129.799 122.065 129.534 122.39 129.354 122.81C129.174 123.22 129.084 123.7 129.084 124.25V124.34C129.084 125.26 129.304 125.96 129.744 126.44C130.194 126.92 130.829 127.16 131.649 127.16C131.989 127.16 132.324 127.115 132.654 127.025C132.994 126.935 133.324 126.785 133.644 126.575C133.784 126.485 133.909 126.445 134.019 126.455C134.139 126.455 134.234 126.49 134.304 126.56C134.374 126.62 134.419 126.7 134.439 126.8C134.469 126.89 134.459 126.99 134.409 127.1C134.369 127.21 134.284 127.305 134.154 127.385C133.824 127.625 133.434 127.81 132.984 127.94C132.534 128.07 132.089 128.135 131.649 128.135ZM141.834 128.105C141.644 128.105 141.494 128.05 141.384 127.94C141.284 127.83 141.234 127.675 141.234 127.475V121.685H138.294V122.615C138.294 123.395 138.254 124.085 138.174 124.685C138.104 125.275 137.989 125.785 137.829 126.215C137.669 126.645 137.454 127.005 137.184 127.295C136.924 127.585 136.599 127.83 136.209 128.03C136.079 128.09 135.954 128.105 135.834 128.075C135.714 128.055 135.614 128.01 135.534 127.94C135.464 127.86 135.414 127.765 135.384 127.655C135.364 127.545 135.379 127.435 135.429 127.325C135.479 127.215 135.569 127.125 135.699 127.055C135.989 126.895 136.224 126.695 136.404 126.455C136.594 126.215 136.744 125.915 136.854 125.555C136.964 125.195 137.039 124.775 137.079 124.295C137.129 123.805 137.154 123.23 137.154 122.57V121.4C137.154 121.17 137.214 121 137.334 120.89C137.454 120.77 137.624 120.71 137.844 120.71H141.759C141.979 120.71 142.149 120.77 142.269 120.89C142.389 121 142.449 121.17 142.449 121.4V127.475C142.449 127.675 142.394 127.83 142.284 127.94C142.184 128.05 142.034 128.105 141.834 128.105ZM145.167 128.105C145.057 128.105 144.957 128.08 144.867 128.03C144.787 127.99 144.722 127.92 144.672 127.82C144.632 127.72 144.612 127.595 144.612 127.445V121.205C144.612 121.005 144.662 120.855 144.762 120.755C144.862 120.655 144.997 120.605 145.167 120.605C145.347 120.605 145.482 120.655 145.572 120.755C145.672 120.855 145.722 121.005 145.722 121.205V126.845H145.347L149.712 120.995C149.792 120.885 149.887 120.795 149.997 120.725C150.107 120.645 150.247 120.605 150.417 120.605C150.537 120.605 150.637 120.625 150.717 120.665C150.797 120.705 150.857 120.775 150.897 120.875C150.947 120.965 150.972 121.09 150.972 121.25V127.505C150.972 127.695 150.922 127.845 150.822 127.955C150.732 128.055 150.597 128.105 150.417 128.105C150.237 128.105 150.097 128.055 149.997 127.955C149.907 127.845 149.862 127.695 149.862 127.505V121.85H150.237L145.857 127.715C145.787 127.815 145.697 127.905 145.587 127.985C145.487 128.065 145.347 128.105 145.167 128.105ZM155.262 128.105C155.072 128.105 154.922 128.05 154.812 127.94C154.702 127.83 154.647 127.675 154.647 127.475V121.685H152.457C152.077 121.685 151.887 121.52 151.887 121.19C151.887 121.04 151.937 120.925 152.037 120.845C152.137 120.755 152.277 120.71 152.457 120.71H158.067C158.437 120.71 158.622 120.87 158.622 121.19C158.622 121.35 158.572 121.475 158.472 121.565C158.382 121.645 158.247 121.685 158.067 121.685H155.862V127.475C155.862 127.675 155.812 127.83 155.712 127.94C155.622 128.05 155.472 128.105 155.262 128.105ZM160.187 128C159.987 128 159.832 127.945 159.722 127.835C159.612 127.725 159.557 127.57 159.557 127.37V121.22C159.557 121.01 159.607 120.855 159.707 120.755C159.817 120.655 159.972 120.605 160.172 120.605C160.362 120.605 160.507 120.655 160.607 120.755C160.717 120.855 160.772 121.01 160.772 121.22V123.305H162.977C163.907 123.305 164.612 123.51 165.092 123.92C165.572 124.32 165.812 124.89 165.812 125.63C165.812 126.12 165.697 126.545 165.467 126.905C165.247 127.255 164.927 127.525 164.507 127.715C164.097 127.905 163.587 128 162.977 128H160.187ZM160.772 127.13H162.857C163.427 127.13 163.867 127.01 164.177 126.77C164.487 126.52 164.642 126.145 164.642 125.645C164.642 125.135 164.487 124.765 164.177 124.535C163.867 124.295 163.427 124.175 162.857 124.175H160.772V127.13ZM171.781 128C171.561 128 171.391 127.945 171.271 127.835C171.161 127.715 171.106 127.545 171.106 127.325V118.1C171.106 117.88 171.161 117.715 171.271 117.605C171.391 117.485 171.561 117.425 171.781 117.425H175.336C176.066 117.425 176.681 117.535 177.181 117.755C177.691 117.965 178.081 118.275 178.351 118.685C178.621 119.095 178.756 119.595 178.756 120.185C178.756 120.845 178.561 121.395 178.171 121.835C177.791 122.275 177.271 122.565 176.611 122.705V122.495C177.361 122.585 177.946 122.855 178.366 123.305C178.796 123.755 179.011 124.35 179.011 125.09C179.011 126.03 178.706 126.75 178.096 127.25C177.486 127.75 176.626 128 175.516 128H171.781ZM172.306 127.01H175.396C176.196 127.01 176.796 126.85 177.196 126.53C177.596 126.21 177.796 125.725 177.796 125.075C177.796 124.415 177.596 123.93 177.196 123.62C176.796 123.3 176.196 123.14 175.396 123.14H172.306V127.01ZM172.306 122.15H175.156C175.936 122.15 176.526 121.99 176.926 121.67C177.336 121.35 177.541 120.89 177.541 120.29C177.541 119.67 177.336 119.205 176.926 118.895C176.526 118.575 175.936 118.415 175.156 118.415H172.306V122.15ZM183.208 128.135C182.708 128.135 182.258 128.04 181.858 127.85C181.468 127.65 181.158 127.38 180.928 127.04C180.698 126.7 180.583 126.32 180.583 125.9C180.583 125.36 180.718 124.935 180.988 124.625C181.268 124.315 181.723 124.095 182.353 123.965C182.993 123.835 183.863 123.77 184.963 123.77H185.638V124.565H184.978C184.168 124.565 183.528 124.605 183.058 124.685C182.598 124.755 182.273 124.88 182.083 125.06C181.903 125.24 181.813 125.495 181.813 125.825C181.813 126.235 181.953 126.57 182.233 126.83C182.523 127.09 182.913 127.22 183.403 127.22C183.803 127.22 184.153 127.125 184.453 126.935C184.763 126.745 185.003 126.485 185.173 126.155C185.353 125.825 185.443 125.445 185.443 125.015V123.305C185.443 122.685 185.318 122.24 185.068 121.97C184.818 121.69 184.408 121.55 183.838 121.55C183.488 121.55 183.138 121.595 182.788 121.685C182.438 121.775 182.068 121.92 181.678 122.12C181.538 122.19 181.418 122.215 181.318 122.195C181.218 122.165 181.138 122.11 181.078 122.03C181.018 121.95 180.983 121.86 180.973 121.76C180.963 121.65 180.983 121.545 181.033 121.445C181.093 121.345 181.183 121.265 181.303 121.205C181.743 120.985 182.178 120.825 182.608 120.725C183.038 120.625 183.448 120.575 183.838 120.575C184.468 120.575 184.988 120.68 185.398 120.89C185.808 121.09 186.113 121.4 186.313 121.82C186.513 122.23 186.613 122.76 186.613 123.41V127.475C186.613 127.675 186.563 127.83 186.463 127.94C186.373 128.05 186.238 128.105 186.058 128.105C185.868 128.105 185.723 128.05 185.623 127.94C185.523 127.83 185.473 127.675 185.473 127.475V126.305H185.608C185.528 126.685 185.373 127.01 185.143 127.28C184.923 127.55 184.648 127.76 184.318 127.91C183.988 128.06 183.618 128.135 183.208 128.135ZM189.374 128C189.174 128 189.019 127.945 188.909 127.835C188.799 127.725 188.744 127.57 188.744 127.37V121.22C188.744 121.01 188.794 120.855 188.894 120.755C188.994 120.655 189.139 120.605 189.329 120.605C189.519 120.605 189.664 120.655 189.764 120.755C189.864 120.855 189.914 121.01 189.914 121.22V127.025H192.959V121.22C192.959 121.01 193.009 120.855 193.109 120.755C193.209 120.655 193.354 120.605 193.544 120.605C193.724 120.605 193.864 120.655 193.964 120.755C194.064 120.855 194.114 121.01 194.114 121.22V127.025H197.159V121.22C197.159 121.01 197.209 120.855 197.309 120.755C197.419 120.655 197.564 120.605 197.744 120.605C197.934 120.605 198.079 120.655 198.179 120.755C198.279 120.855 198.329 121.01 198.329 121.22V127.37C198.329 127.57 198.274 127.725 198.164 127.835C198.054 127.945 197.899 128 197.699 128H189.374ZM203.786 128.135C203.016 128.135 202.351 127.985 201.791 127.685C201.241 127.375 200.811 126.94 200.501 126.38C200.201 125.82 200.051 125.15 200.051 124.37C200.051 123.61 200.201 122.95 200.501 122.39C200.801 121.82 201.211 121.375 201.731 121.055C202.261 120.735 202.871 120.575 203.561 120.575C204.051 120.575 204.491 120.66 204.881 120.83C205.271 120.99 205.601 121.225 205.871 121.535C206.151 121.845 206.361 122.22 206.501 122.66C206.651 123.1 206.726 123.595 206.726 124.145C206.726 124.305 206.681 124.425 206.591 124.505C206.501 124.575 206.371 124.61 206.201 124.61H200.981V123.815H205.916L205.676 124.01C205.676 123.47 205.596 123.015 205.436 122.645C205.276 122.265 205.041 121.975 204.731 121.775C204.431 121.575 204.051 121.475 203.591 121.475C203.081 121.475 202.646 121.595 202.286 121.835C201.936 122.065 201.671 122.39 201.491 122.81C201.311 123.22 201.221 123.7 201.221 124.25V124.34C201.221 125.26 201.441 125.96 201.881 126.44C202.331 126.92 202.966 127.16 203.786 127.16C204.126 127.16 204.461 127.115 204.791 127.025C205.131 126.935 205.461 126.785 205.781 126.575C205.921 126.485 206.046 126.445 206.156 126.455C206.276 126.455 206.371 126.49 206.441 126.56C206.511 126.62 206.556 126.7 206.576 126.8C206.606 126.89 206.596 126.99 206.546 127.1C206.506 127.21 206.421 127.305 206.291 127.385C205.961 127.625 205.571 127.81 205.121 127.94C204.671 128.07 204.226 128.135 203.786 128.135ZM212.543 128.105C212.373 128.105 212.238 128.055 212.138 127.955C212.048 127.845 212.003 127.7 212.003 127.52V121.25C212.003 121.11 212.023 120.995 212.063 120.905C212.103 120.805 212.163 120.73 212.243 120.68C212.323 120.63 212.423 120.605 212.543 120.605C212.663 120.605 212.763 120.625 212.843 120.665C212.923 120.695 212.993 120.745 213.053 120.815C213.113 120.875 213.163 120.95 213.203 121.04L215.753 125.585L218.303 121.04C218.343 120.95 218.393 120.875 218.453 120.815C218.513 120.745 218.583 120.695 218.663 120.665C218.743 120.625 218.838 120.605 218.948 120.605C219.128 120.605 219.263 120.66 219.353 120.77C219.443 120.87 219.488 121.03 219.488 121.25V127.52C219.488 127.7 219.443 127.845 219.353 127.955C219.263 128.055 219.128 128.105 218.948 128.105C218.778 128.105 218.643 128.055 218.543 127.955C218.453 127.845 218.408 127.7 218.408 127.52V122.105H218.753L216.188 126.605C216.148 126.685 216.093 126.755 216.023 126.815C215.953 126.865 215.863 126.89 215.753 126.89C215.633 126.89 215.538 126.86 215.468 126.8C215.408 126.74 215.353 126.675 215.303 126.605L212.738 122.105H213.083V127.52C213.083 127.7 213.033 127.845 212.933 127.955C212.843 128.055 212.713 128.105 212.543 128.105ZM224.951 128.135C224.181 128.135 223.516 127.985 222.956 127.685C222.406 127.375 221.976 126.94 221.666 126.38C221.366 125.82 221.216 125.15 221.216 124.37C221.216 123.61 221.366 122.95 221.666 122.39C221.966 121.82 222.376 121.375 222.896 121.055C223.426 120.735 224.036 120.575 224.726 120.575C225.216 120.575 225.656 120.66 226.046 120.83C226.436 120.99 226.766 121.225 227.036 121.535C227.316 121.845 227.526 122.22 227.666 122.66C227.816 123.1 227.891 123.595 227.891 124.145C227.891 124.305 227.846 124.425 227.756 124.505C227.666 124.575 227.536 124.61 227.366 124.61H222.146V123.815H227.081L226.841 124.01C226.841 123.47 226.761 123.015 226.601 122.645C226.441 122.265 226.206 121.975 225.896 121.775C225.596 121.575 225.216 121.475 224.756 121.475C224.246 121.475 223.811 121.595 223.451 121.835C223.101 122.065 222.836 122.39 222.656 122.81C222.476 123.22 222.386 123.7 222.386 124.25V124.34C222.386 125.26 222.606 125.96 223.046 126.44C223.496 126.92 224.131 127.16 224.951 127.16C225.291 127.16 225.626 127.115 225.956 127.025C226.296 126.935 226.626 126.785 226.946 126.575C227.086 126.485 227.211 126.445 227.321 126.455C227.441 126.455 227.536 126.49 227.606 126.56C227.676 126.62 227.721 126.7 227.741 126.8C227.771 126.89 227.761 126.99 227.711 127.1C227.671 127.21 227.586 127.305 227.456 127.385C227.126 127.625 226.736 127.81 226.286 127.94C225.836 128.07 225.391 128.135 224.951 128.135ZM232.646 128.135C231.916 128.135 231.286 127.975 230.756 127.655C230.226 127.335 229.816 126.89 229.526 126.32C229.246 125.74 229.106 125.07 229.106 124.31C229.106 123.73 229.186 123.21 229.346 122.75C229.506 122.29 229.741 121.9 230.051 121.58C230.361 121.25 230.731 121 231.161 120.83C231.601 120.66 232.096 120.575 232.646 120.575C233.006 120.575 233.381 120.63 233.771 120.74C234.161 120.85 234.516 121.04 234.836 121.31C234.936 121.38 235.001 121.465 235.031 121.565C235.061 121.665 235.061 121.765 235.031 121.865C235.001 121.955 234.951 122.035 234.881 122.105C234.811 122.165 234.721 122.2 234.611 122.21C234.511 122.22 234.406 122.185 234.296 122.105C234.036 121.905 233.771 121.765 233.501 121.685C233.231 121.605 232.971 121.565 232.721 121.565C232.331 121.565 231.991 121.63 231.701 121.76C231.411 121.88 231.166 122.055 230.966 122.285C230.766 122.515 230.611 122.8 230.501 123.14C230.401 123.48 230.351 123.875 230.351 124.325C230.351 125.195 230.556 125.885 230.966 126.395C231.376 126.895 231.961 127.145 232.721 127.145C232.971 127.145 233.226 127.105 233.486 127.025C233.756 126.945 234.026 126.805 234.296 126.605C234.406 126.525 234.511 126.49 234.611 126.5C234.711 126.51 234.796 126.55 234.866 126.62C234.936 126.68 234.981 126.76 235.001 126.86C235.031 126.96 235.031 127.06 235.001 127.16C234.971 127.25 234.906 127.33 234.806 127.4C234.486 127.66 234.136 127.85 233.756 127.97C233.376 128.08 233.006 128.135 232.646 128.135ZM238.52 128.105C238.33 128.105 238.18 128.05 238.07 127.94C237.96 127.83 237.905 127.675 237.905 127.475V121.685H235.715C235.335 121.685 235.145 121.52 235.145 121.19C235.145 121.04 235.195 120.925 235.295 120.845C235.395 120.755 235.535 120.71 235.715 120.71H241.325C241.695 120.71 241.88 120.87 241.88 121.19C241.88 121.35 241.83 121.475 241.73 121.565C241.64 121.645 241.505 121.685 241.325 121.685H239.12V127.475C239.12 127.675 239.07 127.83 238.97 127.94C238.88 128.05 238.73 128.105 238.52 128.105ZM245.831 128.135C245.121 128.135 244.506 127.98 243.986 127.67C243.466 127.36 243.061 126.925 242.771 126.365C242.491 125.795 242.351 125.125 242.351 124.355C242.351 123.775 242.431 123.255 242.591 122.795C242.751 122.325 242.986 121.925 243.296 121.595C243.606 121.265 243.971 121.015 244.391 120.845C244.821 120.665 245.301 120.575 245.831 120.575C246.541 120.575 247.156 120.73 247.676 121.04C248.196 121.35 248.596 121.79 248.876 122.36C249.166 122.92 249.311 123.585 249.311 124.355C249.311 124.935 249.231 125.455 249.071 125.915C248.911 126.375 248.676 126.775 248.366 127.115C248.056 127.445 247.686 127.7 247.256 127.88C246.836 128.05 246.361 128.135 245.831 128.135ZM245.831 127.16C246.281 127.16 246.676 127.05 247.016 126.83C247.356 126.61 247.616 126.29 247.796 125.87C247.986 125.45 248.081 124.945 248.081 124.355C248.081 123.445 247.876 122.75 247.466 122.27C247.066 121.79 246.521 121.55 245.831 121.55C245.371 121.55 244.971 121.66 244.631 121.88C244.301 122.09 244.041 122.405 243.851 122.825C243.671 123.235 243.581 123.745 243.581 124.355C243.581 125.255 243.786 125.95 244.196 126.44C244.606 126.92 245.151 127.16 245.831 127.16ZM251.657 128.105C251.457 128.105 251.302 128.05 251.192 127.94C251.092 127.83 251.042 127.675 251.042 127.475V121.4C251.042 121.17 251.102 121 251.222 120.89C251.342 120.77 251.512 120.71 251.732 120.71H256.712C256.932 120.71 257.102 120.77 257.222 120.89C257.342 121 257.402 121.17 257.402 121.4V127.475C257.402 127.675 257.347 127.83 257.237 127.94C257.127 128.05 256.977 128.105 256.787 128.105C256.597 128.105 256.447 128.05 256.337 127.94C256.237 127.83 256.187 127.675 256.187 127.475V121.685H252.257V127.475C252.257 127.675 252.207 127.83 252.107 127.94C252.007 128.05 251.857 128.105 251.657 128.105ZM262.607 128.135C261.897 128.135 261.282 127.98 260.762 127.67C260.242 127.36 259.837 126.925 259.547 126.365C259.267 125.795 259.127 125.125 259.127 124.355C259.127 123.775 259.207 123.255 259.367 122.795C259.527 122.325 259.762 121.925 260.072 121.595C260.382 121.265 260.747 121.015 261.167 120.845C261.597 120.665 262.077 120.575 262.607 120.575C263.317 120.575 263.932 120.73 264.452 121.04C264.972 121.35 265.372 121.79 265.652 122.36C265.942 122.92 266.087 123.585 266.087 124.355C266.087 124.935 266.007 125.455 265.847 125.915C265.687 126.375 265.452 126.775 265.142 127.115C264.832 127.445 264.462 127.7 264.032 127.88C263.612 128.05 263.137 128.135 262.607 128.135ZM262.607 127.16C263.057 127.16 263.452 127.05 263.792 126.83C264.132 126.61 264.392 126.29 264.572 125.87C264.762 125.45 264.857 124.945 264.857 124.355C264.857 123.445 264.652 122.75 264.242 122.27C263.842 121.79 263.297 121.55 262.607 121.55C262.147 121.55 261.747 121.66 261.407 121.88C261.077 122.09 260.817 122.405 260.627 122.825C260.447 123.235 260.357 123.745 260.357 124.355C260.357 125.255 260.562 125.95 260.972 126.44C261.382 126.92 261.927 127.16 262.607 127.16ZM273.267 128.105C273.077 128.105 272.927 128.05 272.817 127.94C272.717 127.83 272.667 127.675 272.667 127.475V121.685H269.727V122.615C269.727 123.395 269.687 124.085 269.607 124.685C269.537 125.275 269.422 125.785 269.262 126.215C269.102 126.645 268.887 127.005 268.617 127.295C268.357 127.585 268.032 127.83 267.642 128.03C267.512 128.09 267.387 128.105 267.267 128.075C267.147 128.055 267.047 128.01 266.967 127.94C266.897 127.86 266.847 127.765 266.817 127.655C266.797 127.545 266.812 127.435 266.862 127.325C266.912 127.215 267.002 127.125 267.132 127.055C267.422 126.895 267.657 126.695 267.837 126.455C268.027 126.215 268.177 125.915 268.287 125.555C268.397 125.195 268.472 124.775 268.512 124.295C268.562 123.805 268.587 123.23 268.587 122.57V121.4C268.587 121.17 268.647 121 268.767 120.89C268.887 120.77 269.057 120.71 269.277 120.71H273.192C273.412 120.71 273.582 120.77 273.702 120.89C273.822 121 273.882 121.17 273.882 121.4V127.475C273.882 127.675 273.827 127.83 273.717 127.94C273.617 128.05 273.467 128.105 273.267 128.105ZM279.09 128.135C278.38 128.135 277.765 127.98 277.245 127.67C276.725 127.36 276.32 126.925 276.03 126.365C275.75 125.795 275.61 125.125 275.61 124.355C275.61 123.775 275.69 123.255 275.85 122.795C276.01 122.325 276.245 121.925 276.555 121.595C276.865 121.265 277.23 121.015 277.65 120.845C278.08 120.665 278.56 120.575 279.09 120.575C279.8 120.575 280.415 120.73 280.935 121.04C281.455 121.35 281.855 121.79 282.135 122.36C282.425 122.92 282.57 123.585 282.57 124.355C282.57 124.935 282.49 125.455 282.33 125.915C282.17 126.375 281.935 126.775 281.625 127.115C281.315 127.445 280.945 127.7 280.515 127.88C280.095 128.05 279.62 128.135 279.09 128.135ZM279.09 127.16C279.54 127.16 279.935 127.05 280.275 126.83C280.615 126.61 280.875 126.29 281.055 125.87C281.245 125.45 281.34 124.945 281.34 124.355C281.34 123.445 281.135 122.75 280.725 122.27C280.325 121.79 279.78 121.55 279.09 121.55C278.63 121.55 278.23 121.66 277.89 121.88C277.56 122.09 277.3 122.405 277.11 122.825C276.93 123.235 276.84 123.745 276.84 124.355C276.84 125.255 277.045 125.95 277.455 126.44C277.865 126.92 278.41 127.16 279.09 127.16ZM288.981 128.105C288.791 128.105 288.641 128.05 288.531 127.94C288.431 127.83 288.381 127.675 288.381 127.475V124.73H287.436C287.166 124.73 286.936 124.76 286.746 124.82C286.556 124.88 286.381 124.99 286.221 125.15C286.071 125.3 285.911 125.515 285.741 125.795L284.556 127.775C284.476 127.905 284.376 127.995 284.256 128.045C284.136 128.095 284.021 128.105 283.911 128.075C283.801 128.055 283.701 128.005 283.611 127.925C283.521 127.845 283.466 127.75 283.446 127.64C283.426 127.53 283.456 127.405 283.536 127.265L284.616 125.48C284.836 125.1 285.041 124.8 285.231 124.58C285.431 124.35 285.631 124.18 285.831 124.07C286.041 123.96 286.286 123.89 286.566 123.86L286.251 124.25L284.121 121.535C284.031 121.405 283.981 121.285 283.971 121.175C283.971 121.055 284.006 120.95 284.076 120.86C284.146 120.77 284.231 120.71 284.331 120.68C284.441 120.64 284.551 120.64 284.661 120.68C284.781 120.71 284.886 120.785 284.976 120.905L287.226 123.755H288.381V121.265C288.381 121.055 288.431 120.9 288.531 120.8C288.641 120.69 288.791 120.635 288.981 120.635C289.181 120.635 289.331 120.69 289.431 120.8C289.541 120.9 289.596 121.055 289.596 121.265V123.755H290.766L292.986 120.905C293.086 120.785 293.196 120.71 293.316 120.68C293.436 120.64 293.546 120.64 293.646 120.68C293.746 120.71 293.831 120.77 293.901 120.86C293.971 120.94 294.001 121.04 293.991 121.16C293.991 121.28 293.946 121.405 293.856 121.535L291.726 124.25L291.411 123.86C291.691 123.89 291.931 123.96 292.131 124.07C292.341 124.18 292.541 124.345 292.731 124.565C292.931 124.785 293.141 125.09 293.361 125.48L294.441 127.265C294.511 127.405 294.536 127.53 294.516 127.64C294.506 127.75 294.456 127.845 294.366 127.925C294.276 128.005 294.171 128.055 294.051 128.075C293.941 128.105 293.831 128.095 293.721 128.045C293.611 127.995 293.511 127.905 293.421 127.775L292.236 125.795C292.066 125.515 291.906 125.3 291.756 125.15C291.606 124.99 291.436 124.88 291.246 124.82C291.056 124.76 290.821 124.73 290.541 124.73H289.596V127.475C289.596 127.675 289.541 127.83 289.431 127.94C289.331 128.05 289.181 128.105 288.981 128.105ZM299.138 128.135C298.368 128.135 297.703 127.985 297.143 127.685C296.593 127.375 296.163 126.94 295.853 126.38C295.553 125.82 295.403 125.15 295.403 124.37C295.403 123.61 295.553 122.95 295.853 122.39C296.153 121.82 296.563 121.375 297.083 121.055C297.613 120.735 298.223 120.575 298.913 120.575C299.403 120.575 299.843 120.66 300.233 120.83C300.623 120.99 300.953 121.225 301.223 121.535C301.503 121.845 301.713 122.22 301.853 122.66C302.003 123.1 302.078 123.595 302.078 124.145C302.078 124.305 302.033 124.425 301.943 124.505C301.853 124.575 301.723 124.61 301.553 124.61H296.333V123.815H301.268L301.028 124.01C301.028 123.47 300.948 123.015 300.788 122.645C300.628 122.265 300.393 121.975 300.083 121.775C299.783 121.575 299.403 121.475 298.943 121.475C298.433 121.475 297.998 121.595 297.638 121.835C297.288 122.065 297.023 122.39 296.843 122.81C296.663 123.22 296.573 123.7 296.573 124.25V124.34C296.573 125.26 296.793 125.96 297.233 126.44C297.683 126.92 298.318 127.16 299.138 127.16C299.478 127.16 299.813 127.115 300.143 127.025C300.483 126.935 300.813 126.785 301.133 126.575C301.273 126.485 301.398 126.445 301.508 126.455C301.628 126.455 301.723 126.49 301.793 126.56C301.863 126.62 301.908 126.7 301.928 126.8C301.958 126.89 301.948 126.99 301.898 127.1C301.858 127.21 301.773 127.305 301.643 127.385C301.313 127.625 300.923 127.81 300.473 127.94C300.023 128.07 299.578 128.135 299.138 128.135ZM304.343 128.105C304.143 128.105 303.988 128.05 303.878 127.94C303.778 127.83 303.728 127.675 303.728 127.475V121.22C303.728 121.01 303.778 120.855 303.878 120.755C303.988 120.655 304.143 120.605 304.343 120.605C304.533 120.605 304.678 120.655 304.778 120.755C304.888 120.855 304.943 121.01 304.943 121.22V123.74H308.918V121.22C308.918 121.01 308.968 120.855 309.068 120.755C309.178 120.655 309.328 120.605 309.518 120.605C309.708 120.605 309.858 120.655 309.968 120.755C310.078 120.855 310.133 121.01 310.133 121.22V127.475C310.133 127.675 310.078 127.83 309.968 127.94C309.858 128.05 309.708 128.105 309.518 128.105C309.328 128.105 309.178 128.05 309.068 127.94C308.968 127.83 308.918 127.675 308.918 127.475V124.73H304.943V127.475C304.943 127.675 304.893 127.83 304.793 127.94C304.693 128.05 304.543 128.105 304.343 128.105ZM312.847 128.105C312.737 128.105 312.637 128.08 312.547 128.03C312.467 127.99 312.402 127.92 312.352 127.82C312.312 127.72 312.292 127.595 312.292 127.445V121.205C312.292 121.005 312.342 120.855 312.442 120.755C312.542 120.655 312.677 120.605 312.847 120.605C313.027 120.605 313.162 120.655 313.252 120.755C313.352 120.855 313.402 121.005 313.402 121.205V126.845H313.027L317.392 120.995C317.472 120.885 317.567 120.795 317.677 120.725C317.787 120.645 317.927 120.605 318.097 120.605C318.217 120.605 318.317 120.625 318.397 120.665C318.477 120.705 318.537 120.775 318.577 120.875C318.627 120.965 318.652 121.09 318.652 121.25V127.505C318.652 127.695 318.602 127.845 318.502 127.955C318.412 128.055 318.277 128.105 318.097 128.105C317.917 128.105 317.777 128.055 317.677 127.955C317.587 127.845 317.542 127.695 317.542 127.505V121.85H317.917L313.537 127.715C313.467 127.815 313.377 127.905 313.267 127.985C313.167 128.065 313.027 128.105 312.847 128.105ZM324.112 128.135C323.342 128.135 322.677 127.985 322.117 127.685C321.567 127.375 321.137 126.94 320.827 126.38C320.527 125.82 320.377 125.15 320.377 124.37C320.377 123.61 320.527 122.95 320.827 122.39C321.127 121.82 321.537 121.375 322.057 121.055C322.587 120.735 323.197 120.575 323.887 120.575C324.377 120.575 324.817 120.66 325.207 120.83C325.597 120.99 325.927 121.225 326.197 121.535C326.477 121.845 326.687 122.22 326.827 122.66C326.977 123.1 327.052 123.595 327.052 124.145C327.052 124.305 327.007 124.425 326.917 124.505C326.827 124.575 326.697 124.61 326.527 124.61H321.307V123.815H326.242L326.002 124.01C326.002 123.47 325.922 123.015 325.762 122.645C325.602 122.265 325.367 121.975 325.057 121.775C324.757 121.575 324.377 121.475 323.917 121.475C323.407 121.475 322.972 121.595 322.612 121.835C322.262 122.065 321.997 122.39 321.817 122.81C321.637 123.22 321.547 123.7 321.547 124.25V124.34C321.547 125.26 321.767 125.96 322.207 126.44C322.657 126.92 323.292 127.16 324.112 127.16C324.452 127.16 324.787 127.115 325.117 127.025C325.457 126.935 325.787 126.785 326.107 126.575C326.247 126.485 326.372 126.445 326.482 126.455C326.602 126.455 326.697 126.49 326.767 126.56C326.837 126.62 326.882 126.7 326.902 126.8C326.932 126.89 326.922 126.99 326.872 127.1C326.832 127.21 326.747 127.305 326.617 127.385C326.287 127.625 325.897 127.81 325.447 127.94C324.997 128.07 324.552 128.135 324.112 128.135ZM329.362 129.425C329.262 129.555 329.157 129.63 329.047 129.65C328.937 129.67 328.842 129.65 328.762 129.59C328.682 129.53 328.637 129.445 328.627 129.335C328.627 129.225 328.677 129.105 328.777 128.975C328.937 128.765 329.047 128.55 329.107 128.33C329.167 128.12 329.197 127.925 329.197 127.745L329.257 128.06C328.997 128.06 328.787 127.985 328.627 127.835C328.477 127.675 328.402 127.475 328.402 127.235C328.402 126.995 328.472 126.8 328.612 126.65C328.762 126.49 328.957 126.41 329.197 126.41C329.457 126.41 329.662 126.5 329.812 126.68C329.962 126.85 330.037 127.1 330.037 127.43C330.037 127.64 330.017 127.855 329.977 128.075C329.937 128.305 329.867 128.535 329.767 128.765C329.667 128.995 329.532 129.215 329.362 129.425ZM59.9891 146.105C59.7991 146.105 59.6491 146.05 59.5391 145.94C59.4391 145.82 59.3891 145.66 59.3891 145.46V143.045C59.1091 143.215 58.8041 143.345 58.4741 143.435C58.1541 143.515 57.8141 143.555 57.4541 143.555C56.4141 143.555 55.6441 143.31 55.1441 142.82C54.6441 142.32 54.3941 141.565 54.3941 140.555V139.22C54.3941 139.02 54.4441 138.87 54.5441 138.77C54.6541 138.66 54.8091 138.605 55.0091 138.605C55.1991 138.605 55.3441 138.66 55.4441 138.77C55.5541 138.87 55.6091 139.02 55.6091 139.22V140.465C55.6091 141.185 55.7641 141.71 56.0741 142.04C56.3941 142.37 56.9041 142.535 57.6041 142.535C57.9641 142.535 58.2841 142.495 58.5641 142.415C58.8441 142.335 59.1141 142.205 59.3741 142.025V139.235C59.3741 138.815 59.5741 138.605 59.9741 138.605C60.1741 138.605 60.3241 138.66 60.4241 138.77C60.5341 138.88 60.5891 139.035 60.5891 139.235V145.46C60.5891 145.66 60.5391 145.82 60.4391 145.94C60.3391 146.05 60.1891 146.105 59.9891 146.105ZM64.8754 146.105C64.6854 146.105 64.5354 146.05 64.4254 145.94C64.3154 145.83 64.2604 145.675 64.2604 145.475V139.685H62.0704C61.6904 139.685 61.5004 139.52 61.5004 139.19C61.5004 139.04 61.5504 138.925 61.6504 138.845C61.7504 138.755 61.8904 138.71 62.0704 138.71H67.6804C68.0504 138.71 68.2354 138.87 68.2354 139.19C68.2354 139.35 68.1854 139.475 68.0854 139.565C67.9954 139.645 67.8604 139.685 67.6804 139.685H65.4754V145.475C65.4754 145.675 65.4254 145.83 65.3254 145.94C65.2354 146.05 65.0854 146.105 64.8754 146.105ZM72.1862 146.135C71.4762 146.135 70.8612 145.98 70.3412 145.67C69.8212 145.36 69.4162 144.925 69.1262 144.365C68.8462 143.795 68.7062 143.125 68.7062 142.355C68.7062 141.775 68.7862 141.255 68.9462 140.795C69.1062 140.325 69.3412 139.925 69.6512 139.595C69.9612 139.265 70.3262 139.015 70.7462 138.845C71.1762 138.665 71.6562 138.575 72.1862 138.575C72.8962 138.575 73.5112 138.73 74.0312 139.04C74.5512 139.35 74.9512 139.79 75.2312 140.36C75.5212 140.92 75.6662 141.585 75.6662 142.355C75.6662 142.935 75.5862 143.455 75.4262 143.915C75.2662 144.375 75.0312 144.775 74.7212 145.115C74.4112 145.445 74.0412 145.7 73.6112 145.88C73.1912 146.05 72.7162 146.135 72.1862 146.135ZM72.1862 145.16C72.6362 145.16 73.0312 145.05 73.3712 144.83C73.7112 144.61 73.9712 144.29 74.1512 143.87C74.3412 143.45 74.4362 142.945 74.4362 142.355C74.4362 141.445 74.2312 140.75 73.8212 140.27C73.4212 139.79 72.8762 139.55 72.1862 139.55C71.7262 139.55 71.3262 139.66 70.9862 139.88C70.6562 140.09 70.3962 140.405 70.2062 140.825C70.0262 141.235 69.9362 141.745 69.9362 142.355C69.9362 143.255 70.1412 143.95 70.5512 144.44C70.9612 144.92 71.5062 145.16 72.1862 145.16ZM80.4723 146.135C79.7523 146.135 79.1273 145.98 78.5973 145.67C78.0773 145.35 77.6723 144.88 77.3823 144.26C77.1023 143.64 76.9623 142.88 76.9623 141.98V140.855C76.9623 139.885 77.0873 139.075 77.3373 138.425C77.5973 137.775 77.9873 137.25 78.5073 136.85C79.0373 136.45 79.6923 136.145 80.4723 135.935L82.6623 135.32C82.8423 135.27 82.9923 135.275 83.1123 135.335C83.2423 135.395 83.3223 135.505 83.3523 135.665C83.3923 135.835 83.3673 135.98 83.2773 136.1C83.1973 136.22 83.0673 136.305 82.8873 136.355L80.5623 136.985C80.0223 137.135 79.5723 137.36 79.2123 137.66C78.8523 137.96 78.5823 138.33 78.4023 138.77C78.2223 139.2 78.1323 139.69 78.1323 140.24V140.825H77.9223C78.0423 140.385 78.2323 140.005 78.4923 139.685C78.7523 139.365 79.0723 139.12 79.4523 138.95C79.8423 138.77 80.2723 138.68 80.7423 138.68C81.3723 138.68 81.9273 138.83 82.4073 139.13C82.8873 139.43 83.2573 139.855 83.5173 140.405C83.7873 140.955 83.9223 141.61 83.9223 142.37C83.9223 143.13 83.7773 143.795 83.4873 144.365C83.2073 144.925 82.8073 145.36 82.2873 145.67C81.7773 145.98 81.1723 146.135 80.4723 146.135ZM80.4273 145.16C80.9073 145.16 81.3123 145.055 81.6423 144.845C81.9823 144.625 82.2423 144.31 82.4223 143.9C82.6023 143.49 82.6923 142.99 82.6923 142.4C82.6923 141.53 82.4923 140.855 82.0923 140.375C81.6923 139.895 81.1423 139.655 80.4423 139.655C79.9723 139.655 79.5673 139.76 79.2273 139.97C78.8973 140.18 78.6423 140.485 78.4623 140.885C78.2823 141.275 78.1923 141.745 78.1923 142.295C78.1923 143.235 78.3873 143.95 78.7773 144.44C79.1773 144.92 79.7273 145.16 80.4273 145.16ZM86.2834 146C86.0834 146 85.9284 145.945 85.8184 145.835C85.7084 145.725 85.6534 145.57 85.6534 145.37V139.22C85.6534 139.01 85.7034 138.855 85.8034 138.755C85.9134 138.655 86.0684 138.605 86.2684 138.605C86.4584 138.605 86.6034 138.655 86.7034 138.755C86.8134 138.855 86.8684 139.01 86.8684 139.22V141.305H89.0734C90.0034 141.305 90.7084 141.51 91.1884 141.92C91.6684 142.32 91.9084 142.89 91.9084 143.63C91.9084 144.12 91.7934 144.545 91.5634 144.905C91.3434 145.255 91.0234 145.525 90.6034 145.715C90.1934 145.905 89.6834 146 89.0734 146H86.2834ZM86.8684 145.13H88.9534C89.5234 145.13 89.9634 145.01 90.2734 144.77C90.5834 144.52 90.7384 144.145 90.7384 143.645C90.7384 143.135 90.5834 142.765 90.2734 142.535C89.9634 142.295 89.5234 142.175 88.9534 142.175H86.8684V145.13ZM93.5884 146.105C93.3984 146.105 93.2484 146.05 93.1384 145.94C93.0384 145.83 92.9884 145.675 92.9884 145.475V139.22C92.9884 139.01 93.0384 138.855 93.1384 138.755C93.2484 138.655 93.3984 138.605 93.5884 138.605C93.7884 138.605 93.9384 138.655 94.0384 138.755C94.1484 138.855 94.2034 139.01 94.2034 139.22V145.475C94.2034 145.895 93.9984 146.105 93.5884 146.105ZM100.613 146.105C100.413 146.105 100.258 146.05 100.148 145.94C100.048 145.83 99.9976 145.675 99.9976 145.475V139.22C99.9976 139.01 100.048 138.855 100.148 138.755C100.258 138.655 100.413 138.605 100.613 138.605C100.803 138.605 100.948 138.655 101.048 138.755C101.158 138.855 101.213 139.01 101.213 139.22V141.74H105.188V139.22C105.188 139.01 105.238 138.855 105.338 138.755C105.448 138.655 105.598 138.605 105.788 138.605C105.978 138.605 106.128 138.655 106.238 138.755C106.348 138.855 106.403 139.01 106.403 139.22V145.475C106.403 145.675 106.348 145.83 106.238 145.94C106.128 146.05 105.978 146.105 105.788 146.105C105.598 146.105 105.448 146.05 105.338 145.94C105.238 145.83 105.188 145.675 105.188 145.475V142.73H101.213V145.475C101.213 145.675 101.163 145.83 101.063 145.94C100.963 146.05 100.813 146.105 100.613 146.105ZM111.861 146.135C111.091 146.135 110.426 145.985 109.866 145.685C109.316 145.375 108.886 144.94 108.576 144.38C108.276 143.82 108.126 143.15 108.126 142.37C108.126 141.61 108.276 140.95 108.576 140.39C108.876 139.82 109.286 139.375 109.806 139.055C110.336 138.735 110.946 138.575 111.636 138.575C112.126 138.575 112.566 138.66 112.956 138.83C113.346 138.99 113.676 139.225 113.946 139.535C114.226 139.845 114.436 140.22 114.576 140.66C114.726 141.1 114.801 141.595 114.801 142.145C114.801 142.305 114.756 142.425 114.666 142.505C114.576 142.575 114.446 142.61 114.276 142.61H109.056V141.815H113.991L113.751 142.01C113.751 141.47 113.671 141.015 113.511 140.645C113.351 140.265 113.116 139.975 112.806 139.775C112.506 139.575 112.126 139.475 111.666 139.475C111.156 139.475 110.721 139.595 110.361 139.835C110.011 140.065 109.746 140.39 109.566 140.81C109.386 141.22 109.296 141.7 109.296 142.25V142.34C109.296 143.26 109.516 143.96 109.956 144.44C110.406 144.92 111.041 145.16 111.861 145.16C112.201 145.16 112.536 145.115 112.866 145.025C113.206 144.935 113.536 144.785 113.856 144.575C113.996 144.485 114.121 144.445 114.231 144.455C114.351 144.455 114.446 144.49 114.516 144.56C114.586 144.62 114.631 144.7 114.651 144.8C114.681 144.89 114.671 144.99 114.621 145.1C114.581 145.21 114.496 145.305 114.366 145.385C114.036 145.625 113.646 145.81 113.196 145.94C112.746 146.07 112.301 146.135 111.861 146.135ZM122.208 146.105C122.018 146.105 121.868 146.05 121.758 145.94C121.648 145.83 121.593 145.675 121.593 145.475V139.685H119.403C119.023 139.685 118.833 139.52 118.833 139.19C118.833 139.04 118.883 138.925 118.983 138.845C119.083 138.755 119.223 138.71 119.403 138.71H125.013C125.383 138.71 125.568 138.87 125.568 139.19C125.568 139.35 125.518 139.475 125.418 139.565C125.328 139.645 125.193 139.685 125.013 139.685H122.808V145.475C122.808 145.675 122.758 145.83 122.658 145.94C122.568 146.05 122.418 146.105 122.208 146.105ZM127.118 148.805C126.918 148.805 126.768 148.75 126.668 148.64C126.568 148.54 126.518 148.39 126.518 148.19V139.22C126.518 139.02 126.568 138.87 126.668 138.77C126.768 138.66 126.913 138.605 127.103 138.605C127.303 138.605 127.453 138.66 127.553 138.77C127.663 138.87 127.718 139.02 127.718 139.22V140.645L127.553 140.435C127.713 139.865 128.028 139.415 128.498 139.085C128.978 138.745 129.548 138.575 130.208 138.575C130.858 138.575 131.423 138.73 131.903 139.04C132.393 139.34 132.768 139.775 133.028 140.345C133.298 140.905 133.433 141.575 133.433 142.355C133.433 143.125 133.298 143.795 133.028 144.365C132.768 144.925 132.398 145.36 131.918 145.67C131.438 145.98 130.868 146.135 130.208 146.135C129.548 146.135 128.983 145.97 128.513 145.64C128.043 145.3 127.723 144.85 127.553 144.29H127.733V148.19C127.733 148.39 127.678 148.54 127.568 148.64C127.458 148.75 127.308 148.805 127.118 148.805ZM129.953 145.16C130.413 145.16 130.808 145.05 131.138 144.83C131.478 144.61 131.738 144.29 131.918 143.87C132.108 143.45 132.203 142.945 132.203 142.355C132.203 141.445 131.998 140.75 131.588 140.27C131.188 139.79 130.643 139.55 129.953 139.55C129.503 139.55 129.108 139.66 128.768 139.88C128.428 140.09 128.163 140.405 127.973 140.825C127.793 141.235 127.703 141.745 127.703 142.355C127.703 143.255 127.908 143.95 128.318 144.44C128.728 144.92 129.273 145.16 129.953 145.16ZM137.465 146.135C136.965 146.135 136.515 146.04 136.115 145.85C135.725 145.65 135.415 145.38 135.185 145.04C134.955 144.7 134.84 144.32 134.84 143.9C134.84 143.36 134.975 142.935 135.245 142.625C135.525 142.315 135.98 142.095 136.61 141.965C137.25 141.835 138.12 141.77 139.22 141.77H139.895V142.565H139.235C138.425 142.565 137.785 142.605 137.315 142.685C136.855 142.755 136.53 142.88 136.34 143.06C136.16 143.24 136.07 143.495 136.07 143.825C136.07 144.235 136.21 144.57 136.49 144.83C136.78 145.09 137.17 145.22 137.66 145.22C138.06 145.22 138.41 145.125 138.71 144.935C139.02 144.745 139.26 144.485 139.43 144.155C139.61 143.825 139.7 143.445 139.7 143.015V141.305C139.7 140.685 139.575 140.24 139.325 139.97C139.075 139.69 138.665 139.55 138.095 139.55C137.745 139.55 137.395 139.595 137.045 139.685C136.695 139.775 136.325 139.92 135.935 140.12C135.795 140.19 135.675 140.215 135.575 140.195C135.475 140.165 135.395 140.11 135.335 140.03C135.275 139.95 135.24 139.86 135.23 139.76C135.22 139.65 135.24 139.545 135.29 139.445C135.35 139.345 135.44 139.265 135.56 139.205C136 138.985 136.435 138.825 136.865 138.725C137.295 138.625 137.705 138.575 138.095 138.575C138.725 138.575 139.245 138.68 139.655 138.89C140.065 139.09 140.37 139.4 140.57 139.82C140.77 140.23 140.87 140.76 140.87 141.41V145.475C140.87 145.675 140.82 145.83 140.72 145.94C140.63 146.05 140.495 146.105 140.315 146.105C140.125 146.105 139.98 146.05 139.88 145.94C139.78 145.83 139.73 145.675 139.73 145.475V144.305H139.865C139.785 144.685 139.63 145.01 139.4 145.28C139.18 145.55 138.905 145.76 138.575 145.91C138.245 146.06 137.875 146.135 137.465 146.135ZM145.131 146.105C144.941 146.105 144.791 146.05 144.681 145.94C144.571 145.83 144.516 145.675 144.516 145.475V139.685H142.326C141.946 139.685 141.756 139.52 141.756 139.19C141.756 139.04 141.806 138.925 141.906 138.845C142.006 138.755 142.146 138.71 142.326 138.71H147.936C148.306 138.71 148.491 138.87 148.491 139.19C148.491 139.35 148.441 139.475 148.341 139.565C148.251 139.645 148.116 139.685 147.936 139.685H145.731V145.475C145.731 145.675 145.681 145.83 145.581 145.94C145.491 146.05 145.341 146.105 145.131 146.105ZM149.981 146.105C149.871 146.105 149.771 146.08 149.681 146.03C149.601 145.99 149.536 145.92 149.486 145.82C149.446 145.72 149.426 145.595 149.426 145.445V139.205C149.426 139.005 149.476 138.855 149.576 138.755C149.676 138.655 149.811 138.605 149.981 138.605C150.161 138.605 150.296 138.655 150.386 138.755C150.486 138.855 150.536 139.005 150.536 139.205V144.845H150.161L154.526 138.995C154.606 138.885 154.701 138.795 154.811 138.725C154.921 138.645 155.061 138.605 155.231 138.605C155.351 138.605 155.451 138.625 155.531 138.665C155.611 138.705 155.671 138.775 155.711 138.875C155.761 138.965 155.786 139.09 155.786 139.25V145.505C155.786 145.695 155.736 145.845 155.636 145.955C155.546 146.055 155.411 146.105 155.231 146.105C155.051 146.105 154.911 146.055 154.811 145.955C154.721 145.845 154.676 145.695 154.676 145.505V139.85H155.051L150.671 145.715C150.601 145.815 150.511 145.905 150.401 145.985C150.301 146.065 150.161 146.105 149.981 146.105ZM160.076 146.105C159.886 146.105 159.736 146.05 159.626 145.94C159.516 145.83 159.461 145.675 159.461 145.475V139.685H157.271C156.891 139.685 156.701 139.52 156.701 139.19C156.701 139.04 156.751 138.925 156.851 138.845C156.951 138.755 157.091 138.71 157.271 138.71H162.881C163.251 138.71 163.436 138.87 163.436 139.19C163.436 139.35 163.386 139.475 163.286 139.565C163.196 139.645 163.061 139.685 162.881 139.685H160.676V145.475C160.676 145.675 160.626 145.83 160.526 145.94C160.436 146.05 160.286 146.105 160.076 146.105ZM165.001 146C164.801 146 164.646 145.945 164.536 145.835C164.426 145.725 164.371 145.57 164.371 145.37V139.22C164.371 139.01 164.421 138.855 164.521 138.755C164.631 138.655 164.786 138.605 164.986 138.605C165.176 138.605 165.321 138.655 165.421 138.755C165.531 138.855 165.586 139.01 165.586 139.22V141.305H167.791C168.721 141.305 169.426 141.51 169.906 141.92C170.386 142.32 170.626 142.89 170.626 143.63C170.626 144.12 170.511 144.545 170.281 144.905C170.061 145.255 169.741 145.525 169.321 145.715C168.911 145.905 168.401 146 167.791 146H165.001ZM165.586 145.13H167.671C168.241 145.13 168.681 145.01 168.991 144.77C169.301 144.52 169.456 144.145 169.456 143.645C169.456 143.135 169.301 142.765 168.991 142.535C168.681 142.295 168.241 142.175 167.671 142.175H165.586V145.13ZM176.445 146C176.245 146 176.09 145.945 175.98 145.835C175.87 145.725 175.815 145.57 175.815 145.37V139.34C175.815 139.14 175.87 138.985 175.98 138.875C176.09 138.765 176.245 138.71 176.445 138.71H179.37C179.95 138.71 180.425 138.785 180.795 138.935C181.165 139.075 181.44 139.29 181.62 139.58C181.8 139.86 181.89 140.21 181.89 140.63C181.89 141.09 181.725 141.48 181.395 141.8C181.075 142.12 180.655 142.31 180.135 142.37V142.175C180.755 142.195 181.24 142.37 181.59 142.7C181.95 143.03 182.13 143.46 182.13 143.99C182.13 144.61 181.9 145.1 181.44 145.46C180.98 145.82 180.33 146 179.49 146H176.445ZM176.97 145.175H179.445C179.935 145.175 180.31 145.07 180.57 144.86C180.84 144.64 180.975 144.33 180.975 143.93C180.975 143.53 180.84 143.225 180.57 143.015C180.31 142.805 179.935 142.7 179.445 142.7H176.97V145.175ZM176.97 141.875H179.31C179.76 141.875 180.11 141.77 180.36 141.56C180.62 141.35 180.75 141.06 180.75 140.69C180.75 140.32 180.62 140.035 180.36 139.835C180.11 139.635 179.76 139.535 179.31 139.535H176.97V141.875ZM184.393 148.805C184.193 148.805 184.043 148.75 183.943 148.64C183.843 148.54 183.793 148.39 183.793 148.19V139.22C183.793 139.02 183.843 138.87 183.943 138.77C184.043 138.66 184.188 138.605 184.378 138.605C184.578 138.605 184.728 138.66 184.828 138.77C184.938 138.87 184.993 139.02 184.993 139.22V140.645L184.828 140.435C184.988 139.865 185.303 139.415 185.773 139.085C186.253 138.745 186.823 138.575 187.483 138.575C188.133 138.575 188.698 138.73 189.178 139.04C189.668 139.34 190.043 139.775 190.303 140.345C190.573 140.905 190.708 141.575 190.708 142.355C190.708 143.125 190.573 143.795 190.303 144.365C190.043 144.925 189.673 145.36 189.193 145.67C188.713 145.98 188.143 146.135 187.483 146.135C186.823 146.135 186.258 145.97 185.788 145.64C185.318 145.3 184.998 144.85 184.828 144.29H185.008V148.19C185.008 148.39 184.953 148.54 184.843 148.64C184.733 148.75 184.583 148.805 184.393 148.805ZM187.228 145.16C187.688 145.16 188.083 145.05 188.413 144.83C188.753 144.61 189.013 144.29 189.193 143.87C189.383 143.45 189.478 142.945 189.478 142.355C189.478 141.445 189.273 140.75 188.863 140.27C188.463 139.79 187.918 139.55 187.228 139.55C186.778 139.55 186.383 139.66 186.043 139.88C185.703 140.09 185.438 140.405 185.248 140.825C185.068 141.235 184.978 141.745 184.978 142.355C184.978 143.255 185.183 143.95 185.593 144.44C186.003 144.92 186.548 145.16 187.228 145.16ZM195.729 146.135C194.959 146.135 194.294 145.985 193.734 145.685C193.184 145.375 192.754 144.94 192.444 144.38C192.144 143.82 191.994 143.15 191.994 142.37C191.994 141.61 192.144 140.95 192.444 140.39C192.744 139.82 193.154 139.375 193.674 139.055C194.204 138.735 194.814 138.575 195.504 138.575C195.994 138.575 196.434 138.66 196.824 138.83C197.214 138.99 197.544 139.225 197.814 139.535C198.094 139.845 198.304 140.22 198.444 140.66C198.594 141.1 198.669 141.595 198.669 142.145C198.669 142.305 198.624 142.425 198.534 142.505C198.444 142.575 198.314 142.61 198.144 142.61H192.924V141.815H197.859L197.619 142.01C197.619 141.47 197.539 141.015 197.379 140.645C197.219 140.265 196.984 139.975 196.674 139.775C196.374 139.575 195.994 139.475 195.534 139.475C195.024 139.475 194.589 139.595 194.229 139.835C193.879 140.065 193.614 140.39 193.434 140.81C193.254 141.22 193.164 141.7 193.164 142.25V142.34C193.164 143.26 193.384 143.96 193.824 144.44C194.274 144.92 194.909 145.16 195.729 145.16C196.069 145.16 196.404 145.115 196.734 145.025C197.074 144.935 197.404 144.785 197.724 144.575C197.864 144.485 197.989 144.445 198.099 144.455C198.219 144.455 198.314 144.49 198.384 144.56C198.454 144.62 198.499 144.7 198.519 144.8C198.549 144.89 198.539 144.99 198.489 145.1C198.449 145.21 198.364 145.305 198.234 145.385C197.904 145.625 197.514 145.81 197.064 145.94C196.614 146.07 196.169 146.135 195.729 146.135ZM200.859 146.105C200.689 146.105 200.554 146.055 200.454 145.955C200.364 145.845 200.319 145.7 200.319 145.52V139.25C200.319 139.11 200.339 138.995 200.379 138.905C200.419 138.805 200.479 138.73 200.559 138.68C200.639 138.63 200.739 138.605 200.859 138.605C200.979 138.605 201.079 138.625 201.159 138.665C201.239 138.695 201.309 138.745 201.369 138.815C201.429 138.875 201.479 138.95 201.519 139.04L204.069 143.585L206.619 139.04C206.659 138.95 206.709 138.875 206.769 138.815C206.829 138.745 206.899 138.695 206.979 138.665C207.059 138.625 207.154 138.605 207.264 138.605C207.444 138.605 207.579 138.66 207.669 138.77C207.759 138.87 207.804 139.03 207.804 139.25V145.52C207.804 145.7 207.759 145.845 207.669 145.955C207.579 146.055 207.444 146.105 207.264 146.105C207.094 146.105 206.959 146.055 206.859 145.955C206.769 145.845 206.724 145.7 206.724 145.52V140.105H207.069L204.504 144.605C204.464 144.685 204.409 144.755 204.339 144.815C204.269 144.865 204.179 144.89 204.069 144.89C203.949 144.89 203.854 144.86 203.784 144.8C203.724 144.74 203.669 144.675 203.619 144.605L201.054 140.105H201.399V145.52C201.399 145.7 201.349 145.845 201.249 145.955C201.159 146.055 201.029 146.105 200.859 146.105ZM215.082 146.105C214.892 146.105 214.747 146.055 214.647 145.955C214.547 145.845 214.497 145.7 214.497 145.52V143.225H213.432C213.042 143.225 212.707 143.325 212.427 143.525C212.147 143.725 211.922 143.97 211.752 144.26L210.897 145.76C210.807 145.91 210.702 146.01 210.582 146.06C210.462 146.11 210.342 146.12 210.222 146.09C210.102 146.06 209.997 146 209.907 145.91C209.817 145.82 209.762 145.715 209.742 145.595C209.722 145.465 209.752 145.33 209.832 145.19L210.552 143.975C210.722 143.675 210.947 143.425 211.227 143.225C211.507 143.025 211.792 142.925 212.082 142.925H212.277V143.06C211.457 143.06 210.822 142.87 210.372 142.49C209.922 142.11 209.697 141.58 209.697 140.9C209.697 140.45 209.792 140.065 209.982 139.745C210.182 139.415 210.482 139.16 210.882 138.98C211.282 138.8 211.777 138.71 212.367 138.71H215.007C215.217 138.71 215.377 138.765 215.487 138.875C215.597 138.985 215.652 139.14 215.652 139.34V145.52C215.652 145.7 215.597 145.845 215.487 145.955C215.387 146.055 215.252 146.105 215.082 146.105ZM212.592 142.34H214.497V139.565H212.592C212.002 139.565 211.567 139.69 211.287 139.94C211.007 140.18 210.867 140.515 210.867 140.945C210.867 141.385 211.007 141.73 211.287 141.98C211.567 142.22 212.002 142.34 212.592 142.34ZM222.055 146.105C221.855 146.105 221.7 146.05 221.59 145.94C221.49 145.83 221.44 145.675 221.44 145.475V139.22C221.44 139.01 221.49 138.855 221.59 138.755C221.7 138.655 221.855 138.605 222.055 138.605C222.245 138.605 222.39 138.655 222.49 138.755C222.6 138.855 222.655 139.01 222.655 139.22V141.74H226.63V139.22C226.63 139.01 226.68 138.855 226.78 138.755C226.89 138.655 227.04 138.605 227.23 138.605C227.42 138.605 227.57 138.655 227.68 138.755C227.79 138.855 227.845 139.01 227.845 139.22V145.475C227.845 145.675 227.79 145.83 227.68 145.94C227.57 146.05 227.42 146.105 227.23 146.105C227.04 146.105 226.89 146.05 226.78 145.94C226.68 145.83 226.63 145.675 226.63 145.475V142.73H222.655V145.475C222.655 145.675 222.605 145.83 222.505 145.94C222.405 146.05 222.255 146.105 222.055 146.105ZM232.314 146.135C231.814 146.135 231.364 146.04 230.964 145.85C230.574 145.65 230.264 145.38 230.034 145.04C229.804 144.7 229.689 144.32 229.689 143.9C229.689 143.36 229.824 142.935 230.094 142.625C230.374 142.315 230.829 142.095 231.459 141.965C232.099 141.835 232.969 141.77 234.069 141.77H234.744V142.565H234.084C233.274 142.565 232.634 142.605 232.164 142.685C231.704 142.755 231.379 142.88 231.189 143.06C231.009 143.24 230.919 143.495 230.919 143.825C230.919 144.235 231.059 144.57 231.339 144.83C231.629 145.09 232.019 145.22 232.509 145.22C232.909 145.22 233.259 145.125 233.559 144.935C233.869 144.745 234.109 144.485 234.279 144.155C234.459 143.825 234.549 143.445 234.549 143.015V141.305C234.549 140.685 234.424 140.24 234.174 139.97C233.924 139.69 233.514 139.55 232.944 139.55C232.594 139.55 232.244 139.595 231.894 139.685C231.544 139.775 231.174 139.92 230.784 140.12C230.644 140.19 230.524 140.215 230.424 140.195C230.324 140.165 230.244 140.11 230.184 140.03C230.124 139.95 230.089 139.86 230.079 139.76C230.069 139.65 230.089 139.545 230.139 139.445C230.199 139.345 230.289 139.265 230.409 139.205C230.849 138.985 231.284 138.825 231.714 138.725C232.144 138.625 232.554 138.575 232.944 138.575C233.574 138.575 234.094 138.68 234.504 138.89C234.914 139.09 235.219 139.4 235.419 139.82C235.619 140.23 235.719 140.76 235.719 141.41V145.475C235.719 145.675 235.669 145.83 235.569 145.94C235.479 146.05 235.344 146.105 235.164 146.105C234.974 146.105 234.829 146.05 234.729 145.94C234.629 145.83 234.579 145.675 234.579 145.475V144.305H234.714C234.634 144.685 234.479 145.01 234.249 145.28C234.029 145.55 233.754 145.76 233.424 145.91C233.094 146.06 232.724 146.135 232.314 146.135ZM242.092 146.105C241.892 146.105 241.737 146.05 241.627 145.94C241.527 145.83 241.477 145.675 241.477 145.475V139.4C241.477 139.17 241.537 139 241.657 138.89C241.777 138.77 241.947 138.71 242.167 138.71H247.147C247.367 138.71 247.537 138.77 247.657 138.89C247.777 139 247.837 139.17 247.837 139.4V145.475C247.837 145.675 247.782 145.83 247.672 145.94C247.562 146.05 247.412 146.105 247.222 146.105C247.032 146.105 246.882 146.05 246.772 145.94C246.672 145.83 246.622 145.675 246.622 145.475V139.685H242.692V145.475C242.692 145.675 242.642 145.83 242.542 145.94C242.442 146.05 242.292 146.105 242.092 146.105ZM253.042 146.135C252.332 146.135 251.717 145.98 251.197 145.67C250.677 145.36 250.272 144.925 249.982 144.365C249.702 143.795 249.562 143.125 249.562 142.355C249.562 141.775 249.642 141.255 249.802 140.795C249.962 140.325 250.197 139.925 250.507 139.595C250.817 139.265 251.182 139.015 251.602 138.845C252.032 138.665 252.512 138.575 253.042 138.575C253.752 138.575 254.367 138.73 254.887 139.04C255.407 139.35 255.807 139.79 256.087 140.36C256.377 140.92 256.522 141.585 256.522 142.355C256.522 142.935 256.442 143.455 256.282 143.915C256.122 144.375 255.887 144.775 255.577 145.115C255.267 145.445 254.897 145.7 254.467 145.88C254.047 146.05 253.572 146.135 253.042 146.135ZM253.042 145.16C253.492 145.16 253.887 145.05 254.227 144.83C254.567 144.61 254.827 144.29 255.007 143.87C255.197 143.45 255.292 142.945 255.292 142.355C255.292 141.445 255.087 140.75 254.677 140.27C254.277 139.79 253.732 139.55 253.042 139.55C252.582 139.55 252.182 139.66 251.842 139.88C251.512 140.09 251.252 140.405 251.062 140.825C250.882 141.235 250.792 141.745 250.792 142.355C250.792 143.255 250.997 143.95 251.407 144.44C251.817 144.92 252.362 145.16 253.042 145.16ZM258.808 146.105C258.698 146.105 258.598 146.08 258.508 146.03C258.428 145.99 258.363 145.92 258.313 145.82C258.273 145.72 258.253 145.595 258.253 145.445V139.205C258.253 139.005 258.303 138.855 258.403 138.755C258.503 138.655 258.638 138.605 258.808 138.605C258.988 138.605 259.123 138.655 259.213 138.755C259.313 138.855 259.363 139.005 259.363 139.205V144.845H258.988L263.353 138.995C263.433 138.885 263.528 138.795 263.638 138.725C263.748 138.645 263.888 138.605 264.058 138.605C264.178 138.605 264.278 138.625 264.358 138.665C264.438 138.705 264.498 138.775 264.538 138.875C264.588 138.965 264.613 139.09 264.613 139.25V145.505C264.613 145.695 264.563 145.845 264.463 145.955C264.373 146.055 264.238 146.105 264.058 146.105C263.878 146.105 263.738 146.055 263.638 145.955C263.548 145.845 263.503 145.695 263.503 145.505V139.85H263.878L259.498 145.715C259.428 145.815 259.338 145.905 259.228 145.985C259.128 146.065 258.988 146.105 258.808 146.105ZM269.878 146.135C269.148 146.135 268.518 145.975 267.988 145.655C267.458 145.335 267.048 144.89 266.758 144.32C266.478 143.74 266.338 143.07 266.338 142.31C266.338 141.73 266.418 141.21 266.578 140.75C266.738 140.29 266.973 139.9 267.283 139.58C267.593 139.25 267.963 139 268.393 138.83C268.833 138.66 269.328 138.575 269.878 138.575C270.238 138.575 270.613 138.63 271.003 138.74C271.393 138.85 271.748 139.04 272.068 139.31C272.168 139.38 272.233 139.465 272.263 139.565C272.293 139.665 272.293 139.765 272.263 139.865C272.233 139.955 272.183 140.035 272.113 140.105C272.043 140.165 271.953 140.2 271.843 140.21C271.743 140.22 271.638 140.185 271.528 140.105C271.268 139.905 271.003 139.765 270.733 139.685C270.463 139.605 270.203 139.565 269.953 139.565C269.563 139.565 269.223 139.63 268.933 139.76C268.643 139.88 268.398 140.055 268.198 140.285C267.998 140.515 267.843 140.8 267.733 141.14C267.633 141.48 267.583 141.875 267.583 142.325C267.583 143.195 267.788 143.885 268.198 144.395C268.608 144.895 269.193 145.145 269.953 145.145C270.203 145.145 270.458 145.105 270.718 145.025C270.988 144.945 271.258 144.805 271.528 144.605C271.638 144.525 271.743 144.49 271.843 144.5C271.943 144.51 272.028 144.55 272.098 144.62C272.168 144.68 272.213 144.76 272.233 144.86C272.263 144.96 272.263 145.06 272.233 145.16C272.203 145.25 272.138 145.33 272.038 145.4C271.718 145.66 271.368 145.85 270.988 145.97C270.608 146.08 270.238 146.135 269.878 146.135ZM274.237 146.105C274.037 146.105 273.882 146.05 273.772 145.94C273.672 145.83 273.622 145.675 273.622 145.475V139.265C273.622 139.055 273.672 138.9 273.772 138.8C273.882 138.69 274.037 138.635 274.237 138.635C274.427 138.635 274.572 138.69 274.672 138.8C274.782 138.9 274.837 139.055 274.837 139.265V141.755H276.202L278.422 138.905C278.522 138.785 278.632 138.71 278.752 138.68C278.872 138.64 278.982 138.64 279.082 138.68C279.192 138.71 279.277 138.77 279.337 138.86C279.407 138.94 279.442 139.04 279.442 139.16C279.442 139.28 279.397 139.405 279.307 139.535L277.192 142.25L276.847 141.86C277.127 141.89 277.372 141.96 277.582 142.07C277.792 142.18 277.992 142.345 278.182 142.565C278.372 142.785 278.577 143.09 278.797 143.48L279.877 145.265C279.947 145.405 279.972 145.53 279.952 145.64C279.942 145.75 279.892 145.85 279.802 145.94C279.712 146.02 279.607 146.07 279.487 146.09C279.377 146.11 279.267 146.095 279.157 146.045C279.047 145.995 278.947 145.905 278.857 145.775L277.672 143.795C277.502 143.515 277.342 143.3 277.192 143.15C277.042 142.99 276.872 142.88 276.682 142.82C276.492 142.76 276.257 142.73 275.977 142.73H274.837V145.475C274.837 145.675 274.782 145.83 274.672 145.94C274.572 146.05 274.427 146.105 274.237 146.105ZM281.803 146.06C281.553 146.06 281.353 145.985 281.203 145.835C281.053 145.675 280.978 145.475 280.978 145.235C280.978 144.995 281.053 144.8 281.203 144.65C281.353 144.49 281.553 144.41 281.803 144.41C282.053 144.41 282.248 144.49 282.388 144.65C282.538 144.8 282.613 144.995 282.613 145.235C282.613 145.475 282.538 145.675 282.388 145.835C282.248 145.985 282.053 146.06 281.803 146.06Z" fill="#ACD8E7"/>
<rect x="87" y="174" width="163" height="44" rx="10" fill="#FEB800"/>
<path d="M136.685 203.422C136.153 203.422 135.887 203.151 135.887 202.61V200.398C135.887 199.847 136.167 199.572 136.727 199.572H136.867C137.745 198.471 138.183 196.515 138.183 193.706V192.082C138.183 191.447 138.501 191.13 139.135 191.13H144.217C144.852 191.13 145.169 191.447 145.169 192.082V199.572H145.729C146.289 199.572 146.569 199.847 146.569 200.398V202.61C146.569 203.151 146.308 203.422 145.785 203.422C145.244 203.422 144.973 203.151 144.973 202.61V201H137.483V202.61C137.483 203.151 137.217 203.422 136.685 203.422ZM138.687 199.572H143.363V192.558H139.849V193.874C139.849 195.218 139.751 196.352 139.555 197.276C139.369 198.2 139.079 198.965 138.687 199.572ZM151.005 201.14C150.296 201.14 149.68 200.995 149.157 200.706C148.634 200.417 148.228 200.006 147.939 199.474C147.65 198.933 147.505 198.298 147.505 197.57C147.505 196.842 147.65 196.212 147.939 195.68C148.228 195.148 148.634 194.737 149.157 194.448C149.68 194.159 150.296 194.014 151.005 194.014C151.714 194.014 152.33 194.159 152.853 194.448C153.376 194.737 153.782 195.148 154.071 195.68C154.36 196.212 154.505 196.842 154.505 197.57C154.505 198.298 154.36 198.933 154.071 199.474C153.782 200.006 153.376 200.417 152.853 200.706C152.33 200.995 151.714 201.14 151.005 201.14ZM151.005 199.81C151.528 199.81 151.948 199.623 152.265 199.25C152.582 198.867 152.741 198.307 152.741 197.57C152.741 196.823 152.582 196.268 152.265 195.904C151.948 195.531 151.528 195.344 151.005 195.344C150.482 195.344 150.062 195.531 149.745 195.904C149.428 196.268 149.269 196.823 149.269 197.57C149.269 198.307 149.428 198.867 149.745 199.25C150.062 199.623 150.482 199.81 151.005 199.81ZM159.333 201.14C158.231 201.14 157.359 200.804 156.715 200.132C156.08 199.46 155.763 198.471 155.763 197.164V196.142C155.763 194.761 156.071 193.711 156.687 192.992C157.312 192.264 158.227 191.755 159.431 191.466L161.251 191.018C161.493 190.953 161.699 190.967 161.867 191.06C162.035 191.144 162.142 191.303 162.189 191.536C162.235 191.769 162.198 191.97 162.077 192.138C161.955 192.297 161.769 192.404 161.517 192.46L159.557 192.922C158.857 193.09 158.325 193.403 157.961 193.86C157.597 194.308 157.415 194.877 157.415 195.568V195.638C157.62 195.218 157.923 194.877 158.325 194.616C158.735 194.355 159.235 194.224 159.823 194.224C160.392 194.224 160.896 194.364 161.335 194.644C161.783 194.915 162.133 195.302 162.385 195.806C162.637 196.31 162.763 196.912 162.763 197.612C162.763 198.331 162.618 198.956 162.329 199.488C162.049 200.011 161.652 200.417 161.139 200.706C160.625 200.995 160.023 201.14 159.333 201.14ZM159.263 199.81C159.813 199.81 160.238 199.628 160.537 199.264C160.845 198.9 160.999 198.373 160.999 197.682C160.999 197.001 160.845 196.478 160.537 196.114C160.238 195.741 159.813 195.554 159.263 195.554C158.721 195.554 158.297 195.736 157.989 196.1C157.681 196.464 157.527 196.968 157.527 197.612C157.527 198.331 157.676 198.877 157.975 199.25C158.283 199.623 158.712 199.81 159.263 199.81ZM166.653 201.14C166.158 201.14 165.715 201.047 165.323 200.86C164.94 200.664 164.637 200.403 164.413 200.076C164.198 199.749 164.091 199.381 164.091 198.97C164.091 198.466 164.221 198.069 164.483 197.78C164.744 197.481 165.169 197.267 165.757 197.136C166.345 197.005 167.133 196.94 168.123 196.94H168.613V196.646C168.613 196.179 168.51 195.843 168.305 195.638C168.099 195.433 167.754 195.33 167.269 195.33C166.998 195.33 166.704 195.363 166.387 195.428C166.079 195.493 165.752 195.605 165.407 195.764C165.183 195.867 164.996 195.881 164.847 195.806C164.697 195.722 164.595 195.596 164.539 195.428C164.492 195.251 164.501 195.073 164.567 194.896C164.641 194.719 164.786 194.588 165.001 194.504C165.43 194.327 165.841 194.201 166.233 194.126C166.634 194.051 166.998 194.014 167.325 194.014C168.323 194.014 169.065 194.247 169.551 194.714C170.036 195.171 170.279 195.885 170.279 196.856V200.216C170.279 200.813 170.008 201.112 169.467 201.112C168.916 201.112 168.641 200.813 168.641 200.216V199.908C168.482 200.291 168.23 200.594 167.885 200.818C167.539 201.033 167.129 201.14 166.653 201.14ZM167.017 199.936C167.474 199.936 167.852 199.777 168.151 199.46C168.459 199.143 168.613 198.741 168.613 198.256V197.948H168.137C167.259 197.948 166.648 198.018 166.303 198.158C165.967 198.289 165.799 198.531 165.799 198.886C165.799 199.194 165.906 199.446 166.121 199.642C166.335 199.838 166.634 199.936 167.017 199.936ZM173.1 201C172.522 201 172.232 200.711 172.232 200.132V195.022C172.232 194.443 172.522 194.154 173.1 194.154H175.928C176.815 194.154 177.45 194.313 177.832 194.63C178.224 194.938 178.42 195.377 178.42 195.946C178.42 196.301 178.322 196.609 178.126 196.87C177.93 197.131 177.66 197.323 177.314 197.444C177.762 197.547 178.098 197.743 178.322 198.032C178.546 198.321 178.658 198.671 178.658 199.082C178.658 199.67 178.434 200.137 177.986 200.482C177.538 200.827 176.89 201 176.04 201H173.1ZM173.856 196.968H175.76C176.096 196.968 176.358 196.893 176.544 196.744C176.731 196.585 176.824 196.366 176.824 196.086C176.824 195.806 176.731 195.596 176.544 195.456C176.358 195.307 176.096 195.232 175.76 195.232H173.856V196.968ZM173.856 199.922H175.886C176.67 199.922 177.062 199.609 177.062 198.984C177.062 198.359 176.67 198.046 175.886 198.046H173.856V199.922ZM181.001 201.112C180.46 201.112 180.189 200.799 180.189 200.174V194.882C180.189 194.322 180.455 194.042 180.987 194.042C181.51 194.042 181.771 194.322 181.771 194.882V198.718L184.865 194.602C184.968 194.471 185.094 194.345 185.243 194.224C185.393 194.103 185.598 194.042 185.859 194.042C186.391 194.042 186.657 194.35 186.657 194.966V200.272C186.657 200.832 186.396 201.112 185.873 201.112C185.341 201.112 185.075 200.832 185.075 200.272V196.436L181.981 200.552C181.888 200.683 181.767 200.809 181.617 200.93C181.477 201.051 181.272 201.112 181.001 201.112ZM190.963 201.112C190.375 201.112 190.081 200.813 190.081 200.216V195.526H188.373C187.869 195.526 187.617 195.297 187.617 194.84C187.617 194.383 187.869 194.154 188.373 194.154H193.539C194.043 194.154 194.295 194.383 194.295 194.84C194.295 195.297 194.043 195.526 193.539 195.526H191.831V200.216C191.831 200.813 191.541 201.112 190.963 201.112ZM196.124 201C195.545 201 195.256 200.711 195.256 200.132V194.924C195.256 194.336 195.55 194.042 196.138 194.042C196.716 194.042 197.006 194.336 197.006 194.924V196.422H198.812C199.717 196.422 200.398 196.613 200.856 196.996C201.322 197.379 201.556 197.939 201.556 198.676C201.556 199.376 201.308 199.941 200.814 200.37C200.328 200.79 199.661 201 198.812 201H196.124ZM197.006 199.852H198.546C198.984 199.852 199.325 199.759 199.568 199.572C199.81 199.376 199.932 199.082 199.932 198.69C199.932 198.307 199.81 198.027 199.568 197.85C199.325 197.663 198.984 197.57 198.546 197.57H197.006V199.852Z" fill="#131E32"/>
</svg>
