<svg width="25" height="24" viewBox="0 0 25 24" fill="none" xmlns="http://www.w3.org/2000/svg">
<path d="M5.64285 16.9286C5.64285 15.1534 7.08194 13.7143 8.85714 13.7143H9.07142C9.07142 13.7143 9.07142 9 13.6786 9C18.2857 9 18.2857 13.7143 18.2857 13.7143H18.7143C20.4895 13.7143 21.9286 15.1534 21.9286 16.9286V16.9286C21.9286 18.7038 20.4895 20.1429 18.7143 20.1429H8.85714C7.08194 20.1429 5.64285 18.7038 5.64285 16.9286V16.9286Z" stroke="#90929E" stroke-width="1.5" stroke-linejoin="round"/>
<path d="M5.40322 12.0735C4.8843 11.2146 4.68322 10.2008 4.83503 9.20887C4.98685 8.21694 5.48193 7.30972 6.23399 6.64534C6.98605 5.98097 7.94739 5.60156 8.95048 5.57324C9.95357 5.54492 10.9348 5.86949 11.7231 6.49038" stroke="#90929E" stroke-width="1.5" stroke-linecap="round"/>
<line x1="6.11768" y1="2.49752" x2="6.40517" y2="3.07251" stroke="#90929E" stroke-width="1.5" stroke-linecap="round"/>
<line x1="12.4234" y1="3.17607" x2="12.1223" y2="3.74402" stroke="#90929E" stroke-width="1.5" stroke-linecap="round"/>
<line x1="1.92798" y1="6.92679" x2="2.50853" y2="7.20289" stroke="#90929E" stroke-width="1.5" stroke-linecap="round"/>
<line x1="1.78997" y1="12.2234" x2="2.38574" y2="11.9819" stroke="#90929E" stroke-width="1.5" stroke-linecap="round"/>
</svg>
