<svg xmlns="http://www.w3.org/2000/svg" fill="none" viewBox="0 0 1950 1970"><path d="M988 1680v188" stroke="#37F" stroke-miterlimit="10" stroke-width="120"/><path d="M582 1588 1390 70" stroke="#37F" stroke-linecap="round" stroke-width="70"/><path d="M991 1501a673 673 0 00 674-673A673 673 0 00 990 155a673 673 0 00-673 673A673 673 0 00 990 1501Z" fill="#3FD5FE"/><mask id="b" width="1360" height="1360" x="310" y="150" maskUnits="userSpaceOnUse" style="mask-type:luminance"><path d="M991 1501a673 673 0 00 674-673A673 673 0 00 990 155a673 673 0 00-673 673A673 673 0 00 990 1501Z" fill="#fff"/></mask><g clip-path="url(#a)" mask="url(#b)"><path d="M991 1502a671 671 0 10 0-1342 671 671 0 00 0 1342Z" fill="#3FD5FE"/><path d="m1550 1067-1 3 1-10-1 10c-1 3-6 22-10 17a65 65 0 01-5-15 210 210 0 00-20-53v-2c17 0 34 33 33 44h3v6Zm-201-700-4-4 4 4Zm228 795-40 63v-2a481 481 0 01-3 4 1123 1123 0 00-48 46v-2c7-11 15-20 20-31 5-8 5-17 11-24l1 2c3-6 6-15 10-20 0-2 2-4 4-6l26-30 13-21 2-4-1 5 18-33c0 2 1 3-2 10l3-5h1a234 234 0 00 16-33v3l4-4a242 242 0 00-11 33c10-16 13-36 22-54l-8 22 2-3-6 14c-10 21-22 50-34 70Zm53-120 3-10 5-18v-16c-2 1-3 5-10 20 3-16 3-18 2-20v1l-5 8v6c2 0 2-2 3-3 0 0 1 2-2 6l-2 10 2-5c1 2 1 3 3 3v1l-4 20 1-3v6-1l1-2 1-3c1-6 4-10 4-11a60 60 0 01-2 10Zm-32-31h-1l-2 2c-3 15-9 35-15 43l-5-4-4 5s0-2-2-2l-2 1-1-1v-10l-1-10c0-5 2-8 4-15l5 1a521 521 0 00 24-54l5 10c-5 13-10 25-4 33Zm15-370c16 47 10 50 6 51l2 12-3-8c-3 4-3 10-6 13l-1-1c0-6 1-23 5-20l-3-20v4l1 1v2l1 1c1-11-2-21-9-43l2-1 4 10Zm2 356c-3 9-4 10-13 14-2 4-3 9-2 14l6-9v2c-4 9-8 16-5 25l-4 6v-14l-3 13-4 10s-2-3 6-32c6-20 7-23 10-23 3 1 4 1 9-10l-1 4ZM1580 555l-3-2 4 10a70 70 0 00 4 7c1 3 5 4 5 8l-3-3 3 8-40-73a647 647 0 01 30 45Zm-190-223c8 7 6 13 0 12-4 0-11-8-10-10l6 1-4-5v1h9Zm230 565-2 6-8-2v-5l-2-4v-30h5c2 10 1 14 0 18 0 4-1 6 0 16h7Zm-16-292 1 11-3 5c2 3 3 5 2 7l-3-7-2-10a55 55 0 00-7-20c3 3 4 7 8 10v-3l4 7Zm-36 487-20 3h-2c-2 0-2-2-3-3 0-4 1-5 3-6h5c4 2 7 2 10-4v1h3l-1 6 6-2-1 5Zm-287-747 8 8h-1c-11 3-13 2-14 0h-6c-1-5 0-7 2-8 2 0 4 0 6 2l1-3s2-1 4 1Zm342 602c-2 2-2 6-3 12-2-1-3-5-3-12l-5 7c0-4 0-5 2-8a9 9 0 00 2-5v2l5-8v-7c3 0 3 16 1 19Zm-320-597c3 6-4 10-7 10l-3-7c-3-4-3-5-2-6h1l2 2h10v1Zm-35-10c4 9-7 6-10 6l-3-5V340c0-1 0-3 2-4h6l5 3Zm179 686c-1 7-8 10-10 8-2-2 0-17 0-18l2-10h2l6 20Zm-53-652c5 5 5 6 2 6h-7v-2a40 40 0 01-5-5h9l1 1Zm220 345 3 17s-2-1-3-4c0-4 0-8-2-12l-1 3v-10c2-1 3 5 4 6Zm-8 92v20c-5-6-2-21-1-27l1 7Zm-30 60-2 15c-4-8-4-14-1-15h4ZM1400 330c1 2 0 4-4 2l-6-4h5l2-1s3 0 3 2Zm240 678-1 2 1-6v4Zm-40 62-9 16a37 37 0 01 8-16l2-1v1Zm22-78-4 14 3-21c2 6 2 6 1 7ZM1411 350v3l-2 1-3-5h5v1Z" fill="#0090C3"/><path d="M1619 706v4c-1 0-1 0 0 8-2-1-3-3-3-6v-6l1-3 2 1v1ZM1400 373l1 6h-1l-5-6v-1l5 1Zm221 551-1-4-1 2v10c-2-5-1-12 0-13 2-1 3 4 3 4v1Zm-1 100-4 1v-2l2-2c2-1 2-1 2 2Zm-30 56c-4 0-4 0-3-1h3Zm-325-730c-5 2-6 1-6 0h6Zm352 569-3 8v-10l3 1Zm6-3-3-10h3v8l-1 2Zm-72 147-2-2 1-6 2-1v5l1 3v1Zm32 30a49 49 0 00-3-3l3-2v5ZM950 822V820Zm280 410-5-2a365 365 0 01-30 63c-6 8-15 6-20 0a16 16 0 01-1-13c2-8 11-11 11-20 0-4-3-7-1-11 0-3 4-7 6-10 0 0 21-6 34-28h3l4 20h-1ZM896 665c0 3-3 8-6 11l5 1c-3 3-7 4-22 5-16 2-20 3-23 6v-2l12-12a80 80 0 00-9-4l7-6c-3-7-3-9 3-10l5-1c2-3 0-10-6-12-2 0-3-1-3-4v-10l-3 3v-5h-4l6-10h-6l11-11c4-2 9-2 13-3l-7 10 12 4-9 13a64 64 0 01 17 32c5 0 8 1 7 6Zm-70-130c-2 4-18 16-48 5l4-2c0-5 0-7-6-8l5-1 1-1v-2l1-1h-9c5-7 7-9 11-9 3 0 5 2 7 5l-2 4 8-5v1c40-6 29 13 29 13ZM1008 400l-7 4a10 10 0 00-3 3 70 70 0 01-10 15l-11-8 12-2V410h-12v-1l12-6s-6-3-11 0c-3 3-4 3-10-3l2-3-5-4v-1l11-3v1l-2 2 3 3c2-3 5-2 10 2l-2-7a7 7 0 01 4-2c3 0 4 2 4 4l15 9h-1Z" fill="#0090C3"/><path d="M853 649c-2 10-14 30-32 18l7-6v-4a27 27 0 01 0-12c8 0 9 0 10-3 0-4 6-5 10-5 6 1 6 8 5 11ZM1030 388c-15 10-32 4-36-2 8-4 12-4 17 0l3-5 2 4c2-2 7-1 15 2h-2Zm-7 22-8 5c0-4-1-3-5-2h-1v-7l15 4h-1Zm99-38-9 7a3 3 0 01-1 0h-4v-1c5-5 9-7 10-7h5l-1 1Zm42 117-4 5c-1 0-4-1-5-3 0 0 0-4 3-5 2 0 4 0 6 2Zm-20-121-7 1-6 1 4-3 10 1Zm-34 4c-3 0-4 3-6 3h-5l10-4v1Zm42 0c-1 0-2 2-4 1a6 6 0 01-2 0V370h5l1 1Zm57 30c0 2-3 5-7 8l1 1v1a77 77 0 00-12 8c-2 2 0 5-2 7-2 0-3 1-4 3-2 3-2 6-3 10l-3 4v10c0 3 0 4 16 15-13 1-19 0-18-4l-12-1-3-5c0-2 2-2 3-4v-4c0-1 0-5 5-9l-4-2 6-12-2-2c5-7 8-10 12-12 2-3 2-4 8-5 1 0 3 0 8-3l-1-2 6-5 8 1v2Z" fill="#0090C3"/><path d="m1465 356-17-17 6 6-11-9-2 5 9 7c0 4 3 10 10 20a121 121 0 01-31-13v6l-4-4h-7c0 7 7 11 10 18a23 23 0 00-10 3l5 10c-3 0-10-3-19-8l5 5c-25-7-35-3-38-1l-1 5a16 16 0 00-10-3c0 3-2 8-4 10-7-8 0-20-8-28-3-3-10-10-20-4h-5a10 10 0 00-7 0v-1l-5-4-3 2c0 3 1 8 3 10l-5 2v2l6 3c-20 11-25 24-17 37-4-3-8-4-21 5 7 11 20 16 28 28-10-10-25-22-35-8 4 3 9 3 12 7-11 0-15-12-24-15a579 579 0 00 41 46l-6-1-2-5c-3-1-8-2-11-1 0 15 2 24 0 25-6 3-8 2-15-1a50 50 0 00 10-3v-17c-15-8-11-30-26-38-13-7-18 5-15 16 2 8 12 17 20 24l-1 5-13-5h-3c-3-2-3-3-3-4h-1v2a40 40 0 00-17-2l1 12a60 60 0 00-28 10l-2-4c-15 1-22 17-35 22l-5-3c0-3 2-8 5-10a30 30 0 00-13-4l-3 5c5 9 7 16 5 22-6-4-6-5-13-2l-2 2-3 3-2 4 3 9-14-4-4 4 4 3-3 4c-16-7-15-12-15-19a170 170 0 00-10-7c15-2 30 4 44-3-10-24-37-16-52-30a40 40 0 01-14 1l5-3a39 39 0 00-10-7l-3 6a8 8 0 00-2 0v-5l-5 1c-3 2-4 0-4-3a27 27 0 01-5 7v-6l-10 8a22 22 0 00-10 0l-2 5-4-4c-1 2-4 6-7 7h-5v5h-10l-3 6 5-2a47 47 0 01-14 16l2 5c-16 13-27 31-45 40l-4 5 5 3c-3 3-6 6-7 10h9l-9 7c8 17 17 20 29 10 2 1 7 14 15 36 20-2 17-27 32-33-3-4-7-4-10-4l10-1 3-5c-27-29 25-61 26-60 3 0 6 3 8 6a202 202 0 00-18 46c11 20 32-6 47 3-1 2-12 5-32 10l-2 7c3 5 4 10 4 15a25 25 0 01-10-4l-5 2c-5 15-20 26-44 34-9-7-24 0-30-14 7-8 6-12 6-22-5 3-10 16-14 40-30-2-34 49-68 37v5c-2 2-7 3-10 3h-6l-2 7c32 10 15 42 10 44-15 5-29-6-43-2a802 802 0 00-4 58c35 20 60 1 58-20C891 770 900 760 900 754l13 1h2c20-5 48-12 72 40l-3 7h6c2-6 3-8 2-19l13 5a187 187 0 01-44-51l6-2c7 4 27 16 53 65l10 2-5 2c0 4 0 8 2 11l6 1a58 58 0 01 10-12l-4-4v-5l8 10h1l-14-20 1-2 5 3c4-8 6-8 14-9l10 11V800h-4a44 44 0 00 27 19c2-2 6-5 9-5 10 6 21-2 32-2 0 31-15 65-60 54-33-7-50-6-54 6L943 840c9-9 8-10 7-15v-2l-2-3 3-4c-38-20-74 29-113 5-10 6-14 18-24 22-15 33-50 53-60 88l1 93h5c0 1 21 70 78 62h6l10 3c22 3 44-8 63 6h10c2 0 3-2 4-4l9 7c1 17 0 30-4 38 8 12 21 22 26 37 8 28-5 56 2 83 8 35 42 58 40 97 26 30 92-27 95-44v-5c5-3 15-7 18-13 3-5-2-11 0-17 7-20 33-20 40-38 10-21 0-43 3-64 3-32 24-50 40-63 26-23 36-40 50-87-68 15-77 17-142-142h1l8 9 5-2c26 34 30 39 56 97 12 24 18 30 22 31 20 4 87-42 107-92a112 112 0 01-26-32l-14 20-17 2a63 63 0 01-3-15l-3 5a334 334 0 00-6-2c-4-11-13-20-17-30l6-11c22 18 40 26 57 24 5 9 10 18 50 8l4-2 5-2c3 2 7 6 12 13l5-3c1 7 4 10 12 9-2 2-5 6-5 9l9 7c3-3 7-7 8-11 16 35 10 76 32 110 14-6 16-28 16-28 3-62 40-106 55-109 1-3 0-9-1-17 8 7 20 46 22 65 5-3 7-5 10-14 24 35 5 76 20 112l6 2c1-30-17-60-8-90 0 0 19 20 18 30 16-30 24-46 12-67-11-20-12-22 0-50l5 10c2-10 10-18 10-28l3 4c37-48-23-94-2-142l-3-4a20 20 0 00-4 10 20 20 0 00-8-10l2-26 5 3v6c3-3 5-6 6-10 5 5 7 7 7 16l6 1 7 27c13-32-11-57-15-86 14-15-22-97-36-109v7l-3-4v5c-7-10-14-35-20-72l4 3v-2c-2-12-12-20-16-30l7 5h-1l-17-23a7 7 0 00 1 0 190 190 0 00 17 21l-3-5c0-2 0 0 2 0a536 536 0 00-61-74l3 4 3 2v-1Zm82 107 13 22 17 30-30-44-16-28a10 10 0 00-1-1V440l-4-5c10 10 22 27 22 27Zm-132-151 7 7-9-8h2Zm-903 983-3-4 3 4Zm-67-652-8 2 4-10 7 6-3 2Zm36-47c-5 2-19 7-24 3a784 784 0 01 41-77l1 2-3 6v6l-3 5c-2 3-3 6-3 10 0 6 0 7-3 9 1 2 3 5 7 8l-1 3h-7l-6 5 11-3c3 6 2 10-3 21l-7 3Zm35 516c-1 9-5 19-7 27a47 47 0 01-3-1c6 43 8 64 6 62-4-2-22 1-13 18 6 13 4 27 7 40-3 1-3 1-14-6 5 8 14 14 17 24-2 0-6 0-10-2l7 10h-2a599 599 0 01-120-362h4a20 20 0 00 6 16c-2 5-2 5-1 6l5 4c5 7 6 17 11 25 3 4 10 6 14 10 22 23 16 38 10 53l4-1v1c6 6 7 6 10 7h1v-5h2c4 2 6 4 14 12l1 7c8 2 54 24 50 55ZM790 370c2 0 4-1 5-3a37 37 0 00-16-5c-9 0-16 5-24 6l14-10c-6-5-12 4-18 1l8-3-20-3c13-3 25 3 38 0l-31-11 22 2v-1c-3-3-17-7-17-8a50 50 0 00-13-1s-5 9-10 1c-1-3-3-4-8-4 1 4 6 5 7 10l-8-5h-1l-1 5-4-4-2 5-7-9c-3 1-4 6-8 6l-2-3c-2 0-3 0-7 3 5-5 5-6 6-8-10-3-11-2-12 0l-5-3c-5 6-7 6-12 5a835 835 0 00-44 40c7 10-3 33-10 36l-8 10v1l-5 4c2 1 7 0 13-2l-6 7h3c-2 3-1 8-4 10-3-1-4-7-9-6l6 10c-6 9-8 10-14 10a916 916 0 00-24 40l10-6c-8 12-28 45-6 40l3-1-5 7h2v2h6c12-14 12-15 12-20 7-1 12-5 14-11 6-1 7-8 12-10l10-4c3 7 8 4 26-8v1l5-7c0 6 3 5 6 3a60 60 0 00 36-10c-6 0-12-6-20-1l3-5h-1c0-3 2-5 4-7l6 2c4-6 6-2 6 0s-2 5 0 7c2 0 3 0 6-3v6l7-10a4 4 0 00-3 0c-1-6-3-10-6-11l3-3a10 10 0 00-4-1l4-3-4-3c13-3 27 7 38-6s-1 0-1 0H730V430h-4l3-5h-4v-2h5l-1-2c2 0 4 4 7 3 5-2 4-7 4-8-2-3-6-3-5-7 5-1 10 2 15 0a53 53 0 00-6-7l5-2c0-4-3-3-8 1a60 60 0 01 28-20l1-1a25 25 0 00-7-1l3-3 10 1a50 50 0 00-7-3 4 4 0 01 3-2c6 0 13 1 20-1Zm-240 88-4 1-3 3-3 3v-3l9-12v2l2 3-2 2Zm126-133a30 30 0 01-4 0l7-5v4h-3ZM482 638l-3 5-3-2 2-9-8 7 4-6h-2l-2-1-1-1h-2l-1-1h-1v-1h-2l-2-1-1-1 6-5 3-6c2-4 11-15 17-16l-9 10c2 0 5 0 2 4l-1 2 8 4c-1 3-3 4-3 7l2 2-6 5h3l-1 4h2a3 3 0 00 0 1Z" fill="#0090C3"/><path d="m592 442-6 3 1-3-2-2c2-1 4-3 6-2 2 1 2 3 0 5h1ZM456 610a47 47 0 00-2-5l2-4c2 2 0 7 0 9Zm-11 24c-2 0-2 0-3-2l2-4v5Z" fill="#0090C3"/></g><path d="M1343 1947h-700V1890a55 55 0 01 54-54H1290c30 0 54 24 54 54v57Z" fill="#37F"/><path d="M1432 320a673 673 0 01-1001 882 673 673 0 00 560 300 673 673 0 00 674-674A670 670 0 00 1431 320Z" fill="#05102E" opacity=".3" style="mix-blend-mode:overlay"/><path d="M292 823a226 226 0 10 320 320 226 226 0 00-320-320Z" fill="#D7F4FE" opacity=".3" style="mix-blend-mode:lighten"/><path d="M287 1238 140 1385c-28 28-70 32-99 4a69 69 0 01 0-99l150-150a290 290 0 00 96 98Z" fill="#37F" fill-rule="evenodd" clip-rule="evenodd"/><path d="M452 1250a267 267 0 00 189-78 266 266 0 00 78-190c0-70-27-138-78-189a266 266 0 00-190-78 268 268 0 00-189 457 267 267 0 00 190 78Zm0-451a183 183 0 01 130 53c35 35 54 81 54 130a184 184 0 01-315 130 183 183 0 01-54-130c0-49 20-95 54-130a183 183 0 01 130-53Z" fill="#37F"/><path d="M544 550 500 596a20 20 0 01-29 0L424 550a85 85 0 11 120 0Z" fill="#F46A47"/><path d="M504 469a23 23 0 00-16 6l-4 4-3-4a23 23 0 00-16-6 23 23 0 00-16 6 23 23 0 00 0 32l35 36 36-36a23 23 0 00-16-38Z" fill="#FDF72A"/><path d="m1182 300-57 57a20 20 0 01-28 0L1040 300a100 100 0 11 142 0Z" fill="#F46A47"/><path d="M1134 203a28 28 0 00-19 8l-4 4-4-3a27 27 0 00-20-8 28 28 0 00-18 8 27 27 0 00 0 38l42 42 42-42a27 27 0 00-19-46Z" fill="#FDF72A"/><path d="m1320 984-73 72a20 20 0 01-28 0l-72-72A122 122 0 11 1319 810a122 122 0 01 0 173Z" fill="#F46A47"/><path d="M1261 867a33 33 0 00-23 10l-5 4-5-4a33 33 0 00-23-10 33 33 0 00-23 10 33 33 0 00 0 46l50 50 52-50a33 33 0 00-23-56Z" fill="#FDF72A"/><path d="M1358 128a790 790 0 11-746 1394" stroke="#37F" stroke-width="70"/><defs><clipPath id="a"><path d="M320 160h1342v1342H320" fill="#fff"/></clipPath></defs></svg>
