<svg width="195" height="197" viewBox="0 0 195 197" fill="none" xmlns="http://www.w3.org/2000/svg">
<path d="M99 168L98.5352 186.745" stroke="#3377FF" stroke-width="12" stroke-miterlimit="10"/>
<path d="M139 7L58.2059 158.773" stroke="#3377FF" stroke-width="7" stroke-linecap="round"/>
<path d="M99.1239 150.121C136.308 150.121 166.451 119.996 166.451 82.8349C166.451 45.6736 136.308 15.5483 99.1239 15.5483C61.9402 15.5483 31.7969 45.6736 31.7969 82.8349C31.7969 119.996 61.9402 150.121 99.1239 150.121Z" fill="#3FD5FE"/>
<mask id="mask0_1397_13119" style="mask-type:luminance" maskUnits="userSpaceOnUse" x="31" y="15" width="136" height="136">
<path d="M99.1239 150.121C136.308 150.121 166.451 119.996 166.451 82.8349C166.451 45.6736 136.308 15.5483 99.1239 15.5483C61.9402 15.5483 31.7969 45.6736 31.7969 82.8349C31.7969 119.996 61.9402 150.121 99.1239 150.121Z" fill="white"/>
</mask>
<g mask="url(#mask0_1397_13119)">
<g clip-path="url(#clip0_1397_13119)">
<path d="M99.11 150.22C136.174 150.22 166.22 120.174 166.22 83.11C166.22 46.0462 136.174 16 99.11 16C62.0462 16 32 46.0462 32 83.11C32 120.174 62.0462 150.22 99.11 150.22Z" fill="#3FD5FE"/>
<path d="M154.94 106.73C154.92 106.8 154.9 106.9 154.88 106.97C155 106.53 155.03 106.34 155 106.06C155.01 106.26 154.98 106.52 154.88 106.97C154.78 107.35 154.29 109.23 153.91 108.67C153.75 108.44 153.58 107.83 153.4 107.19C152.85 105.26 152.32 103.54 151.35 101.93C151.37 101.88 151.4 101.8 151.42 101.75C153.1 101.69 154.8 105.05 154.68 106.09C154.79 106.09 154.89 106.09 155 106.07C155.01 106.21 155.03 106.38 154.94 106.74V106.73Z" fill="#0090C3"/>
<path d="M134.87 36.65C134.74 36.54 134.61 36.43 134.48 36.33C134.61 36.44 134.74 36.55 134.87 36.65Z" fill="#0090C3"/>
<path d="M157.7 116.16C156.52 118.09 154.93 120.66 153.65 122.52C153.69 122.46 153.75 122.38 153.79 122.32C153.28 123.03 152.96 123.46 152.43 124.15C152.98 123.41 153.25 123.03 153.43 122.72C153.13 122.9 149.86 126.23 149.44 126.67C148.97 127.16 148.95 127.17 148.59 127.31C148.62 127.24 148.65 127.14 148.69 127.07C149.27 126 150.08 125.07 150.67 124C151.09 123.24 151.12 122.31 151.7 121.62C151.73 121.68 151.78 121.75 151.81 121.81C151.83 121.79 151.86 121.76 151.88 121.74C152.12 121.16 152.39 120.35 152.75 119.83C152.88 119.63 153.06 119.37 153.2 119.19C154.01 118.12 155.03 117.23 155.84 116.16C156.33 115.52 156.61 114.76 157.06 114.09C157.14 113.97 157.24 113.85 157.33 113.73C157.29 113.87 157.25 114.01 157.2 114.15C157.21 114.15 157.23 114.13 157.25 114.12C157.397 113.807 157.99 112.74 159.03 110.92C159.09 111.13 159.1 111.24 158.81 111.96C158.91 111.77 159.02 111.57 159.12 111.37C159.14 111.4 159.17 111.44 159.2 111.48C159.48 110.96 160.43 109.2 160.77 108.1C160.8 108.18 160.83 108.3 160.85 108.39C160.937 108.35 161.067 108.21 161.24 107.97C160.64 109.443 160.253 110.557 160.08 111.31C161.19 109.66 161.43 107.65 162.31 105.91C162.02 106.78 161.93 107.05 161.54 108.09C161.58 108 161.64 107.88 161.67 107.78C161.48 108.29 161.31 108.7 161.1 109.21C160.12 111.31 158.87 114.15 157.71 116.16H157.7Z" fill="#0090C3"/>
<path d="M162.97 104.15L163.29 103.14C163.47 102.56 163.79 101.41 163.79 101.4C163.87 100.413 163.893 99.89 163.86 99.83C163.65 99.93 163.46 100.32 162.82 101.81C163.06 100.15 163.06 99.97 163.01 99.87C162.98 99.89 162.95 99.91 162.93 99.94C162.877 100.013 162.737 100.253 162.51 100.66C162.57 100.87 162.51 101.09 162.55 101.3C162.71 101.28 162.67 101.07 162.81 101.03C162.83 101.05 162.9 101.15 162.59 101.59C162.53 101.677 162.457 102.04 162.37 102.68C162.44 102.49 162.51 102.3 162.57 102.11C162.72 102.32 162.75 102.36 162.88 102.41C162.93 102.43 162.95 102.44 162.95 102.54C162.95 102.79 162.64 104.04 162.54 104.46C162.58 104.39 162.62 104.31 162.65 104.24C162.58 104.57 162.57 104.66 162.56 104.73C162.56 104.76 162.56 104.79 162.56 104.83C162.61 104.81 162.64 104.75 162.64 104.75L162.66 104.7C162.68 104.64 162.71 104.58 162.73 104.52C162.77 104.43 162.81 104.34 162.83 104.24C162.93 103.6 163.23 103.11 163.24 103.1C163.26 103.22 163 104.06 162.96 104.15H162.97Z" fill="#0090C3"/>
<path d="M159.83 101.07L159.78 101.1C159.78 101.1 159.75 101.12 159.73 101.13C159.72 101.13 159.7 101.15 159.69 101.16C159.55 101.25 159.54 101.26 159.52 101.26C159.17 102.78 158.62 104.77 157.98 105.58C157.82 105.44 157.67 105.3 157.5 105.16C157.28 105.513 157.137 105.69 157.07 105.69C157.02 105.62 157.02 105.51 156.94 105.45C156.79 105.58 156.78 105.58 156.65 105.61C156.61 105.58 156.57 105.52 156.57 105.48C156.54 105.14 156.68 104.82 156.67 104.48C156.66 104.17 156.48 103.89 156.5 103.57C156.54 103.04 156.67 102.69 156.92 102C157.08 102.04 157.24 102.08 157.39 102.12C158.72 99.4299 159.55 97.2799 159.75 96.6799C159.98 97.0599 160.11 97.2899 160.3 97.6399C159.78 98.9999 159.33 100.18 159.87 101.02C159.85 101.03 159.83 101.04 159.81 101.06L159.83 101.07Z" fill="#0090C3"/>
<path d="M161.29 64.0799C162.96 68.7999 162.31 69.0599 161.97 69.1999C162.077 69.4733 162.143 69.8833 162.17 70.4299C162.07 70.4099 161.963 70.1266 161.85 69.5799C161.55 69.9899 161.58 70.5399 161.26 70.9399C161.24 70.8999 161.21 70.8399 161.19 70.7999C161.22 70.2299 161.3 68.4799 161.69 68.8599C161.67 68.4899 161.67 68.4299 161.37 66.7899C161.38 66.8299 161.4 66.8699 161.41 66.9099C161.42 66.9499 161.43 66.9799 161.45 67.0199C161.46 67.0499 161.47 67.0799 161.48 67.1199C161.48 67.1499 161.5 67.1799 161.51 67.2099C161.51 67.2399 161.53 67.2599 161.54 67.2899C161.54 67.3199 161.56 67.3399 161.56 67.3699C161.56 67.3899 161.58 67.4199 161.58 67.4399C161.58 67.4699 161.6 67.4899 161.6 67.5199C161.71 66.3499 161.4 65.3699 160.73 63.2099C160.78 63.1599 160.83 63.1099 160.88 63.0599C160.97 63.2399 161.07 63.4299 161.3 64.0699L161.29 64.0799Z" fill="#0090C3"/>
<path d="M161.52 99.66C161.29 100.59 161.17 100.64 160.25 101.05C160.07 101.517 160.01 101.993 160.07 102.48C160.3 102.18 160.47 101.96 160.72 101.62C160.72 101.67 160.72 101.73 160.72 101.78C160.29 102.67 159.91 103.44 160.22 104.29C160.08 104.51 159.94 104.72 159.8 104.94C159.84 104.48 159.87 104.06 159.89 103.54C159.7 103.83 159.68 103.88 159.49 104.78C159.35 105.46 159.237 105.817 159.15 105.85C159.15 105.85 158.93 105.5 159.75 102.6C160.3 100.67 160.47 100.27 160.72 100.33C161.05 100.41 161.16 100.43 161.58 99.38C161.56 99.47 161.54 99.58 161.52 99.67V99.66Z" fill="#0090C3"/>
<path d="M158.08 55.48C157.99 55.4 157.91 55.33 157.82 55.25C157.9 55.49 158.06 56 158.23 56.35C158.32 56.53 158.45 56.78 158.56 56.95C158.74 57.24 159.11 57.41 159.11 57.81C159.11 57.81 159.023 57.72 158.85 57.54C158.93 57.79 159.01 58.05 159.08 58.3C157.84 55.84 156.42 53.48 155.18 51.02C156.29 52.59 157.14 53.89 158.1 55.5L158.08 55.48Z" fill="#0090C3"/>
<path d="M139.19 33.18C139.86 33.86 139.66 34.46 139.17 34.43C138.68 34.4 137.94 33.58 138.14 33.45C138.24 33.38 138.52 33.47 138.67 33.51C138.53 33.34 138.39 33.17 138.25 33L138.39 33.11C138.63 33.11 138.86 33.09 139.1 33.08C139.13 33.11 139.16 33.14 139.19 33.17V33.18Z" fill="#0090C3"/>
<path d="M162.08 89.68C162.03 89.89 161.98 90.11 161.93 90.32C161.66 90.24 161.38 90.17 161.11 90.1C161.143 89.8134 161.167 89.63 161.18 89.55C160.973 89.3434 160.87 89.2234 160.87 89.19C160.87 89.12 160.87 88.98 160.89 88.78C160.96 87.77 160.97 87.08 160.96 86.15C161.11 86.15 161.27 86.17 161.42 86.18C161.57 87.26 161.51 87.58 161.41 87.95C161.3 88.36 161.28 88.63 161.41 89.63C161.64 89.63 161.86 89.61 162.09 89.59C162.09 89.62 162.08 89.66 162.07 89.68H162.08Z" fill="#0090C3"/>
<path d="M160.51 60.53C160.54 60.78 160.58 61.16 160.62 61.62C160.413 61.8267 160.303 61.9867 160.29 62.1C160.29 62.1 160.31 62.13 160.32 62.15C160.467 62.39 160.533 62.5967 160.52 62.77C160.41 62.55 160.24 62.36 160.17 62.12C160.07 61.79 160.07 61.45 160.01 61.12C159.84 60.23 159.53 59.65 159.23 59.16C159.56 59.39 159.71 59.79 160.05 60.01C160.14 60.07 160.18 59.99 160.17 59.77C160.383 60.1634 160.497 60.4134 160.51 60.52V60.53Z" fill="#0090C3"/>
<path d="M156.91 109.23C155.91 109.35 155.5 109.41 154.99 109.51C154.91 109.52 154.84 109.55 154.76 109.54C154.72 109.54 154.69 109.54 154.65 109.51C154.54 109.42 154.46 109.3 154.35 109.2C154.45 108.82 154.53 108.68 154.69 108.58C154.81 108.54 154.89 108.53 155.15 108.62C155.57 108.77 155.85 108.83 156.2 108.23C156.2 108.26 156.2 108.3 156.2 108.34C156.3 108.38 156.39 108.3 156.49 108.3C156.517 108.373 156.473 108.56 156.36 108.86C156.76 108.693 156.983 108.623 157.03 108.65C157.077 108.677 157.033 108.87 156.9 109.23H156.91Z" fill="#0090C3"/>
<path d="M128.2 34.51C128.46 34.77 128.72 35.03 128.97 35.29C128.95 35.29 128.91 35.3 128.89 35.31C127.73 35.59 127.6 35.49 127.45 35.37C127.17 35.15 127.14 35.18 126.93 35.33C126.76 34.77 126.97 34.59 127.11 34.52C127.3 34.47 127.45 34.52 127.71 34.69C127.71 34.49 127.71 34.38 127.79 34.36C127.81 34.36 127.98 34.3 128.2 34.52V34.51Z" fill="#0090C3"/>
<path d="M162.35 94.66C162.217 94.9267 162.14 95.3333 162.12 95.88C161.94 95.8 161.843 95.3967 161.83 94.67C161.67 94.91 161.51 95.14 161.35 95.37C161.32 95 161.36 94.88 161.52 94.61C161.66 94.38 161.67 94.29 161.68 94.08C161.7 94.08 161.72 94.06 161.74 94.05C161.75 94.13 161.77 94.21 161.79 94.29C162.09 93.76 162.25 93.46 162.25 93.46C162.32 93.25 162.25 93.03 162.26 92.82C162.51 92.79 162.48 94.41 162.35 94.67V94.66Z" fill="#0090C3"/>
<path d="M130.49 34.95C130.65 35.58 129.97 36.06 129.65 36.08C129.62 35.88 129.59 35.78 129.33 35.31C129.05 34.81 129.03 34.67 129.2 34.57C129.24 34.56 129.27 34.55 129.32 34.54C129.38 34.62 129.44 34.71 129.49 34.79C129.81 34.81 130.14 34.82 130.46 34.84C130.47 34.87 130.49 34.91 130.49 34.95Z" fill="#0090C3"/>
<path d="M126.89 33.9399C127.27 34.8899 126.24 34.6499 125.9 34.5699C125.82 34.3999 125.74 34.2299 125.65 34.0699C125.64 34.0499 125.62 34.0199 125.61 33.9999C125.61 33.8899 125.62 33.6999 125.83 33.6099C125.93 33.5799 126.07 33.5699 126.36 33.6599C126.59 33.7299 126.85 33.8599 126.85 33.8699C126.87 33.8799 126.87 33.9299 126.88 33.9499L126.89 33.9399Z" fill="#0090C3"/>
<path d="M144.77 102.64C144.67 103.29 144.02 103.66 143.82 103.4C143.65 103.19 143.71 101.66 143.71 101.64C143.71 101.58 143.823 101.247 144.05 100.64C144.1 100.63 144.15 100.61 144.21 100.61C144.73 102.09 144.82 102.36 144.78 102.64H144.77Z" fill="#0090C3"/>
<path d="M139.52 37.41C140.04 37.91 139.98 38.02 139.72 38.02C139.48 38.02 139.24 37.97 139 37.95C139.01 37.89 139.03 37.82 139.05 37.76C138.777 37.54 138.59 37.3666 138.49 37.24C138.67 37.24 138.85 37.24 139.03 37.24C139.14 37.24 139.24 37.22 139.35 37.24C139.42 37.25 139.47 37.35 139.52 37.4V37.41Z" fill="#0090C3"/>
<path d="M161.58 71.91C161.74 72.57 161.8 73.31 161.82 73.55C161.76 73.53 161.63 73.48 161.55 73.2C161.43 72.81 161.45 72.4 161.36 72C161.31 72.11 161.26 72.22 161.21 72.33C161.18 71.89 161.15 71.37 161.25 71.25C161.38 71.16 161.53 71.74 161.58 71.92V71.91Z" fill="#0090C3"/>
<path d="M160.74 81.0799C160.79 81.5899 160.72 82.5799 160.69 83.0099C160.25 82.5199 160.46 80.9799 160.58 80.4199C160.687 80.7933 160.743 81.0133 160.75 81.0799H160.74Z" fill="#0090C3"/>
<path d="M157.76 87.1901C157.73 87.3601 157.62 87.9501 157.49 88.5801C157.07 87.7501 157.09 87.24 157.38 87.09C157.49 87.04 157.61 87.04 157.78 87.1C157.78 87.13 157.77 87.1601 157.76 87.1901Z" fill="#0090C3"/>
<path d="M140.04 32.95C140.15 33.19 140.01 33.34 139.63 33.19C139.41 33.1 139.19 32.94 139.05 32.84C139.37 32.98 139.45 32.96 139.53 32.86C139.58 32.81 139.61 32.78 139.72 32.79C139.72 32.79 139.99 32.85 140.03 32.94L140.04 32.95Z" fill="#0090C3"/>
<path d="M163.98 100.76C163.96 100.82 163.94 100.89 163.92 100.95C163.97 100.75 164.03 100.56 164.08 100.37L163.98 100.76Z" fill="#0090C3"/>
<path d="M160.15 107.09C159.35 108.63 159.29 108.64 159.26 108.65C159.22 108.5 159.65 107.4 160.04 107.06C160.11 107.01 160.15 106.99 160.2 107C160.19 107.03 160.17 107.06 160.15 107.09Z" fill="#0090C3"/>
<path d="M162.31 99.29C161.98 100.65 161.96 100.68 161.91 100.74C162.02 100.03 162.08 99.31 162.19 98.59C162.19 98.55 162.24 98.54 162.26 98.51C162.33 99.19 162.33 99.2 162.31 99.28V99.29Z" fill="#0090C3"/>
<path d="M141.09 35.03C141.15 35.1766 141.177 35.2566 141.17 35.27C141.17 35.27 141.15 35.3 140.87 35.4C140.66 35.14 140.57 35.01 140.61 34.92C140.67 34.84 140.89 34.84 140.89 34.84L141.06 34.96C141.06 34.96 141.08 35.01 141.09 35.03Z" fill="#0090C3"/>
<path d="M161.87 70.63C161.89 70.98 161.86 70.98 161.83 70.98C161.78 70.98 161.78 71.05 161.87 71.76C161.72 71.68 161.65 71.53 161.61 71.19C161.61 71.12 161.56 70.71 161.56 70.71L161.71 70.42C161.71 70.42 161.73 70.41 161.87 70.51C161.87 70.55 161.87 70.59 161.87 70.63Z" fill="#0090C3"/>
<path d="M140.1 37.34C140.13 37.53 140.16 37.73 140.19 37.92C140.16 37.91 140.11 37.89 140.08 37.88C139.92 37.68 139.76 37.5 139.6 37.3C139.54 37.22 139.54 37.21 139.55 37.2C139.56 37.2 139.58 37.19 139.65 37.2C139.8 37.23 139.94 37.27 140.09 37.3C140.09 37.34 140.09 37.34 140.09 37.34H140.1Z" fill="#0090C3"/>
<path d="M162.22 92.3999C162.17 92.2699 162.12 92.14 162.07 92.01C162.04 92.06 161.99 92.09 161.99 92.16C161.97 92.48 162.01 92.7899 162.02 93.1099C161.82 92.6899 161.9 91.9899 162.05 91.8599C162.2 91.7699 162.28 92.29 162.28 92.3C162.28 92.34 162.24 92.38 162.23 92.41L162.22 92.3999Z" fill="#0090C3"/>
<path d="M162.05 102.33C161.837 102.477 161.72 102.547 161.7 102.54C161.7 102.54 161.65 102.45 161.66 102.26C161.71 102.3 161.75 102.26 161.91 102.1C162.05 101.96 162.11 101.95 162.08 102.3L162.05 102.32V102.33Z" fill="#0090C3"/>
<path d="M159.07 107.95C158.66 108.06 158.73 107.95 158.84 107.86C158.94 107.8 159.01 107.82 159.09 107.94H159.07V107.95Z" fill="#0090C3"/>
<path d="M126.55 34.91C126.55 34.91 126.63 34.99 126.67 35.03C126.08 35.16 126.04 35.11 126 35.07C126.373 34.9634 126.56 34.91 126.56 34.91H126.55Z" fill="#0090C3"/>
<path d="M161.76 91.86C161.68 92.14 161.59 92.43 161.5 92.71C161.48 92.71 161.46 92.71 161.44 92.71C161.47 92.38 161.5 92.05 161.53 91.72C161.61 91.76 161.7 91.79 161.78 91.82V91.86H161.76Z" fill="#0090C3"/>
<path d="M162.36 91.56C162.27 91.27 162.18 90.98 162.09 90.69C162.18 90.66 162.27 90.64 162.36 90.61C162.36 90.76 162.37 90.91 162.39 91.06C162.39 91.18 162.43 91.29 162.43 91.41C162.43 91.46 162.39 91.52 162.37 91.56H162.36Z" fill="#0090C3"/>
<path d="M155.23 106.33C155.16 106.24 155.08 106.15 155.01 106.06C155.04 105.86 155.05 105.65 155.1 105.46C155.1 105.43 155.16 105.41 155.18 105.39C155.21 105.54 155.23 105.7 155.26 105.85C155.28 105.95 155.31 106.06 155.31 106.16C155.31 106.21 155.25 106.28 155.23 106.32V106.33Z" fill="#0090C3"/>
<path d="M158.36 109.27C158.29 109.19 158.21 109.11 158.14 109.04C158.26 108.87 158.33 108.8 158.38 108.76C158.47 108.7 158.47 108.85 158.37 109.28L158.36 109.27Z" fill="#0090C3"/>
<path d="M95.02 82.15C95.02 82.15 94.99 82.09 94.97 82.05C94.99 82.08 95 82.12 95.02 82.15Z" fill="#0090C3"/>
<path d="M122.97 123.11C122.81 123.06 122.66 123.02 122.5 122.97C122.25 124.08 120.12 128.61 119.58 129.29C118.93 130.11 118 129.92 117.55 129.22C117.41 129 117.2 128.55 117.36 127.95C117.57 127.18 118.55 126.85 118.53 125.95C118.53 125.59 118.2 125.28 118.35 124.89C118.47 124.59 118.77 124.19 119.03 123.83C119.01 123.88 119.03 123.9 119.03 123.91C119.05 123.91 121.1 123.27 122.4 121.07C122.49 121.06 122.57 121.04 122.66 121.03C122.87 122.11 122.95 122.49 123.06 123.15C123.03 123.15 122.99 123.13 122.96 123.12L122.97 123.11Z" fill="#0090C3"/>
<path d="M89.5999 66.62C89.5399 66.89 89.2499 67.36 89.0399 67.7C89.1799 67.75 89.3299 67.79 89.4699 67.84C89.2399 68.1 88.8099 68.18 87.3199 68.32C85.7299 68.48 85.3199 68.57 84.9999 68.86C84.9799 68.81 84.9499 68.74 84.9399 68.7C85.3599 68.29 85.7899 67.87 86.2099 67.45C85.8966 67.2966 85.6099 67.1766 85.3499 67.09C85.5433 66.85 85.7533 66.6666 85.9799 66.54C85.7199 65.83 85.7399 65.63 86.3499 65.57C86.4999 65.56 86.7199 65.49 86.7999 65.36C86.9599 65.09 86.7399 64.35 86.1799 64.19C86.0099 64.14 85.8699 64.1 85.8699 63.8C85.8699 63.7333 85.8933 63.4266 85.9399 62.88C85.8199 62.96 85.6999 63.04 85.5799 63.12C85.5999 62.94 85.6099 62.75 85.6299 62.57C85.4999 62.57 85.3799 62.59 85.2499 62.6C85.5233 62.14 85.7166 61.8166 85.8299 61.63H85.7499C85.7499 61.63 85.6999 61.63 85.6699 61.62C85.6399 61.62 85.6199 61.62 85.5899 61.62C85.5599 61.62 85.5399 61.62 85.5099 61.62C85.4799 61.62 85.4599 61.62 85.4299 61.62C85.3999 61.62 85.3799 61.62 85.3499 61.62C85.3199 61.62 85.2999 61.62 85.2699 61.62C85.2399 61.62 85.2199 61.62 85.1899 61.62C85.8833 60.8933 86.2599 60.5133 86.3199 60.48C86.7299 60.25 87.1899 60.31 87.6299 60.23C87.3799 60.56 87.1299 60.89 86.8799 61.22C87.2799 61.35 87.6699 61.47 88.0699 61.6C87.7799 62.04 87.4999 62.47 87.2199 62.91C88.1599 63.93 88.5599 64.68 88.9299 66.14C89.4399 66.15 89.6999 66.24 89.5999 66.65V66.62Z" fill="#0090C3"/>
<path d="M82.68 53.54C82.37 54.03 80.81 55.18 77.81 54.15C77.96 54.07 78.1 53.9899 78.25 53.9199C78.25 53.3499 78.12 53.1599 77.66 53.0499C77.83 53.0299 77.99 53.02 78.16 53C78.19 52.89 78.2 52.87 78.2 52.86C78.2 52.84 78.21 52.83 78.22 52.81C78.22 52.79 78.23 52.7699 78.24 52.7599C78.24 52.7399 78.2499 52.72 78.2599 52.7C78.2599 52.68 78.2699 52.6599 78.2799 52.6399C78.2799 52.6199 78.2899 52.6 78.2999 52.57C78.0199 52.57 77.73 52.57 77.45 52.57C77.87 51.91 78.14 51.7 78.56 51.7C78.81 51.75 78.97 51.86 79.2 52.16C79.12 52.3 79.0399 52.43 78.9599 52.57C78.9799 52.61 79.02 52.6599 79.04 52.6899C79.28 52.4899 79.5199 52.29 79.7599 52.09C79.7999 52.14 79.8399 52.1799 79.8899 52.2299C83.8199 51.5999 82.69 53.52 82.68 53.54Z" fill="#0090C3"/>
<path d="M100.7 40.05C100.2 40.21 100.09 40.25 99.99 40.38C99.95 40.43 99.9 40.53 99.85 40.65C99.62 41.15 99.38 41.55 98.88 42.2C98.48 41.93 98.07 41.66 97.67 41.38C98.07 41.31 98.47 41.23 98.88 41.16C98.88 41.09 98.88 41.03 98.88 40.96H98.73C98.73 40.96 98.63 40.96 98.58 40.96C98.53 40.96 98.48 40.96 98.43 40.96C98.38 40.96 98.33 40.96 98.28 40.96C98.23 40.96 98.18 40.96 98.13 40.96C98.08 40.96 98.03 40.96 97.98 40.96C97.93 40.96 97.88 40.96 97.83 40.96C97.78 40.96 97.73 40.96 97.68 40.96V40.86C98.24 40.64 98.86 40.4 98.89 40.29C98.86 40.28 98.27 40.02 97.78 40.37C97.51 40.56 97.38 40.59 96.76 39.95C96.82 39.86 96.89 39.76 96.95 39.67C96.79 39.56 96.63 39.46 96.47 39.35C96.49 39.28 96.5 39.22 96.52 39.15C96.89 39.08 97.26 39.01 97.63 38.94C97.63 38.96 97.64 39 97.65 39.02C97.56 39.09 97.47 39.16 97.38 39.23C97.49 39.31 97.6 39.4 97.71 39.48C97.87 39.1933 98.1866 39.2833 98.66 39.75C98.6 39.49 98.54 39.23 98.48 38.98C98.62 38.89 98.72 38.85 98.87 38.85C99.15 38.87 99.29 38.98 99.33 39.2C99.88 39.53 100.24 39.74 100.81 40.07C100.77 40.08 100.73 40.1 100.69 40.11L100.7 40.05Z" fill="#0090C3"/>
<path d="M85.3001 64.86C85.1301 65.91 83.9501 67.92 82.0901 66.65C82.5634 66.3167 82.8101 66.1233 82.8301 66.07C82.8601 65.99 82.8301 65.89 82.7901 65.65C82.7234 65.3234 82.7468 64.9333 82.8601 64.48C83.6001 64.53 83.6701 64.41 83.7401 64.16C83.8701 63.76 84.4201 63.71 84.8601 63.73C85.4001 63.82 85.3701 64.47 85.3101 64.85L85.3001 64.86Z" fill="#0090C3"/>
<path d="M102.97 38.77C101.48 39.86 99.77 39.17 99.45 38.59C100.21 38.2 100.6 38.22 101.13 38.68C101.2 38.49 101.28 38.3 101.35 38.11C101.42 38.23 101.5 38.34 101.57 38.46C101.797 38.3267 102.303 38.4 103.09 38.68C103.09 38.68 103.01 38.74 102.98 38.77H102.97Z" fill="#0090C3"/>
<path d="M102.3 41.0099C102.04 41.1699 101.78 41.3299 101.52 41.4899C101.43 41.1499 101.37 41.1699 101.03 41.2699C100.88 41.3199 100.85 41.2299 100.85 41.2299C100.85 41.2099 100.85 41.1699 100.85 41.1499C100.85 40.9599 100.85 40.7599 100.86 40.5699C100.933 40.5766 101.437 40.7099 102.37 40.9699C102.37 40.9699 102.33 40.9999 102.31 41.0099H102.3Z" fill="#0090C3"/>
<path d="M112.19 37.2299C111.56 37.7399 111.43 37.8399 111.32 37.8799C111.28 37.8999 111.23 37.9099 111.19 37.9099C111.05 37.9099 110.91 37.8699 110.77 37.8599C110.77 37.8399 110.76 37.7999 110.75 37.7799C111.337 37.3333 111.667 37.1066 111.74 37.0999C111.94 37.0899 112.13 37.1199 112.33 37.1199C112.29 37.1499 112.23 37.1999 112.19 37.2299Z" fill="#0090C3"/>
<path d="M116.4 48.88C116.3 49.11 116.21 49.32 116.05 49.36C115.9 49.39 115.61 49.28 115.54 49.08C115.54 49.08 115.41 48.67 115.81 48.59C115.99 48.58 116.17 48.65 116.42 48.83C116.42 48.84 116.41 48.86 116.4 48.88Z" fill="#0090C3"/>
<path d="M114.36 36.76C114.36 36.76 114.21 36.83 113.68 36.91C113.48 36.94 113.27 36.96 113.07 37C113.05 36.97 113.03 36.92 113.01 36.88C113.3 36.67 113.33 36.61 113.5 36.58C113.69 36.56 113.94 36.61 114.37 36.75L114.36 36.76Z" fill="#0090C3"/>
<path d="M110.95 37.24C110.73 37.29 110.59 37.51 110.36 37.55C110.18 37.58 110.03 37.51 109.89 37.43C110.23 37.32 110.58 37.2 110.92 37.09C110.95 37.14 110.97 37.18 110.99 37.23H110.94L110.95 37.24Z" fill="#0090C3"/>
<path d="M115.22 37.2099C115.08 37.2399 114.97 37.3799 114.8 37.3499C114.72 37.3299 114.62 37.2499 114.61 37.2399C114.58 37.1599 114.57 37.1099 114.55 37.0699C114.75 37.0699 114.95 37.0699 115.15 37.0699C115.17 37.1099 115.19 37.1699 115.21 37.2099H115.22Z" fill="#0090C3"/>
<path d="M120.92 40.2C120.873 40.4266 120.637 40.6833 120.21 40.97C120.24 41.03 120.27 41.08 120.3 41.14L120.22 41.2C120.07 41.24 119.14 41.9 119 42.05C118.82 42.24 118.92 42.53 118.78 42.73C118.6 42.78 118.46 42.81 118.37 42.97C118.2 43.27 118.24 43.63 118.14 43.95C118.08 44.13 117.91 44.23 117.85 44.4L117.73 45.38C117.78 45.72 117.87 45.79 119.38 46.95C118.107 47.0366 117.51 46.8866 117.59 46.5C117.2 46.47 116.81 46.44 116.42 46.4C116.24 46.17 116.17 46.07 116.16 45.87C116.16 45.69 116.37 45.69 116.41 45.54C116.45 45.38 116.34 45.23 116.38 45.07C116.4 44.96 116.51 44.59 116.91 44.25C116.77 44.17 116.64 44.09 116.5 44.01C116.7 43.58 116.87 43.21 117.07 42.76C117 42.7 116.93 42.63 116.86 42.57C117.37 41.93 117.71 41.51 118.14 41.45C118.29 41.13 118.35 41.05 118.88 40.94C119.05 40.91 119.25 40.87 119.7 40.58C119.67 40.52 119.64 40.46 119.6 40.4L119.66 40.35C119.9 40.1166 120.09 39.9833 120.23 39.95C120.44 39.92 120.62 39.95 120.96 40.04C120.95 40.09 120.93 40.16 120.92 40.21V40.2Z" fill="#0090C3"/>
<path d="M146.54 35.64L144.76 33.93C145.03 34.18 145.2 34.34 145.37 34.51C145.05 34.24 144.62 33.88 144.29 33.63C144.24 33.78 144.18 33.99 144.13 34.14C144.38 34.36 144.71 34.64 144.96 34.85C144.94 35.2633 145.313 35.8933 146.08 36.74C144.49 36.43 142.91 35.54 142.9 35.53C142.9 35.7 142.91 35.92 142.92 36.09C142.8 35.97 142.65 35.82 142.53 35.7C142.32 35.72 142.04 35.74 141.83 35.76C141.83 36.53 142.54 36.94 142.77 37.6C142.45 37.62 142.03 37.77 141.76 37.95C141.92 38.27 142.14 38.68 142.32 38.99C141.98 38.8833 141.34 38.5733 140.4 38.06C140.4 38.06 140.43 38.14 140.45 38.18C140.58 38.3 140.75 38.45 140.87 38.57C138.43 37.92 137.39 38.33 137.05 38.47C137.02 38.63 136.97 38.84 136.94 38.99C136.7 38.8 136.28 38.67 135.98 38.68C135.93 39.03 135.77 39.49 135.58 39.79C134.94 38.94 135.54 37.78 134.84 36.95C134.54 36.59 133.73 35.83 132.84 36.54C132.69 36.51 132.48 36.48 132.33 36.45C132.01 36.34 131.82 36.42 131.61 36.51L131.5 36.41C131.39 36.3 131.24 36.15 131.13 36.04C131.02 36.08 130.88 36.13 130.77 36.17C130.77 36.51 130.92 36.99 131.14 37.24C130.97 37.3 130.75 37.39 130.58 37.45C130.61 37.49 130.65 37.55 130.68 37.59C130.83 37.69 131.04 37.82 131.19 37.93C129.243 39.0433 128.683 40.2567 129.51 41.57C129.07 41.33 128.74 41.16 127.39 42.06C128.08 43.24 129.45 43.74 130.18 44.88C129.12 43.97 127.66 42.71 126.67 44.09C127.06 44.38 127.57 44.44 127.92 44.79C126.8 44.8 126.42 43.63 125.52 43.3C126.607 44.6933 127.977 46.24 129.63 47.94C129.44 47.9 129.19 47.84 129 47.8C128.95 47.65 128.88 47.46 128.83 47.31C128.5 47.21 128.04 47.15 127.69 47.19C127.857 48.7233 127.923 49.57 127.89 49.73C127.16 49.97 126.96 49.92 126.31 49.57C126.63 49.52 127.04 49.4 127.33 49.28C127.35 48.78 127.33 48.12 127.29 47.62C125.82 46.76 126.2 44.62 124.66 43.8C123.41 43.13 122.88 44.32 123.2 45.44C123.43 46.24 124.41 47.12 125.13 47.77C125.11 47.92 125.09 48.13 125.07 48.28C124.69 48.15 124.19 47.97 123.82 47.82C123.56 47.76 123.56 47.75 123.56 47.75H123.47C123.23 47.57 123.19 47.49 123.16 47.42L123.07 47.45C123.09 47.5 123.12 47.55 123.14 47.6C122.467 47.4 121.877 47.34 121.37 47.42C121.44 47.77 121.5 48.25 121.52 48.61C120.167 48.8433 119.227 49.1833 118.7 49.63C118.63 49.49 118.54 49.3 118.47 49.16C116.96 49.34 116.31 50.89 114.99 51.36C114.86 51.28 114.68 51.17 114.55 51.08C114.58 50.76 114.77 50.34 115 50.12C114.67 49.88 114.12 49.74 113.72 49.69C113.64 49.84 113.54 50.04 113.47 50.19C113.957 51.09 114.127 51.82 113.98 52.38C113.37 51.96 113.29 51.9 112.67 52.21L112.39 52.44L112.14 52.72L111.94 53.15C112.08 53.38 112.25 53.72 112.28 53.99C111.84 53.88 111.26 53.74 110.82 53.63C110.71 53.74 110.57 53.89 110.46 54.01C110.59 54.1 110.76 54.23 110.88 54.32C110.77 54.43 110.63 54.58 110.52 54.69C108.99 53.96 109.02 53.47 109.06 52.84C108.79 52.61 108.4 52.32 108.1 52.12C109.56 51.92 111.07 52.47 112.48 51.75C111.48 49.42 108.73 50.23 107.22 48.8C106.447 48.9333 105.983 48.9633 105.83 48.89C105.98 48.79 106.17 48.66 106.32 48.56C106.04 48.32 105.62 48.05 105.27 47.92C105.2 48.08 105.11 48.29 105.04 48.45C104.99 48.46 104.92 48.48 104.88 48.5C104.87 48.34 104.86 48.13 104.85 47.97C104.7 48.01 104.49 48.07 104.34 48.12C104.02 48.25 104 48.04 103.98 47.83C103.84 48.06 103.63 48.36 103.42 48.52C103.44 48.35 103.46 48.12 103.48 47.94C103.15 48.13 102.75 48.45 102.48 48.73C102.2 48.66 101.81 48.61 101.53 48.68C101.45 48.82 101.34 49.01 101.26 49.16C101.15 49.04 101.01 48.89 100.9 48.77C100.74 49.04 100.45 49.36 100.19 49.53C100.04 49.49 99.84 49.45 99.69 49.41C99.66 49.59 99.62 49.83 99.59 50.01C99.26 50.01 98.92 50.01 98.59 50.01C98.54 50.17 98.47 50.39 98.42 50.56C98.58 50.51 98.78 50.44 98.94 50.39C98.48 51.13 97.9933 51.6567 97.48 51.97C97.54 52.12 97.61 52.33 97.67 52.48C96.1 53.76 95.04 55.6 93.2 56.58C93.18 56.55 93.16 56.51 93.15 56.48C93.05 56.64 92.91 56.86 92.81 57.03C92.95 57.12 93.13 57.23 93.27 57.32C93 57.52 92.71 57.89 92.58 58.19C92.84 58.22 93.19 58.26 93.45 58.26C93.2 58.49 92.86 58.79 92.6 59.01C93.3867 60.6233 94.35 60.9167 95.49 59.89C95.69 60.1033 96.2033 61.33 97.03 63.57C99.03 63.35 98.7 60.9 100.24 60.23C99.86 59.85 99.5 59.85 99.14 59.85C99.46 59.76 99.9 59.69 100.24 59.7C100.33 59.56 100.44 59.38 100.53 59.24C97.78 56.4 102.98 53.17 103.09 53.19C103.4 53.25 103.72 53.58 103.9 53.84C102.613 56.76 102.02 58.31 102.12 58.49C103.21 60.39 105.27 57.85 106.75 58.81C106.65 58.9367 105.587 59.28 103.56 59.84C103.5 60.02 103.41 60.25 103.35 60.43C103.683 61.0167 103.82 61.5267 103.76 61.96C103.45 61.91 103.05 61.72 102.8 61.53C102.64 61.59 102.43 61.67 102.27 61.73C101.79 63.2433 100.343 64.4033 97.93 65.21C97.02 64.52 95.52 65.13 94.89 63.83C95.57 62.97 95.53 62.53 95.45 61.56C94.9967 61.8067 94.5467 63.1467 94.1 65.58C91.04 65.32 90.72 70.42 87.28 69.21C87.28 69.37 87.28 69.59 87.29 69.75C87.06 69.94 86.65 70.07 86.35 70.07C86.1 70.09 85.88 70.12 85.72 70.14C85.66 70.32 85.57 70.56 85.5 70.74C88.68 71.74 87.01 74.95 86.51 75.13C85.04 75.68 83.64 74.55 82.17 74.95C81.92 76.87 81.81 80.72 81.81 80.73C85.29 82.74 87.91 80.9 87.64 78.72C89.2667 77.18 90.12 76.0933 90.2 75.46C90.58 75.41 91.1 75.46 91.47 75.56C91.73 75.61 91.73 75.61 91.73 75.61C93.77 75.11 96.55 74.42 98.88 79.65C98.8 79.84 98.7 80.1 98.63 80.29C98.81 80.3 99.05 80.31 99.23 80.32C99.47 79.69 99.57 79.42 99.4 78.4C99.84 78.49 100.21 78.81 100.68 78.82C97.94 76.14 96.5 74.45 96.36 73.75C96.54 73.69 96.77 73.62 96.94 73.56C97.6 73.96 99.61 75.19 102.25 80.04C102.53 80.09 102.9 80.16 103.18 80.22C103.04 80.3 102.84 80.4 102.7 80.48C102.72 80.82 102.79 81.27 102.89 81.6C103.08 81.63 103.33 81.66 103.52 81.69C104.08 80.97 104.437 80.5733 104.59 80.5C104.46 80.37 104.29 80.19 104.16 80.06C104.16 79.9 104.16 79.7 104.17 79.54C104.41 79.86 104.71 80.31 104.92 80.65C104.96 80.61 105.01 80.55 105.05 80.51C104.57 79.86 104.09 79.2 103.62 78.55C103.66 78.51 103.71 78.46 103.75 78.42C103.89 78.49 104.08 78.57 104.23 78.64C104.62 77.88 104.83 77.86 105.6 77.78C105.99 78.13 106.26 78.59 106.69 78.91C106.69 79.27 106.69 79.74 106.69 80.1C106.52 80.1 106.36 80.11 106.19 80.12C107.037 81.2067 107.95 81.82 108.93 81.96C109.15 81.74 109.53 81.51 109.84 81.44C110.94 82.12 111.95 81.32 113 81.25C113.06 84.41 111.52 87.73 106.97 86.68C103.73 85.9333 101.963 86.1233 101.67 87.25C101.59 87.2967 99.2033 86.27 94.51 84.17C95.41 83.31 95.36 83.14 95.21 82.69L95.14 82.51L95.12 82.46L95.1 82.41L94.96 82.12C95.06 81.99 95.19 81.81 95.29 81.67C91.42 79.78 87.89 84.57 84 82.25C83.03 82.8 82.62 83.99 81.53 84.39C80.07 87.72 76.64 89.72 75.5 93.26L75.7 102.49C75.86 102.54 76.06 102.6 76.22 102.64C76.23 102.71 78.28 109.47 83.95 108.73C84.14 108.71 84.39 108.7 84.57 108.73C84.91 108.77 85.32 108.99 85.66 109.03C87.73 109.29 89.92 108.28 91.88 109.65C92.18 109.55 92.63 109.57 92.92 109.68C93.03 109.56 93.18 109.41 93.28 109.29C93.54 109.48 93.88 109.73 94.14 109.92C94.2667 111.64 94.1467 112.907 93.78 113.72C94.6 114.99 95.89 115.93 96.36 117.45C97.21 120.21 95.9 123.02 96.54 125.78C97.33 129.21 100.78 131.55 100.49 135.42C103.14 138.39 109.82 132.79 110.08 131.09C110.11 130.92 110.05 130.7 110.03 130.53C110.61 130.22 111.54 129.86 111.85 129.28C112.15 128.72 111.7 128.14 111.9 127.58C112.61 125.62 115.17 125.6 115.95 123.71C116.82 121.61 115.93 119.46 116.16 117.34C116.5 114.12 118.59 112.34 120.12 111.04C122.81 108.75 123.79 107.04 125.11 102.33C118.4 103.9 117.53 104.1 111.01 88.13C111.04 88.11 111.09 88.08 111.12 88.06C111.36 88.35 111.68 88.73 111.92 89.02C112.08 88.95 112.28 88.87 112.44 88.8C114.98 92.27 115.31 92.71 118 98.5C119.17 101.01 119.82 101.62 120.16 101.69C122.11 102.08 128.9 97.52 130.92 92.52C129.26 90.8733 128.373 89.7933 128.26 89.28C127.81 89.96 127.36 90.63 126.9 91.31C126.033 91.43 125.45 91.4933 125.15 91.5C125 91.05 124.89 90.42 124.87 89.95C124.77 90.11 124.64 90.32 124.55 90.47C124.39 90.41 124.17 90.33 124 90.27C123.63 89.14 122.67 88.34 122.28 87.22C122.49 86.92 122.75 86.49 122.91 86.16C125.037 87.9867 126.933 88.78 128.6 88.54C129.1 89.45 129.62 90.39 133.64 89.4C133.96 89.25 133.95 89.2 133.95 89.14C134.11 89.09 134.31 89.02 134.47 88.97C134.763 89.1633 135.167 89.5967 135.68 90.27C135.82 90.19 136 90.08 136.14 90C136.26 90.73 136.56 90.94 137.34 90.86C137.11 91.07 136.88 91.46 136.83 91.77C137.06 92.03 137.43 92.31 137.73 92.47C138.06 92.22 138.41 91.76 138.59 91.38C140.12 94.89 139.62 98.99 141.76 102.32C143.14 101.77 143.35 99.58 143.36 99.55C143.6 93.4 147.31 89.02 148.88 88.74C148.96 88.4 148.913 87.84 148.74 87.06C149.58 87.67 150.83 91.59 150.94 93.51C151.41 93.18 151.6 93.05 152 92.14C154.36 95.57 152.46 99.72 153.9 103.3C154.1 103.37 154.37 103.47 154.57 103.54C154.66 100.47 152.84 97.57 153.71 94.43C153.73 94.45 155.59 96.57 155.52 97.58C157.11 94.56 157.98 92.9 156.76 90.83C155.59 88.85 155.58 88.57 156.68 85.82C156.93 86.03 157.18 86.44 157.26 86.76C157.4 85.78 158.15 85.01 158.21 84C158.3 84.13 158.42 84.3 158.52 84.43C162.15 79.64 156.22 74.99 158.31 70.23C158.22 70.1 158.11 69.92 158.02 69.79C157.81 70.04 157.62 70.46 157.6 70.79C157.46 70.46 157.14 70.03 156.81 69.87C156.85 69.06 156.91 67.99 156.96 67.18C157.11 67.28 157.31 67.42 157.46 67.52C157.49 67.68 157.52 67.9 157.55 68.07C157.75 67.82 157.99 67.46 158.13 67.17C158.57 67.64 158.75 67.83 158.77 68.68C158.95 68.72 159.18 68.78 159.36 68.82C159.78 70.3667 160.037 71.2633 160.13 71.51C161.4 68.34 158.99 65.83 158.61 62.96C159.98 61.4 156.42 53.19 155.01 52.07C155.01 52.26 155.01 52.51 155 52.7C154.91 52.57 154.78 52.4 154.69 52.28C154.71 52.44 154.73 52.65 154.74 52.8C153.953 51.7267 153.253 49.32 152.64 45.58C152.76 45.69 152.93 45.83 153.05 45.93C153.07 45.86 153.11 45.77 153.13 45.71C152.89 44.54 151.88 43.8 151.46 42.73C151.67 42.89 151.94 43.11 152.15 43.28C152.12 43.25 152.1 43.21 152.07 43.18C151.49 42.34 151.37 42.17 150.36 40.96C150.39 40.94 150.43 40.91 150.46 40.88C150.92 41.54 151.25 42.01 152.17 43.06C152.08 42.9 151.97 42.69 151.88 42.53C151.81 42.34 151.91 42.46 152.01 42.59C150.57 40.37 148.543 37.8833 145.93 35.13C146.04 35.24 146.19 35.38 146.3 35.49C146.23 35.42 146.47 35.63 146.55 35.69L146.54 35.64Z" fill="#0090C3"/>
<path d="M154.74 46.3399L156.03 48.4599C156.54 49.5099 157.19 50.4799 157.67 51.5499C157.59 51.5099 154.74 47.1799 154.72 47.1399C154.63 46.9599 153.07 44.3099 153.06 44.2899C153.03 44.2499 153 44.2099 152.97 44.1799L152.91 44.0699C152.81 43.8999 152.72 43.7299 152.62 43.5599C153.47 44.5199 154.74 46.3299 154.75 46.3399H154.74Z" fill="#0090C3"/>
<path d="M141.52 31.21C141.68 31.36 141.92 31.6 142.19 31.89C141.72 31.5 141.44 31.25 141.32 31.12C141.31 31.1 141.29 31.09 141.29 31.07C141.32 31.06 141.47 31.15 141.52 31.2V31.21Z" fill="#0090C3"/>
<path d="M51.2399 129.48C51.2399 129.48 51.1899 129.44 51.1699 129.43C51.0899 129.33 51.0199 129.24 50.9399 129.14C50.9499 129.14 50.9699 129.16 50.9799 129.16C51.0599 129.27 51.1499 129.37 51.2299 129.48H51.2399Z" fill="#0090C3"/>
<path d="M44.4599 64.27C44.3533 64.3166 44.0966 64.3966 43.6899 64.51C43.8299 64.16 43.9699 63.82 44.1099 63.47C44.2799 63.7 44.5499 63.95 44.7699 64.13C44.6799 64.17 44.5599 64.23 44.4699 64.27H44.4599Z" fill="#0090C3"/>
<path d="M48.1199 59.58C47.6099 59.77 46.2399 60.28 45.6699 59.92C46.9199 57.27 48.3199 54.69 49.8499 52.21C49.8699 52.24 49.8899 52.28 49.9099 52.31C49.8099 52.48 49.6799 52.71 49.6199 52.9C49.5499 53.1 49.6099 53.31 49.5499 53.51C49.4999 53.68 49.3999 53.9 49.2799 54.04C49.0666 54.3 48.9766 54.61 49.0099 54.97C49.0799 55.64 48.9899 55.71 48.7399 55.89C48.8199 56.0966 49.0499 56.3766 49.4299 56.73C49.3899 56.81 49.3399 56.91 49.2999 56.99C49.0599 56.99 48.8199 57 48.5799 57.01C48.4099 57.19 48.2299 57.37 48.0499 57.55C48.4099 57.44 48.7699 57.34 49.1299 57.24C49.4199 57.84 49.2699 58.25 48.8199 59.34C48.6099 59.42 48.3399 59.54 48.1299 59.61L48.1199 59.58Z" fill="#0090C3"/>
<path d="M51.55 111.25C51.46 112.07 51.09 113.11 50.85 113.89C50.78 113.86 50.69 113.82 50.63 113.79C51.23 118.083 51.4066 120.167 51.16 120.04C50.75 119.83 49.01 120.13 49.86 121.81C50.5 123.09 50.25 124.53 50.6 125.86C50.28 125.93 50.27 125.93 49.17 125.15C49.71 125.97 50.58 126.56 50.87 127.56C50.67 127.653 50.3433 127.613 49.89 127.44C50.13 127.77 50.38 128.1 50.62 128.44C50.56 128.44 50.46 128.5 50.41 128.47C43.04 118.89 38.63 106.41 38.48 92.25C38.58 92.24 38.71 92.22 38.8 92.21C38.7466 92.7433 38.94 93.26 39.38 93.76C39.23 94.26 39.22 94.29 39.29 94.39C39.41 94.57 39.63 94.63 39.76 94.79C40.34 95.55 40.36 96.55 40.91 97.32C41.2 97.72 41.91 97.91 42.25 98.26C44.51 100.57 43.88 102.11 43.27 103.61C43.39 103.58 43.54 103.53 43.65 103.5C43.66 103.54 43.68 103.6 43.7 103.65C44.27 104.18 44.37 104.23 44.65 104.35C44.7 104.32 44.76 104.28 44.8 104.25C44.8 104.13 44.82 103.97 44.82 103.86C44.88 103.83 44.95 103.79 45.01 103.76C45.37 103.97 45.6 104.17 46.42 104.97C46.45 105.23 46.49 105.48 46.53 105.73C47.25 105.95 51.91 108.15 51.56 111.26L51.55 111.25Z" fill="#0090C3"/>
<path d="M79.01 36.99C79.17 36.93 79.43 36.86 79.51 36.7C78.83 36.35 78.27 36.18 77.85 36.19C77.01 36.21 76.28 36.67 75.46 36.79C76.32 36.2567 76.7834 35.9534 76.85 35.88C76.26 35.27 75.66 36.19 75.05 35.94C75.55 35.7534 75.8167 35.63 75.85 35.57C74.95 35.46 74.48 35.39 73.81 35.29C75.06 35.05 76.31 35.59 77.55 35.29C77.4367 35.1834 76.4067 34.8067 74.46 34.16C74.64 34.1534 75.3834 34.2334 76.69 34.4C76.69 34.4 76.75 34.32 76.78 34.29C76.41 33.96 74.96 33.56 74.94 33.55C74.46 33.43 74.17 33.4 73.66 33.39C73.66 33.39 73.22 34.31 72.73 33.52C72.55 33.23 72.44 33.09 71.92 33.14C71.99 33.54 72.53 33.62 72.54 34.06C72.28 33.91 72.02 33.75 71.76 33.59C71.73 33.61 71.7 33.64 71.67 33.67C71.6434 33.8434 71.6034 33.9767 71.55 34.07C71.43 33.94 71.32 33.8 71.21 33.67C71.19 33.69 71.15 33.72 71.13 33.74C71.08 33.9 71.03 34.05 70.98 34.21C70.6667 33.6767 70.4367 33.3734 70.29 33.3C69.94 33.43 69.87 33.94 69.43 33.95C69.34 33.86 69.3 33.74 69.22 33.63C69.05 33.63 68.99 33.63 68.56 33.9C69.03 33.36 69.04 33.33 69.14 33.1C69.11 33.06 69.11 33.06 69.11 33.06C68.14 32.78 68.07 32.88 67.95 33.06C67.85 33.0534 67.7067 32.96 67.52 32.78C66.95 33.44 66.74 33.39 66.28 33.29C64.75 34.55 63.27 35.87 61.84 37.26C62.6 38.22 61.54 40.57 60.86 40.88C60.86 41.04 60.61 41.3867 60.11 41.92C60.11 41.92 60.11 42.01 60.11 42.05C60.0434 42.11 59.8767 42.2267 59.61 42.4C59.8167 42.5134 60.2267 42.45 60.84 42.21C60.66 42.44 60.48 42.67 60.3 42.91C60.39 42.91 60.51 42.92 60.59 42.93C60.37 43.25 60.46 43.7 60.15 43.99C59.85 43.8 59.79 43.25 59.3 43.36C59.5 43.73 59.65 43.98 59.87 44.33C59.27 45.17 59.07 45.31 58.4 45.3C57.4134 46.9 56.6234 48.2434 56.03 49.33C56.4567 48.99 56.7667 48.79 56.96 48.73C56.22 49.95 54.26 53.18 56.45 52.7C56.53 52.68 56.63 52.65 56.71 52.62C56.55 52.84 56.4 53.07 56.24 53.29C56.31 53.26 56.41 53.24 56.49 53.23C56.49 53.32 56.45 53.45 56.41 53.53C56.43 53.56 56.46 53.6 56.47 53.64C56.67 53.65 56.86 53.66 57.06 53.67C58.24 52.19 58.24 52.11 58.22 51.64C59 51.49 59.44 51.13 59.66 50.47C60.23 50.38 60.37 49.75 60.83 49.53C61.2 49.35 61.58 49.16 61.96 48.98C62.25 49.73 62.73 49.42 64.55 48.26C64.55 48.28 64.55 48.31 64.55 48.34C64.71 48.11 64.87 47.88 65.03 47.65C65.03 48.23 65.31 48.11 65.69 47.88C65.69 47.92 65.71 47.97 65.71 48C66.9034 48.0134 68.09 47.6734 69.27 46.98C68.63 46.94 68.04 46.29 67.34 46.79C67.41 46.64 67.48 46.5 67.55 46.35C67.55 46.3 67.54 46.3 67.52 46.29C67.5 46.29 67.49 46.29 67.47 46.28C67.45 46.28 67.44 46.28 67.42 46.27C67.42 46 67.66 45.78 67.9 45.57C68.09 45.64 68.27 45.72 68.46 45.79C68.91 45.23 69.04 45.6 69.07 45.79C69.12 46.04 68.91 46.3 69.12 46.54C69.32 46.45 69.35 46.44 69.68 46.18C69.69 46.4 69.71 46.61 69.73 46.83C70.24 46.08 70.25 46.07 70.34 45.81C70.28 45.77 70.17 45.74 70.1 45.75C69.9467 45.1234 69.74 44.7334 69.48 44.58C69.59 44.48 69.7 44.38 69.81 44.28C69.7234 44.2334 69.59 44.2067 69.41 44.2C69.49 44.1134 69.61 44.0134 69.77 43.9C69.64 43.81 69.51 43.73 69.38 43.64C70.64 43.34 72.12 44.33 73.21 43L73.13 42.98C73.13 42.98 73.07 42.97 73.05 42.96C73.02 42.96 72.99 42.95 72.97 42.94C72.94 42.94 72.91 42.93 72.88 42.92C72.85 42.92 72.82 42.91 72.79 42.9C72.76 42.9 72.73 42.89 72.7 42.88C72.67 42.88 72.64 42.87 72.61 42.86C72.58 42.86 72.55 42.85 72.51 42.84C72.6434 42.6934 72.7134 42.5667 72.72 42.46C72.52 42.4334 72.3967 42.4067 72.35 42.38C72.35 42.38 72.39 42.27 72.41 42.23C72.55 42.25 72.68 42.26 72.82 42.28C72.8 42.19 72.78 42.07 72.76 41.99C73.01 42.09 73.16 42.46 73.5 42.3C73.98 42.08 73.9 41.65 73.82 41.5C73.69 41.23 73.25 41.17 73.32 40.77C73.82 40.7 74.34 41.04 74.84 40.73C74.8267 40.69 74.6267 40.4867 74.24 40.12C74.5 39.9934 74.6867 39.94 74.8 39.96C74.71 39.57 74.48 39.59 73.95 40.04C74.08 39.76 75.48 38.36 76.8 38.04C76.82 38 76.85 37.95 76.87 37.91C76.7634 37.85 76.5067 37.8034 76.1 37.77C76.31 37.49 76.31 37.49 76.45 37.47C76.78 37.43 77.08 37.66 77.41 37.63C77.43 37.6 77.45 37.55 77.47 37.52C77.3567 37.46 77.1134 37.3734 76.74 37.26C76.8 37.18 76.92 37.12 77.02 37.11C77.68 37.03 78.35 37.19 79 36.97L79.01 36.99Z" fill="#0090C3"/>
<path d="M54.9199 45.79C54.7999 45.83 54.6899 45.88 54.5699 45.92C54.5499 45.92 54.5199 45.93 54.5099 45.94C54.4199 46.01 54.3499 46.11 54.2799 46.19C54.1799 46.31 54.0699 46.42 53.9699 46.54C53.9499 46.44 53.9399 46.35 53.9199 46.25C54.2299 45.83 54.5499 45.42 54.8799 45C54.8999 45 54.9299 45 54.9499 45C54.9099 45.07 54.8599 45.14 54.8199 45.2C54.9199 45.31 55.0299 45.42 55.1299 45.53C55.0433 45.6767 54.9799 45.7567 54.9399 45.77L54.9199 45.79Z" fill="#0090C3"/>
<path d="M67.5799 32.51C67.4599 32.54 67.2899 32.56 67.1599 32.57C67.4099 32.37 67.6499 32.18 67.8999 31.99C67.8999 32.14 67.8899 32.21 67.8599 32.43C67.7799 32.45 67.6699 32.49 67.5799 32.51Z" fill="#0090C3"/>
<path d="M48.24 63.7499C48.12 63.9199 48.01 64.0799 47.89 64.2499C47.78 64.1799 47.66 64.1199 47.56 64.0499C47.63 63.7699 47.7 63.4899 47.77 63.2099C47.51 63.4399 47.25 63.6699 46.99 63.8999C46.98 63.8499 46.96 63.7899 46.95 63.7499C47.1 63.5799 47.26 63.4099 47.41 63.2399C47.38 63.2299 47.35 63.2099 47.32 63.1999C47.29 63.1899 47.26 63.1699 47.23 63.1599C47.2 63.1499 47.17 63.1299 47.14 63.1199C47.11 63.1099 47.08 63.0899 47.05 63.0799C47.02 63.0699 46.99 63.0499 46.96 63.0399C46.93 63.0299 46.9 63.0099 46.87 62.9999C46.84 62.9899 46.81 62.9699 46.78 62.9599C46.75 62.9499 46.72 62.9299 46.69 62.9199C46.66 62.9099 46.63 62.8899 46.6 62.8799C46.57 62.8699 46.54 62.8499 46.51 62.8399C46.48 62.8299 46.45 62.8099 46.42 62.7999C46.39 62.7899 46.36 62.7699 46.33 62.7599C46.3 62.7499 46.27 62.7299 46.24 62.7199C46.21 62.7099 46.18 62.6899 46.15 62.6799C46.12 62.6699 46.09 62.6499 46.06 62.6399C46.03 62.6299 46 62.6099 45.97 62.5999C46.17 62.4199 46.41 62.2799 46.59 62.0699C46.73 61.8999 46.75 61.6699 46.87 61.4999C47.13 61.1099 48.02 60.0199 48.63 59.9299C48.33 60.2599 48.03 60.5899 47.73 60.9199C47.85 60.9099 48.23 60.8599 47.92 61.2599C47.87 61.3199 47.81 61.3899 47.75 61.4499C48.01 61.5999 48.27 61.7399 48.54 61.8899C48.5 62.1499 48.26 62.3199 48.24 62.5899C48.23 62.6999 48.43 62.7799 48.46 62.7899C48.1 63.0833 47.9166 63.2699 47.91 63.3499C48 63.3699 48.1 63.3799 48.19 63.3899C48.15 63.4899 48.11 63.5999 48.07 63.6999C48.14 63.6999 48.21 63.7099 48.29 63.7199C48.27 63.7399 48.25 63.7799 48.24 63.7999V63.7499Z" fill="#0090C3"/>
<path d="M59.2 44.24C59.02 44.43 58.72 44.45 58.61 44.46C58.66 44.38 58.71 44.31 58.75 44.23C58.67 44.14 58.59 44.05 58.51 43.96C58.68 43.85 58.93 43.71 59.15 43.8C59.34 43.9 59.32 44.11 59.19 44.25L59.2 44.24Z" fill="#0090C3"/>
<path d="M45.6099 60.95C45.5399 60.79 45.4799 60.64 45.4099 60.48C45.4599 60.36 45.5199 60.25 45.5699 60.13C45.7899 60.28 45.6699 60.77 45.6199 60.98V60.95H45.6099Z" fill="#0090C3"/>
<path d="M44.47 63.3499C44.35 63.3699 44.26 63.3299 44.2 63.2399C44.26 63.0999 44.32 62.9599 44.37 62.8199C44.47 62.9899 44.47 62.9999 44.48 63.0399C44.5 63.1399 44.48 63.2399 44.49 63.3399H44.46L44.47 63.3499Z" fill="#0090C3"/>
</g>
</g>
<path d="M134.322 194.693H64.3391V189.054C64.3391 186.022 66.7575 183.566 69.7432 183.566H128.909C131.895 183.566 134.313 186.022 134.313 189.054V194.693H134.322Z" fill="#3377FF"/>
<g style="mix-blend-mode:overlay" opacity="0.3">
<path d="M143.221 32.0164C150.355 42.6903 154.522 55.5182 154.522 69.3236C154.522 106.48 124.382 136.61 87.195 136.61C70.3195 136.61 54.9073 130.395 43.0977 120.142C55.1698 138.216 75.7512 150.122 99.124 150.122C136.303 150.122 166.451 119.999 166.451 82.8349C166.451 62.5361 157.449 44.3514 143.221 32.0164Z" fill="#05102E"/>
</g>
<g style="mix-blend-mode:lighten" opacity="0.3">
<path d="M29.1965 82.2944C20.377 91.1086 20.377 105.407 29.1965 114.229C38.0239 123.043 52.3227 123.043 61.1502 114.229C69.9776 105.415 69.9776 91.1166 61.1502 82.2944C52.3307 73.4723 38.0239 73.4723 29.1965 82.2944Z" fill="#D7F4FE"/>
</g>
<path fill-rule="evenodd" clip-rule="evenodd" d="M28.717 123.782L13.9999 138.5C11.1913 141.309 6.91478 141.698 4.10624 138.896C1.29769 136.094 1.29775 131.809 4.10629 129L19.0422 114.063C20.2355 116.031 21.6752 117.886 23.3799 119.583C25.0207 121.223 26.8146 122.623 28.717 123.782Z" fill="#3377FF"/>
<path d="M45.1733 125.006C52.0285 125.006 58.8837 122.399 64.1006 117.185C69.1585 112.131 71.9419 105.415 71.9419 98.2617C71.9419 91.1086 69.1585 84.3926 64.1006 79.3378C59.0427 74.283 52.3227 71.5012 45.1654 71.5012C38.008 71.5012 31.288 74.283 26.2301 79.3378C15.7883 89.7733 15.7883 106.742 26.2301 117.178C31.4471 122.391 38.3022 124.998 45.1654 124.998L45.1733 125.006ZM45.1733 79.8544C50.088 79.8544 54.7165 81.7698 58.1918 85.2431C61.6671 88.7163 63.5837 93.3419 63.5837 98.2537C63.5837 103.165 61.6671 107.791 58.1918 111.264C51.0106 118.441 39.3281 118.441 32.1469 111.264C28.6716 107.791 26.755 103.165 26.755 98.2537C26.755 93.3419 28.6716 88.7163 32.1469 85.2431C35.6222 81.7698 40.2506 79.8544 45.1654 79.8544H45.1733Z" fill="#3377FF"/>
<path d="M54.432 54.977C53.4186 55.9897 51.277 58.1301 49.8464 59.5598C49.0655 60.3403 47.8016 60.3399 47.0206 59.5594C45.6148 58.1544 43.5159 56.0568 42.4355 54.977C39.1227 51.6662 39.1227 46.2985 42.4355 42.9877C45.7482 39.677 51.1193 39.677 54.432 42.9877C57.7447 46.2985 57.7447 51.6662 54.432 54.977Z" fill="#F46A47"/>
<path d="M50.3875 46.8629C50.0857 46.8629 49.787 46.9217 49.509 47.0359C49.2309 47.15 48.9793 47.317 48.7689 47.5272L48.4355 47.861L48.0987 47.5272C47.8883 47.3171 47.6366 47.15 47.3586 47.036C47.0806 46.9219 46.7819 46.8631 46.4801 46.8631C46.1783 46.8631 45.8796 46.9219 45.6016 47.036C45.3236 47.15 45.0719 47.3171 44.8615 47.5272C44.4323 47.9577 44.1924 48.5335 44.1924 49.1328C44.1924 49.7321 44.4323 50.3079 44.8615 50.7384L48.4355 54.2809L52.0061 50.7384C52.4353 50.3079 52.6752 49.7321 52.6752 49.1328C52.6752 48.5335 52.4353 47.9577 52.0061 47.5272C51.7957 47.317 51.544 47.15 51.266 47.0359C50.988 46.9217 50.6893 46.8629 50.3875 46.8629V46.8629Z" fill="#FDF72A"/>
<path d="M118.233 29.9612C116.965 31.2283 114.21 33.9817 112.522 35.6686C111.741 36.4491 110.478 36.4487 109.698 35.6682C108.038 34.0098 105.34 31.3134 103.987 29.9612C100.053 26.0297 100.053 19.6554 103.987 15.7239C107.921 11.7924 114.299 11.7924 118.233 15.7239C122.167 19.6554 122.167 26.0297 118.233 29.9612Z" fill="#F46A47"/>
<path d="M113.43 20.3257C113.072 20.3257 112.717 20.3955 112.387 20.531C112.057 20.6665 111.758 20.865 111.508 21.1146L111.112 21.511L110.712 21.1146C110.462 20.865 110.163 20.6666 109.833 20.5312C109.503 20.3957 109.148 20.326 108.79 20.326C108.432 20.326 108.077 20.3957 107.747 20.5312C107.417 20.6666 107.118 20.865 106.868 21.1146C106.358 21.6258 106.073 22.3095 106.073 23.0212C106.073 23.7329 106.358 24.4166 106.868 24.9278L111.112 29.1346L115.352 24.9278C115.862 24.4166 116.147 23.7329 116.147 23.0212C116.147 22.3095 115.862 21.6258 115.352 21.1146C115.102 20.865 114.803 20.6665 114.473 20.531C114.143 20.3955 113.788 20.3257 113.43 20.3257V20.3257Z" fill="#FDF72A"/>
<path d="M131.913 98.3741C130.302 99.985 126.704 103.581 124.702 105.581C123.921 106.361 122.66 106.361 121.879 105.581C119.911 103.613 116.39 100.095 114.668 98.3741C109.906 93.6149 109.906 85.8987 114.668 81.1395C119.431 76.3803 127.151 76.3803 131.913 81.1395C136.676 85.8987 136.676 93.6149 131.913 98.3741Z" fill="#F46A47"/>
<path d="M126.1 86.7101C125.666 86.7101 125.236 86.7947 124.837 86.9587C124.437 87.1227 124.075 87.3629 123.773 87.665L123.294 88.1449L122.809 87.665C122.507 87.3629 122.145 87.1228 121.746 86.9589C121.346 86.7949 120.916 86.7104 120.483 86.7104C120.049 86.7104 119.619 86.7949 119.22 86.9589C118.82 87.1228 118.458 87.3629 118.156 87.665C117.539 88.2839 117.194 89.1116 117.194 89.9731C117.194 90.8346 117.539 91.6623 118.156 92.2811L123.294 97.3735L128.426 92.2811C129.043 91.6623 129.388 90.8346 129.388 89.9731C129.388 89.1116 129.043 88.2839 128.426 87.665C128.124 87.3629 127.762 87.1227 127.362 86.9587C126.963 86.7947 126.533 86.7101 126.1 86.7101V86.7101Z" fill="#FDF72A"/>
<path d="M135.756 12.8364C154.232 22.7172 168.026 39.5329 174.103 59.5842C180.181 79.6354 178.044 101.28 168.164 119.756C158.283 138.232 141.467 152.026 121.416 158.103C101.365 164.181 79.7203 162.044 61.2443 152.164" stroke="#3377FF" stroke-width="7"/>
<defs>
<clipPath id="clip0_1397_13119">
<rect width="134.22" height="134.22" fill="white" transform="translate(32 16)"/>
</clipPath>
</defs>
</svg>
