<svg xmlns="http://www.w3.org/2000/svg" fill="none" viewBox="0 0 195 197"><path d="M98.77 168v18.75" stroke="#37F" stroke-miterlimit="10" stroke-width="12"/><path d="M58.24 158.8 138.96 6.97" stroke="#37F" stroke-linecap="round" stroke-width="7"/><path d="M99.12 150.12a67.3 67.3 0 0 0 67.33-67.29 67.3 67.3 0 0 0-67.33-67.28A67.3 67.3 0 0 0 31.8 82.83a67.3 67.3 0 0 0 67.32 67.3Z" fill="#3FD5FE"/><mask id="b" width="136" height="136" x="31" y="15" maskUnits="userSpaceOnUse" style="mask-type:luminance"><path d="M99.12 150.12a67.3 67.3 0 0 0 67.33-67.29 67.3 67.3 0 0 0-67.33-67.28A67.3 67.3 0 0 0 31.8 82.83a67.3 67.3 0 0 0 67.32 67.3Z" fill="#fff"/></mask><g clip-path="url(#a)" mask="url(#b)"><path d="M99.11 150.22a67.1 67.1 0 1 0 0-134.22 67.1 67.1 0 0 0 0 134.22Z" fill="#3FD5FE"/><path d="m154.94 106.73-.06.24c.12-.44.15-.63.12-.9 0 .2-.02.45-.12.9-.1.38-.6 2.26-.97 1.7a6.47 6.47 0 0 1-.5-1.48 21.02 21.02 0 0 0-2.06-5.26l.07-.18c1.68-.06 3.38 3.3 3.26 4.34.1 0 .2 0 .32-.02 0 .14.03.31-.06.67Zm-20.07-70.08-.4-.32.4.32Zm22.83 79.5c-1.18 1.94-2.77 4.5-4.05 6.37l.14-.2c-.5.71-.83 1.14-1.36 1.83.55-.74.82-1.12 1-1.43-.3.18-3.57 3.51-4 3.95-.46.49-.48.5-.84.64.03-.07.06-.17.1-.24.58-1.07 1.4-2 1.98-3.07.42-.76.45-1.69 1.03-2.38l.1.2.08-.08c.24-.58.5-1.4.87-1.9.13-.2.3-.47.45-.65.8-1.07 1.83-1.96 2.64-3.03.5-.64.77-1.4 1.22-2.07l.27-.36-.13.42.05-.03c.15-.3.74-1.38 1.78-3.2.06.2.07.32-.22 1.04l.3-.59.09.1a23.4 23.4 0 0 0 1.57-3.37l.08.3c.09-.05.22-.2.4-.43a24.2 24.2 0 0 0-1.17 3.34c1.1-1.65 1.35-3.66 2.23-5.4-.3.87-.38 1.14-.77 2.18.04-.1.1-.21.13-.31l-.57 1.43c-.98 2.1-2.23 4.94-3.4 6.95Zm5.27-12 .32-1.01c.18-.58.5-1.73.5-1.74.08-.99.1-1.51.07-1.57-.21.1-.4.5-1.04 1.98.24-1.66.24-1.84.19-1.94l-.08.07c-.05.07-.2.31-.42.72.06.21 0 .43.04.64.16-.02.12-.23.26-.27.02.02.1.12-.22.56-.06.1-.13.45-.22 1.1l.2-.58c.15.2.18.25.3.3.06.02.08.03.08.13 0 .25-.31 1.5-.4 1.92l.1-.22-.1.5v.1c.06-.03.09-.1.09-.1l.02-.04.07-.18c.04-.09.08-.18.1-.28.1-.64.4-1.13.4-1.14a6 6 0 0 1-.27 1.05Zm-3.14-3.08-.05.03-.05.03-.04.03c-.14.1-.15.1-.17.1-.35 1.52-.9 3.5-1.54 4.32l-.48-.42c-.22.35-.36.53-.43.53-.05-.07-.05-.18-.13-.24-.15.13-.16.13-.29.16-.04-.03-.08-.1-.08-.13-.03-.34.11-.66.1-1 0-.3-.19-.6-.17-.9.04-.54.17-.89.42-1.58l.47.12a52.14 52.14 0 0 0 2.36-5.44c.23.38.36.6.55.96-.52 1.36-.97 2.54-.43 3.38a.2.2 0 0 0-.06.04h.02Zm1.46-37c1.6 4.73 1 5 .6 5.13.1.27.15.68.2 1.23-.1-.02-.2-.3-.3-.85-.32.4-.31.96-.62 1.36 0-.04-.05-.1-.07-.14.03-.57.1-2.32.5-1.94-.02-.37-.02-.43-.32-2.07-.01.04.02.08.03.12 0 .04.02.07.04.1l.03.22.03.1.03.07.02.1.02.06.02.07c.11-1.17-.2-2.15-.87-4.3l.15-.16c.1.18.2.37.42 1v.02Zm.2 35.6c-.3.92-.4.97-1.3 1.4-.2.45-.28.92-.2 1.41l.63-.86v.16c-.43.9-.8 1.66-.5 2.51l-.42.65.08-1.4c-.2.3-.23.34-.4 1.24-.16.68-.27 1.04-.36 1.07 0 0-.22-.35.6-3.25.55-1.93.72-2.33.97-2.27.34.08.45.1.87-.95l-.06.3v-.02Zm-3.5-44.2-.27-.22c.07.24.23.75.4 1.1a7 7 0 0 0 .33.6c.18.3.55.46.55.86l-.26-.27.22.76c-1.24-2.46-2.66-4.82-3.9-7.28A64.65 64.65 0 0 1 158 55.5l-.02-.02Zm-18.9-22.3c.7.7.5 1.3 0 1.26-.48-.03-1.22-.85-1.02-.98.1-.07.38.02.53.06l-.42-.5.11.1c.24 0 .47-.02.71-.03l.1.1Zm22.9 56.5-.15.65-.82-.22.07-.55c-.18-.2-.28-.33-.28-.36v-.4c.07-1.02.08-1.7.07-2.64l.46.03c.14 1.08.1 1.4 0 1.77-.13.4-.15.68 0 1.68.2 0 .43-.02.66-.04 0 .03 0 .07-.02.1Zm-1.57-29.14.11 1.1c-.2.2-.32.36-.33.47l.04.05c.15.24.21.45.2.62-.1-.22-.28-.4-.35-.65-.1-.33-.1-.67-.16-1a5.5 5.5 0 0 0-.78-1.96c.33.23.48.63.82.85.1.06.13-.02.12-.24.21.4.33.64.34.75Zm-3.6 48.7c-1 .12-1.4.18-1.93.28-.08 0-.15.04-.23.03-.04 0-.07 0-.1-.03-.12-.1-.2-.2-.3-.3.1-.39.17-.53.33-.63.12-.04.2-.05.46.04.42.15.7.2 1.05-.4v.12c.1.04.2-.04.3-.04.02.07-.03.26-.14.56.4-.17.61-.24.66-.2.05.02 0 .21-.13.57Zm-28.7-74.72.76.78c-.02 0-.06 0-.08.02-1.15.28-1.28.18-1.43.06-.29-.22-.3-.19-.53-.04-.17-.56.04-.74.18-.8.2-.06.34 0 .6.16 0-.2 0-.3.08-.33.02 0 .2-.06.4.16Zm34.14 60.15c-.14.27-.2.67-.24 1.22-.18-.08-.28-.48-.29-1.2l-.49.7c-.03-.38.01-.5.17-.77a.88.88 0 0 0 .16-.53l.07-.03c0 .08.03.16.05.24l.44-.83c.07-.2 0-.43 0-.64.26-.03.23 1.6.1 1.85Zm-31.87-59.7c.16.62-.52 1.1-.84 1.12-.02-.2-.05-.3-.3-.77-.3-.4-.3-.53-.14-.63l.12-.04.17.25.97.05.03.1Zm-3.6-1.02c.36.95-.67.7-1 .63l-.26-.5-.04-.07c.02-.1.02-.3.24-.4.1-.02.24-.03.53.06.23.07.5.2.5.2l.02.1v-.02Zm17.86 68.7c-.09.65-.74 1.02-.94.76-.18-.2-.1-1.74-.1-1.76 0-.06.1-.4.32-1 .05 0 .1-.03.16-.03.54 1.48.62 1.75.6 2.03Zm-5.24-65.23c.52.5.46.6.2.6-.23 0-.47-.04-.7-.06 0-.06.02-.13.04-.2a3.94 3.94 0 0 1-.56-.5h.54c.1 0 .2-.03.32 0 .07 0 .12.1.17.15Zm22.06 34.5c.16.66.22 1.4.24 1.64-.07-.02-.2-.07-.28-.35-.12-.4-.1-.8-.19-1.2l-.15.33c0-.44-.04-.96.06-1.08.13-.1.28.5.33.67Zm-.84 9.17c.05.5-.02 1.5-.05 1.93-.44-.5-.23-2.03-.1-2.6l.16.67Zm-2.98 6.1-.27 1.4c-.42-.83-.4-1.34-.1-1.5.1-.04.22-.04.4 0a.3.3 0 0 1-.03.1ZM140 32.95c.11.24-.03.4-.4.24l-.58-.4c.32.1.4.1.48 0 .05-.07.08-.1.2-.09 0 .01.26.07.3.16Zm23.94 67.8-.06.2.16-.58-.1.4Zm-3.83 6.34c-.8 1.54-.8 1.55-.9 1.56a3.7 3.7 0 0 1 .8-1.6c.1-.04.1-.06.2-.05 0 .03-.02.06-.04.1Zm2.2-7.8c-.31 1.36-.33 1.4-.4 1.45l.3-2.15c0-.04.05-.05.07-.08.08.68.08.69.06.77Zm-21.2-64.26c.06.15.1.23.08.24 0 0-.02.03-.3.13-.2-.26-.3-.4-.26-.48.06-.08.28-.08.28-.08l.15.12.03.07Z" fill="#0090C3"/><path d="M161.87 70.63c.02.35 0 .35-.04.35-.05 0-.05.07.04.78-.15-.08-.22-.23-.26-.57l-.05-.6.15-.27s.02-.01.16.1v.1ZM140.1 37.34l.1.58-.12-.04-.48-.58c-.06-.08-.06-.09-.05-.1h.1l.44.1v.04Zm22.12 55.06-.15-.4c-.03.06-.08.1-.08.16-.02.32.02.63.03.95-.2-.42-.12-1.12.03-1.25.15-.1.23.43.23.44 0 .04-.04.08-.05.1Zm-.17 9.93c-.21.15-.33.22-.35.21 0 0-.05-.1-.04-.28.05.04.1 0 .25-.16.14-.14.2-.15.17.2l-.03.02v.01Zm-2.98 5.62c-.4.1-.34 0-.23-.1.1-.05.17-.03.25.1h-.02Zm-32.52-73.04.12.12c-.6.13-.63.08-.67.04l.56-.16Zm35.2 56.95c-.07.28-.16.57-.25.85h-.06l.1-.99.24.1v.04h-.02Zm.61-.3-.27-.87.27-.08c0 .15 0 .3.03.45-.1.12 0 .23 0 .35 0 .05-.1.1-.1.15Zm-7.13 14.77-.22-.27c.03-.2.04-.4.1-.6l.18-.07.07.46c.02.1.05.21.05.31 0 .05-.07.12-.09.16v.01Zm3.13 2.94a4.88 4.88 0 0 0-.22-.23c.12-.17.2-.24.24-.28.1-.06.1.09 0 .52l-.02-.01ZM95.02 82.15l-.05-.1.05.1Zm27.95 40.96-.47-.14a36.47 36.47 0 0 1-2.92 6.32c-.65.82-1.58.63-2.03-.07a1.57 1.57 0 0 1-.19-1.27c.2-.77 1.19-1.1 1.17-2 0-.36-.33-.67-.18-1.06.12-.3.42-.7.68-1.06-.02.05 0 .07 0 .08.02 0 2.07-.64 3.37-2.84.09 0 .17-.03.26-.04.21 1.08.3 1.46.4 2.12l-.1-.03h.01ZM89.6 66.62c-.06.27-.35.74-.56 1.08l.43.14c-.23.26-.66.34-2.15.48-1.6.16-2 .25-2.32.54l-.06-.16 1.27-1.25c-.31-.15-.6-.27-.86-.36.2-.24.4-.42.63-.55-.26-.7-.24-.9.37-.97.15 0 .37-.08.45-.2.16-.28-.06-1.02-.62-1.18-.17-.05-.31-.1-.31-.4l.07-.9-.36.23.05-.55c-.13 0-.25.02-.38.03l.58-.97h-.64c.7-.74 1.07-1.1 1.13-1.15.4-.23.87-.17 1.3-.25l-.74 1 1.19.37c-.3.44-.57.87-.85 1.3a6.4 6.4 0 0 1 1.7 3.24c.52.01.78.1.68.51v-.03Zm-6.92-13.08c-.31.5-1.87 1.64-4.87.6l.44-.22c0-.57-.13-.76-.6-.87l.5-.05.05-.14c0-.02 0-.03.02-.05l.02-.05c0-.02 0-.04.02-.06 0-.02 0-.04.02-.06 0-.02 0-.04.02-.07h-.85c.42-.66.69-.87 1.1-.87.26.05.42.16.65.46l-.24.41.08.12.72-.6.13.14c3.93-.63 2.8 1.3 2.8 1.31Zm18.02-13.5c-.5.17-.6.21-.71.34a.92.92 0 0 0-.25.27c-.22.5-.46.9-.96 1.55l-1.2-.82 1.2-.22v-.2h-1.2v-.1c.56-.22 1.18-.46 1.2-.57-.02 0-.6-.27-1.1.08-.28.2-.4.22-1.03-.42l.2-.28-.49-.32.05-.2 1.1-.21.04.08-.27.2c.1.1.22.18.33.26.16-.29.48-.2.95.27l-.18-.77a.65.65 0 0 1 .4-.13c.27.02.4.13.45.35l1.48.87c-.04 0-.08.03-.12.04v-.06Z" fill="#0090C3"/><path d="M85.3 64.86c-.17 1.05-1.35 3.06-3.2 1.8.46-.34.71-.54.73-.6.03-.07 0-.17-.04-.4a2.7 2.7 0 0 1 .07-1.18c.74.05.8-.07.88-.32.13-.4.68-.45 1.12-.43.54.1.5.74.45 1.12v.01Zm17.67-26.09c-1.49 1.09-3.2.4-3.52-.18.76-.4 1.15-.37 1.68.09l.22-.57.22.35c.23-.13.73-.06 1.52.22 0 0-.08.06-.1.1h-.1Zm-.67 2.24-.78.48c-.09-.34-.15-.32-.49-.22-.15.05-.18-.04-.18-.04v-.08l.01-.58c.07 0 .58.14 1.51.4l-.06.04h-.01Zm9.89-3.78c-.63.5-.76.6-.87.65a.3.3 0 0 1-.13.03c-.14 0-.28-.04-.42-.05 0-.02 0-.06-.02-.08.59-.45.92-.67.99-.68.2-.01.4.02.6.02-.05.03-.1.08-.15.1Zm4.21 11.65c-.1.23-.2.44-.35.48-.15.03-.44-.08-.5-.28 0 0-.14-.4.26-.5.18 0 .36.07.6.25v.05Zm-2.04-12.12s-.15.07-.68.15c-.2.03-.41.05-.61.1l-.06-.13c.3-.21.4-.27.5-.3.2-.02.5.03.9.17Zm-3.4.48c-.23.05-.37.27-.6.3-.18.04-.33-.03-.47-.1l1.03-.35.07.14h-.05Zm4.26-.03c-.14.03-.25.17-.42.14a.58.58 0 0 1-.2-.11l-.05-.17h.6l.06.14Zm5.7 3c-.05.22-.28.47-.71.76l.1.17v.06a7.7 7.7 0 0 0-1.21.85c-.18.2-.08.48-.22.68-.18.05-.32.08-.4.24-.18.3-.14.66-.24.98-.07.18-.24.28-.31.45l-.1.98c.04.34.13.4 1.64 1.57-1.27.09-1.87-.06-1.8-.45l-1.16-.1c-.2-.23-.26-.33-.27-.53 0-.18.2-.18.25-.33.04-.16-.07-.31-.03-.47.02-.1.13-.48.53-.82l-.4-.24.57-1.25-.2-.2c.5-.63.84-1.05 1.27-1.11.15-.32.2-.4.74-.51.17-.03.37-.07.82-.36l-.1-.18.06-.05c.24-.23.43-.37.57-.4.2-.03.4 0 .75.09l-.05.17Z" fill="#0090C3"/><path d="m146.54 35.64-1.78-1.71.61.58c-.32-.27-.75-.63-1.08-.88-.05.15-.1.36-.16.5l.83.72c-.02.4.35 1.04 1.12 1.9a12.1 12.1 0 0 1-3.18-1.22c0 .17 0 .4.02.56l-.39-.4h-.7c0 .74.7 1.15.94 1.8a2.3 2.3 0 0 0-1 .36c.15.32.37.73.55 1.04-.34-.1-.98-.42-1.92-.93l.05.12c.13.12.3.27.42.4-2.44-.66-3.48-.25-3.82-.1l-.1.5a1.6 1.6 0 0 0-.97-.3c-.05.35-.2.8-.4 1.1-.64-.85-.04-2.01-.74-2.84-.3-.36-1.1-1.12-2-.4l-.5-.1a.93.93 0 0 0-.73.06l-.1-.1-.38-.37-.36.13c0 .34.15.82.37 1.07l-.56.21.1.14c.15.1.36.23.5.34-1.94 1.11-2.5 2.33-1.67 3.64-.44-.24-.77-.4-2.12.5.7 1.17 2.06 1.67 2.8 2.81-1.07-.9-2.53-2.17-3.52-.79.4.3.9.35 1.25.7-1.12 0-1.5-1.17-2.4-1.5a57.86 57.86 0 0 0 4.1 4.64l-.62-.14-.17-.49c-.33-.09-.8-.15-1.14-.1.1 1.52.2 2.37.1 2.53-.73.24-.93.2-1.58-.16.32-.05.73-.17 1.02-.29.02-.5 0-1.16-.04-1.66-1.47-.86-1.1-3-2.63-3.82-1.25-.67-1.78.52-1.46 1.64.22.8 1.2 1.68 1.92 2.33l-.06.5c-.37-.12-.87-.3-1.24-.45l-.26-.06h-.09c-.23-.18-.27-.26-.3-.33l-.1.03.07.15a4.05 4.05 0 0 0-1.77-.18c.07.35.13.83.15 1.2-1.36.22-2.3.56-2.83 1.01l-.24-.47c-1.5.18-2.16 1.73-3.48 2.2l-.44-.29c.02-.32.21-.74.44-.96a3.04 3.04 0 0 0-1.29-.43l-.25.5c.5.9.66 1.63.51 2.2-.6-.43-.69-.5-1.3-.18l-.29.23-.25.28-.2.43c.14.23.31.57.34.84l-1.46-.36-.37.38.42.31-.36.37c-1.53-.73-1.5-1.22-1.46-1.85-.28-.22-.67-.5-.97-.7 1.46-.2 2.97.34 4.38-.38-1-2.33-3.75-1.52-5.26-2.95-.77.13-1.24.16-1.4.1l.51-.34a3.9 3.9 0 0 0-1.06-.64l-.23.53a.75.75 0 0 0-.16.05l-.03-.53-.5.15c-.33.13-.35-.08-.37-.29a2.7 2.7 0 0 1-.56.7l.06-.6c-.33.2-.73.52-1 .8a2.18 2.18 0 0 0-.95-.04l-.27.48-.36-.39c-.16.27-.45.6-.7.76l-.52-.12-.1.6h-1l-.2.55.52-.17a4.71 4.71 0 0 1-1.46 1.58l.2.5c-1.58 1.3-2.64 3.13-4.48 4.1a.47.47 0 0 1-.05-.1l-.34.56.46.3c-.27.23-.56.6-.69.9.26.02.6.06.87.06l-.85.75c.8 1.61 1.74 1.9 2.9.88.2.21.7 1.44 1.52 3.68 2-.22 1.67-2.67 3.2-3.34-.37-.36-.73-.36-1.1-.36.33-.1.77-.16 1.1-.15l.3-.49c-2.74-2.84 2.46-6.07 2.57-6.05.31.05.63.38.81.64-1.29 2.92-1.88 4.47-1.78 4.65 1.1 1.9 3.15-.64 4.63.32-.1.13-1.16.47-3.19 1.03l-.2.6c.32.58.46 1.1.4 1.52a2.45 2.45 0 0 1-.96-.43l-.53.2c-.48 1.5-1.93 2.66-4.34 3.47-.9-.69-2.4-.08-3.04-1.38.68-.83.64-1.27.56-2.24-.45.25-.9 1.6-1.35 4.02-3.06-.26-3.38 4.84-6.82 3.63l.01.54c-.24.2-.65.32-.95.32l-.63.07-.22.6c3.18 1 1.51 4.21 1.01 4.4-1.48.54-2.88-.6-4.35-.19a80.21 80.21 0 0 0-.36 5.78c3.48 2 6.1.17 5.83-2 1.63-1.55 2.48-2.64 2.56-3.27.38-.05.9 0 1.27.1l.26.05c2.04-.5 4.82-1.2 7.15 4.04l-.26.64.6.03c.24-.63.34-.9.17-1.92.44.1.8.4 1.28.42-2.74-2.68-4.18-4.37-4.32-5.07l.58-.2c.66.42 2.67 1.66 5.31 6.52l.93.17-.49.26c.02.32.1.8.2 1.1l.62.1a5.8 5.8 0 0 1 1.07-1.2l-.43-.43.01-.52c.24.32.54.77.75 1.1l.13-.13-1.43-1.98.14-.13.48.22c.4-.76.6-.78 1.37-.86.4.35.65.81 1.1 1.13v1.2l-.5.01c.83 1.1 1.74 1.7 2.72 1.84.22-.22.6-.45.9-.52 1.1.68 2.11-.12 3.16-.19.06 3.16-1.48 6.48-6.03 5.43-3.24-.75-5-.56-5.3.57-.09.05-2.48-.98-7.17-3.08.9-.86.84-1.03.7-1.48v-.13l-.02-.04-.02-.05-.15-.29.36-.45c-3.87-1.9-7.4 2.9-11.3.58-.97.55-1.38 1.74-2.47 2.14-1.46 3.33-4.9 5.33-6.03 8.87l.2 9.23.52.09c.01.08 2.06 6.84 7.73 6.1.2-.02.44-.03.62 0 .34.04.75.26 1.1.3 2.07.29 4.26-.72 6.21.64.31-.1.76-.07 1.05.04.1-.13.26-.28.36-.4l.86.63c.13 1.72 0 3-.36 3.8.82 1.27 2.1 2.2 2.58 3.73.85 2.76-.46 5.57.18 8.33.8 3.43 4.24 5.77 3.95 9.64 2.64 2.97 9.32-2.63 9.58-4.33.03-.17-.03-.4-.05-.56.57-.3 1.5-.67 1.81-1.25.3-.56-.15-1.14.05-1.7.7-1.96 3.27-1.98 4.05-3.87.87-2.1-.02-4.25.2-6.37.33-3.22 2.42-5 3.95-6.3 2.7-2.3 3.67-4 5-8.72-6.7 1.57-7.59 1.77-14.1-14.2l.1-.07.81.96.52-.21c2.54 3.47 2.87 3.9 5.56 9.7 1.17 2.48 1.82 3.09 2.16 3.17 1.96.39 8.75-4.18 10.77-9.18-1.66-1.66-2.55-2.74-2.66-3.25l-1.36 2.03c-.86.12-1.44.18-1.74.19a6.31 6.31 0 0 1-.29-1.55l-.32.52a33.4 33.4 0 0 0-.55-.2c-.37-1.13-1.33-1.93-1.72-3.05.2-.3.47-.73.63-1.06 2.13 1.83 4.02 2.62 5.7 2.38.5.9 1.01 1.88 5.03.89.32-.15.31-.2.31-.26l.52-.17c.3.2.7.63 1.21 1.3l.5-.3c.11.73.41.94 1.2.86-.23.2-.46.6-.5.9.22.27.6.55.9.7.32-.24.67-.7.85-1.08 1.53 3.5 1.03 7.6 3.17 10.94 1.38-.55 1.6-2.74 1.6-2.77.24-6.17 3.95-10.55 5.52-10.82.07-.35.02-.9-.15-1.7.86.62 2.11 4.55 2.21 6.47.48-.35.67-.48 1.07-1.4 2.35 3.44.45 7.59 1.9 11.17l.66.24c.1-3.06-1.73-5.96-.86-9.1.03.02 1.9 2.14 1.82 3.15 1.6-3.02 2.46-4.68 1.24-6.75-1.17-1.98-1.18-2.26-.08-5 .25.2.5.6.58.93.14-1 .9-1.76.95-2.77l.35.43c3.63-4.8-2.3-9.44-.2-14.2l-.3-.44c-.2.25-.4.67-.42 1a1.97 1.97 0 0 0-.79-.92l.14-2.7.5.35.1.56c.2-.25.43-.6.57-.9.45.47.63.66.65 1.5l.6.15c.4 1.55.67 2.44.76 2.7 1.28-3.2-1.13-5.71-1.5-8.57 1.37-1.56-2.2-9.77-3.6-10.9v.64l-.32-.42.05.52c-.79-1.08-1.49-3.5-2.1-7.23l.41.35.08-.22c-.24-1.17-1.25-1.91-1.67-2.98l.7.54-.08-.1c-.58-.84-.7-1-1.7-2.22a.7.7 0 0 0 .1-.08 19 19 0 0 0 1.7 2.18l-.28-.53c-.07-.2.03-.07.13.06a53.61 53.61 0 0 0-6.08-7.46l.37.36c-.07-.07.17.14.25.2v-.06Zm8.2 10.7 1.29 2.12c.5 1.05 1.16 2.02 1.64 3.09-.08-.04-2.93-4.37-2.95-4.41l-1.66-2.85a1.06 1.06 0 0 0-.1-.11l-.05-.11-.3-.51c.9.96 2.2 2.77 2.2 2.78ZM141.52 31.2l.67.68c-.47-.4-.75-.64-.87-.77 0-.02-.03-.03-.03-.05.03-.01.18.08.23.13Zm-90.28 98.27-.07-.05-.23-.3.04.03.25.32Zm-6.78-65.21c-.1.05-.36.13-.77.24l.42-1.03c.17.23.44.48.66.66l-.3.14Zm3.66-4.69c-.5.2-1.88.7-2.45.34a78.43 78.43 0 0 1 4.18-7.7l.06.18c-.1.17-.23.4-.3.6-.06.2 0 .4-.06.6-.05.17-.15.4-.27.53-.21.26-.3.57-.27.93.07.67-.02.74-.27.92.08.2.3.5.69.84l-.13.25c-.24 0-.48 0-.72.02l-.53.54 1.08-.3c.29.6.14 1-.31 2.1-.21.06-.48.2-.7.25v-.03Zm3.43 51.67c-.09.82-.46 1.86-.7 2.64a4.7 4.7 0 0 1-.22-.1c.6 4.3.78 6.38.53 6.25-.4-.2-2.15.1-1.3 1.77.64 1.28.4 2.72.74 4.05-.32.07-.33.07-1.43-.7.54.81 1.4 1.4 1.7 2.4-.2.1-.53.05-.98-.12.24.33.5.66.73 1-.06 0-.16.06-.2.03-7.38-9.58-11.79-22.06-11.94-36.22l.32-.04a2 2 0 0 0 .58 1.55c-.15.5-.16.53-.1.63.13.18.35.24.48.4.58.76.6 1.76 1.15 2.53.3.4 1 .6 1.34.94 2.26 2.3 1.63 3.85 1.02 5.35l.38-.1c0 .03.03.09.05.14.57.53.67.58.95.7l.15-.1.02-.4.2-.09c.35.2.6.4 1.4 1.2l.1.77c.73.22 5.4 2.42 5.04 5.53v-.01ZM79 37c.17-.06.43-.13.51-.29a3.72 3.72 0 0 0-1.66-.5c-.84 0-1.57.46-2.4.58.87-.54 1.33-.85 1.4-.92-.59-.6-1.19.3-1.8.06.5-.19.77-.3.8-.37-.9-.1-1.37-.18-2.04-.28 1.36-.24 2.61.3 3.85 0-.1-.1-1.15-.48-3.1-1.13.2 0 .92.07 2.23.24 0 0 .06-.08.1-.1-.37-.34-1.82-.74-1.84-.75a4.93 4.93 0 0 0-1.27-.16s-.44.92-.93.13c-.18-.3-.3-.43-.81-.38.08.4.6.48.63.92l-.78-.47-.1.08c-.02.17-.06.3-.1.4-.13-.13-.24-.27-.35-.4l-.08.07-.15.47c-.3-.53-.54-.84-.69-.9-.35.12-.42.63-.86.64-.1-.1-.13-.2-.2-.32-.18 0-.24 0-.67.27.47-.54.48-.57.58-.8l-.03-.04c-.97-.28-1.04-.18-1.16 0-.1 0-.25-.1-.44-.28-.57.66-.78.6-1.24.5a83.5 83.5 0 0 0-4.44 3.98c.76.96-.3 3.31-.98 3.62 0 .16-.25.5-.75 1.04v.13c-.07.06-.23.18-.5.35.2.11.62.05 1.23-.19l-.54.7.3.01c-.22.32-.13.77-.44 1.06-.29-.2-.35-.74-.84-.63l.58.97c-.6.84-.8.98-1.47.97a91.64 91.64 0 0 0-2.37 4.03c.43-.34.74-.54.93-.6-.74 1.22-2.7 4.45-.5 3.97l.25-.08-.47.67c.07-.03.17-.05.25-.06 0 .1-.04.22-.08.3l.06.1.6.04c1.16-1.48 1.16-1.56 1.14-2.03.78-.15 1.22-.5 1.44-1.17.57-.09.7-.72 1.17-.94l1.13-.55c.3.75.77.44 2.6-.72v.08l.47-.7c0 .6.28.47.66.24l.02.12c1.2.01 2.38-.33 3.56-1.02-.64-.04-1.23-.69-1.93-.19l.2-.44c0-.05 0-.05-.02-.06h-.05c-.02 0-.03 0-.05-.02 0-.27.23-.5.47-.7l.56.22c.44-.56.57-.2.6 0 .05.25-.16.5.05.75.2-.1.23-.1.56-.36 0 .22.03.43.05.65.5-.7.52-.7.6-1a.41.41 0 0 0-.23 0c-.15-.61-.36-1-.62-1.15l.34-.3a.95.95 0 0 0-.4-.1c.08-.1.2-.2.36-.3l-.4-.24c1.27-.3 2.75.7 3.84-.64l-.08-.02s-.06 0-.08-.02c-.03 0-.06 0-.08-.02-.03 0-.06 0-.1-.02l-.08-.02c-.03 0-.06 0-.1-.02l-.1-.02c-.02 0-.05 0-.09-.02.15-.15.22-.27.23-.38-.2-.03-.32-.05-.37-.08l.06-.15.4.05-.06-.3c.25.1.4.49.74.3.5-.2.41-.62.33-.77-.13-.27-.57-.33-.5-.73.5-.07 1.02.27 1.52-.04a5.35 5.35 0 0 0-.6-.6c.26-.14.45-.2.56-.17-.1-.4-.32-.37-.85.08a6.06 6.06 0 0 1 2.85-2l.08-.13a2.5 2.5 0 0 0-.77-.14c.21-.28.21-.28.35-.3.34-.04.64.19.97.16l.06-.1a5.07 5.07 0 0 0-.73-.26.43.43 0 0 1 .28-.14c.66-.08 1.33.08 1.98-.14l.01.02Zm-24.08 8.8c-.12.02-.23.07-.35.11a.1.1 0 0 0-.06.02c-.1.07-.16.17-.23.25l-.31.35-.05-.29c.3-.42.63-.83.96-1.25h.07l-.13.2.3.3c-.08.1-.14.2-.18.2h-.02Zm12.66-13.3c-.12.03-.3.05-.42.06.25-.2.49-.4.74-.58 0 .14-.01.21-.04.43l-.28.08ZM48.24 63.75l-.35.5-.33-.2.21-.84-.78.7-.04-.1.46-.5-.09-.01-.1-.04-.08-.04-.1-.04-.08-.04-.1-.04-.08-.04-.1-.04-.08-.04-.1-.04-.08-.04-.1-.04-.08-.04-.1-.04-.08-.04-.1-.04c.21-.18.45-.32.63-.53.14-.17.16-.4.28-.57.26-.4 1.15-1.48 1.76-1.57l-.9 1c.12-.02.5-.07.2.33l-.18.21.8.43c-.05.26-.29.43-.3.7-.02.1.18.2.21.2-.36.27-.54.46-.55.54l.28.04-.12.3.22.04a.35.35 0 0 0-.05.08v-.04Z" fill="#0090C3"/><path d="M59.2 44.24c-.18.19-.48.21-.6.22l.15-.23-.24-.27c.17-.1.42-.25.64-.16.2.1.17.31.04.45h.01ZM45.6 60.95a4.73 4.73 0 0 0-.2-.47l.17-.35c.22.15.1.64.05.85v-.03h-.01Zm-1.13 2.4c-.12.02-.21-.02-.27-.11l.17-.42c.1.17.1.18.1.22.03.1 0 .2.02.3h-.03Z" fill="#0090C3"/></g><path d="M134.32 194.7H64.34v-5.65a5.45 5.45 0 0 1 5.4-5.48h59.17c3 0 5.4 2.45 5.4 5.48v5.64h.01Z" fill="#37F"/><path d="M143.22 32.02A67.3 67.3 0 0 1 43.1 120.15a67.26 67.26 0 0 0 56.02 29.97 67.3 67.3 0 0 0 67.33-67.29c0-20.3-9-38.48-23.23-50.81Z" fill="#05102E" opacity=".3" style="mix-blend-mode:overlay"/><path d="M29.2 82.3a22.58 22.58 0 1 0 31.95 31.93A22.6 22.6 0 0 0 29.2 82.3Z" fill="#D7F4FE" opacity=".3" style="mix-blend-mode:lighten"/><path d="M28.72 123.78 14 138.5c-2.8 2.8-7.09 3.2-9.9.4a6.86 6.86 0 0 1 0-9.9l14.94-14.94a28.95 28.95 0 0 0 9.68 9.72Z" fill="#37F" fill-rule="evenodd" clip-rule="evenodd"/><path d="M45.17 125a26.7 26.7 0 0 0 18.93-7.81 26.57 26.57 0 0 0 7.84-18.93c0-7.15-2.78-13.87-7.84-18.92a26.6 26.6 0 0 0-18.93-7.84 26.77 26.77 0 0 0-18.94 45.68A26.7 26.7 0 0 0 45.17 125Zm0-45.15a18.3 18.3 0 0 1 13.02 5.4c3.48 3.47 5.4 8.1 5.4 13a18.44 18.44 0 0 1-31.44 13.01 18.28 18.28 0 0 1-5.4-13c0-4.92 1.9-9.54 5.39-13.02a18.3 18.3 0 0 1 13.02-5.39Z" fill="#37F"/><path d="m54.43 54.98-4.58 4.58a2 2 0 0 1-2.83 0l-4.58-4.58a8.47 8.47 0 1 1 12 0Z" fill="#F46A47"/><path d="M50.39 46.86a2.31 2.31 0 0 0-1.62.67l-.33.33-.34-.33a2.26 2.26 0 0 0-1.62-.67 2.31 2.31 0 0 0-1.62.67 2.27 2.27 0 0 0 0 3.2l3.58 3.55L52 50.74a2.27 2.27 0 0 0-1.62-3.88Z" fill="#FDF72A"/><path d="m118.23 29.96-5.7 5.7a2 2 0 0 1-2.83 0l-5.71-5.7a10.06 10.06 0 1 1 14.2 0Z" fill="#F46A47"/><path d="M113.43 20.33a2.75 2.75 0 0 0-1.92.78l-.4.4-.4-.3a2.69 2.69 0 0 0-1.92-.78 2.75 2.75 0 0 0-1.92.78 2.7 2.7 0 0 0 0 3.82l4.24 4.19 4.24-4.2a2.7 2.7 0 0 0-1.92-4.62Z" fill="#FDF72A"/><path d="m131.91 98.37-7.2 7.21a2 2 0 0 1-2.83 0l-7.21-7.2a12.18 12.18 0 1 1 17.24-17.24 12.18 12.18 0 0 1 0 17.23Z" fill="#F46A47"/><path d="M126.1 86.71a3.33 3.33 0 0 0-2.33.96l-.48.47-.48-.47a3.25 3.25 0 0 0-2.33-.96 3.33 3.33 0 0 0-2.32.96 3.27 3.27 0 0 0 0 4.6l5.13 5.1 5.14-5.1a3.27 3.27 0 0 0-2.33-5.56Z" fill="#FDF72A"/><path d="M135.76 12.84a79 79 0 1 1-74.52 139.32" stroke="#37F" stroke-width="7"/><defs><clipPath id="a"><path d="M32 16h134.22v134.22H32z" fill="#fff"/></clipPath></defs></svg>