<svg xmlns="http://www.w3.org/2000/svg" fill="none" viewBox="0 0 105 180"><path d="m22.47 0-.15 6.9-5.95-3.56L22.47 0ZM92 130.12l.58-.17-.58.17ZM59.47 154l-.55.26.55-.26ZM20.79 3.9a.6.6 0 0 1-.82.2.6.6 0 0 1-.21-.8l1.03.6Zm-5.03 6.46a.6.6 0 0 1 .8-.25c.3.16.4.52.26.81l-1.06-.56Zm-2.65 7.91a.6.6 0 0 1-.8.3.6.6 0 0 1-.2-.8l1.1.5Zm-4.38 7a.6.6 0 0 1 .78-.34.6.6 0 0 1 .34.78l-1.12-.45Zm-1.68 8a.6.6 0 0 1-.76.37.6.6 0 0 1-.38-.75l1.14.37ZM3.57 40.8a.6.6 0 0 1 .73-.43c.33.08.52.4.44.73l-1.17-.3Zm-.54 8.25a.6.6 0 0 1-.7.5.6.6 0 0 1-.5-.7l1.2.2ZM.79 57a.6.6 0 0 1 1.2.1L.79 57Zm.91 8.18a.6.6 0 0 1-1.2.02l1.2-.02Zm-.67 8.21a.6.6 0 0 1 .53-.7.6.6 0 0 1 .66.5l-1.2.11Zm2.57 7.8a.6.6 0 0 1-.45.7.6.6 0 0 1-.72-.5l1.17-.28Zm1.12 8.1a.6.6 0 0 1 1.14-.4l-1.14.38Zm4.24 7.04a.6.6 0 0 1-1.09.52l1.1-.52Zm2.9 7.71a.6.6 0 0 1 .2-.82.6.6 0 0 1 .82.2l-1.02.61Zm5.68 6a.6.6 0 0 1-.1.83.6.6 0 0 1-.85-.1l.95-.74Zm4.45 6.93a.6.6 0 0 1 .02-.84.6.6 0 0 1 .9 0l-.82.84Zm6.78 4.76c.25.22.28.6.06.84a.6.6 0 0 1-.85.06l.79-.9Zm5.7 6a.6.6 0 0 1-.14-.84.6.6 0 0 1 .84-.14l-.7.97Zm7.52 3.46a.6.6 0 0 1 .2.82.6.6 0 0 1-.93.2l.62-1.02Zm6.64 4.9a.6.6 0 0 1-.28-.8.6.6 0 0 1 .8-.28l-.52 1.08Zm8.05 2.1a.6.6 0 0 1 .35.77.6.6 0 0 1-.77.35l.42-1.12Zm7.46 3.58a.6.6 0 0 1-.43-.73.6.6 0 0 1 .73-.43l-.3 1.16Zm8.3.35a.6.6 0 1 1-.13 1.2l.14-1.2Zm8.19 1.4a.6.6 0 1 1-.1-1.2l.1 1.2Zm7.48-3.33a.6.6 0 0 1 .83.2.6.6 0 0 1-.2.83l-.63-1.04Zm5.05-6.06a.6.6 0 0 1-1.2-.06l1.2.08Zm-3.3-7.97a.6.6 0 0 1 1.08-.53l-1.08.53Zm-4.67-7.5a.6.6 0 0 1 .15.84.6.6 0 0 1-.84.14l.7-.98Zm-8.7-1.45a.6.6 0 1 1 0-1.2v1.2Zm-8.77 1.23a.6.6 0 0 1 .82.22.6.6 0 0 1-.24.8l-.58-1.03Zm-5.94 6.6a.6.6 0 0 1-.85.1.6.6 0 0 1-.1-.83l.95.73Zm-5.15 7.25a.6.6 0 0 1 .75-.4c.32.1.5.43.4.75l-1.15-.35Zm.06 8.86a.6.6 0 0 1-.67.64.6.6 0 0 1-.63-.57l1.2-.07Zm.42 8.86a.6.6 0 0 1 1.12-.4l-1.14.4Zm4.95 7.52a.6.6 0 0 1-.2.82.6.6 0 0 1-.82-.18l1.02-.62Zm4.76 7.72a.6.6 0 0 1-.01-.84.6.6 0 0 1 .85 0l-.84.84Zm7.85 4.63a.6.6 0 0 1 .18.82.6.6 0 0 1-.83.2l.65-1.01Zm7.5 5.15a.6.6 0 0 1-.33-.78.6.6 0 0 1 .79-.33l-.47 1.1Zm9 1.63c.32.08.52.4.44.73a.6.6 0 0 1-.73.43l.29-1.17Zm8.7 2.74a.6.6 0 0 1-.53-.66.6.6 0 0 1 .67-.53l-.14 1.2ZM16.8 10.92a162.09 162.09 0 0 0-3.7 7.35l-1.1-.5c1.15-2.44 2.4-4.9 3.74-7.4l1.06.55Zm-6.96 14.8a128.48 128.48 0 0 0-2.8 7.54l-1.14-.37c.84-2.5 1.77-5.04 2.82-7.63l1.12.45ZM4.75 41.1a98.7 98.7 0 0 0-1.73 7.95l-1.2-.2a103.4 103.4 0 0 1 1.74-8.05l1.17.3Zm-2.77 16a83.88 83.88 0 0 0-.3 8.07l-1.2.02c-.05-2.66.05-5.4.3-8.2l1.2.1Zm.2 16.14c.34 2.74.8 5.4 1.4 7.96l-1.18.27a75.06 75.06 0 0 1-1.4-8.1l1.2-.13Zm3.64 15.72a72.8 72.8 0 0 0 3.1 7.47l-1.07.52a73.2 73.2 0 0 1-3.16-7.6l1.13-.4Zm7.03 14.54a80.1 80.1 0 0 0 4.66 6.62l-.86.73a78.18 78.18 0 0 1-4.74-6.72l1.02-.63Zm9.98 12.73a86.03 86.03 0 0 0 5.9 5.6l-.78.9a87.05 87.05 0 0 1-6-5.67l.87-.83Zm12.3 10.6a93.1 93.1 0 0 0 6.83 4.45l-.62 1.03a94.14 94.14 0 0 1-6.9-4.5l.7-.97Zm14 8.27a88.26 88.26 0 0 0 7.52 3.18l-.42 1.12a89.4 89.4 0 0 1-7.63-3.22l.52-1.08Zm15.28 5.6c2.8.7 5.48 1.22 8.01 1.5l-.14 1.2a63 63 0 0 1-8.17-1.52l.3-1.16Zm16.1 1.7c3.1-.26 5.7-.98 7.6-2.12l.67 1.03c-2.12 1.26-4.9 2-8.1 2.3l-.1-1.2Zm11.5-8.24c.06-1.15-.11-2.44-.54-3.87l1.16-.34c.46 1.53.65 2.96.58 4.27l-1.2-.06Zm-.54-3.87a25.88 25.88 0 0 0-1.56-4.04l1.08-.53a27.06 27.06 0 0 1 1.64 4.23l-1.16.34Zm-6.92-10.56a13.52 13.52 0 0 0-8-2.43l-.01-1.2c3.06-.03 6.07.8 8.7 2.66l-.7.97Zm-16.2-.16a21.9 21.9 0 0 0-6.52 5.58l-.96-.74a23.09 23.09 0 0 1 6.9-5.88l.58 1.04ZM57.8 132.74a25 25 0 0 0-1.11 8.5l-1.2.07c-.12-3.2.3-6.2 1.15-8.92l1.15.24Zm.55 16.97c.46 1.32 1 2.66 1.67 4.03l-1.1.52a37.8 37.8 0 0 1-1.71-4.16l1.14-.4Zm1.67 4.03a38.42 38.42 0 0 0 2.16 3.88l-1.02.64c-.8-1.26-1.54-2.6-2.23-4l1.09-.52Zm7.76 10.75a42.3 42.3 0 0 0 7 5.48l-.64 1a43.48 43.48 0 0 1-7.2-5.63l.84-.85Zm14.96 9.5a61.95 61.95 0 0 0 8.54 2.75l-.3 1.16a62.98 62.98 0 0 1-8.7-2.8l.46-1.08Zm17.4 4.3a56.63 56.63 0 0 0 4.14.23h.3v1.2h-.33l-.9-.04c-.8-.04-1.94-.1-3.35-.27l.1-1.2Z" fill="#6892B9"/></svg>