<svg width="23" height="24" viewBox="0 0 23 24" fill="none" xmlns="http://www.w3.org/2000/svg">
<path d="M21.5625 12C21.5625 13.3214 21.3022 14.6299 20.7965 15.8508C20.2909 17.0716 19.5497 18.1809 18.6153 19.1153C17.6809 20.0497 16.5716 20.7909 15.3508 21.2965C14.1299 21.8022 12.8214 22.0625 11.5 22.0625C10.1786 22.0625 8.87009 21.8022 7.64925 21.2965C6.42841 20.7908 5.31913 20.0497 4.38474 19.1153C3.45035 18.1809 2.70915 17.0716 2.20346 15.8507C1.69777 14.6299 1.4375 13.3214 1.4375 12C1.4375 10.6786 1.69778 9.37008 2.20346 8.14924C2.70915 6.92841 3.45035 5.81912 4.38474 4.88474C5.31913 3.95035 6.42841 3.20915 7.64925 2.70346C8.87009 2.19777 10.1786 1.9375 11.5 1.9375C12.8214 1.9375 14.1299 2.19778 15.3508 2.70346C16.5716 3.20915 17.6809 3.95035 18.6153 4.88474C19.5497 5.81913 20.2909 6.92841 20.7965 8.14925C21.3022 9.37009 21.5625 10.6786 21.5625 12L21.5625 12Z" stroke="#6A9CFF" stroke-width="2.875" stroke-linecap="round" stroke-linejoin="round"/>
<path d="M11.5 1.9375C12.8214 1.9375 14.1299 2.19777 15.3508 2.70346C16.5716 3.20915 17.6809 3.95035 18.6153 4.88474C19.5497 5.81913 20.2909 6.92841 20.7965 8.14925C21.3022 9.37009 21.5625 10.6786 21.5625 12" stroke="#3FD5FE" stroke-width="2.875" stroke-linecap="round" stroke-linejoin="round"/>
</svg>
