<svg width="71" height="70" fill="none" xmlns="http://www.w3.org/2000/svg"><path d="m51.999 48.583-15.09 15.09a1.99 1.99 0 0 1-2.82-.002L19.002 48.583c-9.113-9.113-9.113-23.887 0-32.999 9.112-9.112 23.886-9.112 32.998 0 9.112 9.112 9.112 23.886 0 32.998Z" stroke="#6892B9" stroke-width="1.5" stroke-linecap="round" stroke-linejoin="round"/><path d="M40.874 26.25c-.83 0-1.652.162-2.416.476a6.221 6.221 0 0 0-2.036 1.352l-.917.92-.927-.92a6.222 6.222 0 0 0-2.035-1.352 6.366 6.366 0 0 0-4.833 0 6.223 6.223 0 0 0-2.036 1.352 6.26 6.26 0 0 0-1.84 4.42c0 1.649.66 3.234 1.84 4.419l9.83 9.75 9.822-9.75a6.26 6.26 0 0 0 1.84-4.42 6.26 6.26 0 0 0-3.875-5.771 6.365 6.365 0 0 0-2.417-.476Z" stroke="#6892B9" stroke-width="1.5"/></svg>