<svg width="24" height="24" viewBox="0 0 24 24" fill="none" xmlns="http://www.w3.org/2000/svg">
<path d="M17.6569 16.6569C16.7202 17.5935 14.7616 19.5521 13.4138 20.8999C12.6327 21.681 11.3677 21.6814 10.5866 20.9003C9.26234 19.576 7.34159 17.6553 6.34315 16.6569C3.21895 13.5327 3.21895 8.46734 6.34315 5.34315C9.46734 2.21895 14.5327 2.21895 17.6569 5.34315C20.781 8.46734 20.781 13.5327 17.6569 16.6569Z" stroke="#6892B9" stroke-width="2" stroke-linecap="round" stroke-linejoin="round"/>
<path d="M13.8425 9C13.5579 9.00003 13.2762 9.05552 13.014 9.16319C12.7518 9.27086 12.5145 9.42854 12.316 9.62689L12.0016 9.94189L11.684 9.62689C11.4855 9.42858 11.2482 9.27094 10.986 9.16331C10.7238 9.05567 10.4421 9.00022 10.1575 9.00022C9.87289 9.00022 9.59117 9.05567 9.32899 9.16331C9.0668 9.27094 8.82946 9.42858 8.631 9.62689C8.22629 10.0331 8 10.5765 8 11.142C8 11.7075 8.22629 12.2509 8.631 12.6571L12.0016 16L15.369 12.6571C15.7737 12.2509 16 11.7075 16 11.142C16 10.5765 15.7737 10.0331 15.369 9.62689C15.1706 9.42854 14.9332 9.27086 14.671 9.16319C14.4089 9.05552 14.1271 9.00003 13.8425 9V9Z" stroke="#6892B9" stroke-width="1.5"/>
</svg>
