<svg class="fill-cosmic-900 dark:fill-white" width="16" height="17" viewBox="0 0 16 17" fill="none" xmlns="http://www.w3.org/2000/svg">
  <path d="M8 4.5C7.50555 4.5 7.0222 4.64662 6.61107 4.92133C6.19995 5.19603 5.87952 5.58648 5.6903 6.04329C5.50108 6.50011 5.45157 7.00277 5.54804 7.48773C5.6445 7.97268 5.8826 8.41814 6.23223 8.76777C6.58186 9.1174 7.02732 9.3555 7.51227 9.45196C7.99723 9.54843 8.49989 9.49892 8.95671 9.3097C9.41352 9.12048 9.80397 8.80005 10.0787 8.38893C10.3534 7.9778 10.5 7.49445 10.5 7C10.4992 6.33719 10.2356 5.70175 9.76693 5.23307C9.29825 4.7644 8.66281 4.50076 8 4.5ZM8 8.5C7.70333 8.5 7.41332 8.41203 7.16664 8.2472C6.91997 8.08238 6.72771 7.84811 6.61418 7.57403C6.50065 7.29994 6.47094 6.99834 6.52882 6.70736C6.5867 6.41639 6.72956 6.14912 6.93934 5.93934C7.14912 5.72956 7.41639 5.5867 7.70736 5.52882C7.99834 5.47094 8.29994 5.50065 8.57403 5.61418C8.84811 5.72771 9.08238 5.91997 9.2472 6.16664C9.41203 6.41332 9.5 6.70333 9.5 7C9.49955 7.39769 9.34138 7.77896 9.06017 8.06017C8.77896 8.34137 8.39769 8.49955 8 8.5ZM8 1.5C6.54182 1.50165 5.14383 2.08165 4.11274 3.11274C3.08165 4.14383 2.50165 5.54182 2.5 7C2.5 8.96225 3.40687 11.0424 5.12269 13.0156C5.89481 13.9072 6.76367 14.7101 7.71325 15.4096C7.7973 15.4685 7.89741 15.5 8 15.5C8.10259 15.5 8.2027 15.4685 8.28675 15.4096C9.23633 14.7101 10.1052 13.9072 10.8773 13.0156C12.5931 11.0424 13.5 8.96231 13.5 7C13.4983 5.54182 12.9184 4.14383 11.8873 3.11274C10.8562 2.08165 9.45818 1.50165 8 1.5ZM8 14.3737C6.96669 13.5632 3.5 10.5769 3.5 7C3.5 5.80653 3.97411 4.66193 4.81802 3.81802C5.66193 2.97411 6.80653 2.5 8 2.5C9.19347 2.5 10.3381 2.97411 11.182 3.81802C12.0259 4.66193 12.5 5.80653 12.5 7C12.5 10.577 9.03312 13.5634 8 14.3737Z" />
</svg>