<svg width="24" height="24" viewBox="0 0 24 24" fill="none" xmlns="http://www.w3.org/2000/svg">
<path fill-rule="evenodd" clip-rule="evenodd" d="M12.7059 21.6078L17.6569 16.6569C20.781 13.5327 20.781 8.46734 17.6569 5.34315C14.5327 2.21895 9.46734 2.21895 6.34315 5.34315C3.21895 8.46734 3.21895 13.5327 6.34315 16.6569L11.2944 21.6081C11.6849 21.9986 12.3154 21.9983 12.7059 21.6078ZM13.014 8.16319C13.2762 8.05552 13.5579 8.00003 13.8425 8C14.1271 8.00003 14.4089 8.05552 14.671 8.16319C14.9332 8.27086 15.1706 8.42854 15.369 8.62689C15.7737 9.03312 16 9.57647 16 10.142C16 11.9481 13.7869 13.7709 12.2771 14.813C12.111 14.9277 11.8921 14.9278 11.7259 14.8133C10.2135 13.7712 8 11.949 8 10.142C8 9.57647 8.22629 9.03312 8.631 8.62689C8.82946 8.42858 9.0668 8.27094 9.32899 8.16331C9.59117 8.05567 9.87289 8.00022 10.1575 8.00022C10.4421 8.00022 10.7238 8.05567 10.986 8.16331C11.2482 8.27094 11.4855 8.42858 11.684 8.62689L12.0016 8.94189L12.316 8.62689C12.5145 8.42854 12.7518 8.27086 13.014 8.16319Z" fill="#6892B9"/>
</svg>
