<svg width="24" height="24" viewBox="0 0 24 24" fill="none" xmlns="http://www.w3.org/2000/svg">
<path d="M19.4849 14.608C19.5036 14.608 19.5223 14.6005 19.5447 14.6005C21.5255 14.6005 23.1326 16.2139 23.1326 18.2025C23.1326 20.1911 21.5255 21.8045 19.5447 21.8045H18.4308H7.58498C5.60416 21.8045 3.99707 20.1911 3.99707 18.2025C3.99707 16.6078 5.03607 15.2684 6.4675 14.7956C6.41891 14.5367 6.38901 14.2741 6.38901 14.0002C6.38901 11.6776 8.26145 9.79785 10.5749 9.79785C12.1932 9.79785 13.5798 10.7284 14.2749 12.0791C14.8243 11.4225 15.6354 10.9985 16.5548 10.9985C18.2067 10.9985 19.5447 12.3418 19.5447 14.0002C19.5447 14.2103 19.526 14.4129 19.4849 14.608Z" fill="#90929E"/>
<path d="M7.03038 3.02051C8.46564 3.02051 9.69539 3.84577 10.3119 5.04374C12.6703 3.5395 15.6612 6.30274 13.8622 9.01349C10.5538 6.56285 4.86411 8.42486 4.86411 12.8712C3.22603 13.4808 1.19653 12.2773 1.19653 10.4745C1.19653 9.06026 2.11802 7.87227 3.38754 7.45298C3.34445 7.22337 3.31793 6.99044 3.31793 6.74751C3.31793 4.68768 4.97859 3.02051 7.03038 3.02051Z" fill="#90929E"/>
</svg>
