<svg width="24" height="24" viewBox="0 0 24 24" fill="none" xmlns="http://www.w3.org/2000/svg">
<path fill-rule="evenodd" clip-rule="evenodd" d="M13.6754 4.31731C13.249 2.5609 10.751 2.5609 10.3246 4.31731C10.0492 5.45193 8.74926 5.99037 7.75219 5.38285C6.2087 4.44239 4.44239 6.2087 5.38285 7.75218C5.99038 8.74926 5.45193 10.0492 4.31731 10.3246C2.5609 10.751 2.5609 13.249 4.31731 13.6754C5.45193 13.9508 5.99038 15.2507 5.38285 16.2478C4.44239 17.7913 6.2087 19.5576 7.75219 18.6172C8.74926 18.0096 10.0492 18.5481 10.3246 19.6827C10.751 21.4391 13.249 21.4391 13.6754 19.6827C13.9508 18.5481 15.2507 18.0096 16.2478 18.6172C17.7913 19.5576 19.5576 17.7913 18.6172 16.2478C18.0096 15.2507 18.5481 13.9508 19.6827 13.6754C21.4391 13.249 21.4391 10.751 19.6827 10.3246C18.5481 10.0492 18.0096 8.74926 18.6172 7.75218C19.5576 6.2087 17.7913 4.44239 16.2478 5.38285C15.2507 5.99038 13.9508 5.45193 13.6754 4.31731ZM12 15C13.6569 15 15 13.6569 15 12C15 10.3431 13.6569 9 12 9C10.3431 9 9 10.3431 9 12C9 13.6569 10.3431 15 12 15Z" fill="#3377FF"/>
</svg>
