<svg width="71" height="70" viewBox="0 0 71 70" fill="none" xmlns="http://www.w3.org/2000/svg">
<circle cx="35.5002" cy="35" r="10.9167" stroke="#6892B9" stroke-width="1.5"/>
<circle cx="35.5" cy="35" r="25.5" stroke="#6892B9" stroke-width="1.5"/>
<path d="M3.4165 34.75C3.4165 34.3358 3.75229 34 4.1665 34H10.4165V35.5H4.1665C3.75229 35.5 3.4165 35.1642 3.4165 34.75Z" fill="#6892B9"/>
<path d="M35.75 2.91663C36.1642 2.91663 36.5 3.25241 36.5 3.66663L36.5 9.91663L35 9.91663L35 3.66663C35 3.25241 35.3358 2.91663 35.75 2.91663Z" fill="#6892B9"/>
<path d="M67.584 34.75C67.584 34.3358 67.2482 34 66.834 34H60.584V35.5H66.834C67.2482 35.5 67.584 35.1642 67.584 34.75Z" fill="#6892B9"/>
<path d="M35.75 67.0834C36.1642 67.0834 36.5 66.7476 36.5 66.3334L36.5 60.0834L35 60.0834L35 66.3334C35 66.7476 35.3358 67.0834 35.75 67.0834Z" fill="#6892B9"/>
</svg>
