<svg width="459" height="928" viewBox="0 0 459 928" fill="none" xmlns="http://www.w3.org/2000/svg">
<path d="M394.9 928H63.1C28.4 928 0 899.6 0 864.9V63.1C0 28.4 28.4 0 63.1 0H395C429.7 0 458.1 28.4 458.1 63.1V865C458 899.6 429.6 928 394.9 928Z" fill="white"/>
<path d="M385.5 23H323C322.7 35.1 312.7 45 300.5 45H157.5C145.3 45 135.3 35.1 135 23H72.5C44.9 23 22.5 45.4 22.5 73V855C22.5 882.6 44.9 905 72.5 905H385.4C413 905 435.4 882.6 435.4 855V73C435.5 45.4 413.1 23 385.5 23Z" fill="#131E32"/>
</svg>
