<svg width="16" height="17" viewBox="0 0 16 17" fill="none" xmlns="http://www.w3.org/2000/svg">
<path fill-rule="evenodd" clip-rule="evenodd" d="M14.0806 3.79729C14.469 3.79729 14.7839 3.48245 14.7839 3.09408C14.7839 2.70571 14.469 2.39087 14.0806 2.39087L2.36052 2.39087C1.97215 2.39087 1.65732 2.70571 1.65732 3.09408C1.65732 3.48245 1.97215 3.79728 2.36052 3.79728L14.0806 3.79729ZM11.9414 5.68741C12.3045 5.82515 12.4872 6.23118 12.3495 6.59431L12.0668 7.33947C11.9291 7.70259 11.5231 7.88531 11.16 7.74757C10.7968 7.60983 10.6141 7.2038 10.7519 6.84068L11.0345 6.09551C11.1722 5.73239 11.5783 5.54968 11.9414 5.68741ZM8.43738 6.59431C8.57512 6.23118 8.3924 5.82515 8.02928 5.68741C7.66615 5.54968 7.26012 5.73239 7.12239 6.09551L6.83974 6.84068C6.702 7.2038 6.88471 7.60983 7.24784 7.74757C7.61096 7.88531 8.01699 7.7026 8.15473 7.33947L8.43738 6.59431ZM7.30679 9.57496C7.44452 9.21183 7.26181 8.8058 6.89868 8.66807C6.53556 8.53033 6.12953 8.71304 5.99179 9.07617L5.4265 10.5665C5.28876 10.9296 5.47147 11.3357 5.8346 11.4734C6.19772 11.6111 6.60375 11.4284 6.74149 11.0653L7.30679 9.57496ZM4.52527 6.59431C4.66301 6.23118 4.48029 5.82515 4.11717 5.68741C3.75404 5.54968 3.34801 5.73239 3.21027 6.09551L2.92763 6.84068C2.78989 7.2038 2.9726 7.60983 3.33573 7.74757C3.69885 7.88531 4.10488 7.70259 4.24262 7.33947L4.52527 6.59431ZM3.39467 9.57496C3.53241 9.21183 3.3497 8.8058 2.98657 8.66807C2.62345 8.53033 2.21742 8.71304 2.07968 9.07617L1.51438 10.5665C1.37665 10.9296 1.55936 11.3357 1.92249 11.4734C2.28561 11.6111 2.69164 11.4284 2.82938 11.0653L3.39467 9.57496ZM1.98143 13.3008C2.11917 12.9377 1.93646 12.5316 1.57333 12.3939C1.21021 12.2561 0.804176 12.4389 0.666439 12.802L0.383791 13.5472C0.246054 13.9103 0.428767 14.3163 0.791893 14.454C1.15502 14.5918 1.56105 14.4091 1.69879 14.0459L1.98143 13.3008Z" fill="#6A9CFF"/>
</svg>
