<svg xmlns="http://www.w3.org/2000/svg" fill="none" viewBox="0 0 16 17"><path d="M14.08 3.8a.7.7 0 1 0 0-1.4H2.36a.7.7 0 0 0 0 1.4h11.72Zm-2.14 1.89a.7.7 0 0 1 .4.9l-.27.72a.7.7 0 1 1-1.32-.5l.28-.74a.7.7 0 0 1 .91-.41Zm-3.5.9a.7.7 0 0 0-1.32-.5l-.28.72a.7.7 0 1 0 1.3.5l.3-.75ZM7.3 9.54a.7.7 0 0 0-1.32-.5l-.56 1.5a.7.7 0 1 0 1.31.5l.57-1.5ZM4.53 6.6a.7.7 0 0 0-1.32-.5l-.28.75a.7.7 0 1 0 1.3.5l.3-.75ZM3.4 9.57a.7.7 0 1 0-1.33-.5l-.57 1.5a.7.7 0 0 0 1.32.5l.56-1.5ZM1.96 13.3a.7.7 0 1 0-1.31-.5l-.3.75a.7.7 0 1 0 1.33.5l.28-.75Z" fill="#6A9CFF" fill-rule="evenodd" clip-rule="evenodd"/></svg>