<svg width="207" height="223" viewBox="0 0 207 223" fill="none" xmlns="http://www.w3.org/2000/svg">

<path d="M187.999 201.582C184.525 205.057 176.229 213.352 172.909 216.672C172.128 217.453 170.871 217.452 170.089 216.671C166.82 213.402 158.718 205.3 155.001 201.582C145.888 192.47 145.888 177.696 155.001 168.584C164.113 159.472 178.887 159.472 187.999 168.584C197.111 177.696 197.111 192.47 187.999 201.582Z" stroke="#6892B9" stroke-width="1.5" stroke-linecap="round" stroke-linejoin="round"/>
<path d="M176.874 179.25C176.044 179.25 175.222 179.412 174.458 179.726C173.693 180.04 173.001 180.5 172.422 181.078L171.505 181.997L170.578 181.078C170 180.5 169.307 180.04 168.543 179.726C167.778 179.412 166.956 179.251 166.126 179.251C165.296 179.251 164.474 179.412 163.71 179.726C162.945 180.04 162.253 180.5 161.674 181.078C160.494 182.263 159.833 183.848 159.833 185.497C159.833 187.147 160.494 188.732 161.674 189.917L171.505 199.667L181.326 189.917C182.507 188.732 183.167 187.147 183.167 185.497C183.167 183.848 182.507 182.263 181.326 181.078C180.748 180.5 180.055 180.04 179.291 179.726C178.526 179.412 177.704 179.25 176.874 179.25V179.25Z" stroke="#6892B9" stroke-width="1.5"/>
<path d="M42.9998 2.85072e-05L42.8511 6.90237L36.9055 3.34036L42.9998 2.85072e-05ZM112.533 130.119L113.111 129.948L112.533 130.119ZM79.9997 154L79.4568 154.26L79.9997 154ZM41.328 3.89605C41.1587 4.1807 40.7894 4.27582 40.5032 4.1085C40.217 3.94117 40.1223 3.57477 40.2916 3.29012L41.328 3.89605ZM36.2908 10.363C36.4472 10.0712 36.8119 9.95986 37.1054 10.1144C37.3988 10.2689 37.5099 10.6307 37.3534 10.9225L36.2908 10.363ZM33.6457 18.2722C33.5043 18.5714 33.1457 18.7009 32.8447 18.5614C32.5437 18.4219 32.4143 18.0662 32.5557 17.7669L33.6457 18.2722ZM29.2645 25.2626C29.3888 24.956 29.7396 24.8067 30.048 24.9293C30.3565 25.0518 30.5058 25.3997 30.3815 25.7063L29.2645 25.2626ZM27.5861 33.2629C27.4814 33.5765 27.1406 33.7472 26.825 33.6441C26.5093 33.5409 26.3384 33.2031 26.4432 32.8894L27.5861 33.2629ZM24.1041 40.8043C24.1862 40.4841 24.514 40.2898 24.8363 40.3704C25.1585 40.451 25.3532 40.776 25.2711 41.0962L24.1041 40.8043ZM23.5598 49.0511C23.5034 49.3767 23.1921 49.596 22.8643 49.541C22.5366 49.486 22.3166 49.1774 22.3729 48.8519L23.5598 49.0511ZM21.3246 56.9942C21.3521 56.6651 21.643 56.4196 21.9744 56.4459C22.3058 56.4723 22.5522 56.7605 22.5247 57.0896L21.3246 56.9942ZM22.2357 65.1741C22.24 65.5043 21.974 65.7762 21.6415 65.7814C21.3089 65.7867 21.0359 65.5233 21.0315 65.1931L22.2357 65.1741ZM21.5608 73.3826C21.5223 73.0547 21.7588 72.7572 22.0891 72.718C22.4194 72.6788 22.7184 72.9128 22.7569 73.2406L21.5608 73.3826ZM24.1348 81.2032C24.2089 81.5249 24.0062 81.8461 23.682 81.9206C23.3578 81.9951 23.0349 81.7947 22.9608 81.473L24.1348 81.2032ZM25.2498 89.3616C25.1401 89.0502 25.3057 88.7087 25.6197 88.5989C25.9336 88.4891 26.277 88.6526 26.3867 88.964L25.2498 89.3616ZM29.4965 96.425C29.6405 96.7222 29.5141 97.0797 29.2143 97.2235C28.9145 97.3672 28.5548 97.2428 28.4109 96.9455L29.4965 96.425ZM32.3944 104.134C32.2188 103.854 32.3053 103.485 32.5876 103.31C32.87 103.135 33.2413 103.22 33.417 103.5L32.3944 104.134ZM38.0775 110.119C38.2817 110.379 38.2344 110.755 37.9719 110.958C37.7094 111.161 37.3311 111.116 37.1269 110.855L38.0775 110.119ZM42.5246 117.061C42.2954 116.822 42.305 116.444 42.5459 116.216C42.7869 115.987 43.168 115.996 43.3972 116.234L42.5246 117.061ZM49.301 121.821C49.5518 122.037 49.5782 122.415 49.3599 122.664C49.1416 122.914 48.7613 122.941 48.5104 122.725L49.301 121.821ZM54.994 127.815C54.7245 127.622 54.664 127.248 54.8588 126.98C55.0536 126.712 55.43 126.651 55.6995 126.844L54.994 127.815ZM62.5185 131.28C62.804 131.448 62.8972 131.815 62.7267 132.099C62.5562 132.383 62.1866 132.477 61.9011 132.308L62.5185 131.28ZM69.1621 136.176C68.8627 136.033 68.7374 135.676 68.8823 135.379C69.0271 135.081 69.3872 134.956 69.6865 135.098L69.1621 136.176ZM77.2142 138.28C77.5257 138.395 77.6838 138.739 77.5673 139.049C77.4508 139.358 77.1039 139.516 76.7924 139.401L77.2142 138.28ZM84.6748 141.861C84.3528 141.779 84.1595 141.454 84.2428 141.134C84.3262 140.814 84.6548 140.621 84.9767 140.703L84.6748 141.861ZM92.9859 142.213C93.3161 142.252 93.5513 142.549 93.5113 142.877C93.4714 143.205 93.1714 143.44 92.8412 143.401L92.9859 142.213ZM101.166 143.603C100.835 143.632 100.543 143.389 100.515 143.06C100.487 142.731 100.732 142.441 101.064 142.412L101.166 143.603ZM108.647 140.284C108.932 140.114 109.302 140.206 109.472 140.489C109.643 140.772 109.549 141.14 109.264 141.309L108.647 140.284ZM113.694 134.217C113.678 134.547 113.396 134.802 113.063 134.787C112.731 134.772 112.475 134.492 112.492 134.162L113.694 134.217ZM110.393 126.252C110.247 125.956 110.371 125.597 110.67 125.452C110.969 125.306 111.329 125.428 111.475 125.725L110.393 126.252ZM105.726 118.755C105.997 118.945 106.062 119.318 105.87 119.588C105.678 119.858 105.302 119.923 105.03 119.733L105.726 118.755ZM97.032 117.299C96.6995 117.303 96.4277 117.038 96.425 116.708C96.4223 116.378 96.6897 116.107 97.0222 116.104L97.032 117.299ZM88.2522 118.527C88.5432 118.366 88.9096 118.47 89.0706 118.758C89.2316 119.047 89.1262 119.411 88.8352 119.571L88.2522 118.527ZM82.3087 125.145C82.1027 125.405 81.7241 125.451 81.463 125.247C81.2019 125.043 81.1572 124.667 81.3631 124.408L82.3087 125.145ZM77.1585 132.389C77.2568 132.073 77.594 131.896 77.9117 131.993C78.2294 132.089 78.4072 132.424 78.309 132.739L77.1585 132.389ZM77.2264 141.251C77.2404 141.581 76.9823 141.861 76.6501 141.875C76.3178 141.89 76.0372 141.635 76.0232 141.305L77.2264 141.251ZM77.7351 150.1C77.6278 149.788 77.7958 149.448 78.1106 149.34C78.4253 149.233 78.7675 149.399 78.8749 149.711L77.7351 150.1ZM82.7042 157.62C82.8816 157.899 82.7974 158.268 82.5161 158.445C82.2348 158.622 81.8629 158.539 81.6856 158.26L82.7042 157.62ZM87.4592 165.345C87.2219 165.115 87.2186 164.736 87.4516 164.5C87.6846 164.264 88.0659 164.259 88.3031 164.49L87.4592 165.345ZM95.3095 169.967C95.5902 170.143 95.6731 170.513 95.4947 170.792C95.3163 171.071 94.9441 171.154 94.6635 170.978L95.3095 169.967ZM102.814 175.121C102.506 174.996 102.359 174.647 102.486 174.341C102.612 174.036 102.964 173.889 103.272 174.014L102.814 175.121ZM111.812 176.753C112.135 176.832 112.331 177.156 112.251 177.476C112.171 177.797 111.844 177.993 111.521 177.914L111.812 176.753ZM120.528 179.493C120.197 179.458 119.959 179.163 119.996 178.835C120.032 178.506 120.33 178.269 120.66 178.305L120.528 179.493ZM37.3534 10.9225C36.021 13.4078 34.7863 15.8577 33.6457 18.2722L32.5557 17.7669C33.7052 15.3336 34.949 12.8656 36.2908 10.363L37.3534 10.9225ZM30.3815 25.7063C29.3434 28.2676 28.4132 30.7865 27.5861 33.2629L26.4432 32.8894C27.2784 30.3887 28.2173 27.8464 29.2645 25.2626L30.3815 25.7063ZM25.2711 41.0962C24.5772 43.8025 24.0092 46.4541 23.5598 49.0511L22.3729 48.8519C22.8279 46.223 23.4026 43.5404 24.1041 40.8043L25.2711 41.0962ZM22.5247 57.0896C22.2942 59.8519 22.2011 62.5468 22.2357 65.1741L21.0315 65.1931C20.9964 62.527 21.0909 59.794 21.3246 56.9942L22.5247 57.0896ZM22.7569 73.2406C23.0785 75.976 23.5421 78.6302 24.1348 81.2032L22.9608 81.473C22.3584 78.8579 21.8874 76.161 21.5608 73.3826L22.7569 73.2406ZM26.3867 88.964C27.2954 91.5439 28.3374 94.0309 29.4965 96.425L28.4109 96.9455C27.2328 94.5123 26.1736 91.9842 25.2498 89.3616L26.3867 88.964ZM33.417 103.5C34.8657 105.808 36.4253 108.014 38.0775 110.119L37.1269 110.855C35.4499 108.719 33.8661 106.479 32.3944 104.134L33.417 103.5ZM43.3972 116.234C45.2921 118.207 47.2669 120.069 49.301 121.821L48.5104 122.725C46.4488 120.95 44.4465 119.062 42.5246 117.061L43.3972 116.234ZM55.6995 126.844C57.9387 128.445 60.2197 129.923 62.5185 131.28L61.9011 132.308C59.5728 130.934 57.2624 129.437 54.994 127.815L55.6995 126.844ZM69.6865 135.098C72.2154 136.306 74.7351 137.367 77.2142 138.28L76.7924 139.401C74.278 138.475 71.724 137.4 69.1621 136.176L69.6865 135.098ZM84.9767 140.703C87.771 141.414 90.4582 141.917 92.9859 142.213L92.8412 143.401C90.2555 143.098 87.5156 142.584 84.6748 141.861L84.9767 140.703ZM101.064 142.412C104.161 142.142 106.735 141.422 108.647 140.284L109.264 141.309C107.145 142.57 104.376 143.323 101.166 143.603L101.064 142.412ZM112.492 134.162C112.549 133.011 112.383 131.722 111.956 130.291L113.111 129.948C113.569 131.484 113.759 132.909 113.694 134.217L112.492 134.162ZM111.956 130.291C111.513 128.804 110.987 127.46 110.393 126.252L111.475 125.725C112.101 126.997 112.65 128.403 113.111 129.948L111.956 130.291ZM105.03 119.733C102.604 118.036 99.8488 117.269 97.032 117.299L97.0222 116.104C100.075 116.07 103.08 116.905 105.726 118.755L105.03 119.733ZM88.8352 119.571C86.4144 120.908 84.1687 122.798 82.3087 125.145L81.3631 124.408C83.3195 121.939 85.6874 119.943 88.2522 118.527L88.8352 119.571ZM78.309 132.739C77.4999 135.339 77.0974 138.195 77.2264 141.251L76.0232 141.305C75.8885 138.112 76.3088 135.119 77.1585 132.389L78.309 132.739ZM78.8749 149.711C79.3291 151.031 79.8824 152.375 80.5426 153.74L79.4568 154.26C78.7767 152.855 78.2052 151.467 77.7351 150.1L78.8749 149.711ZM80.5426 153.74C81.2043 155.107 81.9278 156.399 82.7042 157.62L81.6856 158.26C80.8847 157.001 80.1387 155.669 79.4568 154.26L80.5426 153.74ZM88.3031 164.49C90.4934 166.62 92.8631 168.43 95.3095 169.967L94.6635 170.978C92.1535 169.401 89.7159 167.54 87.4592 165.345L88.3031 164.49ZM103.272 174.014C106.227 175.212 109.132 176.098 111.812 176.753L111.521 177.914C108.794 177.248 105.832 176.345 102.814 175.121L103.272 174.014ZM120.66 178.305C122.045 178.453 123.16 178.527 123.928 178.564C124.312 178.583 124.609 178.592 124.808 178.597C124.908 178.599 124.984 178.6 125.034 178.601C125.059 178.601 125.078 178.601 125.09 178.601C125.096 178.601 125.1 178.601 125.103 178.601C125.104 178.601 125.105 178.601 125.106 178.601C125.106 178.601 125.106 178.601 125.106 178.601C125.106 178.601 125.106 178.601 125.106 178.601C125.106 178.601 125.106 178.601 125.106 178.601C125.106 178.601 125.106 178.601 125.105 179.199C125.103 179.797 125.103 179.797 125.103 179.797C125.103 179.797 125.103 179.797 125.103 179.797C125.102 179.797 125.102 179.797 125.102 179.797C125.102 179.797 125.101 179.797 125.101 179.797C125.1 179.797 125.098 179.797 125.096 179.797C125.092 179.797 125.087 179.797 125.08 179.797C125.065 179.797 125.044 179.797 125.017 179.796C124.962 179.796 124.882 179.795 124.777 179.792C124.568 179.787 124.261 179.778 123.866 179.759C123.077 179.721 121.938 179.645 120.528 179.493L120.66 178.305Z" fill="#6892B9"/>


</svg>
