<svg width="24" height="25" viewBox="0 0 24 25" fill="none" xmlns="http://www.w3.org/2000/svg">
<path fill-rule="evenodd" clip-rule="evenodd" d="M12.2871 2.91628C12.1987 2.87961 12.1017 2.85938 12 2.85938C11.8983 2.85938 11.8013 2.87961 11.7129 2.91628C11.6245 2.95288 11.5416 3.00714 11.4697 3.07904L9.21967 5.32904C8.92678 5.62194 8.92678 6.09681 9.21967 6.38971C9.51256 6.6826 9.98744 6.6826 10.2803 6.38971L11.25 5.42004V8.10938C11.25 8.52359 11.5858 8.85938 12 8.85938C12.4142 8.85938 12.75 8.52359 12.75 8.10938V5.42004L13.7197 6.38971C14.0126 6.6826 14.4874 6.6826 14.7803 6.38971C15.0732 6.09681 15.0732 5.62194 14.7803 5.32904L12.5303 3.07904C12.4584 3.00714 12.3755 2.95288 12.2871 2.91628Z" fill="#FEB800"/>
<line x1="3.75" y1="20.75" x2="20.25" y2="20.75" stroke="#FEB800" stroke-width="1.5" stroke-linecap="round"/>
<path d="M17 16.4703C17 17.8249 16.4548 19.0529 15.5707 19.9494C14.6633 20.8696 13.3987 20.3584 12 20.3584C10.6013 20.3584 9.33675 20.8696 8.42928 19.9494C7.54516 19.0529 7 17.8249 7 16.4703C7 13.7253 9.23858 11.5 12 11.5C14.7614 11.5 17 13.7253 17 16.4703Z" fill="#FEB800"/>
</svg>
