<svg width="25" height="25" viewBox="0 0 25 25" fill="none" xmlns="http://www.w3.org/2000/svg">
<path fill-rule="evenodd" clip-rule="evenodd" d="M12.7871 8.80247C12.6987 8.83914 12.6017 8.85938 12.5 8.85938C12.3983 8.85938 12.3013 8.83914 12.2129 8.80247C12.1245 8.76587 12.0416 8.71161 11.9697 8.63971L9.71967 6.38971C9.42678 6.09681 9.42678 5.62194 9.71967 5.32904C10.0126 5.03615 10.4874 5.03615 10.7803 5.32904L11.75 6.29871V3.60938C11.75 3.19516 12.0858 2.85938 12.5 2.85938C12.9142 2.85938 13.25 3.19516 13.25 3.60938V6.29871L14.2197 5.32904C14.5126 5.03615 14.9874 5.03615 15.2803 5.32904C15.5732 5.62194 15.5732 6.09681 15.2803 6.38971L13.0303 8.63971C12.9584 8.71161 12.8755 8.76587 12.7871 8.80247Z" fill="#FEB800"/>
<path d="M17.5 16.4703C17.5 17.8249 16.9548 19.0529 16.0707 19.9494C15.1633 20.8696 13.8987 20.3584 12.5 20.3584C11.1013 20.3584 9.83675 20.8696 8.92928 19.9494C8.04516 19.0529 7.5 17.8249 7.5 16.4703C7.5 13.7253 9.73858 11.5 12.5 11.5C15.2614 11.5 17.5 13.7253 17.5 16.4703Z" fill="#FEB800"/>
<line x1="4.25" y1="20.75" x2="20.75" y2="20.75" stroke="#FEB800" stroke-width="1.5" stroke-linecap="round"/>
</svg>
