<svg width="91" height="90" viewBox="0 0 91 90" fill="none" xmlns="http://www.w3.org/2000/svg">
<path d="M39.9285 10.1785V6.42847M73.6785 43.9285H77.4285M2.42847 43.9285H6.17847M64.3035 19.5535L69.9285 13.9285M9.92847 73.9285L15.5535 68.3035M9.92847 13.9285L15.5535 19.5535" stroke="#6892B9" stroke-width="1.5" stroke-linecap="round"/>
<path d="M35.2141 72.2718C35.2141 66.7414 39.6974 62.2581 45.2278 62.2581H46.0412C46.0412 62.2581 46.0412 47.5713 60.5901 47.5713C75.1389 47.5713 75.1389 62.2581 75.1389 62.2581H76.6289C82.1594 62.2581 86.6427 66.7414 86.6427 72.2718V72.2718C86.6427 77.8023 82.1594 82.2856 76.6289 82.2856H45.2278C39.6974 82.2856 35.2141 77.8023 35.2141 72.2718V72.2718Z" stroke="#6892B9" stroke-width="1.5" stroke-linejoin="round"/>
<path d="M41.6428 36H37.7857" stroke="#6892B9" stroke-width="1.5" stroke-linecap="round"/>
<path d="M36.5 47.5714C37.7857 51.4285 43.5714 50.7857 44.8571 47.5714" stroke="#6892B9" stroke-width="1.5" stroke-linecap="round"/>
<path d="M32.5214 62.1845C28.4159 60.5857 24.9601 57.6647 22.6998 53.8828C20.4396 50.1009 19.5038 45.6737 20.0403 41.3007" stroke="#6892B9" stroke-width="1.5"/>
<path d="M23.236 32.6981C25.0833 29.9349 27.5957 27.6806 30.5423 26.1426C33.4888 24.6046 36.7748 23.8322 40.0979 23.8965C43.4211 23.9609 46.6747 24.8598 49.5595 26.5108C52.4443 28.1617 54.8676 30.5115 56.6065 33.3441" stroke="#6892B9" stroke-width="1.5"/>
<rect x="17.9644" y="32.8928" width="19.0714" height="8.78571" rx="2.25" stroke="#6892B9" stroke-width="1.5"/>
<rect x="42.3928" y="32.8928" width="19.0714" height="8.78571" rx="2.25" stroke="#6892B9" stroke-width="1.5"/>
</svg>
