<svg width="24" height="24" viewBox="0 0 24 24" fill="none" xmlns="http://www.w3.org/2000/svg">
<path d="M6 5.375C6 4.74511 6.25022 4.14102 6.69562 3.69562C7.14102 3.25022 7.74511 3 8.375 3H15.5C16.1299 3 16.734 3.25022 17.1794 3.69562C17.6248 4.14102 17.875 4.74511 17.875 5.375V19.625C17.875 20.2549 17.6248 20.859 17.1794 21.3044C16.734 21.7498 16.1299 22 15.5 22H8.375C7.74511 22 7.14102 21.7498 6.69562 21.3044C6.25022 20.859 6 20.2549 6 19.625V5.375ZM13.125 18.4375C13.125 18.1226 12.9999 17.8205 12.7772 17.5978C12.5545 17.3751 12.2524 17.25 11.9375 17.25C11.6226 17.25 11.3205 17.3751 11.0978 17.5978C10.8751 17.8205 10.75 18.1226 10.75 18.4375C10.75 18.7524 10.8751 19.0545 11.0978 19.2772C11.3205 19.4999 11.6226 19.625 11.9375 19.625C12.2524 19.625 12.5545 19.4999 12.7772 19.2772C12.9999 19.0545 13.125 18.7524 13.125 18.4375Z" fill="#1B2541"/>
</svg>
