<svg xmlns="http://www.w3.org/2000/svg" fill="none" viewBox="0 0 71 70"><path d="M49.94 26.28c8.8 2.15 14.73 6.2 14.73 10.83 0 6.9-13.07 12.47-29.17 12.47S6.33 44.02 6.33 37.11c0-4.64 5.95-8.7 14.8-10.86" stroke="#6892B9" stroke-linecap="round" stroke-linejoin="round" stroke-width="1.5"/><path d="M20.92 26.25c0 3.22 6.53 5.83 14.58 5.83s14.58-2.6 14.58-5.83v-.1c0-8-6.53-14.48-14.58-14.48a14.53 14.53 0 0 0-14.58 14.48v.1Z" stroke="#6892B9" stroke-linecap="round" stroke-linejoin="round" stroke-width="1.5"/><path d="M26.95 42.33a2.5 2.5 0 0 1-4.04-1.56M16.21 38a2.86 2.86 0 0 1-1.18-.3 1.8 1.8 0 0 1-.76-.7c-.16-.3-.2-.61-.14-.93.07-.32.24-.62.52-.89M56.1 38c.44-.02.84-.12 1.18-.3.34-.18.6-.42.76-.7.16-.3.2-.61.14-.93a1.76 1.76 0 0 0-.52-.89M45.88 42.5a2.5 2.5 0 0 0 4-1.67M33.9 43.3a2.5 2.5 0 0 0 4.32.04m-2.97 23.9V53.76" stroke="#6892B9" stroke-linecap="round" stroke-width="1.5"/><path d="M.75-.75h12.88" stroke="#6892B9" stroke-linecap="round" stroke-width="1.5" transform="matrix(.32098 -.94708 .89002 .45592 19 65.54)"/><path d="M.75-.75h12.88" stroke="#6892B9" stroke-linecap="round" stroke-width="1.5" transform="matrix(-.32098 -.94708 -.89002 .45592 52 65.54)"/></svg>