<svg width="16" height="17" viewBox="0 0 16 17" fill="none" xmlns="http://www.w3.org/2000/svg">
  <path fill-rule="evenodd" clip-rule="evenodd" d="M2.75 8.5C2.75 5.60051 5.10051 3.25 8 3.25C10.8995 3.25 13.25 5.60051 13.25 8.5C13.25 11.3995 10.8995 13.75 8 13.75C5.10051 13.75 2.75 11.3995 2.75 8.5ZM8 1.75C4.27208 1.75 1.25 4.77208 1.25 8.5C1.25 12.2279 4.27208 15.25 8 15.25C11.7279 15.25 14.75 12.2279 14.75 8.5C14.75 4.77208 11.7279 1.75 8 1.75ZM6.96 7.81333C6.76667 8.02 6.66667 8.26 6.66667 8.54C6.66667 8.83333 6.76667 9.08 6.96667 9.28C7.16667 9.48 7.41333 9.58 7.7 9.58C7.99333 9.58 8.24 9.48 8.44667 9.28C8.65333 9.08 8.75333 8.83333 8.75333 8.54C8.75333 8.31333 8.7 8.12 8.58 7.95333L9.66347 5.63507C9.72502 5.50337 9.67253 5.34654 9.5441 5.27844C9.4234 5.21443 9.27397 5.24954 9.19441 5.36061L7.66667 7.49333C7.39333 7.5 7.15333 7.60667 6.96 7.81333Z" fill="#6A9CFF" />
</svg>