<svg width="20" height="20" viewBox="0 0 20 20" fill="none" xmlns="http://www.w3.org/2000/svg">
<path fill-rule="evenodd" clip-rule="evenodd" d="M8.41663 9.16667C8.41663 8.75246 8.75241 8.41667 9.16663 8.41667H9.99996C10.4142 8.41667 10.75 8.75246 10.75 9.16667V13.4167H10.8333C11.2475 13.4167 11.5833 13.7525 11.5833 14.1667C11.5833 14.5809 11.2475 14.9167 10.8333 14.9167H9.99996C9.58575 14.9167 9.24996 14.5809 9.24996 14.1667V9.91667H9.16663C8.75241 9.91667 8.41663 9.58089 8.41663 9.16667Z" fill="#3FD5FE"/>
<path d="M10.8333 5.83333C10.8333 6.29357 10.4602 6.66667 9.99996 6.66667C9.53972 6.66667 9.16663 6.29357 9.16663 5.83333C9.16663 5.3731 9.53972 5 9.99996 5C10.4602 5 10.8333 5.3731 10.8333 5.83333Z" fill="#3FD5FE"/>
<rect x="0.75" y="0.75" width="18.5" height="18.5" rx="9.25" stroke="#3FD5FE" stroke-width="1.5"/>
</svg>
