<svg width="20" height="20" viewBox="0 0 20 20" fill="none" xmlns="http://www.w3.org/2000/svg">
<path fill-rule="evenodd" clip-rule="evenodd" d="M10 7.25C10.4142 7.25 10.75 7.55996 10.75 7.94231L10.75 12.5577C10.75 12.94 10.4142 13.25 10 13.25C9.58579 13.25 9.25 12.94 9.25 12.5577L9.25 7.94231C9.25 7.55996 9.58579 7.25 10 7.25Z" fill="#F7D056"/>
<path fill-rule="evenodd" clip-rule="evenodd" d="M9.25 15.3333C9.25 14.919 9.58579 14.5833 10 14.5833H10.0083C10.4225 14.5833 10.7583 14.919 10.7583 15.3333C10.7583 15.7475 10.4225 16.0833 10.0083 16.0833H10C9.58579 16.0833 9.25 15.7475 9.25 15.3333Z" fill="#F7D056"/>
<path opacity="0.9" fill-rule="evenodd" clip-rule="evenodd" d="M17.9639 16.7495L10.4328 3.74121C10.2402 3.40857 9.75991 3.40857 9.56733 3.74121L2.03622 16.7495C1.84324 17.0828 2.08377 17.5 2.46893 17.5H17.5311C17.9163 17.5 18.1568 17.0828 17.9639 16.7495ZM11.7309 2.98966L19.262 15.9979C20.0339 17.3313 19.0718 19 17.5311 19H2.46893C0.92827 19 -0.0338479 17.3313 0.738081 15.9979L8.26919 2.98966C9.03952 1.65909 10.9606 1.65909 11.7309 2.98966Z" fill="#F7D056"/>
</svg>
