<svg width="28" height="28" viewBox="0 0 28 28" fill="none" xmlns="http://www.w3.org/2000/svg">
<g clip-path="url(#clip0_2623_59010)">
<path d="M20.4756 26.8832L20.4756 22.0277" stroke="#3FD5FE" stroke-width="1.5" stroke-linecap="round"/>
<path d="M22.5781 25.6693L18.3731 23.2416" stroke="#3FD5FE" stroke-width="1.5" stroke-linecap="round"/>
<path d="M18.373 25.6693L22.578 23.2416" stroke="#3FD5FE" stroke-width="1.5" stroke-linecap="round"/>
<path d="M12.8155 4.1231C13.419 4.92762 14.8267 5.38018 14.3241 9.23519C13.472 9.41677 11.5164 9.8805 10.5107 10.2828C9.50509 10.685 9.14194 13.0483 9.08607 14.1797L7.32617 15.4368C4.34272 15.8055 2.17226 12.5734 1.45996 10.9113C3.55508 11.1627 6.0692 10.0732 7.99671 8.85808C9.53872 7.88594 10.008 3.98343 10.0499 2.15369C10.7203 2.47494 12.2121 3.31857 12.8155 4.1231Z" fill="#F091FF" fill-opacity="0.3"/>
<path d="M23.0309 13.9564C23.0493 13.9564 23.0677 13.949 23.0897 13.949C25.0389 13.949 26.6203 15.5367 26.6203 17.4935C26.6203 19.4503 25.0389 21.0379 23.0897 21.0379H21.9936H11.3211C9.37193 21.0379 7.79053 19.4503 7.79053 17.4935C7.79053 15.9243 8.81293 14.6062 10.2215 14.141C10.1737 13.8863 10.1442 13.6278 10.1442 13.3583C10.1442 11.0729 11.9868 9.22314 14.2633 9.22314C15.8557 9.22314 17.2201 10.1388 17.9042 11.4679C18.4448 10.8218 19.2429 10.4046 20.1476 10.4046C21.7731 10.4046 23.0897 11.7264 23.0897 13.3583C23.0897 13.5651 23.0713 13.7644 23.0309 13.9564Z" fill="#F091FF" fill-opacity="0.3"/>
<path d="M11.2882 21.0379C9.35718 21.0379 7.79053 19.4651 7.79053 17.5265C7.79053 15.972 8.80338 14.6662 10.1988 14.2054C10.1514 13.953 10.1223 13.697 10.1223 13.4299C10.1223 11.1659 11.9476 9.33337 14.2029 9.33337C15.7804 9.33337 17.1321 10.2405 17.8098 11.5572C18.3454 10.9171 19.136 10.5038 20.0322 10.5038C21.6426 10.5038 22.9469 11.8133 22.9469 13.4299C22.9469 13.6348 22.9287 13.8323 22.8886 14.0225C22.9069 14.0225 22.9251 14.0152 22.9469 14.0152C24.8779 14.0152 26.4446 15.588 26.4446 17.5265C26.4446 19.4651 24.8779 21.0379 22.9469 21.0379" stroke="#D580FF" stroke-width="1.5" stroke-linecap="round" stroke-linejoin="round"/>
<path d="M14.8306 25.1379L17.5738 19.1942" stroke="#6A9CFF" stroke-width="1.5" stroke-linecap="round"/>
<path d="M11.2844 26.7201L14.0277 20.7764" stroke="#6A9CFF" stroke-width="1.5" stroke-linecap="round"/>
<path d="M9.71073 2.08486C10.7754 2.42327 11.7379 3.02412 12.5095 3.83209C13.281 4.64006 13.8369 5.62916 14.1259 6.70833M1.69035 11.1255C2.12447 12.1549 2.81061 13.0586 3.68558 13.7532C4.28122 14.2261 4.95132 14.5918 5.66582 14.8368" stroke="#FF99FF" stroke-width="1.5" stroke-linecap="round"/>
<path d="M9.68884 2.09596C10.1153 3.25111 10.2131 4.50188 9.97141 5.70928C9.7297 6.91668 9.15793 8.03341 8.31966 8.93537C7.48138 9.83733 6.40942 10.4892 5.22292 10.8185C4.03641 11.1478 2.78184 11.1417 1.59861 10.8008" stroke="#FF99FF" stroke-width="1.5" stroke-linecap="round"/>
</g>
<defs>
<clipPath id="clip0_2623_59010">
<rect width="28" height="28" fill="white"/>
</clipPath>
</defs>
</svg>
