<svg width="28" height="28" viewBox="0 0 28 28" fill="none" xmlns="http://www.w3.org/2000/svg">
<path d="M18.3494 25.1654L18.3494 19.0471" stroke="#3FD5FE" stroke-width="1.5" stroke-linecap="round"/>
<path d="M20.9985 23.6359L15.6999 20.5767" stroke="#3FD5FE" stroke-width="1.5" stroke-linecap="round"/>
<path d="M15.7 23.6359L20.9986 20.5767" stroke="#3FD5FE" stroke-width="1.5" stroke-linecap="round"/>
<path d="M21.7466 8.92688C21.7696 8.92688 21.7926 8.91763 21.8203 8.91763C24.2626 8.91763 26.244 10.9069 26.244 13.3587C26.244 15.8105 24.2626 17.7997 21.8203 17.7997H20.4469H7.07459C4.63233 17.7997 2.65088 15.8105 2.65088 13.3587C2.65088 11.3926 3.93191 9.74107 5.69679 9.15818C5.63688 8.83898 5.60002 8.51516 5.60002 8.17745C5.60002 5.31389 7.90864 2.99622 10.761 2.99622C12.7563 2.99622 14.4659 4.14349 15.323 5.80889C16.0003 4.99932 17.0003 4.47657 18.1339 4.47657C20.1706 4.47657 21.8203 6.13271 21.8203 8.17745C21.8203 8.43651 21.7973 8.68632 21.7466 8.92688Z" fill="#F3F4F7"/>
<path d="M6.77205 17.7998C4.33885 17.7998 2.36475 15.8179 2.36475 13.3752C2.36475 11.4164 3.64103 9.77098 5.39936 9.19026C5.33967 8.87224 5.30295 8.54961 5.30295 8.21316C5.30295 5.36023 7.60301 3.05115 10.4448 3.05115C12.4327 3.05115 14.1359 4.19416 14.9898 5.85338C15.6647 5.04682 16.6609 4.52601 17.7903 4.52601C19.8195 4.52601 21.463 6.17601 21.463 8.21316C21.463 8.47126 21.4401 8.72015 21.3896 8.95981C21.4125 8.95981 21.4355 8.95059 21.463 8.95059C23.8962 8.95059 25.8703 10.9324 25.8703 13.3752C25.8703 15.8179 23.8962 17.7998 21.463 17.7998" stroke="#D4D4DE" stroke-width="1.5" stroke-linecap="round" stroke-linejoin="round"/>
<path d="M11.2358 22.9661L14.6925 15.4766" stroke="#6A9CFF" stroke-width="1.5" stroke-linecap="round"/>
<path d="M6.76733 24.9596L10.224 17.4701" stroke="#6A9CFF" stroke-width="1.5" stroke-linecap="round"/>
</svg>
