<svg width="28" height="28" viewBox="0 0 28 28" fill="none" xmlns="http://www.w3.org/2000/svg">
<g clip-path="url(#clip0_892_9063)">
<path d="M20.4756 26.8832L20.4756 22.0277" stroke="white" stroke-width="1.5" stroke-linecap="round"/>
<path d="M22.5781 25.6694L18.3731 23.2416" stroke="white" stroke-width="1.5" stroke-linecap="round"/>
<path d="M18.373 25.6694L22.578 23.2416" stroke="white" stroke-width="1.5" stroke-linecap="round"/>
<path d="M12.8155 4.12306C13.419 4.92759 14.8267 5.38015 14.3241 9.23516C13.472 9.41674 11.5164 9.88047 10.5107 10.2827C9.50509 10.685 9.14194 13.0483 9.08607 14.1797L7.32617 15.4367C4.34272 15.8055 2.17226 12.5734 1.45996 10.9113C3.55508 11.1627 6.0692 10.0732 7.99671 8.85805C9.53872 7.88591 10.008 3.9834 10.0499 2.15366C10.7203 2.47491 12.2121 3.31854 12.8155 4.12306Z" fill="#F091FF" fill-opacity="0.3"/>
<path d="M23.0309 13.9563C23.0493 13.9563 23.0677 13.949 23.0897 13.949C25.0389 13.949 26.6203 15.5366 26.6203 17.4934C26.6203 19.4502 25.0389 21.0378 23.0897 21.0378H21.9936H11.3211C9.37193 21.0378 7.79053 19.4502 7.79053 17.4934C7.79053 15.9242 8.81293 14.6062 10.2215 14.1409C10.1737 13.8862 10.1442 13.6277 10.1442 13.3582C10.1442 11.0728 11.9868 9.22305 14.2633 9.22305C15.8557 9.22305 17.2201 10.1387 17.9042 11.4679C18.4448 10.8217 19.2429 10.4045 20.1476 10.4045C21.7731 10.4045 23.0897 11.7263 23.0897 13.3582C23.0897 13.565 23.0713 13.7644 23.0309 13.9563Z" fill="url(#paint0_linear_892_9063)"/>
<path d="M11.2882 21.0378C9.35718 21.0378 7.79053 19.465 7.79053 17.5265C7.79053 15.972 8.80338 14.6662 10.1988 14.2053C10.1514 13.953 10.1223 13.6969 10.1223 13.4299C10.1223 11.1658 11.9476 9.33334 14.2029 9.33334C15.7804 9.33334 17.1321 10.2404 17.8098 11.5572C18.3454 10.9171 19.136 10.5038 20.0322 10.5038C21.6426 10.5038 22.9469 11.8132 22.9469 13.4299C22.9469 13.6347 22.9287 13.8323 22.8886 14.0225C22.9069 14.0225 22.9251 14.0151 22.9469 14.0151C24.8779 14.0151 26.4446 15.5879 26.4446 17.5265C26.4446 19.465 24.8779 21.0378 22.9469 21.0378" stroke="#D580FF" stroke-width="1.5" stroke-linecap="round" stroke-linejoin="round"/>
<path d="M14.8306 25.1379L17.5738 19.1942" stroke="#3FD5FE" stroke-width="1.5" stroke-linecap="round"/>
<path d="M11.2844 26.72L14.0277 20.7763" stroke="#3FD5FE" stroke-width="1.5" stroke-linecap="round"/>
<path d="M9.71073 2.08493C10.7754 2.42333 11.7379 3.02418 12.5095 3.83215C13.281 4.64012 13.8369 5.62923 14.1259 6.70839M1.69035 11.1256C2.12447 12.155 2.81061 13.0586 3.68558 13.7533C4.28122 14.2261 4.95132 14.5918 5.66582 14.8369" stroke="#FF99FF" stroke-width="1.5" stroke-linecap="round"/>
<path d="M9.68884 2.09596C10.1153 3.25111 10.2131 4.50188 9.97141 5.70928C9.7297 6.91668 9.15793 8.03341 8.31966 8.93537C7.48138 9.83733 6.40942 10.4892 5.22292 10.8185C4.03641 11.1478 2.78184 11.1417 1.59861 10.8008" stroke="#FF99FF" stroke-width="1.5" stroke-linecap="round"/>
</g>
<defs>
<linearGradient id="paint0_linear_892_9063" x1="17.2054" y1="9.22305" x2="17.2054" y2="21.0378" gradientUnits="userSpaceOnUse">
<stop stop-color="#D372E2"/>
<stop offset="1" stop-color="#F091FF" stop-opacity="0.2"/>
</linearGradient>
<clipPath id="clip0_892_9063">
<rect width="28" height="28" fill="white"/>
</clipPath>
</defs>
</svg>
