<svg width="28" height="28" viewBox="0 0 28 28" fill="none" xmlns="http://www.w3.org/2000/svg">
<g clip-path="url(#clip0_2623_58990)">
<path d="M12.8843 9.78253C11.0804 10.4314 10.7689 12.2941 9.76998 14.2918C9.02384 15.7841 7.37219 14.7206 6.59841 13.821C5.82463 12.9214 5.35693 11.751 5.35693 10.4713C5.35693 7.63281 7.65796 5.33179 10.4964 5.33179C11.7385 5.33179 12.8777 5.7724 13.7662 6.50586C14.9132 7.45272 14.6883 9.13371 12.8843 9.78253Z" fill="#F7D056"/>
<path d="M23.0309 13.9563C23.0493 13.9563 23.0677 13.9489 23.0897 13.9489C25.0389 13.9489 26.6203 15.5365 26.6203 17.4934C26.6203 19.4502 25.0389 21.0378 23.0897 21.0378H21.9936H11.3211C9.37193 21.0378 7.79053 19.4502 7.79053 17.4934C7.79053 15.9242 8.81293 14.6061 10.2215 14.1409C10.1737 13.8862 10.1442 13.6277 10.1442 13.3582C10.1442 11.0728 11.9868 9.22302 14.2633 9.22302C15.8557 9.22302 17.2201 10.1387 17.9042 11.4678C18.4448 10.8217 19.2429 10.4045 20.1476 10.4045C21.7731 10.4045 23.0897 11.7263 23.0897 13.3582C23.0897 13.5649 23.0713 13.7643 23.0309 13.9563Z" fill="#F3F4F7"/>
<path d="M11.2882 21.0379C9.35718 21.0379 7.79053 19.4651 7.79053 17.5265C7.79053 15.972 8.80338 14.6662 10.1988 14.2054C10.1514 13.953 10.1223 13.697 10.1223 13.4299C10.1223 11.1659 11.9476 9.33337 14.2029 9.33337C15.7804 9.33337 17.1321 10.2405 17.8098 11.5572C18.3454 10.9171 19.136 10.5038 20.0322 10.5038C21.6426 10.5038 22.9469 11.8133 22.9469 13.4299C22.9469 13.6348 22.9287 13.8323 22.8886 14.0225C22.9069 14.0225 22.9251 14.0152 22.9469 14.0152C24.8779 14.0152 26.4446 15.588 26.4446 17.5265C26.4446 19.4651 24.8779 21.0379 22.9469 21.0379H21.8611" stroke="#D4D4DE" stroke-width="1.5" stroke-linecap="round" stroke-linejoin="round"/>
<path d="M15.5242 25.0833L18.2674 19.1396" stroke="#6A9CFF" stroke-width="1.5" stroke-linecap="round"/>
<path d="M11.6667 26.9437L14.41 21" stroke="#6A9CFF" stroke-width="1.5" stroke-linecap="round"/>
<path d="M19.1816 24.8784L20.0961 23.0496" stroke="#6A9CFF" stroke-width="1.5" stroke-linecap="round"/>
<path d="M6.91977 13.4931C6.177 12.6046 5.79113 11.4716 5.83719 10.3145C5.88324 9.15727 6.35793 8.05855 7.16897 7.23187C7.98001 6.40519 9.06946 5.90961 10.2256 5.84146C11.3816 5.77331 12.5218 6.13747 13.4243 6.86314" stroke="#FEB800" stroke-width="1.5" stroke-linecap="round"/>
<path d="M16.634 4.70471L18.133 3.28821" stroke="#FEB800" stroke-width="1.5" stroke-linecap="round"/>
<path d="M3.19238 18.063L4.6913 16.6465" stroke="#FEB800" stroke-width="1.5" stroke-linecap="round"/>
<path d="M4.77466 4.70471L3.27574 3.28821" stroke="#FEB800" stroke-width="1.5" stroke-linecap="round"/>
<path d="M10.7354 2.74243V0.680094" stroke="#FEB800" stroke-width="1.5" stroke-linecap="round"/>
<path d="M0.64624 10.6653H2.70858" stroke="#FEB800" stroke-width="1.5" stroke-linecap="round"/>
</g>
<defs>
<clipPath id="clip0_2623_58990">
<rect width="28" height="28" fill="white"/>
</clipPath>
</defs>
</svg>
