<svg width="28" height="28" viewBox="0 0 28 28" fill="none" xmlns="http://www.w3.org/2000/svg">
<path d="M13.0964 9.98986C11.3857 10.6052 11.0903 12.3716 10.143 14.2662C9.43542 15.6813 7.86912 14.6728 7.13533 13.8196C6.40153 12.9665 5.95801 11.8566 5.95801 10.643C5.95801 7.95122 8.14013 5.7691 10.8319 5.7691C12.0098 5.7691 13.0901 6.18695 13.9327 6.88251C15.0204 7.78043 14.8072 9.37456 13.0964 9.98986Z" fill="#F7D056"/>
<path d="M23.8886 14.3557C23.9069 14.3557 23.9251 14.3484 23.9469 14.3484C25.8779 14.3484 27.4446 15.9212 27.4446 17.8598C27.4446 19.7983 25.8779 21.3711 23.9469 21.3711H22.8611H12.2882C10.3572 21.3711 8.79053 19.7983 8.79053 17.8598C8.79053 16.3053 9.80338 14.9995 11.1988 14.5386C11.1514 14.2862 11.1223 14.0302 11.1223 13.7632C11.1223 11.4991 12.9476 9.66663 15.2029 9.66663C16.7804 9.66663 18.1321 10.5737 18.8098 11.8905C19.3454 11.2504 20.136 10.8371 21.0322 10.8371C22.6426 10.8371 23.9469 12.1465 23.9469 13.7632C23.9469 13.968 23.9287 14.1655 23.8886 14.3557Z" fill="url(#paint0_linear_4_172)"/>
<path d="M11.7428 21.4179C9.81177 21.4179 8.24512 19.8451 8.24512 17.9066C8.24512 16.3521 9.25797 15.0463 10.6534 14.5854C10.606 14.3331 10.5769 14.077 10.5769 13.81C10.5769 11.5459 12.4022 9.71344 14.6574 9.71344C16.235 9.71344 17.5867 10.6205 18.2644 11.9373C18.8 11.2972 19.5906 10.8839 20.4868 10.8839C22.0972 10.8839 23.4015 12.1933 23.4015 13.81C23.4015 14.0148 23.3833 14.2124 23.3432 14.4026C23.3614 14.4026 23.3797 14.3952 23.4015 14.3952C25.3325 14.3952 26.8992 15.968 26.8992 17.9066C26.8992 19.8451 25.3325 21.4179 23.4015 21.4179" stroke="#F3F4F7" stroke-width="1.5" stroke-linecap="round" stroke-linejoin="round"/>
<path d="M17.6267 25.3671L17.6267 19.1356" stroke="white" stroke-width="1.5" stroke-linecap="round"/>
<path d="M20.3252 23.8093L14.9286 20.6935" stroke="white" stroke-width="1.5" stroke-linecap="round"/>
<path d="M14.9285 23.8093L20.3251 20.6935" stroke="white" stroke-width="1.5" stroke-linecap="round"/>
<path d="M7.37412 13.8731C6.63134 12.9846 6.24548 11.8516 6.29153 10.6945C6.33759 9.53728 6.81227 8.43856 7.62332 7.61188C8.43436 6.78519 9.52381 6.28961 10.6799 6.22147C11.836 6.15332 12.9761 6.51747 13.8787 7.24315" stroke="#FDF72A" stroke-width="1.5" stroke-linecap="round"/>
<path d="M17.0884 5.08478L18.5873 3.66828" stroke="#FDF72A" stroke-width="1.5" stroke-linecap="round"/>
<path d="M3.64673 18.4431L5.14565 17.0266" stroke="#FDF72A" stroke-width="1.5" stroke-linecap="round"/>
<path d="M5.229 5.08478L3.73008 3.66828" stroke="#FDF72A" stroke-width="1.5" stroke-linecap="round"/>
<path d="M11.1897 3.12244V1.0601" stroke="#FDF72A" stroke-width="1.5" stroke-linecap="round"/>
<path d="M1.10059 11.0453H3.16292" stroke="#FDF72A" stroke-width="1.5" stroke-linecap="round"/>
<defs>
<linearGradient id="paint0_linear_4_172" x1="18.1175" y1="9.66663" x2="18.1175" y2="21.3711" gradientUnits="userSpaceOnUse">
<stop stop-color="#E6E6EF"/>
<stop offset="1" stop-color="#D4D4DE" stop-opacity="0.43"/>
</linearGradient>
</defs>
</svg>
