<svg width="28" height="28" viewBox="0 0 28 28" fill="none" xmlns="http://www.w3.org/2000/svg">
<path d="M13.0964 9.98992C11.3857 10.6052 11.0903 12.3717 10.143 14.2662C9.43542 15.6814 7.86912 14.6728 7.13533 13.8197C6.40153 12.9666 5.95801 11.8566 5.95801 10.6431C5.95801 7.95129 8.14013 5.76917 10.8319 5.76917C12.0098 5.76917 13.0901 6.18701 13.9327 6.88257C15.0204 7.7805 14.8072 9.37462 13.0964 9.98992Z" fill="#F7D056"/>
<path d="M23.8886 14.3559C23.9069 14.3559 23.9251 14.3485 23.9469 14.3485C25.8779 14.3485 27.4446 15.9213 27.4446 17.8599C27.4446 19.7985 25.8779 21.3712 23.9469 21.3712H22.8611H12.2882C10.3572 21.3712 8.79053 19.7985 8.79053 17.8599C8.79053 16.3054 9.80338 14.9996 11.1988 14.5387C11.1514 14.2864 11.1223 14.0303 11.1223 13.7633C11.1223 11.4992 12.9476 9.66675 15.2029 9.66675C16.7804 9.66675 18.1321 10.5738 18.8098 11.8906C19.3454 11.2505 20.136 10.8372 21.0322 10.8372C22.6426 10.8372 23.9469 12.1466 23.9469 13.7633C23.9469 13.9682 23.9287 14.1657 23.8886 14.3559Z" fill="#F3F4F7"/>
<path d="M11.7428 21.418C9.81177 21.418 8.24512 19.8452 8.24512 17.9066C8.24512 16.3521 9.25797 15.0464 10.6534 14.5855C10.606 14.3331 10.5769 14.0771 10.5769 13.8101C10.5769 11.546 12.4022 9.7135 14.6574 9.7135C16.235 9.7135 17.5867 10.6206 18.2644 11.9374C18.8 11.2973 19.5906 10.884 20.4868 10.884C22.0972 10.884 23.4015 12.1934 23.4015 13.8101C23.4015 14.0149 23.3833 14.2124 23.3432 14.4026C23.3614 14.4026 23.3797 14.3953 23.4015 14.3953C25.3325 14.3953 26.8992 15.9681 26.8992 17.9066C26.8992 19.8452 25.3325 21.418 23.4015 21.418" stroke="#D4D4DE" stroke-width="1.5" stroke-linecap="round" stroke-linejoin="round"/>
<path d="M17.6267 25.3671L17.6267 19.1356" stroke="#3FD5FE" stroke-width="1.5" stroke-linecap="round"/>
<path d="M20.3252 23.8092L14.9286 20.6935" stroke="#3FD5FE" stroke-width="1.5" stroke-linecap="round"/>
<path d="M14.9285 23.8092L20.3251 20.6935" stroke="#3FD5FE" stroke-width="1.5" stroke-linecap="round"/>
<path d="M7.37412 13.8733C6.63134 12.9847 6.24548 11.8518 6.29153 10.6946C6.33759 9.5374 6.81227 8.43868 7.62332 7.612C8.43436 6.78532 9.52381 6.28973 10.6799 6.22159C11.836 6.15344 12.9761 6.5176 13.8787 7.24327" stroke="#FEB800" stroke-width="1.5" stroke-linecap="round"/>
<path d="M17.0884 5.08484L18.5873 3.66834" stroke="#FEB800" stroke-width="1.5" stroke-linecap="round"/>
<path d="M3.64673 18.4431L5.14565 17.0266" stroke="#FEB800" stroke-width="1.5" stroke-linecap="round"/>
<path d="M5.229 5.08484L3.73008 3.66834" stroke="#FEB800" stroke-width="1.5" stroke-linecap="round"/>
<path d="M11.1897 3.12256V1.06022" stroke="#FEB800" stroke-width="1.5" stroke-linecap="round"/>
<path d="M1.10059 11.0454H3.16292" stroke="#FEB800" stroke-width="1.5" stroke-linecap="round"/>
</svg>
