<svg width="28" height="28" viewBox="0 0 28 28" fill="none" xmlns="http://www.w3.org/2000/svg">
<g clip-path="url(#clip0_2623_59014)">
<path d="M13.7826 4.58965C14.386 5.39417 15.7937 5.84674 15.2911 9.70174C14.439 9.88332 12.4834 10.3471 11.4778 10.7493C10.4721 11.1516 10.109 13.5149 10.0531 14.6462L8.29321 15.9033C5.30976 16.272 3.1393 13.04 2.427 11.3778C4.52212 11.6293 7.03624 10.5398 8.96375 9.32463C10.5058 8.3525 10.9751 4.44998 11.0169 2.62024C11.6874 2.94149 13.1791 3.78512 13.7826 4.58965Z" fill="#F091FF" fill-opacity="0.3"/>
<path d="M23.5613 14.347C23.5795 14.347 23.5977 14.3396 23.6195 14.3396C25.5505 14.3396 27.1172 15.9124 27.1172 17.851C27.1172 19.7895 25.5505 21.3623 23.6195 21.3623H22.5337H11.9608C10.0298 21.3623 8.46313 19.7895 8.46313 17.851C8.46313 16.2965 9.47599 14.9907 10.8714 14.5298C10.824 14.2775 10.7949 14.0214 10.7949 13.7544C10.7949 11.4903 12.6202 9.65784 14.8755 9.65784C16.453 9.65784 17.8047 10.5649 18.4824 11.8817C19.018 11.2416 19.8086 10.8283 20.7049 10.8283C22.3152 10.8283 23.6195 12.1377 23.6195 13.7544C23.6195 13.9592 23.6013 14.1568 23.5613 14.347Z" fill="#F091FF" fill-opacity="0.3"/>
<path d="M11.7425 21.418C9.81152 21.418 8.24487 19.8452 8.24487 17.9066C8.24487 16.3521 9.25773 15.0464 10.6531 14.5855C10.6058 14.3331 10.5766 14.0771 10.5766 13.8101C10.5766 11.546 12.402 9.7135 14.6572 9.7135C16.2348 9.7135 17.5865 10.6206 18.2641 11.9374C18.7997 11.2973 19.5903 10.884 20.4866 10.884C22.097 10.884 23.4013 12.1934 23.4013 13.8101C23.4013 14.0149 23.3831 14.2124 23.343 14.4026C23.3612 14.4026 23.3794 14.3953 23.4013 14.3953C25.3323 14.3953 26.8989 15.9681 26.8989 17.9066C26.8989 19.8452 25.3323 21.418 23.4013 21.418" stroke="#D580FF" stroke-width="1.5" stroke-linecap="round" stroke-linejoin="round"/>
<path d="M10.2434 2.35671C11.3082 2.69512 12.2706 3.29597 13.0422 4.10394C13.8137 4.91191 14.3696 5.90101 14.6586 6.98018M2.22307 11.3974C2.65718 12.4268 3.34332 13.3304 4.2183 14.0251C4.81393 14.4979 5.48404 14.8636 6.19853 15.1087" stroke="#FF99FF" stroke-width="1.5" stroke-linecap="round"/>
<path d="M10.2216 2.36781C10.648 3.52296 10.7458 4.77373 10.5041 5.98113C10.2624 7.18853 9.69065 8.30527 8.85237 9.20722C8.01409 10.1092 6.94214 10.761 5.75563 11.0904C4.56913 11.4197 3.31455 11.4135 2.13132 11.0726" stroke="#FF99FF" stroke-width="1.5" stroke-linecap="round"/>
<path d="M17.2769 25.2004L17.2769 18.969" stroke="#3FD5FE" stroke-width="1.5" stroke-linecap="round"/>
<path d="M19.9753 23.6426L14.5788 20.5269" stroke="#3FD5FE" stroke-width="1.5" stroke-linecap="round"/>
<path d="M14.5786 23.6426L19.9752 20.5269" stroke="#3FD5FE" stroke-width="1.5" stroke-linecap="round"/>
</g>
<defs>
<clipPath id="clip0_2623_59014">
<rect width="28" height="28" fill="white"/>
</clipPath>
</defs>
</svg>
