<svg width="28" height="28" viewBox="0 0 28 28" fill="none" xmlns="http://www.w3.org/2000/svg">
<g clip-path="url(#clip0_2623_59025)">
<path d="M12.6607 3.84282C13.2642 4.64734 14.6719 5.09991 14.1693 8.95491C13.3172 9.13649 12.0322 9.84382 11.0265 10.2461C10.0208 10.6483 9.65769 13.0116 9.60182 14.143L7.84192 15.4001C4.85847 15.7688 2.01747 12.2931 1.30518 10.631C3.40029 10.8824 5.91441 9.79297 7.84192 8.57781C9.38393 7.60567 9.85323 3.70315 9.89512 1.87341C10.5656 2.19466 12.0573 3.0383 12.6607 3.84282Z" fill="#F091FF" fill-opacity="0.3"/>
<path d="M23.0309 13.9563C23.0493 13.9563 23.0677 13.9489 23.0897 13.9489C25.0389 13.9489 26.6203 15.5365 26.6203 17.4934C26.6203 19.4502 25.0389 21.0378 23.0897 21.0378H21.9936H11.3211C9.37193 21.0378 7.79053 19.4502 7.79053 17.4934C7.79053 15.9242 8.81293 14.6061 10.2215 14.1409C10.1737 13.8862 10.1442 13.6277 10.1442 13.3582C10.1442 11.0728 11.9868 9.22302 14.2633 9.22302C15.8557 9.22302 17.2201 10.1387 17.9042 11.4678C18.4448 10.8217 19.2429 10.4045 20.1476 10.4045C21.7731 10.4045 23.0897 11.7263 23.0897 13.3582C23.0897 13.5649 23.0713 13.7643 23.0309 13.9563Z" fill="#F091FF" fill-opacity="0.3"/>
<path d="M11.2882 21.0377C9.35718 21.0377 7.79053 19.465 7.79053 17.5264C7.79053 15.9719 8.80338 14.6661 10.1988 14.2052C10.1514 13.9529 10.1223 13.6968 10.1223 13.4298C10.1223 11.1657 11.9476 9.33325 14.2029 9.33325C15.7804 9.33325 17.1321 10.2404 17.8098 11.5571C18.3454 10.917 19.136 10.5037 20.0322 10.5037C21.6426 10.5037 22.9469 11.8131 22.9469 13.4298C22.9469 13.6347 22.9287 13.8322 22.8886 14.0224C22.9069 14.0224 22.9251 14.015 22.9469 14.015C24.8779 14.015 26.4446 15.5878 26.4446 17.5264C26.4446 19.465 24.8779 21.0377 22.9469 21.0377H21.8611" stroke="#D580FF" stroke-width="1.5" stroke-linecap="round" stroke-linejoin="round"/>
<path d="M15.3089 17.7947L13.9233 20.5614H16.0396L14.1752 24.2189" stroke="#FEB800" stroke-width="1.5" stroke-linecap="round" stroke-linejoin="round"/>
<path d="M10.887 25.4844L12.0122 23.0347" stroke="#6A9CFF" stroke-width="1.5" stroke-linecap="round"/>
<path d="M16.6384 25.5099L18.9058 20.5973" stroke="#6A9CFF" stroke-width="1.5" stroke-linecap="round"/>
<path d="M19.6616 24.3762L20.4174 22.8646" stroke="#6A9CFF" stroke-width="1.5" stroke-linecap="round"/>
<path d="M9.16825 1.63894C10.233 1.97735 11.1954 2.5782 11.967 3.38617C12.7386 4.19413 13.2944 5.18324 13.5834 6.26241M1.14787 10.6796C1.58199 11.709 2.26813 12.6126 3.1431 13.3073C3.73874 13.7802 4.40884 14.1458 5.12334 14.3909" stroke="#FF99FF" stroke-width="1.5" stroke-linecap="round"/>
<path d="M9.14636 1.65004C9.57283 2.80518 9.67064 4.05596 9.42893 5.26336C9.18722 6.47076 8.61545 7.58749 7.77718 8.48945C6.9389 9.39141 5.86694 10.0433 4.68044 10.3726C3.49393 10.7019 2.23935 10.6958 1.05613 10.3549" stroke="#FF99FF" stroke-width="1.5" stroke-linecap="round"/>
</g>
<defs>
<clipPath id="clip0_2623_59025">
<rect width="28" height="28" fill="white"/>
</clipPath>
</defs>
</svg>
