<svg width="28" height="28" viewBox="0 0 28 28" fill="none" xmlns="http://www.w3.org/2000/svg">
<g clip-path="url(#clip0_2623_59007)">
<path d="M13.344 10.5362C11.6332 11.1515 11.3378 12.918 10.3906 14.8125C9.68298 16.2277 8.11668 15.2191 7.38289 14.366C6.64909 13.5129 6.20557 12.4029 6.20557 11.1893C6.20557 8.49755 8.38769 6.31543 11.0795 6.31543C12.2574 6.31543 13.3377 6.73328 14.1803 7.42883C15.268 8.32676 15.0547 9.92089 13.344 10.5362Z" fill="#F7D056"/>
<path d="M23.8886 14.3557C23.9069 14.3557 23.9251 14.3484 23.9469 14.3484C25.8779 14.3484 27.4446 15.9212 27.4446 17.8598C27.4446 19.7983 25.8779 21.3711 23.9469 21.3711H22.8611H12.2882C10.3572 21.3711 8.79053 19.7983 8.79053 17.8598C8.79053 16.3053 9.80338 14.9995 11.1988 14.5386C11.1514 14.2862 11.1223 14.0302 11.1223 13.7632C11.1223 11.4991 12.9476 9.66663 15.2029 9.66663C16.7804 9.66663 18.1321 10.5737 18.8098 11.8905C19.3454 11.2504 20.136 10.8371 21.0322 10.8371C22.6426 10.8371 23.9469 12.1465 23.9469 13.7632C23.9469 13.968 23.9287 14.1655 23.8886 14.3557Z" fill="#F3F4F7"/>
<path d="M11.8849 21.2865C10.0229 21.2865 8.51221 19.7699 8.51221 17.9005C8.51221 16.4015 9.48889 15.1424 10.8345 14.698C10.7888 14.4546 10.7607 14.2077 10.7607 13.9503C10.7607 11.767 12.5208 10 14.6955 10C16.2168 10 17.5202 10.8747 18.1736 12.1444C18.6901 11.5272 19.4525 11.1286 20.3167 11.1286C21.8696 11.1286 23.1273 12.3913 23.1273 13.9503C23.1273 14.1478 23.1097 14.3382 23.0711 14.5216C23.0887 14.5216 23.1062 14.5146 23.1273 14.5146C24.9893 14.5146 26.5 16.0312 26.5 17.9005C26.5 19.7699 24.9893 21.2865 23.1273 21.2865H22.0802" stroke="#D4D4DE" stroke-width="1.5" stroke-linecap="round" stroke-linejoin="round"/>
<path d="M15.8052 18.7947L14.4197 21.5614H16.5359L14.6715 25.2189" stroke="#FEB800" stroke-width="1.5" stroke-linecap="round" stroke-linejoin="round"/>
<path d="M11.3833 26.4844L12.5086 24.0347" stroke="#6A9CFF" stroke-width="1.5" stroke-linecap="round"/>
<path d="M17.1348 26.5099L19.4021 21.5973" stroke="#6A9CFF" stroke-width="1.5" stroke-linecap="round"/>
<path d="M20.158 25.3762L20.9137 23.8646" stroke="#6A9CFF" stroke-width="1.5" stroke-linecap="round"/>
<path d="M7.67248 14.0112C6.95623 13.1544 6.58415 12.0619 6.62856 10.946C6.67297 9.83019 7.1307 8.77071 7.91278 7.97355C8.69485 7.17639 9.7454 6.69851 10.8602 6.6328C11.975 6.56708 13.0744 6.91823 13.9447 7.61799" stroke="#FEB800" stroke-width="1.5" stroke-linecap="round"/>
<path d="M15.2573 5.03259L16.5421 3.81845" stroke="#FEB800" stroke-width="1.5" stroke-linecap="round"/>
<path d="M3.73633 16.4825L5.02112 15.2684" stroke="#FEB800" stroke-width="1.5" stroke-linecap="round"/>
<path d="M5.09229 5.03259L3.8075 3.81845" stroke="#FEB800" stroke-width="1.5" stroke-linecap="round"/>
<path d="M10.2017 3.35059V1.58287" stroke="#FEB800" stroke-width="1.5" stroke-linecap="round"/>
<path d="M1.55371 10.1416H3.32143" stroke="#FEB800" stroke-width="1.5" stroke-linecap="round"/>
</g>
<defs>
<clipPath id="clip0_2623_59007">
<rect width="28" height="28" fill="white"/>
</clipPath>
</defs>
</svg>
