<svg width="28" height="28" viewBox="0 0 28 28" fill="none" xmlns="http://www.w3.org/2000/svg">
<path d="M21.8358 10.2652C21.8602 10.2652 21.8845 10.2554 21.9138 10.2554C24.4953 10.2554 26.5898 12.3581 26.5898 14.9498C26.5898 17.5415 24.4953 19.6442 21.9138 19.6442H20.462H6.32693C3.74536 19.6442 1.65088 17.5415 1.65088 14.9498C1.65088 12.8715 3.00498 11.1258 4.87053 10.5097C4.80721 10.1723 4.76824 9.82997 4.76824 9.473C4.76824 6.4461 7.20856 3.99622 10.2236 3.99622C12.3327 3.99622 14.1398 5.20893 15.0458 6.96933C15.7618 6.11358 16.8188 5.56101 18.017 5.56101C20.17 5.56101 21.9138 7.31163 21.9138 9.473C21.9138 9.74684 21.8894 10.0109 21.8358 10.2652Z" fill="url(#paint0_linear_1341_16292)"/>
<path d="M6.34375 19.6441C3.80762 19.6441 1.75 17.4748 1.75 14.8009C1.75 12.6568 3.08027 10.8557 4.91299 10.22C4.85078 9.87189 4.8125 9.51874 4.8125 9.15045C4.8125 6.02757 7.20986 3.5 10.1719 3.5C12.2438 3.5 14.0191 4.75117 14.9092 6.56739C15.6126 5.6845 16.651 5.11441 17.8281 5.11441C19.9432 5.11441 21.6563 6.92054 21.6563 9.15045C21.6563 9.43297 21.6323 9.70541 21.5797 9.96775C21.6036 9.96775 21.6275 9.95766 21.6563 9.95766C24.1924 9.95766 26.25 12.127 26.25 14.8009C26.25 17.4748 24.1924 19.6441 21.6563 19.6441" stroke="#D580FF" stroke-width="1.5" stroke-linecap="round" stroke-linejoin="round"/>
<path d="M12.6728 14.7784L10.6541 18.8095H13.7373L11.021 24.1382" stroke="#FDF72A" stroke-width="1.5" stroke-linecap="round" stroke-linejoin="round"/>
<path d="M6.23022 25.9819L7.86969 22.4128" stroke="#3FD5FE" stroke-width="1.5" stroke-linecap="round"/>
<path d="M14.6099 26.0192L17.9133 18.8617" stroke="#3FD5FE" stroke-width="1.5" stroke-linecap="round"/>
<path d="M19.0146 24.3674L20.1158 22.1651" stroke="#3FD5FE" stroke-width="1.5" stroke-linecap="round"/>
<defs>
<linearGradient id="paint0_linear_1341_16292" x1="14.1203" y1="3.99622" x2="14.1203" y2="19.6442" gradientUnits="userSpaceOnUse">
<stop stop-color="#D372E2"/>
<stop offset="1" stop-color="#F091FF" stop-opacity="0.2"/>
</linearGradient>
</defs>
</svg>
