<svg width="0" height="0" class="hidden">
  <symbol fill="none" xmlns="http://www.w3.org/2000/svg" viewBox="0 0 20 20" id="feelslike">
    <path fill-rule="evenodd" clip-rule="evenodd" d="M14.688 5.02673C14.6222 5.10153 14.5 5.31333 14.5 5.83334C14.5 6.24755 14.1642 6.58334 13.75 6.58334C13.3358 6.58334 13 6.24755 13 5.83334C13 5.10334 13.1695 4.48181 13.562 4.03578C13.9669 3.57568 14.5073 3.41667 15 3.41667C15.4631 3.41667 15.8605 3.54974 16.1694 3.83202C16.4502 4.0886 16.5874 4.4094 16.6682 4.61415C16.7668 4.8639 17.0589 5.13101 17.3584 5.03283C17.6905 4.92399 17.5833 4.49394 17.5833 4.16667C17.5833 3.75246 17.9191 3.41667 18.3333 3.41667C18.7475 3.41667 19.0833 3.75246 19.0833 4.16667C19.0833 4.67274 18.9627 5.36755 18.5791 5.90468C18.3777 6.18652 18.0878 6.44532 17.6916 6.5774C17.2932 6.7102 16.8635 6.68951 16.4295 6.54485C15.9946 6.39988 15.7294 6.11231 15.5627 5.82886C15.4491 5.63584 15.3608 5.39891 15.3056 5.25097C15.2108 4.99668 14.934 4.74721 14.688 5.02673Z" fill="#6A9CFF"></path>
    <path fill-rule="evenodd" clip-rule="evenodd" d="M3.33342 5.35712C3.33342 3.14798 5.12428 1.35712 7.33342 1.35712C9.54256 1.35712 11.3334 3.14798 11.3334 5.35712L11.3334 9.65293C12.3613 10.6776 13.0001 12.0977 13.0001 13.6667C13.0001 16.7963 10.463 19.3333 7.33341 19.3333C4.2038 19.3333 1.66675 16.7963 1.66675 13.6667C1.66675 12.0977 2.30555 10.6776 3.33342 9.65292L3.33342 5.35712ZM4.83342 10.333L4.83342 5.35712C4.83342 3.97641 5.95271 2.85712 7.33342 2.85712C8.71413 2.85712 9.83342 3.9764 9.83342 5.35712L9.83342 10.333C10.8455 11.0932 11.5001 12.3035 11.5001 13.6667C11.5001 15.9679 9.6346 17.8333 7.33341 17.8333C5.03223 17.8333 3.16675 15.9679 3.16675 13.6667C3.16675 12.3035 3.82138 11.0932 4.83342 10.333Z" fill="#6A9CFF"></path>
    <path fill-rule="evenodd" clip-rule="evenodd" d="M7.29897 8C6.82493 8 6.44064 8.38429 6.44064 8.85833L6.44064 11.8647C5.62005 12.2126 5.04443 13.0256 5.04443 13.973C5.04443 15.2371 6.0692 16.2619 7.33332 16.2619C8.59743 16.2619 9.6222 15.2371 9.6222 13.973C9.6222 12.9994 9.01428 12.1677 8.15731 11.8369V8.85833C8.15731 8.38429 7.77302 8 7.29897 8Z" fill="#6A9CFF"></path>
  </symbol>
  <symbol fill="none" xmlns="http://www.w3.org/2000/svg" viewBox="0 0 20 20" id="humidity">
    <path d="M15.625 12.5C15.625 15.952 13.452 18.125 10 18.125C6.54805 18.125 4.375 15.952 4.375 12.5C4.375 8.79571 8.40742 3.79492 9.64414 2.34844C9.68815 2.29705 9.74276 2.25579 9.80422 2.2275C9.86568 2.19922 9.93254 2.18457 10.0002 2.18457C10.0679 2.18457 10.1347 2.19922 10.1962 2.2275C10.2576 2.25579 10.3122 2.29705 10.3562 2.34844C11.5926 3.79492 15.625 8.79571 15.625 12.5Z" stroke="#6A9CFF" stroke-width="1.5" stroke-miterlimit="10"></path>
  </symbol>
  <symbol fill="none" xmlns="http://www.w3.org/2000/svg" viewBox="0 0 20 20" id="precipprob">
    <path fill-rule="evenodd" clip-rule="evenodd" d="M17.6008 4.12164C18.0863 4.12164 18.4798 3.72809 18.4798 3.24263C18.4798 2.75717 18.0863 2.36362 17.6008 2.36362L2.95066 2.36362C2.46519 2.36362 2.07165 2.75716 2.07165 3.24263C2.07165 3.72809 2.46519 4.12164 2.95066 4.12164L17.6008 4.12164ZM14.9267 6.4843C15.3806 6.65647 15.609 7.164 15.4369 7.61791L15.0836 8.54937C14.9114 9.00327 14.4038 9.23167 13.9499 9.05949C13.496 8.88732 13.2676 8.37979 13.4398 7.92588L13.7931 6.99442C13.9653 6.54052 14.4728 6.31212 14.9267 6.4843ZM5.65659 7.61791C5.82876 7.16401 5.60037 6.65647 5.14646 6.4843C4.69255 6.31212 4.18501 6.54052 4.01284 6.99442L3.65953 7.92588C3.48736 8.37979 3.71575 8.88732 4.16966 9.05949C4.62357 9.23167 5.1311 9.00327 5.30327 8.54937L5.65659 7.61791ZM4.24334 11.3437C4.41552 10.8898 4.18712 10.3823 3.73322 10.2101C3.27931 10.0379 2.77177 10.2663 2.5996 10.7202L1.89298 12.5832C1.72081 13.0371 1.9492 13.5446 2.40311 13.7168C2.85701 13.8889 3.36455 13.6605 3.53672 13.2066L4.24334 11.3437ZM2.47679 16.001C2.64896 15.5471 2.42057 15.0396 1.96666 14.8674C1.51276 14.6952 1.00522 14.9236 0.833049 15.3775L0.479739 16.309C0.307567 16.7629 0.535959 17.2704 0.989866 17.4426C1.44377 17.6148 1.95131 17.3864 2.12348 16.9325L2.47679 16.001ZM10.5467 7.61791C10.7189 7.16401 10.4905 6.65647 10.0366 6.4843C9.58269 6.31212 9.07515 6.54052 8.90298 6.99442L8.54967 7.92588C8.3775 8.37979 8.60589 8.88732 9.0598 9.05949C9.51371 9.23167 10.0212 9.00327 10.1934 8.54937L10.5467 7.61791ZM9.13348 11.3437C9.30565 10.8898 9.07726 10.3823 8.62336 10.2101C8.16945 10.0379 7.66191 10.2663 7.48974 10.7202L6.78312 12.5832C6.61095 13.0371 6.83934 13.5446 7.29325 13.7168C7.74715 13.8889 8.25469 13.6605 8.42686 13.2066L9.13348 11.3437Z" fill="#6A9CFF"></path>
  </symbol>
  <symbol fill="none" xmlns="http://www.w3.org/2000/svg" viewBox="0 0 20 20" id="pressure">
    <path fill-rule="evenodd" clip-rule="evenodd" d="M3.25 10C3.25 6.27208 6.27208 3.25 10 3.25C13.7279 3.25 16.75 6.27208 16.75 10C16.75 13.7279 13.7279 16.75 10 16.75C6.27208 16.75 3.25 13.7279 3.25 10ZM10 1.75C5.44365 1.75 1.75 5.44365 1.75 10C1.75 14.5563 5.44365 18.25 10 18.25C14.5563 18.25 18.25 14.5563 18.25 10C18.25 5.44365 14.5563 1.75 10 1.75ZM8.7 9.14167C8.45833 9.4 8.33333 9.7 8.33333 10.05C8.33333 10.4167 8.45833 10.725 8.70833 10.975C8.95833 11.225 9.26667 11.35 9.625 11.35C9.99167 11.35 10.3 11.225 10.5583 10.975C10.8167 10.725 10.9417 10.4167 10.9417 10.05C10.9417 9.76667 10.875 9.525 10.725 9.31667L12.0793 6.41883C12.1563 6.25421 12.0907 6.05818 11.9301 5.97304C11.7792 5.89303 11.5925 5.93693 11.493 6.07576L9.58333 8.74167C9.24167 8.75 8.94167 8.88333 8.7 9.14167Z" fill="#6A9CFF"></path>
  </symbol>
  <symbol fill="none" xmlns="http://www.w3.org/2000/svg" viewBox="0 0 20 20" id="wind">
    <path d="M3.49284 15.0421L6.38069 10.0591L3.49235 5.07608C2.98727 4.20471 3.87985 3.19102 4.80813 3.58176L17.8973 9.09129C18.7541 9.45196 18.7541 10.6661 17.8973 11.0268L4.80868 16.5364C3.88043 16.9271 2.98785 15.9135 3.49284 15.0421Z" stroke="#6A9CFF" stroke-width="1.5"></path>
  </symbol>
  <symbol fill="none" xmlns="http://www.w3.org/2000/svg" viewBox="0 0 20 20" id="windGust">
    <g clip-path="url(#clip0_2188_48622)">
      <path d="M12.7003 6.61726C12.7003 6.06322 12.5361 5.52161 12.2282 5.06094C11.9204 4.60027 11.4829 4.24122 10.9711 4.0292C10.4592 3.81718 9.89594 3.7617 9.35254 3.86979C8.80915 3.97788 8.31 4.24468 7.91824 4.63645C7.52647 5.02821 7.25967 5.52736 7.15158 6.07076C7.04349 6.61415 7.09897 7.1774 7.31099 7.68927C7.52301 8.20114 7.88206 8.63864 8.34273 8.94645C8.8034 9.25426 9.34501 9.41856 9.89905 9.41856H17.5627" stroke="#6A9CFF" stroke-width="1.5" stroke-linecap="round"></path>
      <path d="M6.00848 10.7414C6.00848 10.3643 5.89667 9.9957 5.68718 9.68218C5.47769 9.36866 5.17994 9.1243 4.83158 8.98001C4.48322 8.83571 4.09989 8.79796 3.73007 8.87152C3.36025 8.94508 3.02054 9.12665 2.75392 9.39328C2.48729 9.65991 2.30572 9.99961 2.23216 10.3694C2.1586 10.7392 2.19635 11.1226 2.34065 11.4709C2.48494 11.8193 2.7293 12.1171 3.04282 12.3265C3.35634 12.536 3.72494 12.6478 4.102 12.6478H15.5967" stroke="#6A9CFF" stroke-width="1.5" stroke-linecap="round"></path>
      <path d="M7.13977 12.6592C6.82796 12.6592 6.52211 12.7446 6.25539 12.9061C5.98867 13.0676 5.77127 13.2991 5.62677 13.5754C5.48228 13.8517 5.41621 14.1623 5.43573 14.4735C5.45525 14.7847 5.55962 15.0846 5.73752 15.3407C5.91541 15.5968 6.16003 15.7993 6.44485 15.9262C6.72966 16.0531 7.04379 16.0996 7.35316 16.0606C7.66253 16.0216 7.95531 15.8987 8.19976 15.7051C8.4442 15.5116 8.63097 15.2547 8.7398 14.9625" stroke="#6A9CFF" stroke-width="1.5" stroke-linecap="round"></path>
      <path d="M12.0515 15.3187L19.3829 15.3187" stroke="#6A9CFF" stroke-width="1.5" stroke-linecap="round"></path>
    </g>
    <defs>
      <clipPath id="clip0_2188_48622">
        <rect width="20" height="20" fill="white"></rect>
      </clipPath>
    </defs>
  </symbol>
</svg>