<svg aria-hidden="true" style="position:absolute;width:0;height:0" width="24" height="24" xmlns="http://www.w3.org/2000/svg" overflow="hidden">
  <defs>
    <symbol id="locations-dark" viewBox="0 0 24 24">
      <path fill-rule="evenodd" clip-rule="evenodd" d="m12.706 21.608 4.95-4.951a8 8 0 1 0-11.313 0l4.951 4.951a.997.997 0 0 0 1.412 0Zm.308-13.445a2.183 2.183 0 0 1 1.657 0A2.146 2.146 0 0 1 16 10.142c0 1.806-2.213 3.629-3.723 4.671a.485.485 0 0 1-.551 0C10.213 13.771 8 11.95 8 10.142A2.146 2.146 0 0 1 10.158 8c.284 0 .566.056.828.163.262.108.5.266.698.464l.318.315.314-.315c.198-.198.436-.356.698-.464Z" fill="#6892B9" />
    </symbol>
    <symbol id="settings-dark" viewBox="0 0 24 24">
      <path fill-rule="evenodd" clip-rule="evenodd" d="M13.675 4.317c-.426-1.756-2.924-1.756-3.35 0a1.724 1.724 0 0 1-2.573 1.066c-1.543-.94-3.31.826-2.37 2.37.608.996.07 2.296-1.065 2.572-1.756.426-1.756 2.924 0 3.35a1.724 1.724 0 0 1 1.066 2.573c-.94 1.543.826 3.31 2.37 2.37a1.724 1.724 0 0 1 2.572 1.065c.426 1.756 2.924 1.756 3.35 0a1.724 1.724 0 0 1 2.573-1.066c1.543.94 3.31-.826 2.37-2.37a1.724 1.724 0 0 1 1.065-2.572c1.756-.426 1.756-2.924 0-3.35a1.724 1.724 0 0 1-1.066-2.573c.94-1.543-.826-3.31-2.37-2.37a1.724 1.724 0 0 1-2.572-1.065ZM12 15a3 3 0 1 0 0-6 3 3 0 0 0 0 6Z" fill="#6892B9" />
    </symbol>
    <symbol id="weather-dark" viewBox="0 0 24 24">
      <path d="M19.485 14.608c.018 0 .037-.008.06-.008a3.596 3.596 0 0 1 3.587 3.603 3.596 3.596 0 0 1-3.587 3.602H7.585a3.596 3.596 0 0 1-1.118-7.01 4.192 4.192 0 0 1 4.107-4.998c1.62 0 3.006.931 3.7 2.282a2.963 2.963 0 0 1 2.28-1.08A2.995 2.995 0 0 1 19.545 14c0 .21-.018.413-.06.608Z" fill="#6892B9" />
      <path d="M7.03 3.02c1.436 0 2.665.826 3.282 2.024 2.358-1.504 5.35 1.259 3.55 3.97-3.308-2.451-8.998-.589-8.998 3.857-1.638.61-3.668-.594-3.668-2.396 0-1.415.922-2.603 2.191-3.022A3.718 3.718 0 0 1 7.03 3.021Z" fill="#6892B9" />
    </symbol>
    <symbol id="settings-dark-active" viewBox="0 0 24 24">
      <path fill-rule="evenodd" clip-rule="evenodd" d="M13.675 4.317c-.426-1.756-2.924-1.756-3.35 0a1.724 1.724 0 0 1-2.573 1.066c-1.543-.94-3.31.826-2.37 2.37.608.996.07 2.296-1.065 2.572-1.756.426-1.756 2.924 0 3.35a1.724 1.724 0 0 1 1.066 2.573c-.94 1.543.826 3.31 2.37 2.37a1.724 1.724 0 0 1 2.572 1.065c.426 1.756 2.924 1.756 3.35 0a1.724 1.724 0 0 1 2.573-1.066c1.543.94 3.31-.826 2.37-2.37a1.724 1.724 0 0 1 1.065-2.572c1.756-.426 1.756-2.924 0-3.35a1.724 1.724 0 0 1-1.066-2.573c.94-1.543-.826-3.31-2.37-2.37a1.724 1.724 0 0 1-2.572-1.065ZM12 15a3 3 0 1 0 0-6 3 3 0 0 0 0 6Z" fill="#FEB800" />
    </symbol>
    <symbol id="locations-dark-active" viewBox="0 0 24 24">
      <path fill-rule="evenodd" clip-rule="evenodd" d="m12.706 21.608 4.95-4.951a8 8 0 1 0-11.313 0l4.951 4.951a.997.997 0 0 0 1.412 0Zm.308-13.445a2.183 2.183 0 0 1 1.657 0A2.146 2.146 0 0 1 16 10.142c0 1.806-2.213 3.629-3.723 4.671a.485.485 0 0 1-.551 0C10.213 13.771 8 11.95 8 10.142A2.146 2.146 0 0 1 10.158 8c.284 0 .566.056.828.163.262.108.5.266.698.464l.318.315.314-.315c.198-.198.436-.356.698-.464Z" fill="#FEB800" />
    </symbol>
    <symbol id="weather-dark-active" viewBox="0 0 24 24">
      <path d="M19.485 14.608c.019 0 .037-.008.06-.008a3.596 3.596 0 0 1 3.588 3.603 3.596 3.596 0 0 1-3.588 3.602H7.585a3.596 3.596 0 0 1-1.117-7.01 4.192 4.192 0 0 1 4.107-4.998c1.618 0 3.005.931 3.7 2.282a2.963 2.963 0 0 1 2.28-1.08A2.995 2.995 0 0 1 19.545 14c0 .21-.019.413-.06.608Z" fill="#FEB800" />
      <path d="M7.03 3.02c1.436 0 2.665.826 3.282 2.024 2.358-1.504 5.35 1.259 3.55 3.97-3.308-2.451-8.998-.589-8.998 3.857-1.638.61-3.667-.594-3.667-2.396 0-1.415.921-2.603 2.19-3.022A3.718 3.718 0 0 1 7.03 3.021Z" fill="#FEB800" />
    </symbol>
    <symbol id="settings-light" viewBox="0 0 24 24">
      <path fill-rule="evenodd" clip-rule="evenodd" d="M13.675 4.317c-.426-1.756-2.924-1.756-3.35 0a1.724 1.724 0 0 1-2.573 1.066c-1.543-.94-3.31.826-2.37 2.37.608.996.07 2.296-1.065 2.572-1.756.426-1.756 2.924 0 3.35a1.724 1.724 0 0 1 1.066 2.573c-.94 1.543.826 3.31 2.37 2.37a1.724 1.724 0 0 1 2.572 1.065c.426 1.756 2.924 1.756 3.35 0a1.724 1.724 0 0 1 2.573-1.066c1.543.94 3.31-.826 2.37-2.37a1.724 1.724 0 0 1 1.065-2.572c1.756-.426 1.756-2.924 0-3.35a1.724 1.724 0 0 1-1.066-2.573c.94-1.543-.826-3.31-2.37-2.37a1.724 1.724 0 0 1-2.572-1.065ZM12 15a3 3 0 1 0 0-6 3 3 0 0 0 0 6Z" fill="#90929E" />
    </symbol>
    <symbol id="locations-light" viewBox="0 0 24 24">
      <path fill-rule="evenodd" clip-rule="evenodd" d="m12.706 21.608 4.95-4.951a8 8 0 1 0-11.313 0l4.951 4.951a.997.997 0 0 0 1.412 0Zm.308-13.445a2.183 2.183 0 0 1 1.657 0A2.146 2.146 0 0 1 16 10.142c0 1.806-2.213 3.629-3.723 4.671a.485.485 0 0 1-.551 0C10.213 13.771 8 11.95 8 10.142A2.146 2.146 0 0 1 10.158 8c.284 0 .566.056.828.163.262.108.5.266.698.464l.318.315.314-.315c.198-.198.436-.356.698-.464Z" fill="#90929E" />
    </symbol>
    <symbol id="weather-light" viewBox="0 0 24 24">
      <path d="M19.485 14.608c.019 0 .037-.008.06-.008a3.596 3.596 0 0 1 3.588 3.603 3.596 3.596 0 0 1-3.588 3.602H7.585a3.596 3.596 0 0 1-1.117-7.01 4.192 4.192 0 0 1 4.107-4.998c1.618 0 3.005.931 3.7 2.282a2.963 2.963 0 0 1 2.28-1.08A2.995 2.995 0 0 1 19.545 14c0 .21-.019.413-.06.608Z" fill="#90929E" />
      <path d="M7.03 3.02c1.436 0 2.665.826 3.282 2.024 2.358-1.504 5.35 1.259 3.55 3.97-3.308-2.451-8.998-.589-8.998 3.857-1.638.61-3.667-.594-3.667-2.396 0-1.415.921-2.603 2.19-3.022A3.718 3.718 0 0 1 7.03 3.021Z" fill="#90929E" />
    </symbol>
    <symbol id="settings-light-active" viewBox="0 0 24 24">
      <path fill-rule="evenodd" clip-rule="evenodd" d="M13.675 4.317c-.426-1.756-2.924-1.756-3.35 0a1.724 1.724 0 0 1-2.573 1.066c-1.543-.94-3.31.826-2.37 2.37.608.996.07 2.296-1.065 2.572-1.756.426-1.756 2.924 0 3.35a1.724 1.724 0 0 1 1.066 2.573c-.94 1.543.826 3.31 2.37 2.37a1.724 1.724 0 0 1 2.572 1.065c.426 1.756 2.924 1.756 3.35 0a1.724 1.724 0 0 1 2.573-1.066c1.543.94 3.31-.826 2.37-2.37a1.724 1.724 0 0 1 1.065-2.572c1.756-.426 1.756-2.924 0-3.35a1.724 1.724 0 0 1-1.066-2.573c.94-1.543-.826-3.31-2.37-2.37a1.724 1.724 0 0 1-2.572-1.065ZM12 15a3 3 0 1 0 0-6 3 3 0 0 0 0 6Z" fill="#37F" />
    </symbol>
    <symbol id="locations-light-active" viewBox="0 0 24 24">
      <path fill-rule="evenodd" clip-rule="evenodd" d="m12.706 21.608 4.95-4.951a8 8 0 1 0-11.313 0l4.951 4.951a.997.997 0 0 0 1.412 0Zm.308-13.445a2.183 2.183 0 0 1 1.657 0A2.146 2.146 0 0 1 16 10.142c0 1.806-2.213 3.629-3.723 4.671a.485.485 0 0 1-.551 0C10.213 13.771 8 11.95 8 10.142A2.146 2.146 0 0 1 10.158 8c.284 0 .566.056.828.163.262.108.5.266.698.464l.318.315.314-.315c.198-.198.436-.356.698-.464Z" fill="#37F" />
    </symbol>
    <symbol id="weather-light-active" viewBox="0 0 24 24">
      <path d="M19.485 14.608c.019 0 .037-.008.06-.008a3.596 3.596 0 0 1 3.588 3.603 3.596 3.596 0 0 1-3.588 3.602H7.585a3.596 3.596 0 0 1-1.117-7.01 4.192 4.192 0 0 1 4.107-4.998c1.618 0 3.005.931 3.7 2.282a2.963 2.963 0 0 1 2.28-1.08A2.995 2.995 0 0 1 19.545 14c0 .21-.019.413-.06.608Z" fill="#37F" />
      <path d="M7.03 3.02c1.436 0 2.665.826 3.282 2.024 2.358-1.504 5.35 1.259 3.55 3.97-3.308-2.451-8.998-.589-8.998 3.857-1.638.61-3.667-.594-3.667-2.396 0-1.415.921-2.603 2.19-3.022A3.718 3.718 0 0 1 7.03 3.021Z" fill="#37F" />
    </symbol>
  </defs>
</svg>