<svg width="0" height="0" class="hidden">
  <symbol fill="none" xmlns="http://www.w3.org/2000/svg" viewBox="0 0 20 20" id="error">
    <path fill-rule="evenodd" clip-rule="evenodd" d="M14.0053 5.99467C13.6791 5.66844 13.1502 5.66844 12.8239 5.99467L10 8.81861L7.17606 5.99467C6.84983 5.66844 6.3209 5.66844 5.99467 5.99467C5.66844 6.3209 5.66844 6.84983 5.99467 7.17606L8.81861 10L5.99467 12.8239C5.66844 13.1502 5.66844 13.6791 5.99467 14.0053C6.3209 14.3316 6.84983 14.3316 7.17606 14.0053L10 11.1814L12.8239 14.0053C13.1502 14.3316 13.6791 14.3316 14.0053 14.0053C14.3316 13.6791 14.3316 13.1502 14.0053 12.8239L11.1814 10L14.0053 7.17606C14.3316 6.84983 14.3316 6.3209 14.0053 5.99467Z" fill="#F46A47"></path>
    <rect x="0.75" y="0.75" width="18.5" height="18.5" rx="9.25" stroke="#F46A47" stroke-width="1.5"></rect>
  </symbol>
  <symbol fill="none" xmlns="http://www.w3.org/2000/svg" viewBox="0 0 20 20" id="info">
    <path fill-rule="evenodd" clip-rule="evenodd" d="M8.41663 9.16667C8.41663 8.75246 8.75241 8.41667 9.16663 8.41667H9.99996C10.4142 8.41667 10.75 8.75246 10.75 9.16667V13.4167H10.8333C11.2475 13.4167 11.5833 13.7525 11.5833 14.1667C11.5833 14.5809 11.2475 14.9167 10.8333 14.9167H9.99996C9.58575 14.9167 9.24996 14.5809 9.24996 14.1667V9.91667H9.16663C8.75241 9.91667 8.41663 9.58089 8.41663 9.16667Z" fill="#3FD5FE"></path>
    <path d="M10.8333 5.83333C10.8333 6.29357 10.4602 6.66667 9.99996 6.66667C9.53972 6.66667 9.16663 6.29357 9.16663 5.83333C9.16663 5.3731 9.53972 5 9.99996 5C10.4602 5 10.8333 5.3731 10.8333 5.83333Z" fill="#3FD5FE"></path>
    <rect x="0.75" y="0.75" width="18.5" height="18.5" rx="9.25" stroke="#3FD5FE" stroke-width="1.5"></rect>
  </symbol>
  <symbol fill="none" xmlns="http://www.w3.org/2000/svg" viewBox="0 0 20 20" id="success">
    <path fill-rule="evenodd" clip-rule="evenodd" d="M14.2155 6.91197C14.5403 7.16907 14.5951 7.64076 14.338 7.96553L9.88491 13.5905C9.75421 13.7556 9.56014 13.8582 9.35011 13.8731C9.14008 13.8881 8.93344 13.814 8.78068 13.6691L5.73381 10.7785C5.43331 10.4934 5.42082 10.0187 5.7059 9.71818C5.99099 9.41768 6.4657 9.40519 6.7662 9.69028L9.21799 12.0163L13.162 7.03447C13.4191 6.70971 13.8908 6.65486 14.2155 6.91197Z" fill="#5BC54A"></path>
    <rect x="0.75" y="0.75" width="18.5" height="18.5" rx="9.25" stroke="#5BC54A" stroke-width="1.5"></rect>
  </symbol>
  <symbol fill="none" xmlns="http://www.w3.org/2000/svg" viewBox="0 0 20 20" id="warning">
    <path fill-rule="evenodd" clip-rule="evenodd" d="M10 7.25C10.4142 7.25 10.75 7.55996 10.75 7.94231L10.75 12.5577C10.75 12.94 10.4142 13.25 10 13.25C9.58579 13.25 9.25 12.94 9.25 12.5577L9.25 7.94231C9.25 7.55996 9.58579 7.25 10 7.25Z" fill="#F7D056"></path>
    <path fill-rule="evenodd" clip-rule="evenodd" d="M9.25 15.3333C9.25 14.919 9.58579 14.5833 10 14.5833H10.0083C10.4225 14.5833 10.7583 14.919 10.7583 15.3333C10.7583 15.7475 10.4225 16.0833 10.0083 16.0833H10C9.58579 16.0833 9.25 15.7475 9.25 15.3333Z" fill="#F7D056"></path>
    <path opacity="0.9" fill-rule="evenodd" clip-rule="evenodd" d="M17.9639 16.7495L10.4328 3.74121C10.2402 3.40857 9.75991 3.40857 9.56733 3.74121L2.03622 16.7495C1.84324 17.0828 2.08377 17.5 2.46893 17.5H17.5311C17.9163 17.5 18.1568 17.0828 17.9639 16.7495ZM11.7309 2.98966L19.262 15.9979C20.0339 17.3313 19.0718 19 17.5311 19H2.46893C0.92827 19 -0.0338479 17.3313 0.738081 15.9979L8.26919 2.98966C9.03952 1.65909 10.9606 1.65909 11.7309 2.98966Z" fill="#F7D056"></path>
  </symbol>
</svg>