<svg width="0" height="0" class="hidden">
  <symbol fill="none" xmlns="http://www.w3.org/2000/svg" viewBox="0 0 25 24" id="uv1">
    <path d="M12.9594 1.71428C13.1299 1.71428 13.2934 1.78201 13.414 1.90257C13.5345 2.02313 13.6023 2.18664 13.6023 2.35714V3.63942C13.6023 3.80992 13.5345 3.97343 13.414 4.09399C13.2934 4.21455 13.1299 4.28228 12.9594 4.28228C12.7889 4.28228 12.6254 4.21455 12.5049 4.09399C12.3843 3.97343 12.3166 3.80992 12.3166 3.63942V2.35714C12.3166 2.18664 12.3843 2.02313 12.5049 1.90257C12.6254 1.78201 12.7889 1.71428 12.9594 1.71428ZM22.6023 12.6429C22.7728 12.6429 22.9363 12.5751 23.0568 12.4546C23.1774 12.334 23.2451 12.1705 23.2451 12C23.2451 11.8295 23.1774 11.666 23.0568 11.5454C22.9363 11.4249 22.7728 11.3571 22.6023 11.3571H21.3191C21.1486 11.3571 20.9851 11.4249 20.8646 11.5454C20.744 11.666 20.6763 11.8295 20.6763 12C20.6763 12.1705 20.744 12.334 20.8646 12.4546C20.9851 12.5751 21.1486 12.6429 21.3191 12.6429H22.6023ZM12.9594 19.7177C13.1299 19.7177 13.2934 19.7854 13.414 19.906C13.5345 20.0266 13.6023 20.1901 13.6023 20.3606V21.6429C13.6023 21.8133 13.5345 21.9769 13.414 22.0974C13.2934 22.218 13.1299 22.2857 12.9594 22.2857C12.7889 22.2857 12.6254 22.218 12.5049 22.0974C12.3843 21.9769 12.3166 21.8133 12.3166 21.6429V20.3606C12.3166 20.1901 12.3843 20.0266 12.5049 19.906C12.6254 19.7854 12.7889 19.7177 12.9594 19.7177ZM4.60228 12.6429C4.77277 12.6429 4.93629 12.5751 5.05685 12.4546C5.17741 12.334 5.24513 12.1705 5.24513 12C5.24513 11.8295 5.17741 11.666 5.05685 11.5454C4.93629 11.4249 4.77277 11.3571 4.60228 11.3571H3.31656C3.14607 11.3571 2.98255 11.4249 2.86199 11.5454C2.74144 11.666 2.67371 11.8295 2.67371 12C2.67371 12.1705 2.74144 12.334 2.86199 12.4546C2.98255 12.5751 3.14607 12.6429 3.31656 12.6429H4.60228ZM5.43285 4.47342C5.55339 4.35304 5.71678 4.28542 5.88713 4.28542C6.05749 4.28542 6.22088 4.35304 6.34142 4.47342L7.62713 5.75914C7.74069 5.881 7.80251 6.04218 7.79957 6.20873C7.79663 6.37527 7.72916 6.53417 7.61138 6.65196C7.4936 6.76974 7.3347 6.83721 7.16815 6.84014C7.00161 6.84308 6.84043 6.78126 6.71856 6.66771L5.43285 5.38199C5.31246 5.26146 5.24484 5.09807 5.24484 4.92771C5.24484 4.75735 5.31246 4.59396 5.43285 4.47342ZM6.34142 19.5249C6.21956 19.6384 6.05837 19.7002 5.89183 19.6973C5.72529 19.6943 5.56638 19.6269 5.4486 19.5091C5.33082 19.3913 5.26335 19.2324 5.26041 19.0659C5.25747 18.8993 5.31929 18.7381 5.43285 18.6163L6.71856 17.3306C6.84043 17.217 7.00161 17.1552 7.16815 17.1581C7.3347 17.1611 7.4936 17.2285 7.61138 17.3463C7.72916 17.4641 7.79663 17.623 7.79957 17.7895C7.80251 17.9561 7.74069 18.1173 7.62713 18.2391L6.34142 19.5249ZM20.4843 4.47342C20.3637 4.35304 20.2004 4.28542 20.03 4.28542C19.8596 4.28542 19.6962 4.35304 19.5757 4.47342L18.29 5.75914C18.1764 5.881 18.1146 6.04218 18.1176 6.20873C18.1205 6.37527 18.188 6.53417 18.3057 6.65196C18.4235 6.76974 18.5824 6.83721 18.749 6.84014C18.9155 6.84308 19.0767 6.78126 19.1986 6.66771L20.4843 5.38199C20.6047 5.26146 20.6723 5.09807 20.6723 4.92771C20.6723 4.75735 20.6047 4.59396 20.4843 4.47342ZM19.5766 19.5257C19.6354 19.5889 19.7064 19.6395 19.7852 19.6747C19.8641 19.7098 19.9492 19.7287 20.0355 19.7302C20.1219 19.7317 20.2076 19.7159 20.2876 19.6835C20.3677 19.6512 20.4404 19.6031 20.5015 19.542C20.5625 19.481 20.6106 19.4083 20.643 19.3282C20.6753 19.2482 20.6912 19.1624 20.6896 19.0761C20.6881 18.9898 20.6692 18.9047 20.6341 18.8258C20.599 18.747 20.5483 18.676 20.4851 18.6171L19.1994 17.3314C19.1406 17.2683 19.0696 17.2176 18.9907 17.1825C18.9119 17.1473 18.8268 17.1284 18.7404 17.1269C18.6541 17.1254 18.5684 17.1413 18.4883 17.1736C18.4083 17.2059 18.3356 17.2541 18.2745 17.3151C18.2135 17.3761 18.1654 17.4489 18.133 17.5289C18.1007 17.609 18.0848 17.6947 18.0863 17.781C18.0879 17.8673 18.1068 17.9525 18.1419 18.0313C18.177 18.1102 18.2277 18.1811 18.2908 18.24L19.5766 19.5257Z" fill="#FEB800"></path>
    <circle cx="12.9595" cy="12" r="4.5" stroke="#FEB800"></circle>
  </symbol>
  <symbol fill="none" xmlns="http://www.w3.org/2000/svg" viewBox="0 0 25 24" id="uv3">
    <path d="M12.9594 1.71428C13.1299 1.71428 13.2934 1.78201 13.414 1.90257C13.5345 2.02313 13.6023 2.18664 13.6023 2.35714V3.63942C13.6023 3.80992 13.5345 3.97343 13.414 4.09399C13.2934 4.21455 13.1299 4.28228 12.9594 4.28228C12.7889 4.28228 12.6254 4.21455 12.5049 4.09399C12.3843 3.97343 12.3166 3.80992 12.3166 3.63942V2.35714C12.3166 2.18664 12.3843 2.02313 12.5049 1.90257C12.6254 1.78201 12.7889 1.71428 12.9594 1.71428ZM18.1023 12C18.1023 12.6754 17.9693 13.3441 17.7108 13.9681C17.4523 14.592 17.0735 15.159 16.596 15.6365C16.1184 16.1141 15.5515 16.4929 14.9275 16.7514C14.3035 17.0098 13.6348 17.1429 12.9594 17.1429C12.2841 17.1429 11.6153 17.0098 10.9913 16.7514C10.3674 16.4929 9.80043 16.1141 9.32287 15.6365C8.84531 15.159 8.46649 14.592 8.20804 13.9681C7.94959 13.3441 7.81656 12.6754 7.81656 12C7.81656 10.636 8.3584 9.32792 9.32287 8.36344C10.2873 7.39897 11.5954 6.85714 12.9594 6.85714C14.3234 6.85714 15.6315 7.39897 16.596 8.36344C17.5604 9.32792 18.1023 10.636 18.1023 12ZM22.6023 12.6429C22.7728 12.6429 22.9363 12.5751 23.0568 12.4546C23.1774 12.334 23.2451 12.1705 23.2451 12C23.2451 11.8295 23.1774 11.666 23.0568 11.5454C22.9363 11.4249 22.7728 11.3571 22.6023 11.3571H21.3191C21.1486 11.3571 20.9851 11.4249 20.8646 11.5454C20.744 11.666 20.6763 11.8295 20.6763 12C20.6763 12.1705 20.744 12.334 20.8646 12.4546C20.9851 12.5751 21.1486 12.6429 21.3191 12.6429H22.6014H22.6023ZM12.9594 19.7177C13.1299 19.7177 13.2934 19.7854 13.414 19.906C13.5345 20.0266 13.6023 20.1901 13.6023 20.3606V21.6429C13.6023 21.8133 13.5345 21.9769 13.414 22.0974C13.2934 22.218 13.1299 22.2857 12.9594 22.2857C12.7889 22.2857 12.6254 22.218 12.5049 22.0974C12.3843 21.9769 12.3166 21.8133 12.3166 21.6429V20.3606C12.3166 20.1901 12.3843 20.0266 12.5049 19.906C12.6254 19.7854 12.7889 19.7177 12.9594 19.7177ZM4.60228 12.6429C4.77277 12.6429 4.93629 12.5751 5.05685 12.4546C5.17741 12.334 5.24513 12.1705 5.24513 12C5.24513 11.8295 5.17741 11.666 5.05685 11.5454C4.93629 11.4249 4.77277 11.3571 4.60228 11.3571H3.31656C3.14607 11.3571 2.98255 11.4249 2.86199 11.5454C2.74144 11.666 2.67371 11.8295 2.67371 12C2.67371 12.1705 2.74144 12.334 2.86199 12.4546C2.98255 12.5751 3.14607 12.6429 3.31656 12.6429H4.60228ZM5.43285 4.47342C5.55339 4.35304 5.71678 4.28542 5.88713 4.28542C6.05749 4.28542 6.22088 4.35304 6.34142 4.47342L7.62713 5.75914C7.74069 5.881 7.80251 6.04218 7.79957 6.20873C7.79663 6.37527 7.72916 6.53417 7.61138 6.65196C7.4936 6.76974 7.3347 6.83721 7.16815 6.84014C7.00161 6.84308 6.84043 6.78126 6.71856 6.66771L5.43285 5.38199C5.31246 5.26146 5.24484 5.09807 5.24484 4.92771C5.24484 4.75735 5.31246 4.59396 5.43285 4.47342ZM6.34142 19.5249C6.21956 19.6384 6.05837 19.7002 5.89183 19.6973C5.72529 19.6943 5.56638 19.6269 5.4486 19.5091C5.33082 19.3913 5.26335 19.2324 5.26041 19.0659C5.25747 18.8993 5.31929 18.7381 5.43285 18.6163L6.71856 17.3306C6.84043 17.217 7.00161 17.1552 7.16815 17.1581C7.3347 17.1611 7.4936 17.2285 7.61138 17.3463C7.72916 17.4641 7.79663 17.623 7.79957 17.7895C7.80251 17.9561 7.74069 18.1173 7.62713 18.2391L6.34142 19.5249ZM20.4843 4.47342C20.3637 4.35304 20.2004 4.28542 20.03 4.28542C19.8596 4.28542 19.6962 4.35304 19.5757 4.47342L18.29 5.75914C18.1764 5.881 18.1146 6.04218 18.1176 6.20873C18.1205 6.37527 18.188 6.53417 18.3057 6.65196C18.4235 6.76974 18.5824 6.83721 18.749 6.84014C18.9155 6.84308 19.0767 6.78126 19.1986 6.66771L20.4843 5.38199C20.6047 5.26146 20.6723 5.09807 20.6723 4.92771C20.6723 4.75735 20.6047 4.59396 20.4843 4.47342ZM19.5766 19.5257C19.6354 19.5889 19.7064 19.6395 19.7852 19.6747C19.8641 19.7098 19.9492 19.7287 20.0355 19.7302C20.1219 19.7317 20.2076 19.7159 20.2876 19.6835C20.3677 19.6512 20.4404 19.6031 20.5015 19.542C20.5625 19.481 20.6106 19.4083 20.643 19.3282C20.6753 19.2482 20.6912 19.1624 20.6896 19.0761C20.6881 18.9898 20.6692 18.9047 20.6341 18.8258C20.599 18.747 20.5483 18.676 20.4851 18.6171L19.1994 17.3314C19.1406 17.2683 19.0696 17.2176 18.9907 17.1825C18.9119 17.1473 18.8268 17.1284 18.7404 17.1269C18.6541 17.1254 18.5684 17.1413 18.4883 17.1736C18.4083 17.2059 18.3356 17.2541 18.2745 17.3151C18.2135 17.3761 18.1654 17.4489 18.133 17.5289C18.1007 17.609 18.0848 17.6947 18.0863 17.781C18.0879 17.8673 18.1068 17.9525 18.1419 18.0313C18.177 18.1102 18.2277 18.1811 18.2908 18.24L19.5766 19.5257Z" fill="#FEB800"></path>
  </symbol>
  <symbol fill="none" xmlns="http://www.w3.org/2000/svg" viewBox="0 0 25 24" id="uv6">
    <path d="M18.1024 12C18.1024 12.6754 17.9693 13.3441 17.7109 13.9681C17.4524 14.5921 17.0736 15.159 16.5961 15.6366C16.1185 16.1141 15.5516 16.4929 14.9276 16.7514C14.3036 17.0098 13.6349 17.1429 12.9595 17.1429C12.2841 17.1429 11.6154 17.0098 10.9914 16.7514C10.3675 16.4929 9.80052 16.1141 9.32296 15.6366C8.8454 15.159 8.46658 14.5921 8.20813 13.9681C7.94967 13.3441 7.81665 12.6754 7.81665 12C7.81665 10.636 8.35849 9.32793 9.32296 8.36346C10.2874 7.39898 11.5955 6.85715 12.9595 6.85715C14.3235 6.85715 15.6316 7.39898 16.5961 8.36346C17.5605 9.32793 18.1024 10.636 18.1024 12Z" fill="#FE6B00"></path>
    <rect width="2.6" height="1.25" rx="0.625" transform="matrix(-0.496782 0.867876 0.867876 0.496782 17.7705 2.32802)" fill="#FE6B00"></rect>
    <rect x="17.7705" y="21.672" width="2.6" height="1.25" rx="0.625" transform="rotate(-119.787 17.7705 21.672)" fill="#FE6B00"></rect>
    <rect x="8.1488" y="2.32802" width="2.6" height="1.25" rx="0.625" transform="rotate(60.2127 8.1488 2.32802)" fill="#FE6B00"></rect>
    <rect width="2.6" height="1.25" rx="0.625" transform="matrix(0.496782 -0.867876 -0.867876 -0.496782 8.1488 21.672)" fill="#FE6B00"></rect>
    <rect width="2.6" height="1.25" rx="0.625" transform="matrix(1 0 0 -1 20.4124 12.6982)" fill="#FE6B00"></rect>
    <rect width="2.6" height="1.25" rx="0.625" transform="matrix(1 0 0 -1 2.17859 12.6982)" fill="#FE6B00"></rect>
    <rect width="2.6" height="1.25" rx="0.625" transform="matrix(-4.37114e-08 -1 -1 4.37114e-08 13.5845 3.98112)" fill="#FE6B00"></rect>
    <rect x="13.5845" y="20.0031" width="2.6" height="1.25" rx="0.625" transform="rotate(90 13.5845 20.0031)" fill="#FE6B00"></rect>
    <rect width="2.6" height="1.25" rx="0.625" transform="matrix(-0.839677 0.543086 0.543086 0.839677 21.6669 5.98369)" fill="#FE6B00"></rect>
    <rect x="21.6669" y="18.0163" width="2.6" height="1.25" rx="0.625" transform="rotate(-147.106 21.6669 18.0163)" fill="#FE6B00"></rect>
    <rect x="4.25232" y="5.98369" width="2.6" height="1.25" rx="0.625" transform="rotate(32.894 4.25232 5.98369)" fill="#FE6B00"></rect>
    <rect width="2.6" height="1.25" rx="0.625" transform="matrix(0.839677 -0.543086 -0.543086 -0.839677 4.25232 18.0163)" fill="#FE6B00"></rect>
  </symbol>
  <symbol fill="none" xmlns="http://www.w3.org/2000/svg" viewBox="0 0 25 24" id="uv8">
    <path d="M18.1024 12C18.1024 12.6754 17.9693 13.3441 17.7109 13.9681C17.4524 14.5921 17.0736 15.159 16.5961 15.6366C16.1185 16.1141 15.5516 16.4929 14.9276 16.7514C14.3036 17.0098 13.6349 17.1429 12.9595 17.1429C12.2841 17.1429 11.6154 17.0098 10.9914 16.7514C10.3675 16.4929 9.80052 16.1141 9.32296 15.6366C8.8454 15.159 8.46658 14.5921 8.20813 13.9681C7.94967 13.3441 7.81665 12.6754 7.81665 12C7.81665 10.636 8.35849 9.32793 9.32296 8.36346C10.2874 7.39898 11.5955 6.85715 12.9595 6.85715C14.3235 6.85715 15.6316 7.39898 16.5961 8.36346C17.5605 9.32793 18.1024 10.636 18.1024 12Z" fill="#FF4212"></path>
    <rect x="9.2052" y="2.01755" width="2.6" height="1.25" rx="0.625" transform="rotate(67.6713 9.2052 2.01755)" fill="#FF4212"></rect>
    <rect width="2.6" height="1.25" rx="0.625" transform="matrix(0.37992 -0.92502 -0.92502 -0.37992 9.2052 22.129)" fill="#FF4212"></rect>
    <rect width="2.6" height="1.25" rx="0.625" transform="matrix(-0.37992 0.92502 0.92502 0.37992 16.7133 2.01755)" fill="#FF4212"></rect>
    <rect x="16.7133" y="22.129" width="2.6" height="1.25" rx="0.625" transform="rotate(-112.329 16.7133 22.129)" fill="#FF4212"></rect>
    <rect x="5.66248" y="3.98112" width="2.6" height="1.25" rx="0.625" transform="rotate(45 5.66248 3.98112)" fill="#FF4212"></rect>
    <rect width="2.6" height="1.25" rx="0.625" transform="matrix(0.707107 -0.707107 -0.707107 -0.707107 5.66248 20.1655)" fill="#FF4212"></rect>
    <rect width="2.6" height="1.25" rx="0.625" transform="matrix(-0.707107 0.707107 0.707107 0.707107 20.256 3.98112)" fill="#FF4212"></rect>
    <rect x="20.256" y="20.1655" width="2.6" height="1.25" rx="0.625" transform="rotate(-135 20.256 20.1655)" fill="#FF4212"></rect>
    <rect width="2.6" height="1.25" rx="0.625" transform="matrix(1 0 0 -1 20.4124 12.6982)" fill="#FF4212"></rect>
    <rect width="2.6" height="1.25" rx="0.625" transform="matrix(1 0 0 -1 2.17859 12.6982)" fill="#FF4212"></rect>
    <rect width="2.6" height="1.25" rx="0.625" transform="matrix(-4.37114e-08 -1 -1 4.37114e-08 13.5845 3.98112)" fill="#FF4212"></rect>
    <rect x="13.5845" y="20.0031" width="2.6" height="1.25" rx="0.625" transform="rotate(90 13.5845 20.0031)" fill="#FF4212"></rect>
    <rect x="3.33276" y="7.45697" width="2.6" height="1.25" rx="0.625" transform="rotate(18.8609 3.33276 7.45697)" fill="#FF4212"></rect>
    <rect width="2.6" height="1.25" rx="0.625" transform="matrix(0.946306 -0.323271 -0.323271 -0.946306 3.33276 16.6896)" fill="#FF4212"></rect>
    <rect width="2.6" height="1.25" rx="0.625" transform="matrix(-0.946306 0.323271 0.323271 0.946306 22.5857 7.45697)" fill="#FF4212"></rect>
    <rect x="22.5857" y="16.6896" width="2.6" height="1.25" rx="0.625" transform="rotate(-161.139 22.5857 16.6896)" fill="#FF4212"></rect>
  </symbol>
  <symbol fill="none" xmlns="http://www.w3.org/2000/svg" viewBox="0 0 25 24" id="uv11">
    <circle cx="12.9398" cy="12" r="7.10251" stroke="#FF0C63"></circle>
    <circle cx="12.9398" cy="12" r="9.58395" stroke="#FF0C63" stroke-linecap="round" stroke-dasharray="2 3"></circle>
    <circle cx="12.9398" cy="12" r="4.5" fill="#FF0C63" stroke="#FF0C63"></circle>
  </symbol>
</svg>