<?xml version="1.0" standalone="no"?>
<!DOCTYPE svg PUBLIC "-//W3C//DTD SVG 20010904//EN"
 "http://www.w3.org/TR/2001/REC-SVG-20010904/DTD/svg10.dtd">
<svg version="1.0" xmlns="http://www.w3.org/2000/svg"
 width="1024.000000pt" height="1024.000000pt" viewBox="0 0 1024.000000 1024.000000"
 preserveAspectRatio="xMidYMid meet">
<metadata>
Created by potrace 1.14, written by Peter Selinger 2001-2017
</metadata>
<g transform="translate(0.000000,1024.000000) scale(0.100000,-0.100000)"
fill="#000000" stroke="none">
<path d="M1370 10233 c-180 -18 -390 -78 -537 -151 -280 -141 -534 -395 -675
-675 -51 -103 -112 -287 -135 -407 -17 -90 -18 -285 -18 -3890 l0 -3795 22
-101 c34 -150 67 -246 133 -379 206 -418 577 -703 1050 -807 l105 -23 3805 0
3805 0 101 22 c150 34 246 67 379 133 418 206 703 577 807 1050 l23 105 0
3795 c0 3618 -1 3799 -18 3890 -59 312 -197 571 -421 796 -181 180 -351 286
-585 364 -243 82 170 74 -4046 76 -2068 0 -3776 -1 -3795 -3z m1941 -2348 c23
-13 48 -52 124 -205 110 -219 115 -242 61 -296 -28 -28 -41 -34 -78 -34 -24 0
-54 7 -66 16 -28 19 -212 384 -212 419 0 86 93 140 171 100z m1855 -129 c55
-55 50 -80 -64 -295 -87 -163 -102 -187 -136 -204 -32 -17 -43 -18 -75 -9 -58
18 -86 54 -85 110 1 39 17 76 93 219 51 95 104 182 118 193 17 13 41 20 70 20
38 0 50 -5 79 -34z m-729 -771 c174 -33 330 -98 484 -200 80 -53 99 -72 113
-105 21 -53 5 -105 -44 -138 -48 -33 -93 -25 -161 26 -249 186 -592 252 -903
172 -311 -79 -588 -317 -712 -612 -59 -138 -75 -218 -81 -384 -8 -217 19 -339
118 -539 27 -56 49 -107 49 -114 0 -28 -34 -83 -61 -96 -44 -23 -102 -19 -132
9 -30 28 -104 171 -141 274 -69 192 -90 461 -52 657 95 488 428 865 896 1013
83 26 133 36 275 56 57 8 270 -3 352 -19z m-2127 -484 c149 -71 189 -94 208
-121 38 -57 24 -116 -37 -157 -19 -13 -44 -23 -55 -23 -19 0 -136 52 -350 155
-104 50 -126 127 -57 196 56 57 74 54 291 -50z m3375 -476 c197 -32 356 -94
517 -201 124 -82 277 -232 365 -357 117 -166 232 -421 275 -611 12 -50 21 -92
22 -93 1 0 46 -6 101 -13 404 -46 714 -223 884 -504 81 -135 121 -281 128
-466 10 -286 -73 -508 -261 -696 -154 -154 -360 -252 -641 -306 -108 -21 -134
-22 -1495 -25 -932 -3 -1421 -1 -1496 6 -202 20 -352 70 -500 166 -195 127
-326 307 -401 550 -25 83 -27 103 -27 260 0 143 4 182 22 248 106 384 444 697
821 761 l76 12 11 90 c26 205 74 367 156 525 187 361 512 588 933 653 123 19
397 20 510 1z m-3157 -861 c29 -20 52 -66 52 -104 0 -59 -47 -92 -243 -170
-103 -41 -192 -70 -213 -70 -99 0 -148 128 -74 195 11 10 100 51 197 91 186
76 240 87 281 58z"/>
<path d="M5237 5799 c-31 -5 -96 -17 -143 -29 -287 -68 -519 -252 -654 -519
-75 -150 -130 -384 -130 -555 0 -122 -37 -166 -139 -166 -113 0 -284 -49 -387
-111 -182 -110 -311 -275 -376 -479 -30 -97 -32 -288 -5 -390 73 -272 272
-464 555 -536 l95 -24 1437 0 c1382 0 1442 1 1552 20 237 41 407 125 536 265
105 115 159 252 169 430 9 167 -29 314 -116 447 -150 229 -406 350 -799 376
-98 7 -126 12 -143 28 -32 28 -49 68 -49 112 0 92 -75 328 -151 477 -188 368
-469 586 -836 650 -92 16 -318 18 -416 4z"/>
</g>
</svg>
