<svg width="20" height="20" viewBox="0 0 20 20" fill="none" xmlns="http://www.w3.org/2000/svg">
<path fill-rule="evenodd" clip-rule="evenodd" d="M14.0053 5.99467C13.6791 5.66844 13.1502 5.66844 12.8239 5.99467L10 8.81861L7.17606 5.99467C6.84983 5.66844 6.3209 5.66844 5.99467 5.99467C5.66844 6.3209 5.66844 6.84983 5.99467 7.17606L8.81861 10L5.99467 12.8239C5.66844 13.1502 5.66844 13.6791 5.99467 14.0053C6.3209 14.3316 6.84983 14.3316 7.17606 14.0053L10 11.1814L12.8239 14.0053C13.1502 14.3316 13.6791 14.3316 14.0053 14.0053C14.3316 13.6791 14.3316 13.1502 14.0053 12.8239L11.1814 10L14.0053 7.17606C14.3316 6.84983 14.3316 6.3209 14.0053 5.99467Z" fill="#F46A47"/>
<rect x="0.75" y="0.75" width="18.5" height="18.5" rx="9.25" stroke="#F46A47" stroke-width="1.5"/>
</svg>
