<svg width="20" height="20" viewBox="0 0 20 20" fill="none" xmlns="http://www.w3.org/2000/svg">
<path fill-rule="evenodd" clip-rule="evenodd" d="M8.4165 9.16663C8.4165 8.75241 8.75229 8.41663 9.1665 8.41663H9.99984C10.4141 8.41663 10.7498 8.75241 10.7498 9.16663V13.4166H10.8332C11.2474 13.4166 11.5832 13.7524 11.5832 14.1666C11.5832 14.5808 11.2474 14.9166 10.8332 14.9166H9.99984C9.58562 14.9166 9.24984 14.5808 9.24984 14.1666V9.91663H9.1665C8.75229 9.91663 8.4165 9.58084 8.4165 9.16663Z" fill="#3FD5FE"/>
<path d="M10.8332 5.83333C10.8332 6.29357 10.4601 6.66667 9.99984 6.66667C9.5396 6.66667 9.1665 6.29357 9.1665 5.83333C9.1665 5.3731 9.5396 5 9.99984 5C10.4601 5 10.8332 5.3731 10.8332 5.83333Z" fill="#3FD5FE"/>
<rect x="0.75" y="0.75" width="18.5" height="18.5" rx="9.25" stroke="#3FD5FE" stroke-width="1.5"/>
</svg>
