<svg width="20" height="20" viewBox="0 0 20 20" fill="none" xmlns="http://www.w3.org/2000/svg">
<path fill-rule="evenodd" clip-rule="evenodd" d="M10 5.25C10.4142 5.25 10.75 5.58579 10.75 6L10.75 11C10.75 11.4142 10.4142 11.75 10 11.75C9.58579 11.75 9.25 11.4142 9.25 11L9.25 6C9.25 5.58579 9.58579 5.25 10 5.25Z" fill="#F7D056"/>
<path fill-rule="evenodd" clip-rule="evenodd" d="M9.25 14.3333C9.25 13.919 9.58579 13.5833 10 13.5833H10.0083C10.4225 13.5833 10.7583 13.919 10.7583 14.3333C10.7583 14.7475 10.4225 15.0833 10.0083 15.0833H10C9.58579 15.0833 9.25 14.7475 9.25 14.3333Z" fill="#F7D056"/>
<rect x="0.75" y="0.75" width="18.5" height="18.5" rx="9.25" stroke="#F7D056" stroke-width="1.5"/>
</svg>
