<svg xmlns="http://www.w3.org/2000/svg" fill="none" viewBox="0 0 25 24"><path d="M12.9594 1.7143a.643.643 0 0 1 .6429.6428v1.2823a.6431.6431 0 0 1-.6429.6429.6426.6426 0 0 1-.6428-.6429V2.3571a.6427.6427 0 0 1 .6428-.6428ZM18.1023 12a5.142 5.142 0 0 1-1.5063 3.6365 5.1433 5.1433 0 0 1-5.6047 1.115A5.1437 5.1437 0 0 1 7.8166 12a5.1429 5.1429 0 1 1 10.2857 0Zm4.5.6429a.6428.6428 0 0 0 0-1.286h-1.2832a.6428.6428 0 0 0 0 1.2857h1.2832Zm-9.6429 7.0745a.6428.6428 0 0 1 .6429.643v1.2822a.643.643 0 0 1-1.0974.4545.6426.6426 0 0 1-.1883-.4545v-1.2823a.6428.6428 0 0 1 .6428-.643ZM4.6023 12.643A.6431.6431 0 0 0 5.2451 12a.643.643 0 0 0-.6428-.6429H3.3166a.6431.6431 0 0 0-.6429.643.643.643 0 0 0 .6429.643h1.2857Zm.8306-8.1696a.6429.6429 0 0 1 .9085 0l1.2857 1.2857a.6428.6428 0 0 1-.9085.9086L5.4328 5.382a.6428.6428 0 0 1 0-.9086Zm.9085 15.0515a.6432.6432 0 0 1-.8928-.016.643.643 0 0 1-.0157-.8929l1.2857-1.2857a.6429.6429 0 0 1 .9085.9085l-1.2857 1.286Zm14.143-15.0518a.6431.6431 0 0 0-.9087 0L18.29 5.7591a.643.643 0 0 0 .459 1.081.643.643 0 0 0 .4496-.1724l1.2857-1.2857a.6428.6428 0 0 0 0-.9086Zm-.9078 15.0523a.643.643 0 0 0 .4589.2045.642.642 0 0 0 .6075-.402.6433.6433 0 0 0-.158-.711l-1.2856-1.2858a.6421.6421 0 0 0-.459-.2045.644.644 0 0 0-.466.1882.644.644 0 0 0-.1882.466.6448.6448 0 0 0 .2046.459l1.2858 1.2856Z" fill="#FEB800"/></svg>