<svg xmlns="http://www.w3.org/2000/svg" fill="none" viewBox="0 0 25 24"><path d="M18.1024 12a5.144 5.144 0 0 1-1.5063 3.6366 5.1446 5.1446 0 0 1-3.6366 1.5063 5.144 5.144 0 0 1-3.6365-1.5063A5.143 5.143 0 1 1 18.1024 12Z" fill="#FE6B00"/><rect fill="#FE6B00" width="2.6" height="1.25" rx=".625" transform="scale(-1 1) rotate(60.213 -10.8928 -14.16)"/><rect fill="#FE6B00" width="2.6" height="1.25" x="17.7705" y="21.672" rx=".625" transform="rotate(-119.787 17.7705 21.672)"/><rect fill="#FE6B00" width="2.6" height="1.25" x="8.1488" y="2.328" rx=".625" transform="rotate(60.213 8.1488 2.328)"/><rect fill="#FE6B00" width="2.6" height="1.25" rx=".625" transform="scale(1 -1) rotate(60.213 22.7627 -3.809)"/><rect fill="#FE6B00" width="2.6" height="1.25" rx=".625" transform="matrix(1 0 0 -1 20.4124 12.6982)"/><rect fill="#FE6B00" width="2.6" height="1.25" rx=".625" transform="matrix(1 0 0 -1 2.1786 12.6982)"/><rect fill="#FE6B00" width="2.6" height="1.25" rx=".625" transform="matrix(0 -1 -1 0 13.5845 3.9811)"/><rect fill="#FE6B00" width="2.6" height="1.25" x="13.5845" y="20.0031" rx=".625" transform="rotate(90 13.5845 20.0031)"/><rect fill="#FE6B00" width="2.6" height="1.25" rx=".625" transform="scale(-1 1) rotate(32.894 -20.9682 -33.706)"/><rect fill="#FE6B00" width="2.6" height="1.25" x="21.6669" y="18.0163" rx=".625" transform="rotate(-147.106 21.6669 18.0163)"/><rect fill="#FE6B00" width="2.6" height="1.25" x="4.2523" y="5.9837" rx=".625" transform="rotate(32.894 4.2523 5.9837)"/><rect fill="#FE6B00" width="2.6" height="1.25" rx=".625" transform="scale(1 -1) rotate(32.894 32.6408 -1.8059)"/></svg>