<svg xmlns="http://www.w3.org/2000/svg" fill="none" viewBox="0 0 25 24"><path d="M18.1 12a5.14 5.14 0 1 1-10.29 0 5.14 5.14 0 0 1 10.3 0Z" fill="#FF4212"/><rect fill="#FF4212" width="2.6" height="1.25" x="9.21" y="2.02" rx=".63" transform="rotate(67.67 9.2 2.02)"/><rect fill="#FF4212" width="2.6" height="1.25" rx=".63" transform="scale(1 -1) rotate(67.67 21.1 -4.2)"/><rect fill="#FF4212" width="2.6" height="1.25" rx=".63" transform="scale(-1 1) rotate(67.67 -9.86 -11.46)"/><rect fill="#FF4212" width="2.6" height="1.25" x="16.71" y="22.13" rx=".63" transform="rotate(-112.33 16.71 22.13)"/><rect fill="#FF4212" width="2.6" height="1.25" x="5.66" y="3.98" rx=".63" transform="rotate(45 5.66 3.98)"/><rect fill="#FF4212" width="2.6" height="1.25" rx=".63" transform="scale(1 -1) rotate(45 27.17 -3.25)"/><rect fill="#FF4212" width="2.6" height="1.25" rx=".63" transform="scale(-1 1) rotate(45 -14.93 -22.46)"/><rect fill="#FF4212" width="2.6" height="1.25" x="20.26" y="20.17" rx=".63" transform="rotate(-135 20.26 20.17)"/><rect fill="#FF4212" width="2.6" height="1.25" rx=".63" transform="matrix(1 0 0 -1 20.41 12.7)"/><rect fill="#FF4212" width="2.6" height="1.25" rx=".63" transform="matrix(1 0 0 -1 2.18 12.7)"/><rect fill="#FF4212" width="2.6" height="1.25" rx=".63" transform="matrix(0 -1 -1 0 13.58 3.98)"/><rect fill="#FF4212" width="2.6" height="1.25" x="13.58" y="20" rx=".63" transform="rotate(90 13.58 20)"/><rect fill="#FF4212" width="2.6" height="1.25" x="3.33" y="7.46" rx=".63" transform="rotate(18.86 3.33 7.46)"/><rect fill="#FF4212" width="2.6" height="1.25" rx=".63" transform="scale(1 -1) rotate(18.86 51.9 1.69)"/><rect fill="#FF4212" width="2.6" height="1.25" rx=".63" transform="scale(-1 1) rotate(18.86 -33.74 -64.26)"/><rect fill="#FF4212" width="2.6" height="1.25" x="22.59" y="16.69" rx=".63" transform="rotate(-161.14 22.59 16.69)"/></svg>