<svg width="25" height="24" viewBox="0 0 25 24" fill="none" xmlns="http://www.w3.org/2000/svg">
<path d="M18.1024 12C18.1024 12.6754 17.9693 13.3441 17.7109 13.9681C17.4524 14.5921 17.0736 15.159 16.5961 15.6366C16.1185 16.1141 15.5516 16.4929 14.9276 16.7514C14.3036 17.0098 13.6349 17.1429 12.9595 17.1429C12.2841 17.1429 11.6154 17.0098 10.9914 16.7514C10.3675 16.4929 9.80052 16.1141 9.32296 15.6366C8.8454 15.159 8.46658 14.5921 8.20813 13.9681C7.94967 13.3441 7.81665 12.6754 7.81665 12C7.81665 10.636 8.35849 9.32793 9.32296 8.36346C10.2874 7.39898 11.5955 6.85715 12.9595 6.85715C14.3235 6.85715 15.6316 7.39898 16.5961 8.36346C17.5605 9.32793 18.1024 10.636 18.1024 12Z" fill="#FF4212"/>
<rect x="9.2052" y="2.01755" width="2.6" height="1.25" rx="0.625" transform="rotate(67.6713 9.2052 2.01755)" fill="#FF4212"/>
<rect width="2.6" height="1.25" rx="0.625" transform="matrix(0.37992 -0.92502 -0.92502 -0.37992 9.2052 22.129)" fill="#FF4212"/>
<rect width="2.6" height="1.25" rx="0.625" transform="matrix(-0.37992 0.92502 0.92502 0.37992 16.7133 2.01755)" fill="#FF4212"/>
<rect x="16.7133" y="22.129" width="2.6" height="1.25" rx="0.625" transform="rotate(-112.329 16.7133 22.129)" fill="#FF4212"/>
<rect x="5.66248" y="3.98112" width="2.6" height="1.25" rx="0.625" transform="rotate(45 5.66248 3.98112)" fill="#FF4212"/>
<rect width="2.6" height="1.25" rx="0.625" transform="matrix(0.707107 -0.707107 -0.707107 -0.707107 5.66248 20.1655)" fill="#FF4212"/>
<rect width="2.6" height="1.25" rx="0.625" transform="matrix(-0.707107 0.707107 0.707107 0.707107 20.256 3.98112)" fill="#FF4212"/>
<rect x="20.256" y="20.1655" width="2.6" height="1.25" rx="0.625" transform="rotate(-135 20.256 20.1655)" fill="#FF4212"/>
<rect width="2.6" height="1.25" rx="0.625" transform="matrix(1 0 0 -1 20.4124 12.6982)" fill="#FF4212"/>
<rect width="2.6" height="1.25" rx="0.625" transform="matrix(1 0 0 -1 2.17859 12.6982)" fill="#FF4212"/>
<rect width="2.6" height="1.25" rx="0.625" transform="matrix(-4.37114e-08 -1 -1 4.37114e-08 13.5845 3.98112)" fill="#FF4212"/>
<rect x="13.5845" y="20.0031" width="2.6" height="1.25" rx="0.625" transform="rotate(90 13.5845 20.0031)" fill="#FF4212"/>
<rect x="3.33276" y="7.45697" width="2.6" height="1.25" rx="0.625" transform="rotate(18.8609 3.33276 7.45697)" fill="#FF4212"/>
<rect width="2.6" height="1.25" rx="0.625" transform="matrix(0.946306 -0.323271 -0.323271 -0.946306 3.33276 16.6896)" fill="#FF4212"/>
<rect width="2.6" height="1.25" rx="0.625" transform="matrix(-0.946306 0.323271 0.323271 0.946306 22.5857 7.45697)" fill="#FF4212"/>
<rect x="22.5857" y="16.6896" width="2.6" height="1.25" rx="0.625" transform="rotate(-161.139 22.5857 16.6896)" fill="#FF4212"/>
</svg>
