<svg width="24" height="24" fill="none" xmlns="http://www.w3.org/2000/svg"><path d="M12 1.714a.643.643 0 0 1 .643.643V3.64a.643.643 0 1 1-1.286 0V2.357A.643.643 0 0 1 12 1.714ZM17.143 12a5.142 5.142 0 1 1-10.284 0 5.142 5.142 0 0 1 10.284 0Zm4.5.643a.643.643 0 0 0 0-1.286H20.36a.643.643 0 0 0 0 1.286h1.282ZM12 19.718a.643.643 0 0 1 .643.643v1.282a.642.642 0 1 1-1.286 0V20.36a.643.643 0 0 1 .643-.643Zm-8.357-7.075a.643.643 0 0 0 0-1.286H2.357a.643.643 0 0 0 0 1.286h1.286Zm.83-8.17a.643.643 0 0 1 .909 0L6.668 5.76a.643.643 0 0 1-.909.909L4.473 5.382a.643.643 0 0 1 0-.909Zm.909 15.052a.643.643 0 0 1-.909-.909l1.286-1.285a.643.643 0 0 1 .909.908l-1.286 1.286ZM19.525 4.473a.643.643 0 0 0-.909 0L17.331 5.76a.643.643 0 0 0 .908.909l1.286-1.286a.643.643 0 0 0 0-.909Zm-.908 15.053a.642.642 0 1 0 .909-.909l-1.286-1.286a.643.643 0 1 0-.909.909l1.286 1.286Z" fill="#FEB800"/></svg>