<svg width="24" height="24" viewBox="0 0 24 24" fill="none" xmlns="http://www.w3.org/2000/svg">
<path d="M18.8576 16.2571C16.507 20.3284 11.3013 21.7232 7.23002 19.3727C6.13534 18.7422 5.19532 17.8752 4.47866 16.8349C4.42312 16.7544 4.38685 16.6621 4.37262 16.5654C4.3584 16.4686 4.36662 16.3698 4.39664 16.2767C4.42666 16.1836 4.47768 16.0986 4.54577 16.0284C4.61385 15.9581 4.69716 15.9045 4.78928 15.8715C7.99509 14.7244 9.71246 13.3951 10.709 11.4922C11.7575 9.48971 12.0289 7.29662 11.2954 4.28995C11.2717 4.19318 11.271 4.09221 11.2934 3.99513C11.3158 3.89805 11.3605 3.80755 11.4241 3.73088C11.4877 3.6542 11.5684 3.59348 11.6597 3.55357C11.751 3.51367 11.8503 3.49568 11.9498 3.50105C13.2855 3.57295 14.5853 3.95993 15.7428 4.63036C19.8141 6.98089 21.2089 12.1866 18.8576 16.2571V16.2571Z" fill="#D580FF"/>
</svg>
