<svg width="28" height="28" fill="none" xmlns="http://www.w3.org/2000/svg"><g clip-path="url(#a)" stroke-width="1.5" stroke-linecap="round" stroke-linejoin="round"><path d="M22.189 16.142c.022 0 .044-.009.07-.009 2.31 0 4.186 1.883 4.186 4.203 0 2.32-1.875 4.202-4.186 4.202H8.306c-2.311 0-4.186-1.883-4.186-4.203a4.187 4.187 0 0 1 2.882-3.974 4.996 4.996 0 0 1-.092-.928c0-2.71 2.185-4.903 4.884-4.903 1.888 0 3.506 1.086 4.317 2.662a3.456 3.456 0 0 1 2.66-1.261 3.494 3.494 0 0 1 3.488 3.502c0 .245-.022.481-.07.709Z" stroke="#D580FF"/><path d="M17.411 9.518a3.099 3.099 0 0 0-3.094-3.106c-.951 0-1.79.439-2.359 1.118-.719-1.398-2.154-2.36-3.828-2.36a4.338 4.338 0 0 0-4.25 5.17 3.713 3.713 0 0 0-2.556 3.526c0 1.04.424 1.98 1.11 2.657" stroke="#F9F"/></g><defs><clipPath id="a"><path fill="#fff" d="M0 0h28v28H0z"/></clipPath></defs></svg>