<svg width="24" height="24" viewBox="0 0 24 24" fill="none" xmlns="http://www.w3.org/2000/svg">
<path d="M17.227 10.63C16.966 8.098 15.169 6 12 6C8.832 6 7.036 8.08 6.772 10.632H6.692C6.20782 10.6313 5.72824 10.7261 5.28066 10.9107C4.83309 11.0954 4.42627 11.3665 4.08343 11.7084C3.7406 12.0503 3.46846 12.4563 3.28257 12.9034C3.09667 13.3505 3.00066 13.8298 3 14.314C3.00066 14.7983 3.09671 15.2777 3.28266 15.7248C3.46862 16.1719 3.74085 16.5781 4.08379 16.92C4.42673 17.2619 4.83366 17.5329 5.28136 17.7175C5.72905 17.9022 6.20873 17.9968 6.693 17.996H7.256H8.988H11.125H12.857H14.993L16.725 17.997H17.307C17.7914 17.9978 18.2711 17.9031 18.7189 17.7184C19.1666 17.5338 19.5736 17.2627 19.9166 16.9206C20.2595 16.5786 20.5317 16.1724 20.7176 15.7251C20.9035 15.2779 20.9995 14.7984 21 14.314C20.9996 13.8296 20.9037 13.35 20.7179 12.9026C20.5321 12.4552 20.2599 12.0488 19.9169 11.7067C19.574 11.3646 19.1669 11.0934 18.7191 10.9086C18.2713 10.7239 17.7914 10.6292 17.307 10.63H17.227Z" fill="#D580FF"/>
</svg>
