<svg width="24" height="24" viewBox="0 0 24 24" fill="none" xmlns="http://www.w3.org/2000/svg">
<path d="M7.21875 20.1563C7.21875 20.38 7.12986 20.5946 6.97162 20.7529C6.81339 20.9111 6.59878 21 6.375 21C6.15122 21 5.93661 20.9111 5.77838 20.7529C5.62014 20.5946 5.53125 20.38 5.53125 20.1563C5.53125 19.9325 5.62014 19.7179 5.77838 19.5596C5.93661 19.4014 6.15122 19.3125 6.375 19.3125C6.59878 19.3125 6.81339 19.4014 6.97162 19.5596C7.12986 19.7179 7.21875 19.9325 7.21875 20.1563ZM11.7188 20.1563C11.7187 20.38 11.6299 20.5946 11.4716 20.7529C11.3134 20.9111 11.0988 21 10.875 21C10.6512 21 10.4366 20.9111 10.2784 20.7529C10.1201 20.5946 10.0312 20.38 10.0312 20.1563C10.0312 19.9325 10.1201 19.7179 10.2784 19.5596C10.4366 19.4014 10.6512 19.3125 10.875 19.3125C11.0988 19.3125 11.3134 19.4014 11.4716 19.5596C11.6299 19.7179 11.7188 19.9325 11.7188 20.1563ZM16.2188 20.1563C16.2188 20.38 16.1299 20.5946 15.9716 20.7529C15.8134 20.9111 15.5988 21 15.375 21C15.1512 21 14.9366 20.9111 14.7784 20.7529C14.6201 20.5946 14.5312 20.38 14.5312 20.1563C14.5312 19.9325 14.6201 19.7179 14.7784 19.5596C14.9366 19.4014 15.1512 19.3125 15.375 19.3125C15.5988 19.3125 15.8134 19.4014 15.9716 19.5596C16.1299 19.7179 16.2188 19.9325 16.2188 20.1563Z" fill="white"/>
<path d="M7.67772 15.9668C7.81909 16.014 7.93592 16.1154 8.00258 16.2487C8.06923 16.382 8.08025 16.5363 8.03322 16.6778L7.47072 18.3653C7.44954 18.4379 7.41391 18.5055 7.36599 18.5641C7.31806 18.6226 7.25881 18.6709 7.19178 18.706C7.12476 18.7411 7.05134 18.7624 6.97592 18.7684C6.9005 18.7745 6.82463 18.7653 6.75285 18.7414C6.68106 18.7175 6.61485 18.6793 6.55816 18.6292C6.50147 18.5791 6.45547 18.518 6.42293 18.4497C6.39038 18.3814 6.37194 18.3072 6.36873 18.2316C6.36552 18.156 6.37759 18.0806 6.40422 18.0098L6.96672 16.3223C7.01396 16.1809 7.11536 16.0641 7.24867 15.9974C7.38198 15.9307 7.53629 15.9197 7.67772 15.9668ZM12.1777 15.9668C12.3191 16.014 12.4359 16.1154 12.5026 16.2487C12.5692 16.382 12.5803 16.5363 12.5332 16.6778L11.9707 18.3653C11.9495 18.4379 11.9139 18.5055 11.866 18.5641C11.8181 18.6226 11.7588 18.6709 11.6918 18.706C11.6248 18.7411 11.5513 18.7624 11.4759 18.7684C11.4005 18.7745 11.3246 18.7653 11.2528 18.7414C11.1811 18.7175 11.1148 18.6793 11.0582 18.6292C11.0015 18.5791 10.9555 18.518 10.9229 18.4497C10.8904 18.3814 10.8719 18.3072 10.8687 18.2316C10.8655 18.156 10.8776 18.0806 10.9042 18.0098L11.4667 16.3223C11.514 16.1809 11.6154 16.0641 11.7487 15.9974C11.882 15.9307 12.0363 15.9197 12.1777 15.9668ZM16.6777 15.9668C16.8191 16.014 16.9359 16.1154 17.0026 16.2487C17.0692 16.382 17.0803 16.5363 17.0332 16.6778L16.4707 18.3653C16.4495 18.4379 16.4139 18.5055 16.366 18.5641C16.3181 18.6226 16.2588 18.6709 16.1918 18.706C16.1248 18.7411 16.0513 18.7624 15.9759 18.7684C15.9005 18.7745 15.8246 18.7653 15.7528 18.7414C15.6811 18.7175 15.6148 18.6793 15.5582 18.6292C15.5015 18.5791 15.4555 18.518 15.4229 18.4497C15.3904 18.3814 15.3719 18.3072 15.3687 18.2316C15.3655 18.156 15.3776 18.0806 15.4042 18.0098L15.9667 16.3223C16.014 16.1809 16.1154 16.0641 16.2487 15.9974C16.382 15.9307 16.5363 15.9197 16.6777 15.9668ZM18.0806 8.09288C17.847 6.91519 17.2427 5.84312 16.3562 5.03342C15.4697 4.22372 14.3474 3.71886 13.1534 3.59266C11.9594 3.46646 10.7563 3.72554 9.72012 4.33202C8.68391 4.93849 7.86889 5.86055 7.39422 6.96338C6.86192 6.90206 6.32269 6.95003 5.80957 7.10435C5.29645 7.25867 4.82022 7.5161 4.41005 7.86088C3.99987 8.20565 3.66438 8.63052 3.42412 9.10946C3.18386 9.5884 3.04388 10.1113 3.01275 10.6463C2.98163 11.1812 3.06001 11.7168 3.24309 12.2204C3.42618 12.724 3.71012 13.1849 4.07754 13.5749C4.44495 13.965 4.88811 14.2759 5.37987 14.4887C5.87163 14.7015 6.40165 14.8117 6.93747 14.8125H17.625C18.4812 14.8135 19.3058 14.489 19.9318 13.9047C20.5577 13.3204 20.9382 12.5201 20.9961 11.6658C21.054 10.8115 20.7851 9.96717 20.2437 9.30376C19.7024 8.64035 18.9291 8.20749 18.0806 8.09288Z" fill="#3FD5FE"/>
</svg>
