<svg width="24" height="24" fill="none" xmlns="http://www.w3.org/2000/svg"><path d="M7.219 20.156a.844.844 0 1 1-1.688 0 .844.844 0 0 1 1.688 0Zm4.5 0a.844.844 0 1 1-1.689 0 .844.844 0 0 1 1.689 0Zm4.5 0a.844.844 0 1 1-1.688 0 .844.844 0 0 1 1.688 0Z" fill="#fff"/><path d="M7.678 15.967a.562.562 0 0 1 .355.71l-.562 1.688a.563.563 0 1 1-1.067-.355l.563-1.688a.563.563 0 0 1 .71-.355Zm4.5 0a.562.562 0 0 1 .355.71l-.562 1.688a.564.564 0 0 1-1.048.085.563.563 0 0 1-.019-.44l.563-1.688a.563.563 0 0 1 .71-.355Zm4.5 0a.562.562 0 0 1 .355.71l-.562 1.688a.564.564 0 0 1-1.048.085.563.563 0 0 1-.019-.44l.563-1.688a.563.563 0 0 1 .71-.355Zm1.403-7.874a5.626 5.626 0 0 0-10.687-1.13 3.938 3.938 0 1 0-.457 7.85h10.688a3.375 3.375 0 0 0 .456-6.72Z" fill="#3FD5FE"/></svg>