<svg width="28" height="28" fill="none" xmlns="http://www.w3.org/2000/svg"><ellipse cx="16.854" cy="17.942" rx="1.132" ry="1.124" fill="#6A9CFF"/><ellipse cx="11.273" cy="20.101" rx="1.409" ry="1.399" fill="#6A9CFF"/><ellipse cx="14.875" cy="24.503" rx="1.828" ry="1.815" fill="#6A9CFF"/><path d="M5.983 17.963c-2.505 0-4.538-2.04-4.538-4.555A4.538 4.538 0 0 1 4.57 9.1c-.061-.327-.099-.66-.099-1.006 0-2.937 2.368-5.314 5.294-5.314 2.046 0 3.8 1.177 4.679 2.885.694-.83 1.72-1.367 2.883-1.367a3.787 3.787 0 0 1 3.78 3.796c0 .266-.023.522-.075.769.024 0 .047-.01.076-.01 2.505 0 4.537 2.04 4.537 4.555 0 2.515-2.032 4.555-4.537 4.555" stroke="#3FD5FE" stroke-width="1.5" stroke-linecap="round" stroke-linejoin="round"/></svg>