<svg width="24" height="24" fill="none" xmlns="http://www.w3.org/2000/svg"><path d="M13.002 7.176c3.169 0 4.966 2.184 5.228 4.822h.08c.484 0 .964.098 1.412.29a3.68 3.68 0 0 1 1.197.831c.343.357.615.78.8 1.245.186.466.282.965.283 1.47a3.98 3.98 0 0 1-.283 1.47 3.853 3.853 0 0 1-.8 1.244c-.343.356-.75.638-1.198.83a3.559 3.559 0 0 1-1.411.29H7.694c-.484.002-.964-.097-1.411-.29a3.68 3.68 0 0 1-1.198-.83 3.854 3.854 0 0 1-.8-1.245 3.98 3.98 0 0 1 0-2.939c.185-.465.457-.888.8-1.245a3.68 3.68 0 0 1 1.197-.83 3.56 3.56 0 0 1 1.412-.291h.08c.263-2.656 2.06-4.822 5.228-4.822Z" fill="#3FD5FE"/><path d="M4.368 11.503c.07.175.076.37.018.549a.775.775 0 0 1-.333.425l-.091.047-.926.4a.723.723 0 0 1-.55.01.762.762 0 0 1-.408-.384.81.81 0 0 1-.047-.571.777.777 0 0 1 .339-.45l.092-.049.926-.399c.184-.079.39-.08.574 0 .184.08.33.23.406.422Zm6.487-5.034-.172.06c-1.784.657-3.062 2.09-3.615 3.983l-.07.26-.058.248-.206.04a4.546 4.546 0 0 0-1.67.744 4.25 4.25 0 0 1-.484-2.718 4.155 4.155 0 0 1 1.28-2.422 3.858 3.858 0 0 1 2.464-1.027 3.836 3.836 0 0 1 2.531.832Zm-7.915.033.106.036.926.4a.765.765 0 0 1 .393.397.811.811 0 0 1 .03.569.775.775 0 0 1-.35.438.724.724 0 0 1-.542.075L3.4 8.383l-.926-.4a.765.765 0 0 1-.391-.397.811.811 0 0 1-.03-.568.775.775 0 0 1 .348-.438.724.724 0 0 1 .541-.076l-.002-.002Zm3.815-3.11.046.095.383.965a.811.811 0 0 1 .007.571.77.77 0 0 1-.368.424.723.723 0 0 1-.546.049.755.755 0 0 1-.433-.351l-.046-.095-.383-.966a.811.811 0 0 1-.007-.57.77.77 0 0 1 .368-.424.723.723 0 0 1 .547-.05.755.755 0 0 1 .432.352Zm4.354-.333a.763.763 0 0 1 .383.371.81.81 0 0 1 .057.54l-.035.11-.383.966a.768.768 0 0 1-.38.409.722.722 0 0 1-.547.03.758.758 0 0 1-.42-.363.81.81 0 0 1-.073-.565l.034-.11.384-.965a.783.783 0 0 1 .406-.423.724.724 0 0 1 .574 0Z" fill="#FEB800"/></svg>