<svg width="28" height="28" fill="none" xmlns="http://www.w3.org/2000/svg"><g clip-path="url(#a)" stroke-width="1.5" stroke-linecap="round"><path d="M22.889 16.356c.018 0 .036-.008.058-.008a3.505 3.505 0 0 1 3.498 3.512 3.505 3.505 0 0 1-3.498 3.511H11.288a3.505 3.505 0 0 1-1.09-6.832 4.087 4.087 0 0 1 4.004-4.872c1.578 0 2.93.907 3.608 2.223a2.888 2.888 0 0 1 2.222-1.053 2.92 2.92 0 0 1 2.915 2.926c0 .205-.018.403-.058.593Z" stroke="#3FD5FE" stroke-linejoin="round"/><path d="M6.92 15.826a4.667 4.667 0 0 1 6.504-6.63M16.634 7.038l1.499-1.416M3.192 20.396l1.5-1.416M4.775 7.038l-1.5-1.416M10.735 5.076V3.013M.646 12.999H2.71" stroke="#FEB800"/></g><defs><clipPath id="a"><path fill="#fff" d="M0 0h28v28H0z"/></clipPath></defs></svg>