<svg width="28" height="28" fill="none" xmlns="http://www.w3.org/2000/svg"><g clip-path="url(#a)" stroke-width="1.5" stroke-linecap="round"><path d="M20.476 26.883v-4.855M22.578 25.67l-4.205-2.428M18.373 25.67l4.205-2.428" stroke="#6A9CFF"/><path d="M11.288 21.038a3.505 3.505 0 0 1-1.09-6.833 4.087 4.087 0 0 1 4.004-4.872c1.578 0 2.93.907 3.608 2.224a2.888 2.888 0 0 1 2.222-1.053 2.92 2.92 0 0 1 2.915 2.926c0 .205-.018.402-.058.592.018 0 .036-.007.058-.007a3.505 3.505 0 0 1 3.498 3.511 3.505 3.505 0 0 1-3.498 3.512" stroke="#3FD5FE" stroke-linejoin="round"/><path d="m14.83 25.138 2.744-5.944M11.284 26.72l2.744-5.944" stroke="#6A9CFF"/><path d="M6.92 13.493a4.667 4.667 0 0 1 6.504-6.63M16.634 4.705l1.499-1.417M3.192 18.063l1.5-1.416M4.775 4.705l-1.5-1.417M10.735 2.742V.68M.646 10.665H2.71" stroke="#FEB800"/></g><defs><clipPath id="a"><path fill="#fff" d="M0 0h28v28H0z"/></clipPath></defs></svg>