<svg width="28" height="28" fill="none" xmlns="http://www.w3.org/2000/svg"><path d="M18.35 25.165v-6.118M20.998 23.636l-5.298-3.06M15.7 23.636l5.299-3.06" stroke="#96F" stroke-width="1.5" stroke-linecap="round"/><path d="M6.772 17.8c-2.433 0-4.407-1.982-4.407-4.425A4.408 4.408 0 0 1 5.399 9.19a5.26 5.26 0 0 1-.096-.977c0-2.853 2.3-5.162 5.142-5.162 1.988 0 3.69 1.143 4.545 2.802a3.64 3.64 0 0 1 2.8-1.327c2.03 0 3.673 1.65 3.673 3.687 0 .258-.023.507-.073.747.023 0 .046-.01.073-.01 2.433 0 4.407 1.982 4.407 4.425 0 2.443-1.974 4.425-4.407 4.425" stroke="#F9F" stroke-width="1.5" stroke-linecap="round" stroke-linejoin="round"/><path d="m11.236 22.966 3.457-7.49M6.767 24.96l3.457-7.49" stroke="#96F" stroke-width="1.5" stroke-linecap="round"/></svg>