<svg width="24" height="24" fill="none" xmlns="http://www.w3.org/2000/svg"><path d="M12.002 4.01c3.17 0 4.966 2.096 5.228 4.63h.08a3.687 3.687 0 0 1 3.692 3.682 3.686 3.686 0 0 1-3.692 3.682H6.694a3.688 3.688 0 0 1-3.692-3.682A3.687 3.687 0 0 1 6.694 8.64h.08c.263-2.55 2.06-4.63 5.228-4.63Z" fill="#D580FF"/><path d="M5.75 18.75a.75.75 0 0 1-.67-1.086l1.124-2.25a.75.75 0 0 1 1.342.672l-1.125 2.25a.75.75 0 0 1-.671.414ZM9.75 18.75a.75.75 0 0 1-.67-1.086l1.124-2.25a.75.75 0 1 1 1.342.672l-1.125 2.25a.75.75 0 0 1-.671.414Z" fill="#D580FF"/><circle cx="13.75" cy="17.75" r=".75" fill="#D580FF"/><circle cx="17.75" cy="17.75" r=".75" fill="#D580FF"/><circle cx="15.75" cy="19.75" r=".75" fill="#D580FF"/></svg>