<svg width="24" height="24" viewBox="0 0 24 24" fill="none" xmlns="http://www.w3.org/2000/svg">
<path d="M12.0023 4.00911C15.1713 4.00911 16.9683 6.10611 17.2303 8.63911H17.3103C17.7946 8.63845 18.2742 8.7332 18.7219 8.91795C19.1695 9.10269 19.5764 9.37381 19.9192 9.71582C20.2621 10.0578 20.5342 10.464 20.72 10.9112C20.9059 11.3584 21.0018 11.8378 21.0023 12.3221C21.0017 12.8063 20.9056 13.2856 20.7197 13.7327C20.5339 14.1798 20.2617 14.5858 19.9189 14.9277C19.5761 15.2697 19.1692 15.5407 18.7217 15.7254C18.2741 15.9101 17.7945 16.0048 17.3103 16.0041H6.69432C6.21014 16.0048 5.73056 15.9101 5.28298 15.7254C4.83541 15.5407 4.42859 15.2697 4.08575 14.9277C3.74292 14.5858 3.47078 14.1798 3.28489 13.7327C3.09899 13.2856 3.00298 12.8063 3.00232 12.3221C3.00284 11.8378 3.09876 11.3584 3.2846 10.9112C3.47044 10.464 3.74255 10.0578 4.0854 9.71582C4.42825 9.37381 4.83511 9.10269 5.28275 8.91795C5.7304 8.7332 6.21005 8.63845 6.69432 8.63911H6.77432C7.03732 6.08911 8.83432 4.00911 12.0023 4.00911Z" fill="#3FD5FE"/>
<path d="M5.7496 18.7501C5.62177 18.75 5.49608 18.7173 5.38446 18.655C5.27284 18.5927 5.179 18.5029 5.11184 18.3941C5.04469 18.2853 5.00644 18.1612 5.00075 18.0335C4.99505 17.9058 5.02208 17.7788 5.07929 17.6644L6.20429 15.4144C6.2933 15.2365 6.44934 15.1013 6.63808 15.0384C6.82682 14.9756 7.03279 14.9903 7.21069 15.0793C7.3886 15.1683 7.52385 15.3243 7.58671 15.5131C7.64956 15.7018 7.63486 15.9078 7.54585 16.0857L6.42085 18.3357C6.3585 18.4603 6.26267 18.5651 6.1441 18.6383C6.02554 18.7114 5.88893 18.7502 5.7496 18.7501Z" fill="#3FD5FE"/>
<path d="M9.7496 18.7501C9.62177 18.75 9.49608 18.7173 9.38446 18.655C9.27284 18.5927 9.179 18.5029 9.11184 18.3941C9.04469 18.2853 9.00644 18.1612 9.00075 18.0335C8.99505 17.9058 9.02208 17.7788 9.07929 17.6644L10.2043 15.4144C10.2933 15.2365 10.4493 15.1013 10.6381 15.0384C10.8268 14.9756 11.0328 14.9903 11.2107 15.0793C11.3886 15.1683 11.5239 15.3243 11.5867 15.5131C11.6496 15.7018 11.6349 15.9078 11.5459 16.0857L10.4208 18.3357C10.3585 18.4603 10.2627 18.5651 10.1441 18.6383C10.0255 18.7114 9.88893 18.7502 9.7496 18.7501Z" fill="#3FD5FE"/>
<circle cx="13.75" cy="17.75" r="0.75" fill="#3FD5FE"/>
<circle cx="17.75" cy="17.75" r="0.75" fill="#3FD5FE"/>
<circle cx="15.75" cy="19.75" r="0.75" fill="#3FD5FE"/>
</svg>
