<svg width="24" height="24" fill="none" xmlns="http://www.w3.org/2000/svg"><path d="M13.002 5.98c3.17 0 4.966 2.083 5.228 4.598h.08a3.712 3.712 0 0 1 2.61 1.069 3.658 3.658 0 0 1 1.082 2.587 3.639 3.639 0 0 1-1.083 2.588 3.69 3.69 0 0 1-2.609 1.068H7.694a3.708 3.708 0 0 1-2.608-1.069 3.658 3.658 0 0 1-1.084-2.587 3.638 3.638 0 0 1 1.083-2.587 3.688 3.688 0 0 1 2.61-1.07h.08c.262-2.531 2.06-4.596 5.227-4.596Z" fill="#3FD5FE"/><path d="M4.368 10.106a.74.74 0 0 1-.315.928l-.09.045-.927.381a.755.755 0 0 1-.958-.357.74.74 0 0 1 .292-.973l.092-.046.926-.38a.755.755 0 0 1 .98.402Zm6.487-4.799-.172.058c-1.784.626-3.062 1.99-3.615 3.796l-.07.248-.058.236-.206.039a4.656 4.656 0 0 0-1.67.709 3.89 3.89 0 0 1 .796-4.9 3.961 3.961 0 0 1 4.995-.186Zm-7.915.031.106.035.926.381a.748.748 0 0 1 .423.92.755.755 0 0 1-.891.49L3.4 7.131l-.926-.38a.748.748 0 0 1-.42-.92.755.755 0 0 1 .889-.49l-.003-.003Zm3.815-2.965.046.09.383.921a.74.74 0 0 1-.36.948.755.755 0 0 1-.98-.288l-.046-.09-.383-.92a.74.74 0 0 1 .362-.948.755.755 0 0 1 .978.287Zm4.354-.316a.748.748 0 0 1 .44.868l-.035.105-.383.92a.747.747 0 0 1-.927.42.74.74 0 0 1-.493-.885l.034-.106.384-.92A.745.745 0 0 1 10.822 2c.099 0 .196.02.287.057Z" fill="#FEB800"/><path d="M6.75 20.617a.754.754 0 0 1-.638-.354.74.74 0 0 1-.033-.724l1.125-2.234a.749.749 0 0 1 1.007-.333.746.746 0 0 1 .335 1L7.42 20.204a.747.747 0 0 1-.671.412ZM10.75 20.617a.754.754 0 0 1-.638-.354.741.741 0 0 1-.033-.724l1.125-2.234a.748.748 0 0 1 1.007-.333.746.746 0 0 1 .335 1l-1.125 2.233a.746.746 0 0 1-.671.412Z" fill="#3FD5FE"/><ellipse cx="14.75" cy="19.624" rx=".75" ry=".745" fill="#3FD5FE"/><ellipse cx="18.75" cy="19.624" rx=".75" ry=".745" fill="#3FD5FE"/><ellipse cx="16.75" cy="21.61" rx=".75" ry=".745" fill="#3FD5FE"/></svg>