<svg width="28" height="28" fill="none" xmlns="http://www.w3.org/2000/svg"><g clip-path="url(#a)" stroke-width="1.5" stroke-linecap="round"><path d="M5.971 18.172c-2.667 0-4.83-2.192-4.83-4.893a4.87 4.87 0 0 1 3.326-4.627 5.867 5.867 0 0 1-.106-1.08c0-3.155 2.521-5.708 5.636-5.708 2.178 0 4.045 1.264 4.981 3.099.74-.892 1.832-1.468 3.07-1.468 2.223 0 4.025 1.824 4.025 4.077 0 .285-.026.56-.08.825.024 0 .05-.01.08-.01 2.666 0 4.83 2.191 4.83 4.892 0 2.701-2.163 4.893-4.83 4.893h-1.5" stroke="#F9F" stroke-linejoin="round"/><path d="m11.822 23.808 3.788-8.281M6.494 26.4l3.789-8.281M16.873 23.522l1.263-2.548" stroke="#96F"/></g><defs><clipPath id="a"><path fill="#fff" d="M0 0h28v28H0z"/></clipPath></defs></svg>