<svg width="28" height="28" fill="none" xmlns="http://www.w3.org/2000/svg"><g clip-path="url(#a)" stroke-width="1.5" stroke-linecap="round"><path d="M20.476 26.883v-4.855M22.578 25.67l-4.205-2.428M18.373 25.67l4.205-2.428" stroke="#96F"/><path d="M11.288 21.038a3.505 3.505 0 0 1-1.09-6.833 4.087 4.087 0 0 1 4.004-4.872c1.578 0 2.93.907 3.608 2.224a2.888 2.888 0 0 1 2.222-1.053 2.92 2.92 0 0 1 2.915 2.926c0 .205-.018.402-.058.593.018 0 .036-.008.058-.008a3.505 3.505 0 0 1 3.498 3.511 3.505 3.505 0 0 1-3.498 3.512" stroke="#F9F" stroke-linejoin="round"/><path d="m14.83 25.138 2.744-5.944M11.284 26.72l2.744-5.944" stroke="#96F"/><path d="M9.71 2.085a6.66 6.66 0 0 1 4.416 4.623M1.69 11.126a6.66 6.66 0 0 0 3.976 3.71M9.689 2.096a6.66 6.66 0 0 1-8.09 8.705" stroke="#D580FF"/></g><defs><clipPath id="a"><path fill="#fff" d="M0 0h28v28H0z"/></clipPath></defs></svg>