<svg width="24" height="24" viewBox="0 0 24 24" fill="none" xmlns="http://www.w3.org/2000/svg">
<path d="M13.0023 5.98058C16.1713 5.98058 17.9683 8.06266 18.2303 10.5776H18.3103C18.7946 10.577 19.2742 10.6711 19.7219 10.8545C20.1695 11.0379 20.5764 11.3071 20.9192 11.6467C21.2621 11.9863 21.5342 12.3896 21.72 12.8336C21.9059 13.2776 22.0018 13.7536 22.0023 14.2344C22.0017 14.7152 21.9056 15.1911 21.7198 15.635C21.5339 16.0789 21.2617 16.4821 20.9189 16.8215C20.5761 17.161 20.1692 17.4301 19.7217 17.6135C19.2741 17.7969 18.7945 17.8909 18.3103 17.8902H7.69432C7.21014 17.8909 6.73056 17.7969 6.28298 17.6135C5.83541 17.4301 5.42859 17.161 5.08575 16.8215C4.74292 16.4821 4.47078 16.0789 4.28489 15.635C4.09899 15.1911 4.00298 14.7152 4.00232 14.2344C4.00284 13.7536 4.09876 13.2776 4.2846 12.8336C4.47044 12.3896 4.74255 11.9863 5.0854 11.6467C5.42825 11.3071 5.83511 11.0379 6.28275 10.8545C6.7304 10.6711 7.21005 10.577 7.69432 10.5776H7.77432C8.03732 8.04578 9.83432 5.98058 13.0023 5.98058Z" fill="#3FD5FE"/>
<path d="M4.36837 10.106C4.43783 10.2724 4.44418 10.4582 4.38627 10.6289C4.32835 10.7996 4.21008 10.9436 4.05337 11.0344L3.96237 11.0791L3.03637 11.4603C2.86086 11.5323 2.66438 11.5355 2.48658 11.4693C2.30878 11.4031 2.1629 11.2724 2.07838 11.1035C1.99386 10.9347 1.977 10.7403 2.03119 10.5596C2.08538 10.3789 2.2066 10.2253 2.37037 10.1299L2.46237 10.0842L3.38837 9.70391C3.57204 9.62825 3.77845 9.62811 3.96222 9.70352C4.14599 9.77892 4.29208 9.9237 4.36837 10.106ZM10.8554 5.30741L10.6834 5.36499C8.89937 5.99051 7.62137 7.35573 7.06837 9.1608L6.99837 9.40902L6.94037 9.64533L6.73438 9.68405C6.13611 9.80882 5.56857 10.0497 5.06437 10.393C4.60604 9.6108 4.43484 8.69511 4.57991 7.80173C4.72497 6.90835 5.17733 6.09247 5.86002 5.49295C6.5427 4.89343 7.41352 4.5473 8.32429 4.51347C9.23505 4.47964 10.1295 4.7602 10.8554 5.30741ZM2.94037 5.33819L3.04637 5.37294L3.97237 5.7542C4.1465 5.82668 4.28669 5.96169 4.36495 6.13228C4.44322 6.30288 4.4538 6.49651 4.39459 6.67451C4.33538 6.85252 4.21073 7.0018 4.04552 7.09255C3.88032 7.18331 3.68672 7.20886 3.50337 7.1641L3.40037 7.13134L2.47437 6.75007C2.30071 6.67738 2.16097 6.54245 2.08297 6.3721C2.00496 6.20176 1.9944 6.00851 2.0534 5.83079C2.11239 5.65307 2.2366 5.50392 2.40133 5.41301C2.56606 5.3221 2.75922 5.29609 2.94237 5.34017L2.94037 5.33819ZM6.75537 2.37343L6.80137 2.46378L7.18437 3.38419C7.25585 3.55829 7.25834 3.7528 7.19136 3.92866C7.12438 4.10452 6.99288 4.24871 6.82325 4.33229C6.65363 4.41587 6.45844 4.43265 6.27688 4.37926C6.09531 4.32587 5.9408 4.20627 5.84437 4.04445L5.79837 3.9541L5.41537 3.0337C5.3439 2.85959 5.34141 2.66508 5.40839 2.48922C5.47537 2.31336 5.60687 2.16917 5.7765 2.08559C5.94612 2.00201 6.14131 1.98523 6.32287 2.03862C6.50444 2.09201 6.65895 2.21162 6.75537 2.37343ZM11.1094 2.0567C11.2754 2.12512 11.4112 2.25047 11.4919 2.40993C11.5727 2.56939 11.5931 2.75234 11.5494 2.92547L11.5144 3.02972L11.1314 3.95013C11.0584 4.12302 10.9224 4.26221 10.7506 4.33992C10.5788 4.41763 10.3838 4.42813 10.2045 4.36934C10.0252 4.31055 9.87484 4.18679 9.78344 4.02276C9.69203 3.85873 9.6663 3.66651 9.71138 3.48447L9.74537 3.37922L10.1294 2.45981C10.1671 2.36944 10.2223 2.28733 10.2919 2.21817C10.3616 2.149 10.4443 2.09414 10.5353 2.0567C10.6263 2.01927 10.7238 2 10.8223 2C10.9208 2 11.0184 2.01926 11.1094 2.0567Z" fill="#FEB800"/>
<path d="M6.7496 20.6167C6.62177 20.6166 6.49608 20.5841 6.38446 20.5222C6.27284 20.4604 6.179 20.3712 6.11184 20.2632C6.04469 20.1552 6.00644 20.032 6.00075 19.9052C5.99505 19.7784 6.02208 19.6523 6.07929 19.5388L7.20429 17.3048C7.2933 17.1281 7.44934 16.9939 7.63808 16.9314C7.82682 16.869 8.03279 16.8836 8.21069 16.972C8.3886 17.0604 8.52385 17.2153 8.58671 17.4027C8.64956 17.5901 8.63486 17.7946 8.54585 17.9713L7.42085 20.2053C7.3585 20.329 7.26267 20.433 7.1441 20.5057C7.02554 20.5783 6.88893 20.6168 6.7496 20.6167Z" fill="#3FD5FE"/>
<path d="M10.7496 20.6167C10.6218 20.6166 10.4961 20.5841 10.3845 20.5222C10.2728 20.4604 10.179 20.3712 10.1118 20.2632C10.0447 20.1552 10.0064 20.032 10.0007 19.9052C9.99505 19.7784 10.0221 19.6523 10.0793 19.5388L11.2043 17.3048C11.2933 17.1281 11.4493 16.9939 11.6381 16.9314C11.8268 16.869 12.0328 16.8836 12.2107 16.972C12.3886 17.0604 12.5239 17.2153 12.5867 17.4027C12.6496 17.5901 12.6349 17.7946 12.5459 17.9713L11.4208 20.2053C11.3585 20.329 11.2627 20.433 11.1441 20.5057C11.0255 20.5783 10.8889 20.6168 10.7496 20.6167Z" fill="#3FD5FE"/>
<ellipse cx="14.75" cy="19.6237" rx="0.75" ry="0.744665" fill="#3FD5FE"/>
<ellipse cx="18.75" cy="19.6237" rx="0.75" ry="0.744665" fill="#3FD5FE"/>
<ellipse cx="16.75" cy="21.6095" rx="0.75" ry="0.744665" fill="#3FD5FE"/>
</svg>
