<svg width="28" height="28" fill="none" xmlns="http://www.w3.org/2000/svg"><g clip-path="url(#a)" stroke-width="1.5" stroke-linecap="round"><path d="M11.288 21.038a3.505 3.505 0 0 1-1.09-6.833 4.087 4.087 0 0 1 4.004-4.872c1.578 0 2.93.907 3.608 2.224a2.888 2.888 0 0 1 2.222-1.053 2.92 2.92 0 0 1 2.915 2.926c0 .205-.018.402-.058.593.018 0 .036-.008.058-.008a3.505 3.505 0 0 1 3.498 3.511 3.505 3.505 0 0 1-3.498 3.512H21.86" stroke="#F9F" stroke-linejoin="round"/><path d="m15.524 25.083 2.743-5.943M11.667 26.944 14.41 21M19.182 24.878l.914-1.828" stroke="#96F"/><path d="M10.328 1.897a6.66 6.66 0 0 1 4.415 4.623M2.308 10.938a6.66 6.66 0 0 0 3.975 3.71M10.306 1.908a6.659 6.659 0 0 1-8.09 8.705" stroke="#D580FF"/></g><defs><clipPath id="a"><path fill="#fff" d="M0 0h28v28H0z"/></clipPath></defs></svg>