<svg width="28" height="28" fill="none" xmlns="http://www.w3.org/2000/svg"><path d="M5.968 17.854c-2.66 0-4.817-2.166-4.817-4.836a4.817 4.817 0 0 1 3.317-4.573 5.75 5.75 0 0 1-.106-1.068c0-3.118 2.514-5.641 5.62-5.641 2.172 0 4.033 1.249 4.966 3.062.738-.881 1.827-1.45 3.06-1.45a4.02 4.02 0 0 1 4.015 4.029c0 .282-.026.554-.08.816.024 0 .05-.01.08-.01 2.659 0 4.816 2.166 4.816 4.835 0 2.67-2.157 4.835-4.816 4.835h-2.94" stroke="#F9F" stroke-width="1.5" stroke-linecap="round" stroke-linejoin="round"/><path d="M12.612 24.587V15.84M16.4 22.4l-7.576-4.374M8.824 22.4l7.576-4.374" stroke="#96F" stroke-width="1.5" stroke-linecap="round"/></svg>