<svg width="28" height="28" fill="none" xmlns="http://www.w3.org/2000/svg"><g clip-path="url(#a)" stroke-width="1.5" stroke-linecap="round"><path d="M11.742 21.418a3.505 3.505 0 0 1-1.089-6.833 4.087 4.087 0 0 1 4.004-4.872c1.578 0 2.93.907 3.607 2.224a2.888 2.888 0 0 1 2.223-1.053A2.92 2.92 0 0 1 23.4 13.81c0 .205-.018.402-.058.593.018 0 .036-.008.058-.008a3.505 3.505 0 0 1 3.498 3.512 3.505 3.505 0 0 1-3.498 3.51" stroke="#F9F" stroke-linejoin="round"/><path d="M10.243 2.357A6.659 6.659 0 0 1 14.66 6.98M2.223 11.397A6.66 6.66 0 0 0 6.2 15.11M10.222 2.368a6.66 6.66 0 0 1-8.09 8.705" stroke="#D580FF"/><path d="M17.277 25.2V18.97M19.975 23.643l-5.396-3.116M14.579 23.643l5.396-3.116" stroke="#96F"/></g><defs><clipPath id="a"><path fill="#fff" d="M0 0h28v28H0z"/></clipPath></defs></svg>