<svg width="24" height="24" viewBox="0 0 24 24" fill="none" xmlns="http://www.w3.org/2000/svg">
<path d="M9.75 18.151C9.94891 18.151 10.1397 18.23 10.2803 18.3707C10.421 18.5113 10.5 18.7021 10.5 18.901C10.5 19.0999 10.421 19.2907 10.2803 19.4313C10.1397 19.572 9.94891 19.651 9.75 19.651C9.55109 19.651 9.36032 19.572 9.21967 19.4313C9.07902 19.2907 9 19.0999 9 18.901C9 18.7021 9.07902 18.5113 9.21967 18.3707C9.36032 18.23 9.55109 18.151 9.75 18.151V18.151ZM14.25 18.151C14.4489 18.151 14.6397 18.23 14.7803 18.3707C14.921 18.5113 15 18.7021 15 18.901C15 19.0999 14.921 19.2907 14.7803 19.4313C14.6397 19.572 14.4489 19.651 14.25 19.651C14.0511 19.651 13.8603 19.572 13.7197 19.4313C13.579 19.2907 13.5 19.0999 13.5 18.901C13.5 18.7021 13.579 18.5113 13.7197 18.3707C13.8603 18.23 14.0511 18.151 14.25 18.151V18.151ZM7.5 17.151C7.69891 17.151 7.88968 17.23 8.03033 17.3707C8.17098 17.5113 8.25 17.7021 8.25 17.901C8.25 18.0999 8.17098 18.2907 8.03033 18.4313C7.88968 18.572 7.69891 18.651 7.5 18.651C7.30109 18.651 7.11032 18.572 6.96967 18.4313C6.82902 18.2907 6.75 18.0999 6.75 17.901C6.75 17.7021 6.82902 17.5113 6.96967 17.3707C7.11032 17.23 7.30109 17.151 7.5 17.151ZM12 17.151C12.1989 17.151 12.3897 17.23 12.5303 17.3707C12.671 17.5113 12.75 17.7021 12.75 17.901C12.75 18.0999 12.671 18.2907 12.5303 18.4313C12.3897 18.572 12.1989 18.651 12 18.651C11.8011 18.651 11.6103 18.572 11.4697 18.4313C11.329 18.2907 11.25 18.0999 11.25 17.901C11.25 17.7021 11.329 17.5113 11.4697 17.3707C11.6103 17.23 11.8011 17.151 12 17.151ZM16.5 17.151C16.6989 17.151 16.8897 17.23 17.0303 17.3707C17.171 17.5113 17.25 17.7021 17.25 17.901C17.25 18.0999 17.171 18.2907 17.0303 18.4313C16.8897 18.572 16.6989 18.651 16.5 18.651C16.3011 18.651 16.1103 18.572 15.9697 18.4313C15.829 18.2907 15.75 18.0999 15.75 17.901C15.75 17.7021 15.829 17.5113 15.9697 17.3707C16.1103 17.23 16.3011 17.151 16.5 17.151V17.151ZM12 4.001C15.169 4.001 16.966 6.098 17.227 8.631H17.307C17.7913 8.63021 18.2709 8.72483 18.7186 8.90945C19.1663 9.09408 19.5733 9.36509 19.9162 9.70701C20.2592 10.0489 20.5314 10.4551 20.7173 10.9022C20.9033 11.3493 20.9993 11.8287 21 12.313C20.9995 12.7974 20.9035 13.2769 20.7176 13.7241C20.5317 14.1714 20.2595 14.5776 19.9166 14.9196C19.5736 15.2617 19.1666 15.5328 18.7189 15.7175C18.2711 15.9021 17.7914 15.9968 17.307 15.996H6.693C6.20865 15.9968 5.72889 15.9021 5.28113 15.7175C4.83337 15.5328 4.42639 15.2617 4.08343 14.9196C3.74048 14.5776 3.46828 14.1714 3.28238 13.7241C3.09648 13.2769 3.00052 12.7974 3 12.313C3.00066 11.8288 3.09667 11.3495 3.28257 10.9024C3.46846 10.4554 3.7406 10.0493 4.08343 9.70736C4.42627 9.36546 4.83309 9.09442 5.28066 8.90974C5.72824 8.72506 6.20782 8.63034 6.692 8.631H6.772C7.036 6.08 8.832 4 12 4V4.001Z" fill="#3FD5FE"/>
</svg>
