<svg width="28" height="28" fill="none" xmlns="http://www.w3.org/2000/svg"><path d="M11.743 21.418a3.505 3.505 0 0 1-1.09-6.833 4.086 4.086 0 0 1 4.004-4.872c1.578 0 2.93.907 3.607 2.224a2.888 2.888 0 0 1 2.223-1.053 2.92 2.92 0 0 1 2.915 2.926c0 .205-.019.402-.059.593.018 0 .037-.008.058-.008a3.505 3.505 0 0 1 3.498 3.512 3.505 3.505 0 0 1-3.498 3.51" stroke="#3FD5FE" stroke-width="1.5" stroke-linecap="round" stroke-linejoin="round"/><path d="M17.627 25.367v-6.231M20.325 23.81l-5.396-3.116M14.928 23.81l5.397-3.116" stroke="#6A9CFF" stroke-width="1.5" stroke-linecap="round"/><path d="M7.374 13.873a4.667 4.667 0 0 1 6.505-6.63M17.088 5.085l1.5-1.417M3.647 18.443l1.499-1.416M5.229 5.085 3.73 3.668M11.19 3.122V1.06M1.1 11.045h2.063" stroke="#FEB800" stroke-width="1.5" stroke-linecap="round"/></svg>