<svg width="24" height="24" fill="none" xmlns="http://www.w3.org/2000/svg"><path d="M10.752 20a.75.75 0 1 1 0 1.5.75.75 0 0 1 0-1.5Zm4.5 0a.75.75 0 1 1 0 1.5.75.75 0 0 1 0-1.5Zm-6.75-1a.75.75 0 1 1 0 1.5.75.75 0 0 1 0-1.5Zm4.5 0a.75.75 0 1 1 0 1.5.75.75 0 0 1 0-1.5Zm4.5 0a.75.75 0 1 1 0 1.5.75.75 0 0 1 0-1.5ZM13.002 6.01c3.17 0 4.966 2.096 5.228 4.63h.08a3.687 3.687 0 0 1 3.692 3.682 3.688 3.688 0 0 1-3.692 3.682H7.694a3.688 3.688 0 0 1-3.692-3.682 3.687 3.687 0 0 1 3.692-3.683h.08c.263-2.55 2.06-4.63 5.228-4.63Z" fill="#3FD5FE"/><path d="M4.368 10.164a.75.75 0 0 1-.315.935l-.09.045-.927.384a.75.75 0 0 1-.666-1.34l.092-.046.926-.383a.75.75 0 0 1 .98.405Zm6.487-4.833-.172.058C8.9 6.02 7.621 7.394 7.068 9.212l-.07.25-.058.238-.206.04a4.64 4.64 0 0 0-1.67.713 3.942 3.942 0 0 1 5.791-5.122Zm-7.915.031.106.035.926.384a.75.75 0 0 1-.469 1.42L3.4 7.168l-.926-.384a.75.75 0 0 1 .468-1.42l-.002-.002Zm3.815-2.986.046.091.383.927a.75.75 0 0 1-1.34.665l-.046-.09-.383-.928a.75.75 0 0 1 1.34-.665Zm4.354-.319a.75.75 0 0 1 .44.875l-.035.105-.383.927a.75.75 0 0 1-1.42-.469l.034-.106.384-.926a.75.75 0 0 1 .98-.406Z" fill="#FEB800"/></svg>