<svg width="24" height="24" fill="none" xmlns="http://www.w3.org/2000/svg"><path d="M12.002 4.01c3.17 0 4.966 2.096 5.228 4.63h.08a3.687 3.687 0 0 1 3.692 3.682 3.688 3.688 0 0 1-3.692 3.682H6.694a3.688 3.688 0 0 1-3.692-3.682A3.687 3.687 0 0 1 6.694 8.64h.08c.263-2.55 2.06-4.63 5.228-4.63Z" fill="#3FD5FE"/><path d="M12.508 18.902 12.992 16h4.18l-.3 1.2h1.033a.602.602 0 0 1 .599.644.6.6 0 0 1-.11.305l-3.004 4.2a.601.601 0 0 1-1.088-.348v-2.4H13.1a.601.601 0 0 1-.593-.7ZM5.75 18.75a.75.75 0 0 1-.67-1.086l1.124-2.25a.75.75 0 0 1 1.342.672l-1.125 2.25a.75.75 0 0 1-.671.414ZM9.75 18.75a.75.75 0 0 1-.67-1.086l1.124-2.25a.75.75 0 1 1 1.342.672l-1.125 2.25a.75.75 0 0 1-.671.414Z" fill="#3FD5FE"/></svg>