<svg width="28" height="28" fill="none" xmlns="http://www.w3.org/2000/svg"><path d="M5.968 17.858c-2.66 0-4.817-2.166-4.817-4.836A4.817 4.817 0 0 1 4.468 8.45a5.75 5.75 0 0 1-.106-1.068c0-3.118 2.514-5.641 5.62-5.641 2.172 0 4.033 1.25 4.966 3.062.738-.881 1.827-1.45 3.06-1.45a4.02 4.02 0 0 1 4.015 4.03c0 .281-.026.553-.08.815.024 0 .05-.01.08-.01 2.659 0 4.816 2.166 4.816 4.835 0 2.67-2.157 4.836-4.816 4.836h-2.94" stroke="#F9F" stroke-width="1.5" stroke-linecap="round" stroke-linejoin="round"/><path d="m13.179 12.272-2.963 5.917h4.525l-3.987 7.82" stroke="#FEB800" stroke-width="1.5" stroke-linecap="round" stroke-linejoin="round"/></svg>