<svg width="28" height="28" fill="none" xmlns="http://www.w3.org/2000/svg"><path d="M6.344 19.644c-2.536 0-4.594-2.17-4.594-4.843 0-2.144 1.33-3.945 3.163-4.581a6.038 6.038 0 0 1-.1-1.07c0-3.122 2.397-5.65 5.359-5.65 2.072 0 3.847 1.251 4.737 3.067.704-.883 1.742-1.453 2.92-1.453 2.114 0 3.827 1.807 3.827 4.036 0 .283-.024.555-.076.818.024 0 .048-.01.076-.01 2.536 0 4.594 2.169 4.594 4.843s-2.058 4.843-4.594 4.843" stroke="#3FD5FE" stroke-width="1.5" stroke-linecap="round" stroke-linejoin="round"/><path d="m12.673 14.778-2.019 4.031h3.083l-2.716 5.33" stroke="#FEB800" stroke-width="1.5" stroke-linecap="round" stroke-linejoin="round"/><path d="m6.23 25.982 1.64-3.57M14.61 26.02l3.303-7.158M19.015 24.367l1.1-2.202" stroke="#6A9CFF" stroke-width="1.5" stroke-linecap="round"/></svg>