<svg width="24" height="24" fill="none" xmlns="http://www.w3.org/2000/svg"><path d="M6.75 19.813a.706.706 0 0 1-.366-.104.78.78 0 0 1-.272-.282.861.861 0 0 1-.033-.79l1.125-2.438a.771.771 0 0 1 .434-.407.698.698 0 0 1 .573.044.797.797 0 0 1 .376.47.875.875 0 0 1-.041.62L7.42 19.364a.792.792 0 0 1-.277.327.708.708 0 0 1-.394.122ZM13.508 19.977l.484-3.144h4.18l-.3 1.3h1.033c.11 0 .219.034.313.096s.17.151.22.258a.696.696 0 0 1-.045.674l-3.003 4.551a.607.607 0 0 1-.3.238.557.557 0 0 1-.371.002.605.605 0 0 1-.302-.235.687.687 0 0 1-.115-.383v-2.6H14.1a.562.562 0 0 1-.253-.06.61.61 0 0 1-.206-.17.7.7 0 0 1-.134-.527ZM10.75 19.813a.706.706 0 0 1-.366-.104.78.78 0 0 1-.272-.282.862.862 0 0 1-.033-.79l1.125-2.438a.771.771 0 0 1 .434-.407.698.698 0 0 1 .573.044.797.797 0 0 1 .376.47.874.874 0 0 1-.041.62l-1.125 2.438a.791.791 0 0 1-.277.327.708.708 0 0 1-.394.122Z" fill="#D580FF"/><path d="M13.002 3.843c3.17 0 4.966 2.272 5.228 5.016h.08c.485 0 .964.102 1.412.302.448.2.854.494 1.197.864.343.371.615.811.801 1.295a4.285 4.285 0 0 1 0 3.057 4.03 4.03 0 0 1-.801 1.295c-.343.37-.75.664-1.197.864-.448.2-.927.302-1.412.302H7.694c-.484 0-.963-.102-1.41-.302a3.682 3.682 0 0 1-1.198-.864 4.03 4.03 0 0 1-.801-1.295 4.285 4.285 0 0 1 0-3.057 4.03 4.03 0 0 1 .8-1.295c.343-.37.75-.664 1.198-.864.447-.2.927-.303 1.411-.302h.08c.263-2.762 2.06-5.016 5.228-5.016Z" fill="#D580FF"/><path d="M6.588.001a4.964 4.964 0 0 1 2.263.692 5.154 5.154 0 0 1 2.21 2.663c-1.986.575-3.406 2.053-3.995 4.049l-.07.252-.057.244-.206.04A4.661 4.661 0 0 0 3.93 9.802l-.155-.088a5.114 5.114 0 0 1-1.642-1.553A.781.781 0 0 1 2.498 7C4.14 6.397 5.025 5.718 5.53 4.726c.553-1.082.655-2.23.288-3.773a.789.789 0 0 1 .152-.675.752.752 0 0 1 .618-.277Z" fill="#D580FF"/></svg>