<svg width="28" height="28" fill="none" xmlns="http://www.w3.org/2000/svg"><g clip-path="url(#a)" stroke-width="1.5" stroke-linecap="round"><path d="M11.885 21.287a3.38 3.38 0 0 1-1.05-6.589A3.94 3.94 0 0 1 14.696 10c1.52 0 2.824.875 3.478 2.144a2.785 2.785 0 0 1 2.143-1.015 2.815 2.815 0 0 1 2.81 2.821c0 .198-.017.388-.056.572.018 0 .035-.007.056-.007A3.38 3.38 0 0 1 26.5 17.9a3.38 3.38 0 0 1-3.373 3.386H22.08" stroke="#3FD5FE" stroke-linejoin="round"/><path d="M15.805 18.795 14.42 21.56h2.116L14.67 25.22" stroke="#FEB800" stroke-linejoin="round"/><path d="m11.383 26.484 1.126-2.45M17.135 26.51l2.267-4.913M20.158 25.376l.756-1.511" stroke="#6A9CFF"/><path d="M7.672 14.011a4.5 4.5 0 0 1 6.273-6.393M15.257 5.033l1.285-1.215M3.736 16.483l1.285-1.215M5.092 5.033 3.808 3.818M10.202 3.35V1.584M1.554 10.142H3.32" stroke="#FEB800"/></g><defs><clipPath id="a"><path fill="#fff" d="M0 0h28v28H0z"/></clipPath></defs></svg>