<svg width="24" height="24" fill="none" xmlns="http://www.w3.org/2000/svg"><path d="M17.227 8.63C16.966 6.098 15.169 4 12 4 8.832 4 7.036 6.08 6.772 8.632h-.08A3.687 3.687 0 0 0 3 12.314a3.687 3.687 0 0 0 3.693 3.682h8.3l1.732.001h.582a3.687 3.687 0 0 0 3.41-5.094 3.685 3.685 0 0 0-3.41-2.273h-.08ZM9.008 19.078 9.492 16h4.177l-.3 1.273H14.4c.11 0 .218.032.312.093s.17.149.22.253a.67.67 0 0 1-.045.66l-3 4.456a.604.604 0 0 1-.3.233.568.568 0 0 1-.371.002.603.603 0 0 1-.301-.23.662.662 0 0 1-.116-.375v-2.546H9.6a.57.57 0 0 1-.252-.06.605.605 0 0 1-.206-.165.65.65 0 0 1-.134-.516Z" fill="#D580FF"/></svg>