<svg width="25" height="24" viewBox="0 0 25 24" fill="none" xmlns="http://www.w3.org/2000/svg">
<path d="M18.1024 12C18.1024 12.6754 17.9693 13.3441 17.7109 13.9681C17.4524 14.5921 17.0736 15.159 16.5961 15.6366C16.1185 16.1141 15.5516 16.4929 14.9276 16.7514C14.3036 17.0098 13.6349 17.1429 12.9595 17.1429C12.2841 17.1429 11.6154 17.0098 10.9914 16.7514C10.3675 16.4929 9.80052 16.1141 9.32296 15.6366C8.8454 15.159 8.46658 14.5921 8.20813 13.9681C7.94967 13.3441 7.81665 12.6754 7.81665 12C7.81665 10.636 8.35849 9.32793 9.32296 8.36346C10.2874 7.39898 11.5955 6.85715 12.9595 6.85715C14.3235 6.85715 15.6316 7.39898 16.5961 8.36346C17.5605 9.32793 18.1024 10.636 18.1024 12Z" fill="#FE6B00"/>
<rect width="2.6" height="1.25" rx="0.625" transform="matrix(-0.496782 0.867876 0.867876 0.496782 17.7705 2.32802)" fill="#FE6B00"/>
<rect x="17.7705" y="21.672" width="2.6" height="1.25" rx="0.625" transform="rotate(-119.787 17.7705 21.672)" fill="#FE6B00"/>
<rect x="8.1488" y="2.32802" width="2.6" height="1.25" rx="0.625" transform="rotate(60.2127 8.1488 2.32802)" fill="#FE6B00"/>
<rect width="2.6" height="1.25" rx="0.625" transform="matrix(0.496782 -0.867876 -0.867876 -0.496782 8.1488 21.672)" fill="#FE6B00"/>
<rect width="2.6" height="1.25" rx="0.625" transform="matrix(1 0 0 -1 20.4124 12.6982)" fill="#FE6B00"/>
<rect width="2.6" height="1.25" rx="0.625" transform="matrix(1 0 0 -1 2.17859 12.6982)" fill="#FE6B00"/>
<rect width="2.6" height="1.25" rx="0.625" transform="matrix(-4.37114e-08 -1 -1 4.37114e-08 13.5845 3.98112)" fill="#FE6B00"/>
<rect x="13.5845" y="20.0031" width="2.6" height="1.25" rx="0.625" transform="rotate(90 13.5845 20.0031)" fill="#FE6B00"/>
<rect width="2.6" height="1.25" rx="0.625" transform="matrix(-0.839677 0.543086 0.543086 0.839677 21.6669 5.98369)" fill="#FE6B00"/>
<rect x="21.6669" y="18.0163" width="2.6" height="1.25" rx="0.625" transform="rotate(-147.106 21.6669 18.0163)" fill="#FE6B00"/>
<rect x="4.25232" y="5.98369" width="2.6" height="1.25" rx="0.625" transform="rotate(32.894 4.25232 5.98369)" fill="#FE6B00"/>
<rect width="2.6" height="1.25" rx="0.625" transform="matrix(0.839677 -0.543086 -0.543086 -0.839677 4.25232 18.0163)" fill="#FE6B00"/>
</svg>
