<svg width="28" height="28" viewBox="0 0 28 28" fill="none" xmlns="http://www.w3.org/2000/svg">
<circle cx="13.8955" cy="13.6572" r="5.84933" fill="#F7D056"/>
<path d="M9.40246 17.4594C8.92167 16.8843 8.55887 16.2201 8.33477 15.5048C8.11068 14.7895 8.02967 14.037 8.09638 13.2903C8.16309 12.5437 8.3762 11.8175 8.72356 11.1532C9.07092 10.489 9.54571 9.8996 10.1208 9.41881C10.696 8.93803 11.3602 8.57523 12.0755 8.35113C12.7908 8.12703 13.5433 8.04603 14.2899 8.11273C15.0366 8.17944 15.7628 8.39256 16.427 8.73992C17.0913 9.08727 17.6807 9.56207 18.1615 10.1372C18.6422 10.7123 19.005 11.3765 19.2291 12.0918C19.4532 12.8072 19.5342 13.5596 19.4675 14.3063C19.4008 15.0529 19.1877 15.7791 18.8404 16.4434C18.493 17.1077 18.0182 17.697 17.4431 18.1778C16.868 18.6586 16.2038 19.0214 15.4884 19.2455C14.7731 19.4696 14.0206 19.5506 13.274 19.4839C12.5273 19.4172 11.8012 19.2041 11.1369 18.8567C10.4726 18.5094 9.88324 18.0346 9.40246 17.4594L9.40246 17.4594Z" stroke="#FEB800" stroke-width="1.5" stroke-linecap="round"/>
<path d="M21.2844 6.70947L23.1179 4.97682" stroke="#FEB800" stroke-width="1.5" stroke-linecap="round"/>
<path d="M4.84326 23.0493L6.67673 21.3167" stroke="#FEB800" stroke-width="1.5" stroke-linecap="round"/>
<path d="M6.77808 6.70947L4.94461 4.97682" stroke="#FEB800" stroke-width="1.5" stroke-linecap="round"/>
<path d="M21.2224 21.2906L23.0559 23.0233" stroke="#FEB800" stroke-width="1.5" stroke-linecap="round"/>
<path d="M14.0696 4.3092V1.78657" stroke="#FEB800" stroke-width="1.5" stroke-linecap="round"/>
<path d="M13.9312 23.6909V26.2136" stroke="#FEB800" stroke-width="1.5" stroke-linecap="round"/>
<path d="M1.72852 14.0004H4.25115" stroke="#FEB800" stroke-width="1.5" stroke-linecap="round"/>
<path d="M26.272 13.9998H23.7493" stroke="#FEB800" stroke-width="1.5" stroke-linecap="round"/>
</svg>
