<svg width="28" height="28" viewBox="0 0 28 28" fill="none" xmlns="http://www.w3.org/2000/svg">
<g clip-path="url(#clip0_2623_59022)">
<path d="M17.9042 9.95631C17.9042 9.95631 17.941 9.94893 17.963 9.94893C17.963 11.1359 16.5102 12.4792 15.8318 12.4792C13.6272 11.331 13.6549 9.63685 9.97615 10.8355C6.29742 12.0341 6.31211 15.7323 6.31211 15.7323L4.94582 17.4699C1.34678 18.2663 1.79056 15.4502 1.79056 13.4934C1.79056 11.9242 2.81296 10.6061 4.22151 10.1409C4.1737 9.88616 4.14428 9.62771 4.14428 9.35819C4.14428 7.07277 5.9868 5.22302 8.2633 5.22302C9.85573 5.22302 11.2202 6.13867 11.9042 7.46783C12.4448 6.82171 13.2429 6.4045 14.1476 6.4045C15.7731 6.4045 17.963 7.72627 17.963 9.35819C17.963 9.56495 17.9446 9.76432 17.9042 9.95631Z" fill="#F091FF" fill-opacity="0.3"/>
<path d="M22.189 16.142C22.2108 16.142 22.2326 16.1332 22.2588 16.1332C24.5697 16.1332 26.4447 18.0155 26.4447 20.3355C26.4447 22.6556 24.5697 24.5379 22.2588 24.5379H20.9592H8.30577C5.99481 24.5379 4.11987 22.6556 4.11987 20.3355C4.11987 18.4751 5.33204 16.9124 7.00204 16.3609C6.94535 16.0588 6.91047 15.7524 6.91047 15.4328C6.91047 12.7232 9.09499 10.5302 11.794 10.5302C13.682 10.5302 15.2997 11.6157 16.1107 13.1916C16.7517 12.4256 17.6979 11.9309 18.7705 11.9309C20.6978 11.9309 22.2588 13.498 22.2588 15.4328C22.2588 15.678 22.237 15.9144 22.189 16.142Z" fill="#F091FF" fill-opacity="0.3" stroke="#D580FF" stroke-width="1.5" stroke-linecap="round" stroke-linejoin="round"/>
<path d="M17.411 9.51773C17.411 7.80175 16.0266 6.41189 14.3173 6.41189C13.366 6.41189 12.5268 6.85059 11.9583 7.52999C11.2391 6.13237 9.80435 5.16956 8.12989 5.16956C5.73613 5.16956 3.7987 7.11459 3.7987 9.51773C3.7987 9.80114 3.82963 10.0729 3.87991 10.3408C2.39879 10.8299 1.32373 12.2159 1.32373 13.8659C1.32373 14.9058 1.74844 15.8465 2.43315 16.5227" stroke="#D580FF" stroke-width="1.5" stroke-linecap="round" stroke-linejoin="round"/>
</g>
<defs>
<clipPath id="clip0_2623_59022">
<rect width="28" height="28" fill="white"/>
</clipPath>
</defs>
</svg>
