<svg width="28" height="28" viewBox="0 0 28 28" fill="none" xmlns="http://www.w3.org/2000/svg">
<path d="M21.2124 7.64393C21.2352 7.64393 21.258 7.63479 21.2853 7.63479C23.6986 7.63479 25.6565 9.60039 25.6565 12.0231C25.6565 14.4458 23.6986 16.4114 21.2853 16.4114H19.9282H6.71469C4.30143 16.4114 2.34351 14.4458 2.34351 12.0231C2.34351 10.0804 3.60933 8.44846 5.35325 7.87249C5.29405 7.55708 5.25763 7.2371 5.25763 6.9034C5.25763 4.07385 7.53884 1.78369 10.3573 1.78369C12.3289 1.78369 14.0182 2.91734 14.8651 4.56296C15.5345 3.76301 16.5225 3.24647 17.6426 3.24647C19.6552 3.24647 21.2853 4.88295 21.2853 6.9034C21.2853 7.15939 21.2625 7.40623 21.2124 7.64393Z" fill="#F3F4F7"/>
<path d="M4.01025 21.3496L11.0892 21.3496" stroke="#6C788E" stroke-width="1.5" stroke-linecap="round"/>
<path d="M10.8838 16.4114L17.313 16.4114" stroke="#6C788E" stroke-width="1.5" stroke-linecap="round"/>
<path d="M6.84961 26.1027L13.9285 26.1027" stroke="#6C788E" stroke-width="1.5" stroke-linecap="round"/>
<path d="M18.5405 26.1027H23.0525" stroke="#6C788E" stroke-width="1.5" stroke-linecap="round"/>
<path d="M14.7505 21.3496H18.0641" stroke="#6C788E" stroke-width="1.5" stroke-linecap="round"/>
<path d="M21.4175 21.3496H23.9903" stroke="#6C788E" stroke-width="1.5" stroke-linecap="round"/>
<path d="M6.71469 16.4114C4.30143 16.4114 2.34351 14.4458 2.34351 12.0231C2.34351 10.0804 3.60933 8.44846 5.35325 7.87249C5.29405 7.55708 5.25763 7.2371 5.25763 6.9034C5.25763 4.07385 7.53884 1.78369 10.3573 1.78369C12.3289 1.78369 14.0182 2.91734 14.8651 4.56296C15.5345 3.76301 16.5225 3.24647 17.6426 3.24647C19.6552 3.24647 21.2853 4.88295 21.2853 6.9034C21.2853 7.15939 21.2625 7.40623 21.2124 7.64393C21.2352 7.64393 21.258 7.63479 21.2853 7.63479C23.6986 7.63479 25.6565 9.60039 25.6565 12.0231C25.6565 14.4458 23.6986 16.4114 21.2853 16.4114" stroke="#D4D4DE" stroke-width="1.5" stroke-linecap="round" stroke-linejoin="round"/>
</svg>
