<svg width="28" height="28" viewBox="0 0 28 28" fill="none" xmlns="http://www.w3.org/2000/svg">
<g clip-path="url(#clip0_2623_59011)">
<path d="M13.9156 6.60234C14.519 7.40687 15.9268 7.85943 15.4242 11.7144C14.5721 11.896 12.6165 12.3597 11.6108 12.762C10.6052 13.1643 10.242 15.5276 10.1862 16.6589L8.42626 17.916C5.44282 18.2847 3.27236 15.0527 2.56006 13.3905C4.65518 13.642 7.1693 12.5525 9.09681 11.3373C10.6388 10.3652 11.1081 6.46268 11.15 4.63293C11.8204 4.95419 13.3122 5.79782 13.9156 6.60234Z" fill="#F091FF" fill-opacity="0.3"/>
<path d="M22.8886 16.3557C22.9069 16.3557 22.9251 16.3484 22.9469 16.3484C24.8779 16.3484 26.4446 17.9212 26.4446 19.8598C26.4446 21.7983 24.8779 23.3711 22.9469 23.3711H21.8611H11.2882C9.35718 23.3711 7.79053 21.7983 7.79053 19.8598C7.79053 18.3053 8.80338 16.9995 10.1988 16.5386C10.1514 16.2862 10.1223 16.0302 10.1223 15.7632C10.1223 13.4991 11.9476 11.6666 14.2029 11.6666C15.7804 11.6666 17.1321 12.5737 17.8098 13.8905C18.3454 13.2504 19.136 12.8371 20.0322 12.8371C21.6426 12.8371 22.9469 14.1465 22.9469 15.7632C22.9469 15.968 22.9287 16.1655 22.8886 16.3557Z" fill="#F091FF" fill-opacity="0.3" stroke="#D580FF" stroke-width="1.5" stroke-linecap="round" stroke-linejoin="round"/>
<path d="M10.3279 4.23025C11.3926 4.56866 12.3551 5.16951 13.1267 5.97747C13.8982 6.78544 14.4541 7.77455 14.7431 8.85372M2.30754 13.2709C2.74165 14.3003 3.42779 15.2039 4.30277 15.8986C4.8984 16.3715 5.56851 16.7372 6.28301 16.9822" stroke="#FF99FF" stroke-width="1.5" stroke-linecap="round"/>
<path d="M10.306 4.24134C10.7325 5.39649 10.8303 6.64727 10.5886 7.85467C10.3469 9.06207 9.77512 10.1788 8.93684 11.0808C8.09857 11.9827 7.02661 12.6346 5.84011 12.9639C4.6536 13.2932 3.39902 13.2871 2.21579 12.9462" stroke="#FF99FF" stroke-width="1.5" stroke-linecap="round"/>
</g>
<defs>
<clipPath id="clip0_2623_59011">
<rect width="28" height="28" fill="white"/>
</clipPath>
</defs>
</svg>
