<svg width="28" height="28" viewBox="0 0 28 28" fill="none" xmlns="http://www.w3.org/2000/svg">
<g clip-path="url(#clip0_2623_59005)">
<path d="M12.7646 12.1802C11.0539 12.7955 10.7585 14.562 9.81123 16.4565C9.10364 17.8717 7.53734 16.8631 6.80354 16.01C6.06975 15.1569 5.62622 14.0469 5.62622 12.8334C5.62622 10.1416 7.80834 7.95947 10.5001 7.95947C11.678 7.95947 12.7583 8.37732 13.6009 9.07288C14.6886 9.9708 14.4754 11.5649 12.7646 12.1802Z" fill="#F7D056"/>
<path d="M22.8886 16.3559C22.9069 16.3559 22.9251 16.3485 22.9469 16.3485C24.8779 16.3485 26.4446 17.9213 26.4446 19.8599C26.4446 21.7985 24.8779 23.3712 22.9469 23.3712H21.8611H11.2882C9.35718 23.3712 7.79053 21.7985 7.79053 19.8599C7.79053 18.3054 8.80338 16.9996 10.1988 16.5387C10.1514 16.2864 10.1223 16.0303 10.1223 15.7633C10.1223 13.4992 11.9476 11.6667 14.2029 11.6667C15.7804 11.6667 17.1321 12.5738 17.8098 13.8906C18.3454 13.2505 19.136 12.8372 20.0322 12.8372C21.6426 12.8372 22.9469 14.1466 22.9469 15.7633C22.9469 15.9682 22.9287 16.1657 22.8886 16.3559Z" fill="#F3F4F7" stroke="#D4D4DE" stroke-width="1.5" stroke-linecap="round" stroke-linejoin="round"/>
<path d="M6.91977 15.8265C6.177 14.938 5.79113 13.805 5.83719 12.6478C5.88324 11.4906 6.35793 10.3919 7.16897 9.56525C7.98001 8.73856 9.06946 8.24298 10.2256 8.17483C11.3816 8.10669 12.5218 8.47084 13.4243 9.19652" stroke="#FEB800" stroke-width="1.5" stroke-linecap="round"/>
<path d="M16.634 7.03809L18.133 5.62159" stroke="#FEB800" stroke-width="1.5" stroke-linecap="round"/>
<path d="M3.19238 20.3964L4.6913 18.9799" stroke="#FEB800" stroke-width="1.5" stroke-linecap="round"/>
<path d="M4.77466 7.03809L3.27574 5.62159" stroke="#FEB800" stroke-width="1.5" stroke-linecap="round"/>
<path d="M10.7354 5.07581V3.01347" stroke="#FEB800" stroke-width="1.5" stroke-linecap="round"/>
<path d="M0.64624 12.9987H2.70858" stroke="#FEB800" stroke-width="1.5" stroke-linecap="round"/>
</g>
<defs>
<clipPath id="clip0_2623_59005">
<rect width="28" height="28" fill="white"/>
</clipPath>
</defs>
</svg>
