<svg width="28" height="28" viewBox="0 0 28 28" fill="none" xmlns="http://www.w3.org/2000/svg">
<g clip-path="url(#clip0_2623_58991)">
<path d="M21.8988 8.5953C21.9244 8.5953 21.95 8.585 21.9808 8.585C24.6983 8.585 26.9031 10.7984 26.9031 13.5266C26.9031 16.2548 24.6983 18.4682 21.9808 18.4682H20.4526H5.57317C2.85565 18.4682 0.650879 16.2548 0.650879 13.5266C0.650879 11.3389 2.07629 9.50126 4.04008 8.85267C3.97342 8.49749 3.9324 8.13717 3.9324 7.7614C3.9324 4.57511 6.50122 1.99622 9.67507 1.99622C11.8952 1.99622 13.7975 3.27279 14.7512 5.12589C15.5049 4.22508 16.6175 3.64341 17.8789 3.64341C20.1452 3.64341 21.9808 5.48621 21.9808 7.7614C21.9808 8.04966 21.9552 8.32763 21.8988 8.5953Z" fill="#F3F4F7"/>
<path d="M5.97129 18.1716C3.3045 18.1716 1.14087 15.9803 1.14087 13.2794C1.14087 11.1136 2.53968 9.29434 4.46681 8.65224C4.4014 8.30062 4.36115 7.9439 4.36115 7.57189C4.36115 4.41747 6.88203 1.86438 9.99664 1.86438C12.1754 1.86438 14.0421 3.12819 14.978 4.96274C15.7177 4.07095 16.8095 3.4951 18.0473 3.4951C20.2713 3.4951 22.0727 5.31946 22.0727 7.57189C22.0727 7.85727 22.0475 8.13245 21.9922 8.39745C22.0173 8.39745 22.0425 8.38725 22.0727 8.38725C24.7395 8.38725 26.9031 10.5785 26.9031 13.2794C26.9031 15.9803 24.7395 18.1716 22.0727 18.1716H20.5731" stroke="#D4D4DE" stroke-width="1.5" stroke-linecap="round" stroke-linejoin="round"/>
<path d="M11.8215 23.808L15.6101 15.527" stroke="#6A9CFF" stroke-width="1.5" stroke-linecap="round"/>
<path d="M6.49414 26.3999L10.2827 18.1189" stroke="#6A9CFF" stroke-width="1.5" stroke-linecap="round"/>
<path d="M16.8728 23.5222L18.1357 20.9742" stroke="#6A9CFF" stroke-width="1.5" stroke-linecap="round"/>
</g>
<defs>
<clipPath id="clip0_2623_58991">
<rect width="28" height="28" fill="white"/>
</clipPath>
</defs>
</svg>
