<svg width="28" height="28" viewBox="0 0 28 28" fill="none" xmlns="http://www.w3.org/2000/svg">
<g clip-path="url(#clip0_2623_58997)">
<path d="M13.8155 4.1231C14.419 4.92762 15.8267 5.38018 15.3241 9.23519C14.472 9.41677 12.5164 9.8805 11.5107 10.2828C10.5051 10.685 10.1419 13.0483 10.0861 14.1797L8.32617 15.4368C5.34272 15.8055 3.17226 12.5734 2.45996 10.9113C4.55508 11.1627 7.0692 10.0732 8.99671 8.85808C10.5387 7.88594 11.008 3.98343 11.0499 2.15369C11.7203 2.47494 13.2121 3.31857 13.8155 4.1231Z" fill="#F091FF" fill-opacity="0.3"/>
<path d="M23.0309 13.9564C23.0493 13.9564 23.0677 13.949 23.0897 13.949C25.0389 13.949 26.6203 15.5367 26.6203 17.4935C26.6203 19.4503 25.0389 21.0379 23.0897 21.0379H21.9936H11.3211C9.37193 21.0379 7.79053 19.4503 7.79053 17.4935C7.79053 15.9243 8.81293 14.6062 10.2215 14.141C10.1737 13.8863 10.1442 13.6278 10.1442 13.3583C10.1442 11.0729 11.9868 9.22314 14.2633 9.22314C15.8557 9.22314 17.2201 10.1388 17.9042 11.4679C18.4448 10.8218 19.2429 10.4046 20.1476 10.4046C21.7731 10.4046 23.0897 11.7264 23.0897 13.3583C23.0897 13.5651 23.0713 13.7644 23.0309 13.9564Z" fill="#F091FF" fill-opacity="0.3"/>
<path d="M11.2882 21.0379C9.35718 21.0379 7.79053 19.4651 7.79053 17.5265C7.79053 15.972 8.80338 14.6662 10.1988 14.2054C10.1514 13.953 10.1223 13.697 10.1223 13.4299C10.1223 11.1659 11.9476 9.33337 14.2029 9.33337C15.7804 9.33337 17.1321 10.2405 17.8098 11.5572C18.3454 10.9171 19.136 10.5038 20.0322 10.5038C21.6426 10.5038 22.9469 11.8133 22.9469 13.4299C22.9469 13.6348 22.9287 13.8323 22.8886 14.0225C22.9069 14.0225 22.9251 14.0152 22.9469 14.0152C24.8779 14.0152 26.4446 15.588 26.4446 17.5265C26.4446 19.4651 24.8779 21.0379 22.9469 21.0379H21.8611" stroke="#D580FF" stroke-width="1.5" stroke-linecap="round" stroke-linejoin="round"/>
<path d="M15.5242 25.0833L18.2674 19.1396" stroke="#6A9CFF" stroke-width="1.5" stroke-linecap="round"/>
<path d="M11.6667 26.9437L14.41 21" stroke="#6A9CFF" stroke-width="1.5" stroke-linecap="round"/>
<path d="M19.1816 24.8784L20.0961 23.0496" stroke="#6A9CFF" stroke-width="1.5" stroke-linecap="round"/>
<path d="M10.3279 1.897C11.3926 2.23541 12.3551 2.83626 13.1267 3.64422C13.8982 4.45219 14.4541 5.4413 14.7431 6.52047M2.30754 10.9377C2.74165 11.9671 3.42779 12.8707 4.30277 13.5653C4.8984 14.0382 5.56851 14.4039 6.28301 14.6489" stroke="#FF99FF" stroke-width="1.5" stroke-linecap="round"/>
<path d="M10.306 1.90797C10.7325 3.06312 10.8303 4.31389 10.5886 5.52129C10.3469 6.72869 9.77512 7.84543 8.93684 8.74739C8.09857 9.64934 7.02661 10.3012 5.84011 10.6305C4.6536 10.9598 3.39902 10.9537 2.21579 10.6128" stroke="#FF99FF" stroke-width="1.5" stroke-linecap="round"/>
</g>
<defs>
<clipPath id="clip0_2623_58997">
<rect width="28" height="28" fill="white"/>
</clipPath>
</defs>
</svg>
