<svg width="28" height="28" viewBox="0 0 28 28" fill="none" xmlns="http://www.w3.org/2000/svg">
<path d="M22.1112 8.35071C22.1359 8.35071 22.1606 8.3408 22.1902 8.3408C24.807 8.3408 26.9301 10.4722 26.9301 13.0992C26.9301 15.7263 24.807 17.8577 22.1902 17.8577H20.7187H6.39073C3.77394 17.8577 1.65088 15.7263 1.65088 13.0992C1.65088 10.9926 3.02346 9.22309 4.91446 8.59854C4.85028 8.25653 4.81078 7.90956 4.81078 7.54772C4.81078 4.47952 7.28439 1.99622 10.3406 1.99622C12.4785 1.99622 14.3102 3.22548 15.2286 5.00989C15.9544 4.14247 17.0258 3.58236 18.2403 3.58236C20.4226 3.58236 22.1902 5.35686 22.1902 7.54772C22.1902 7.8253 22.1655 8.09296 22.1112 8.35071Z" fill="#F091FF" fill-opacity="0.3"/>
<path d="M5.96778 17.8577C3.30872 17.8577 1.15137 15.6919 1.15137 13.0224C1.15137 10.8817 2.54612 9.08361 4.46767 8.44897C4.40245 8.10144 4.36231 7.74886 4.36231 7.38118C4.36231 4.26341 6.87588 1.73999 9.98146 1.73999C12.1539 1.73999 14.0152 2.98911 14.9484 4.80235C15.6859 3.92091 16.7746 3.35176 18.0088 3.35176C20.2264 3.35176 22.0225 5.15492 22.0225 7.38118C22.0225 7.66324 21.9974 7.93522 21.9422 8.19713C21.9673 8.19713 21.9924 8.18706 22.0225 8.18706C24.6816 8.18706 26.8389 10.3529 26.8389 13.0224C26.8389 15.6919 24.6816 17.8577 22.0225 17.8577H20.4048" stroke="#D580FF" stroke-width="1.5" stroke-linecap="round" stroke-linejoin="round"/>
<path d="M11.4362 12.2723L8.9021 17.9894H12.7726L9.36276 25.547" stroke="#FEB800" stroke-width="1.5" stroke-linecap="round" stroke-linejoin="round"/>
<path d="M16.9806 13.6941L15.1729 17.7724H17.9339L15.5015 23.1636" stroke="#FEB800" stroke-width="1.5" stroke-linecap="round" stroke-linejoin="round"/>
</svg>
