<svg width="28" height="28" viewBox="0 0 28 28" fill="none" xmlns="http://www.w3.org/2000/svg">
<path d="M20.0704 9.1221C20.0934 9.1221 20.1165 9.11284 20.1441 9.11284C22.587 9.11284 24.569 11.1026 24.569 13.5551C24.569 16.0076 22.587 17.9974 20.1441 17.9974H18.7704H5.3944C2.95148 17.9974 0.969482 16.0076 0.969482 13.5551C0.969482 11.5885 2.25086 9.93651 4.01622 9.35346C3.9563 9.03418 3.91943 8.71026 3.91943 8.37246C3.91943 5.50813 6.22868 3.18982 9.08183 3.18982C11.0776 3.18982 12.7877 4.3374 13.645 6.00325C14.3226 5.19347 15.3228 4.67057 16.4567 4.67057C18.494 4.67057 20.1441 6.32717 20.1441 8.37246C20.1441 8.6316 20.1211 8.88147 20.0704 9.1221Z" fill="#F091FF" fill-opacity="0.3"/>
<path d="M5.3944 17.9974C2.95148 17.9974 0.969482 16.0076 0.969482 13.5551C0.969482 11.5885 2.25086 9.93651 4.01622 9.35346C3.9563 9.03418 3.91943 8.71026 3.91943 8.37246C3.91943 5.50813 6.22868 3.18982 9.08183 3.18982C11.0776 3.18982 12.7877 4.3374 13.645 6.00325C14.3226 5.19347 15.3228 4.67057 16.4567 4.67057C18.494 4.67057 20.1441 6.32717 20.1441 8.37246C20.1441 8.6316 20.1211 8.88147 20.0704 9.1221C20.0934 9.1221 20.1165 9.11284 20.1441 9.11284C22.587 9.11284 24.569 11.1026 24.569 13.5551" stroke="#D580FF" stroke-width="1.5" stroke-linecap="round" stroke-linejoin="round"/>
<path d="M21.4914 15.2128C21.4914 14.6732 21.3313 14.1457 21.0315 13.697C20.7317 13.2483 20.3056 12.8986 19.807 12.6921C19.3085 12.4856 18.7599 12.4315 18.2306 12.5368C17.7014 12.6421 17.2152 12.9019 16.8336 13.2835C16.452 13.6651 16.1922 14.1513 16.0869 14.6805C15.9816 15.2098 16.0357 15.7584 16.2422 16.2569C16.4487 16.7555 16.7984 17.1816 17.2471 17.4814C17.6958 17.7812 18.2233 17.9413 18.7629 17.9413H26.2273" stroke="#9966FF" stroke-width="1.5" stroke-linecap="round"/>
<path d="M12.4832 18.9066C12.4832 18.4771 12.3558 18.0572 12.1172 17.7C11.8785 17.3428 11.5393 17.0645 11.1424 16.9001C10.7456 16.7357 10.3089 16.6927 9.88758 16.7765C9.46627 16.8603 9.07928 17.0671 8.77553 17.3709C8.47179 17.6746 8.26494 18.0616 8.18113 18.4829C8.09733 18.9042 8.14034 19.3409 8.30473 19.7378C8.46911 20.1346 8.74749 20.4739 9.10465 20.7125C9.46182 20.9512 9.88173 21.0785 10.3113 21.0785H23.4062" stroke="#9966FF" stroke-width="1.5" stroke-linecap="round"/>
<path d="M14.1693 21.0897C13.8656 21.0897 13.5677 21.1728 13.3079 21.3302C13.0481 21.4875 12.8364 21.7129 12.6956 21.982C12.5549 22.2512 12.4906 22.5537 12.5096 22.8568C12.5286 23.1599 12.6302 23.452 12.8035 23.7014C12.9768 23.9509 13.215 24.1481 13.4924 24.2717C13.7698 24.3953 14.0758 24.4406 14.3771 24.4026C14.6784 24.3647 14.9636 24.2449 15.2017 24.0564C15.4398 23.8678 15.6217 23.6177 15.7277 23.3331" stroke="#9966FF" stroke-width="1.5" stroke-linecap="round"/>
<path d="M18.9534 24.6799L26.0941 24.6799" stroke="#9966FF" stroke-width="1.5" stroke-linecap="round"/>
</svg>
