<svg width="120" height="120" viewBox="0 0 120 120" fill="none" xmlns="http://www.w3.org/2000/svg">
<path d="M92.3125 41.32C92.1895 41.32 92.0869 41.3611 91.9844 41.3611C92.21 40.2919 92.3125 39.1815 92.3125 38.03C92.3125 28.9414 84.9707 21.58 75.9062 21.58C70.8613 21.58 66.4111 23.9036 63.3965 27.502C59.582 20.0995 51.9736 15 43.0938 15C30.3994 15 20.125 25.3018 20.125 38.03C20.125 39.5311 20.2891 40.9704 20.5557 42.3893C12.7012 44.9801 7 52.3209 7 61.06C7 71.9581 15.8184 80.8 26.6875 80.8H92.3125C103.182 80.8 112 71.9581 112 61.06C112 50.1619 103.182 41.32 92.3125 41.32Z" fill="#D4D4DE"/>
<rect x="28" y="73.8" width="35" height="7" rx="3" fill="#90929E"/>
<rect x="12.6" y="86.4" width="35" height="7" rx="3" fill="#D4D4DE"/>
<rect x="71.4" y="73.8" width="22.4" height="7" rx="3" fill="#90929E"/>
<rect x="56" y="86.4" width="22.4" height="7" rx="3" fill="#D4D4DE"/>
<rect x="28" y="99" width="36.4" height="7" rx="3" fill="#D4D4DE"/>
<rect x="89.6" y="86.4" width="18.2" height="7" rx="3" fill="#D4D4DE"/>
<rect x="75.6" y="99" width="18.2" height="7" rx="3" fill="#D4D4DE"/>
</svg>
