<svg width="120" height="120" viewBox="0 0 120 120" fill="none" xmlns="http://www.w3.org/2000/svg">
<path fill-rule="evenodd" clip-rule="evenodd" d="M75.9375 2.30619C75.1375 2.26139 74.6659 3.15932 75.0763 3.84743C79.7006 11.6008 80.3443 21.4921 75.9131 30.1128C71.4819 38.7335 63.0638 43.9669 54.0675 44.7189C53.2691 44.7856 52.8134 45.6918 53.3154 46.3162C55.6203 49.1833 58.5503 51.6243 62.0332 53.4146C75.3296 60.2493 91.649 55.011 98.4837 41.7146C105.318 28.4181 100.08 12.0987 86.7836 5.26408C83.3007 3.4738 79.6104 2.51189 75.9375 2.30619Z" fill="#FF99FF"/>
<path d="M87.9375 43.4125C87.8309 43.4125 87.742 43.4478 87.6531 43.4478C87.8486 42.5306 87.9375 41.5781 87.9375 40.5904C87.9375 32.7942 81.5746 26.4796 73.7188 26.4796C69.3465 26.4796 65.4896 28.4728 62.877 31.5595C59.5711 25.2097 52.9771 20.8353 45.2812 20.8353C34.2795 20.8353 25.375 29.6722 25.375 40.5904C25.375 41.878 25.5172 43.1127 25.7482 44.3297C18.941 46.5522 14 52.8491 14 60.3455C14 69.6938 21.6426 77.2784 31.0625 77.2784H87.9375C97.3574 77.2784 105 69.6938 105 60.3455C105 50.9971 97.3574 43.4125 87.9375 43.4125Z" fill="#D580FF"/>
<rect x="41.168" y="69.2151" width="4.04563" height="17.2785" rx="1" fill="#D580FF"/>
<rect width="4.06056" height="17.2151" rx="1" transform="matrix(0.498161 -0.867085 0.86496 0.501841 34.7341 75.2952)" fill="#D580FF"/>
<rect width="4.06056" height="17.2151" rx="1" transform="matrix(-0.498161 -0.867085 -0.86496 0.501841 52.0127 74.7687)" fill="#D580FF"/>
<rect x="73.4211" y="69.2151" width="4.04563" height="17.2785" rx="1" fill="#D580FF"/>
<rect width="4.06056" height="17.2151" rx="1" transform="matrix(0.498161 -0.867085 0.86496 0.501841 66.9873 75.2952)" fill="#D580FF"/>
<rect width="4.06056" height="17.2151" rx="1" transform="matrix(-0.498161 -0.867085 -0.86496 0.501841 84.2659 74.7687)" fill="#D580FF"/>
<rect x="57.2947" y="86.4937" width="4.04563" height="17.2785" rx="1" fill="#D580FF"/>
<rect width="4.06056" height="17.2151" rx="1" transform="matrix(0.498161 -0.867085 0.86496 0.501841 50.8608 92.5737)" fill="#D580FF"/>
<rect width="4.06056" height="17.2151" rx="1" transform="matrix(-0.498161 -0.867085 -0.86496 0.501841 68.1394 92.0472)" fill="#D580FF"/>
<path fill-rule="evenodd" clip-rule="evenodd" d="M47.6126 77.4291L52.0364 74.8751L50.022 71.3862L45.2658 74.1322V69.3718H41.2371V74.4438L36.8447 71.9078L34.8303 75.3967L38.3505 77.4291H47.6126Z" fill="#9966FF"/>
<path fill-rule="evenodd" clip-rule="evenodd" d="M79.8421 77.4291L84.2658 74.8751L82.2515 71.3862L77.4953 74.1322V69.3718H73.4666V74.4438L69.0741 71.9078L67.0598 75.3967L70.58 77.4291H79.8421Z" fill="#9966FF"/>
<path fill-rule="evenodd" clip-rule="evenodd" d="M96.1352 45.4929C93.702 44.1669 90.9082 43.4126 87.9375 43.4126C87.8818 43.4126 87.8309 43.4223 87.7823 43.4315C87.738 43.4399 87.6956 43.4479 87.6532 43.4479C87.8487 42.5307 87.9375 41.5782 87.9375 40.5905C87.9375 34.0226 83.4216 28.5062 77.3016 26.931C76.9119 28.0062 76.4497 29.0688 75.9131 30.1128C71.4819 38.7335 63.0637 43.9669 54.0674 44.7189C53.269 44.7857 52.8133 45.6918 53.3153 46.3162C55.6203 49.1833 58.5503 51.6244 62.0332 53.4146C73.9865 59.5589 88.3831 55.946 96.1352 45.4929Z" fill="#9966FF"/>
<path d="M45.3671 99.9115C43.8076 105.238 40.4937 106.678 40.4937 110.433C40.4937 113.756 43.1131 116.443 46.3418 116.443C49.5704 116.443 52.1899 113.756 52.1899 110.433C52.1899 106.666 48.8759 105.262 47.3164 99.9115C47.0484 98.9397 45.6717 98.8917 45.3671 99.9115Z" fill="#D580FF"/>
<path d="M70.7089 99.9115C69.1494 105.238 65.8354 106.678 65.8354 110.433C65.8354 113.756 68.4549 116.443 71.6835 116.443C74.9122 116.443 77.5317 113.756 77.5317 110.433C77.5317 106.666 74.2177 105.262 72.6582 99.9115C72.3902 98.9397 71.0135 98.8917 70.7089 99.9115Z" fill="#D580FF"/>
</svg>
