<svg width="120" height="120" viewBox="0 0 120 120" fill="none" xmlns="http://www.w3.org/2000/svg">
<path d="M50.3888 41.5982C50.3888 52.8606 59.5505 62.0223 70.8129 62.0223C82.0753 62.0223 91.237 52.8606 91.237 41.5982C91.237 30.3358 82.0753 21.1741 70.8129 21.1741C59.5505 21.1741 50.3888 30.3358 50.3888 41.5982ZM66.7256 3.80713C66.7256 2.15027 68.0688 0.807129 69.7256 0.807129H71.8839C73.5407 0.807129 74.8839 2.15027 74.8839 3.80713V10.0445C74.8839 11.7013 73.5407 13.0445 71.8839 13.0445H69.7256C68.0688 13.0445 66.7256 11.7013 66.7256 10.0445V3.80713ZM30.0137 40.5191C30.0137 38.8622 31.3568 37.5191 33.0137 37.5191H39.251C40.9079 37.5191 42.251 38.8622 42.251 40.5191V42.6773C42.251 44.3342 40.9078 45.6773 39.251 45.6773H33.0137C31.3568 45.6773 30.0137 44.3342 30.0137 42.6773V40.5191ZM99.3585 40.5191C99.3585 38.8622 100.702 37.5191 102.359 37.5191H108.596C110.253 37.5191 111.596 38.8622 111.596 40.5191V42.6773C111.596 44.3342 110.253 45.6773 108.596 45.6773H102.358C100.702 45.6773 99.3585 44.3342 99.3585 42.6773V40.5191ZM90.2296 20.6481C89.0581 19.4765 89.0581 17.577 90.2296 16.4055L94.6429 11.9922C95.8144 10.8207 97.7139 10.8207 98.8855 11.9922L100.411 13.5174C101.582 14.689 101.582 16.5885 100.411 17.7601L95.9975 22.1733C94.8259 23.3449 92.9264 23.3449 91.7549 22.1733L90.2296 20.6481ZM49.8551 22.1769C48.6834 23.3487 46.7835 23.3484 45.612 22.1764L41.2026 17.7649C40.0312 16.593 40.0318 14.6933 41.2038 13.522L42.7311 11.9958C43.9032 10.8245 45.8029 10.8253 46.974 11.9976L51.3819 16.4095C52.5525 17.5813 52.552 19.48 51.3809 20.6512L49.8551 22.1769Z" fill="#F7D056"/>
<path d="M88.3417 53.4647C88.2273 53.4647 88.1319 53.5026 88.0366 53.5026C88.2464 52.5183 88.3417 51.4963 88.3417 50.4363C88.3417 42.0703 81.5138 35.2942 73.0837 35.2942C68.3919 35.2942 64.2531 37.433 61.4495 40.7453C57.902 33.9314 50.8261 29.2373 42.5677 29.2373C30.7618 29.2373 21.2064 38.7201 21.2064 50.4363C21.2064 51.818 21.359 53.143 21.6069 54.449C14.3022 56.8339 9 63.591 9 71.6353C9 81.667 17.2012 89.8059 27.3096 89.8059H88.3417C98.4502 89.8059 106.651 81.667 106.651 71.6353C106.651 61.6036 98.4502 53.4647 88.3417 53.4647Z" fill="#D4D4DE"/>
<path fill-rule="evenodd" clip-rule="evenodd" d="M70.813 62.0222C59.5506 62.0222 50.3889 52.8605 50.3889 41.5981C50.3889 38.0862 51.2798 34.7785 52.8474 31.8892C56.5142 33.9265 59.5095 37.0189 61.4495 40.7452C64.2531 37.4329 68.3919 35.2941 73.0837 35.2941C81.5138 35.2941 88.3418 42.0702 88.3418 50.4362C88.3418 51.0488 88.3099 51.6488 88.2425 52.2361C84.6497 58.1012 78.1809 62.0222 70.813 62.0222Z" fill="#FEB800"/>
<rect x="52.0662" y="79.917" width="3.76248" height="16.0692" rx="1" fill="white"/>
<rect width="3.77637" height="16.0103" rx="1" transform="matrix(0.498161 -0.867085 0.86496 0.501841 46.0828 85.5715)" fill="white"/>
<rect width="3.77637" height="16.0103" rx="1" transform="matrix(-0.498161 -0.867085 -0.86496 0.501841 62.1519 85.082)" fill="white"/>
<path fill-rule="evenodd" clip-rule="evenodd" d="M61.1271 89.8058C61.0731 89.7556 61.0126 89.7107 60.9461 89.6723L57.4578 87.6584L61.2858 85.4483C61.7641 85.1721 61.928 84.5605 61.6518 84.0822L60.7706 82.5559C60.4945 82.0776 59.8829 81.9137 59.4046 82.1898L55.8286 84.2544V80.8086C55.8286 80.2563 55.3809 79.8086 54.8286 79.8086H53.0661C52.5138 79.8086 52.0661 80.2563 52.0661 80.8086V84.5455L48.8299 82.677C48.3516 82.4009 47.74 82.5648 47.4639 83.0431L46.5826 84.5694C46.3065 85.0477 46.4704 85.6593 46.9487 85.9354L49.9328 87.6584L47.2884 89.1851C47.0449 89.3257 46.8829 89.5532 46.819 89.8058H61.1271Z" fill="#D4D4DE"/>
<rect x="32.2888" y="100.931" width="3.76248" height="16.0692" rx="1" fill="white"/>
<rect width="3.77637" height="16.0103" rx="1" transform="matrix(0.498161 -0.867085 0.86496 0.501841 26.3054 106.585)" fill="white"/>
<rect width="3.77637" height="16.0103" rx="1" transform="matrix(-0.498161 -0.867085 -0.86496 0.501841 42.3745 106.096)" fill="white"/>
<rect x="71.8438" y="100.931" width="3.76248" height="16.0692" rx="1" fill="white"/>
<rect width="3.77637" height="16.0103" rx="1" transform="matrix(0.498161 -0.867085 0.86496 0.501841 65.8604 106.585)" fill="white"/>
<rect width="3.77637" height="16.0103" rx="1" transform="matrix(-0.498161 -0.867085 -0.86496 0.501841 81.9294 106.096)" fill="white"/>
</svg>
