<svg width="120" height="120" viewBox="0 0 120 120" fill="none" xmlns="http://www.w3.org/2000/svg">
<path d="M91.8348 38.9368C91.7135 38.9368 91.6125 38.9773 91.5114 38.9773C91.7337 37.9237 91.8348 36.8295 91.8348 35.6947C91.8348 26.7384 84.5999 19.4842 75.6674 19.4842C70.6959 19.4842 66.3105 21.7739 63.3397 25.32C59.5808 18.0253 52.0832 13 43.3326 13C30.823 13 20.6982 23.1518 20.6982 35.6947C20.6982 37.1739 20.8599 38.5924 21.1226 39.9905C13.3825 42.5437 7.76428 49.7776 7.76428 58.3894C7.76428 69.1289 16.4543 77.8421 27.1652 77.8421H91.8348C102.546 77.8421 111.236 69.1289 111.236 58.3894C111.236 47.65 102.546 38.9368 91.8348 38.9368Z" fill="#D4D4DE"/>
<path d="M46.7953 59.907L85.9832 59.907C86.7888 59.9068 87.5643 59.6204 88.1529 59.1059C88.7415 58.5913 89.0994 57.8869 89.1543 57.1349C89.2093 56.383 88.957 55.6395 88.4487 55.0548C87.9403 54.4702 87.2137 54.0878 86.4157 53.9851L85.9832 53.9573L46.7953 53.9573C44.6992 53.9573 42.6501 53.3757 40.9073 52.2861C39.1644 51.1965 37.806 49.6479 37.0038 47.8359C36.2017 46.024 35.9918 44.0302 36.4007 42.1066C36.8097 40.1831 37.819 38.4162 39.3012 37.0294C40.7834 35.6426 42.6718 34.6982 44.7277 34.3156C46.7835 33.933 48.9145 34.1293 50.8511 34.8799C52.7876 35.6304 54.4428 36.9014 55.6074 38.5321C56.7719 40.1628 57.3935 42.0799 57.3935 44.0412C57.3935 44.8302 57.7285 45.5868 58.3248 46.1447C58.921 46.7026 59.7297 47.016 60.573 47.016C61.4162 47.016 62.2249 46.7026 62.8212 46.1447C63.4175 45.5868 63.7524 44.8302 63.7524 44.0412C63.7524 40.9406 62.7813 37.9079 60.9592 35.3181C59.1371 32.7282 56.5439 30.6946 53.5001 29.4687C50.4562 28.2427 47.0952 27.8781 43.8323 28.4199C40.5694 28.9617 37.5477 30.3861 35.1406 32.5172C32.7335 34.6482 31.0465 37.3925 30.2882 40.4108C29.5298 43.4292 29.7333 46.5893 30.8735 49.5006C32.0137 52.4118 34.0406 54.9468 36.7038 56.792C39.3669 58.6372 42.5496 59.7119 45.8584 59.8832L46.7911 59.907L85.9875 59.907L46.7953 59.907Z" fill="#90929E"/>
<path d="M41.4339 70.9438H84.173C85.0516 70.9441 85.8973 71.2739 86.5392 71.8665C87.1812 72.4591 87.5716 73.2704 87.6315 74.1365C87.6913 75.0026 87.4163 75.8588 86.8618 76.5322C86.3074 77.2056 85.515 77.646 84.6446 77.7643L84.173 77.7963H41.4339C39.1479 77.7963 36.9131 78.4661 35.0123 79.721C33.1115 80.9759 31.63 82.7596 30.7552 84.8465C29.8803 86.9334 29.6514 89.2297 30.0974 91.4451C30.5434 93.6605 31.6443 95.6955 33.2608 97.2927C34.8773 98.8899 36.9368 99.9777 39.179 100.418C41.4211 100.859 43.7452 100.633 45.8572 99.7684C47.9693 98.904 49.7745 97.4402 51.0446 95.5621C52.3146 93.6839 52.9925 91.4758 52.9925 89.217C52.9925 88.3083 53.3579 87.4369 54.0082 86.7943C54.6585 86.1518 55.5404 85.7908 56.4601 85.7908C57.3798 85.7908 58.2618 86.1518 58.9121 86.7943C59.5624 87.4369 59.9277 88.3083 59.9277 89.217C59.9276 92.7881 58.8685 96.2809 56.8813 99.2637C54.8941 102.247 52.0659 104.589 48.7463 106.001C45.4266 107.413 41.761 107.833 38.2024 107.209C34.6438 106.585 31.3483 104.944 28.7231 102.49C26.0978 100.035 24.258 96.8745 23.4309 93.3982C22.6039 89.9219 22.8258 86.2823 24.0693 82.9293C25.3129 79.5762 27.5235 76.6567 30.4279 74.5315C33.3324 72.4063 36.8035 71.1685 40.4122 70.9712L41.4293 70.9438H84.1776H41.4339Z" fill="#D4D4DE"/>
<path fill-rule="evenodd" clip-rule="evenodd" d="M40.4012 77.842C40.7435 77.8116 41.0881 77.7963 41.4338 77.7963H84.1729L84.6445 77.7643C85.5148 77.646 86.3073 77.2056 86.8617 76.5322C87.4162 75.8588 87.6912 75.0026 87.6313 74.1365C87.5715 73.2705 87.1811 72.4592 86.5391 71.8665C85.8972 71.2739 85.0514 70.9441 84.1729 70.9438H41.4338H41.4292L40.412 70.9713C36.8034 71.1686 33.3323 72.4063 30.4278 74.5315C29.1241 75.4855 27.9601 76.5995 26.9607 77.8409C27.0288 77.8416 27.097 77.842 27.1652 77.842H40.4012Z" fill="#90929E"/>
<rect x="68.4675" y="84.7402" width="38.6293" height="6.89809" rx="3" fill="#D4D4DE"/>
</svg>
