<svg width="120" height="120" viewBox="0 0 120 120" fill="none" xmlns="http://www.w3.org/2000/svg">
<path d="M37.4775 59.979C37.4775 72.3977 47.5845 82.5 60.009 82.5C72.4335 82.5 82.5405 72.3977 82.5405 59.979C82.5405 47.5603 72.4335 37.458 60.009 37.458C47.5845 37.458 37.4775 47.5603 37.4775 59.979ZM55.5 18C55.5 16.3431 56.8431 15 58.5 15H61.5C63.1569 15 64.5 16.3431 64.5 18V25.4937C64.5 27.1506 63.1569 28.4937 61.5 28.4937H58.5C56.8431 28.4937 55.5 27.1506 55.5 25.4937V18ZM15 58.4811C15 56.8243 16.3431 55.4811 18 55.4811H25.5C27.1569 55.4811 28.5 56.8243 28.5 58.4811V61.4769C28.5 63.1338 27.1569 64.4769 25.5 64.4769H18C16.3431 64.4769 15 63.1338 15 61.4769V58.4811ZM91.5 58.4811C91.5 56.8243 92.8431 55.4811 94.5 55.4811H102C103.657 55.4811 105 56.8243 105 58.4811V61.4769C105 63.1338 103.657 64.4769 102 64.4769H94.5C92.8431 64.4769 91.5 63.1338 91.5 61.4769V58.4811ZM81.2118 36.6607C80.0396 35.489 80.0396 33.5888 81.2118 32.4171L86.5172 27.1142C87.6886 25.9433 89.5874 25.9433 90.7588 27.1142L92.8782 29.2326C94.0504 30.4042 94.0504 32.3045 92.8782 33.4762L87.5728 38.7791C86.4014 39.95 84.5026 39.95 83.3312 38.7791L81.2118 36.6607ZM36.6693 38.7831C35.4977 39.9542 33.5986 39.954 32.4272 38.7826L27.1261 33.4814C25.954 32.3094 25.9546 30.4089 27.1273 29.2376L29.2492 27.1182C30.4211 25.9476 32.3201 25.9484 33.4911 27.1199L38.7902 32.4216C39.9615 33.5934 39.961 35.4929 38.7892 36.6642L36.6693 38.7831Z" fill="#FDF72A"/>
<path d="M37.4775 60.021C37.4775 47.6023 47.5845 37.5 60.009 37.5C72.4335 37.5 82.5405 47.6023 82.5405 60.021C82.5405 72.4397 72.4335 82.542 60.009 82.542C47.5845 82.542 37.4775 72.4397 37.4775 60.021ZM55.5 103C55.5 104.105 56.3954 105 57.5 105H62.5C63.6046 105 64.5 104.105 64.5 103V93.5063C64.5 92.4017 63.6046 91.5063 62.5 91.5063H57.5C56.3954 91.5063 55.5 92.4017 55.5 93.5063V103ZM15 62.5189C15 63.6235 15.8954 64.5189 17 64.5189H26.5C27.6046 64.5189 28.5 63.6235 28.5 62.5189V57.5231C28.5 56.4185 27.6046 55.5231 26.5 55.5231H17C15.8954 55.5231 15 56.4185 15 57.5231V62.5189ZM91.5 62.5189C91.5 63.6235 92.3954 64.5189 93.5 64.5189H103C104.105 64.5189 105 63.6235 105 62.5189V57.5231C105 56.4185 104.105 55.5231 103 55.5231H93.5C92.3954 55.5231 91.5 56.4185 91.5 57.5231V62.5189ZM80.5042 84.0466C79.7227 84.8277 79.7227 86.0945 80.5042 86.8757L87.2241 93.5924C88.0051 94.373 89.2709 94.373 90.0519 93.5924L93.5858 90.0602C94.3673 89.279 94.3673 88.0122 93.5858 87.2311L86.8659 80.5143C86.0849 79.7337 84.8191 79.7337 84.0381 80.5143L80.5042 84.0466ZM35.9622 80.5101C35.1811 79.7294 33.915 79.7296 33.1341 80.5105L26.4185 87.2261C25.6372 88.0075 25.6375 89.2744 26.4194 90.0553L29.9564 93.5883C30.7378 94.3687 32.0037 94.3681 32.7844 93.5871L39.4971 86.8712C40.278 86.0899 40.2777 84.8236 39.4965 84.0427L35.9622 80.5101Z" fill="#FDF72A"/>
<circle cx="60.0008" cy="60" r="23.5227" fill="#FDF72A"/>
</svg>
