<svg width="120" height="120" viewBox="0 0 120 120" fill="none" xmlns="http://www.w3.org/2000/svg">
<path d="M90.2793 32.6892C90.1639 32.6892 90.0677 32.7277 89.9715 32.7277C90.1831 31.7247 90.2793 30.6832 90.2793 29.603C90.2793 21.0775 83.3924 14.1723 74.8896 14.1723C70.1573 14.1723 65.9828 16.3519 63.155 19.7273C59.5769 12.7835 52.4399 8 44.1102 8C32.2025 8 22.5647 17.6635 22.5647 29.603C22.5647 31.0111 22.7186 32.3613 22.9687 33.6922C15.6008 36.1225 10.2529 43.0085 10.2529 51.206C10.2529 61.4289 18.5249 69.7229 28.7205 69.7229H90.2793C100.475 69.7229 108.747 61.4289 108.747 51.206C108.747 40.9832 100.475 32.6892 90.2793 32.6892Z" fill="white"/>
<circle cx="70.0059" cy="107.151" r="9.8494" fill="white"/>
<circle cx="41.7711" cy="82.8554" r="7.87952" fill="white"/>
<circle cx="75.2591" cy="69.0663" r="9.8494" fill="white"/>
<path fill-rule="evenodd" clip-rule="evenodd" d="M85.0869 69.7229C85.1012 69.5059 85.1085 69.2869 85.1085 69.0663C85.1085 63.6266 80.6987 59.2169 75.2591 59.2169C69.8194 59.2169 65.4097 63.6266 65.4097 69.0663C65.4097 69.2869 65.4169 69.5059 65.4312 69.7229H85.0869Z" fill="#D4D4DE"/>
</svg>
