<svg width="120" height="120" viewBox="0 0 120 120" fill="none" xmlns="http://www.w3.org/2000/svg">
<path d="M88.5625 31.592C88.4535 31.592 88.3627 31.6285 88.2719 31.6285C88.4717 30.6814 88.5625 29.6979 88.5625 28.678C88.5625 20.6281 82.0598 14.108 74.0312 14.108C69.5629 14.108 65.6213 16.166 62.9512 19.3532C59.5727 12.7967 52.8338 8.28003 44.9688 8.28003C33.7252 8.28003 24.625 17.4045 24.625 28.678C24.625 30.0075 24.7703 31.2824 25.0064 32.5391C18.0496 34.8339 13 41.3357 13 49.076C13 58.7287 20.8105 66.56 30.4375 66.56H88.5625C98.1895 66.56 106 58.7287 106 49.076C106 39.4234 98.1895 31.592 88.5625 31.592Z" fill="#D580FF"/>
<rect x="39.7659" y="57.88" width="4.35505" height="18.6" rx="1" fill="#FF99FF"/>
<rect width="4.37113" height="18.5318" rx="1" transform="matrix(0.498161 -0.867085 0.86496 0.501841 32.8401 64.425)" fill="#FF99FF"/>
<rect width="4.37113" height="18.5318" rx="1" transform="matrix(-0.498161 -0.867085 -0.86496 0.501841 51.4402 63.8584)" fill="#FF99FF"/>
<rect x="74.4858" y="57.88" width="4.35505" height="18.6" rx="1" fill="#FF99FF"/>
<rect width="4.37113" height="18.5318" rx="1" transform="matrix(0.498161 -0.867085 0.86496 0.501841 67.5601 64.425)" fill="#FF99FF"/>
<rect width="4.37113" height="18.5318" rx="1" transform="matrix(-0.498161 -0.867085 -0.86496 0.501841 86.1602 63.8584)" fill="#FF99FF"/>
<rect x="57.1257" y="76.48" width="4.35505" height="18.6" rx="1" fill="#FF99FF"/>
<rect width="4.37113" height="18.5318" rx="1" transform="matrix(0.498161 -0.867085 0.86496 0.501841 50.2 83.0251)" fill="#FF99FF"/>
<rect width="4.37113" height="18.5318" rx="1" transform="matrix(-0.498161 -0.867085 -0.86496 0.501841 68.8 82.4584)" fill="#FF99FF"/>
<path fill-rule="evenodd" clip-rule="evenodd" d="M46.7034 66.7222L50.5995 64.4728C51.0777 64.1967 51.2416 63.5851 50.9655 63.1068L49.7971 61.0831C49.5209 60.6048 48.9094 60.4409 48.4311 60.717L44.1771 63.1731V59.0486C44.1771 58.4964 43.7293 58.0486 43.1771 58.0486H40.8403C40.288 58.0486 39.8403 58.4964 39.8403 59.0486V63.5085L35.9779 61.2786C35.4996 61.0025 34.888 61.1663 34.6119 61.6446L33.4435 63.6683C33.1673 64.1466 33.3312 64.7582 33.8095 65.0344L36.7329 66.7222H46.7034Z" fill="#9966FF"/>
<path fill-rule="evenodd" clip-rule="evenodd" d="M81.3979 66.7222L85.294 64.4728C85.7723 64.1967 85.9362 63.5851 85.6601 63.1068L84.4917 61.0831C84.2155 60.6048 83.6039 60.4409 83.1256 60.717L78.8716 63.1731V59.0486C78.8716 58.4964 78.4239 58.0486 77.8716 58.0486H75.5348C74.9826 58.0486 74.5348 58.4964 74.5348 59.0486V63.5085L70.6725 61.2786C70.1942 61.0025 69.5826 61.1663 69.3064 61.6446L68.138 63.6683C67.8619 64.1466 68.0258 64.7582 68.5041 65.0344L71.4275 66.7222H81.3979Z" fill="#9966FF"/>
<path d="M44.2862 90.9241C42.6074 96.6581 39.04 98.2078 39.04 102.25C39.04 105.827 41.8598 108.72 45.3354 108.72C48.811 108.72 51.6308 105.827 51.6308 102.25C51.6308 98.1949 48.0634 96.6839 46.3847 90.9241C46.0961 89.878 44.6141 89.8264 44.2862 90.9241Z" fill="#FF99FF"/>
<path d="M71.5662 90.9241C69.8875 96.6581 66.3201 98.2078 66.3201 102.25C66.3201 105.827 69.1399 108.72 72.6155 108.72C76.091 108.72 78.9108 105.827 78.9108 102.25C78.9108 98.1949 75.3435 96.6839 73.6647 90.9241C73.3761 89.878 71.8941 89.8264 71.5662 90.9241Z" fill="#FF99FF"/>
</svg>
