<svg width="120" height="120" viewBox="0 0 120 120" fill="none" xmlns="http://www.w3.org/2000/svg">
<path fill-rule="evenodd" clip-rule="evenodd" d="M75.9375 2.30631C75.1375 2.26151 74.6659 3.15944 75.0763 3.84755C79.7006 11.6009 80.3443 21.4923 75.9131 30.1129C71.4819 38.7336 63.0638 43.967 54.0675 44.719C53.2691 44.7858 52.8134 45.6919 53.3154 46.3163C55.6203 49.1834 58.5503 51.6245 62.0332 53.4147C75.3296 60.2494 91.649 55.0111 98.4837 41.7147C105.318 28.4183 100.08 12.0988 86.7836 5.2642C83.3007 3.47392 79.6104 2.51201 75.9375 2.30631Z" fill="#FF99FF"/>
<path d="M87.9375 43.4127C87.8309 43.4127 87.742 43.4479 87.6531 43.4479C87.8486 42.5307 87.9375 41.5783 87.9375 40.5905C87.9375 32.7943 81.5746 26.4798 73.7188 26.4798C69.3465 26.4798 65.4896 28.4729 62.877 31.5596C59.5711 25.2098 52.9771 20.8354 45.2812 20.8354C34.2795 20.8354 25.375 29.6723 25.375 40.5905C25.375 41.8781 25.5172 43.1128 25.7482 44.3299C18.941 46.5523 14 52.8492 14 60.3456C14 69.694 21.6426 77.2785 31.0625 77.2785H87.9375C97.3574 77.2785 105 69.694 105 60.3456C105 50.9972 97.3574 43.4127 87.9375 43.4127Z" fill="#D580FF"/>
<rect x="41.168" y="69.2152" width="4.04563" height="17.2785" rx="1" fill="#D580FF"/>
<rect width="4.06056" height="17.2151" rx="1" transform="matrix(0.498161 -0.867085 0.86496 0.501841 34.7341 75.2953)" fill="#D580FF"/>
<rect width="4.06056" height="17.2151" rx="1" transform="matrix(-0.498161 -0.867085 -0.86496 0.501841 52.0127 74.7689)" fill="#D580FF"/>
<rect x="73.4211" y="69.2152" width="4.04563" height="17.2785" rx="1" fill="#D580FF"/>
<rect width="4.06056" height="17.2151" rx="1" transform="matrix(0.498161 -0.867085 0.86496 0.501841 66.9873 75.2953)" fill="#D580FF"/>
<rect width="4.06056" height="17.2151" rx="1" transform="matrix(-0.498161 -0.867085 -0.86496 0.501841 84.2659 74.7689)" fill="#D580FF"/>
<rect x="57.2947" y="86.4937" width="4.04563" height="17.2785" rx="1" fill="#D580FF"/>
<rect width="4.06056" height="17.2151" rx="1" transform="matrix(0.498161 -0.867085 0.86496 0.501841 50.8608 92.5737)" fill="#D580FF"/>
<rect width="4.06056" height="17.2151" rx="1" transform="matrix(-0.498161 -0.867085 -0.86496 0.501841 68.1394 92.0473)" fill="#D580FF"/>
<path fill-rule="evenodd" clip-rule="evenodd" d="M47.6126 77.4292L52.0364 74.8752L50.022 71.3862L45.2658 74.1322V69.3719H41.2371V74.4439L36.8447 71.9079L34.8303 75.3968L38.3505 77.4292H47.6126Z" fill="#9966FF"/>
<path fill-rule="evenodd" clip-rule="evenodd" d="M79.8421 77.4292L84.2658 74.8752L82.2515 71.3862L77.4953 74.1322V69.3719H73.4666V74.4439L69.0741 71.9079L67.0598 75.3968L70.58 77.4292H79.8421Z" fill="#9966FF"/>
<path fill-rule="evenodd" clip-rule="evenodd" d="M96.135 45.4929C93.7018 44.1669 90.908 43.4127 87.9374 43.4127C87.8816 43.4127 87.8307 43.4223 87.7822 43.4315C87.7378 43.4399 87.6954 43.4479 87.653 43.4479C87.8485 42.5307 87.9374 41.5783 87.9374 40.5905C87.9374 34.0226 83.4215 28.5062 77.3014 26.9311C76.9117 28.0063 76.4495 29.0689 75.9129 30.1128C71.4817 38.7335 63.0636 43.9669 54.0673 44.7189C53.2688 44.7857 52.8132 45.6918 53.3152 46.3163C55.6201 49.1833 58.5501 51.6244 62.033 53.4147C73.9864 59.559 88.3829 55.946 96.135 45.4929Z" fill="#9966FF"/>
<path d="M45.3671 99.9115C43.8076 105.238 40.4937 106.678 40.4937 110.433C40.4937 113.756 43.1131 116.443 46.3418 116.443C49.5704 116.443 52.1899 113.756 52.1899 110.433C52.1899 106.666 48.8759 105.262 47.3164 99.9115C47.0484 98.9397 45.6717 98.8917 45.3671 99.9115Z" fill="#D580FF"/>
<path d="M70.7089 99.9115C69.1494 105.238 65.8354 106.678 65.8354 110.433C65.8354 113.756 68.4549 116.443 71.6835 116.443C74.9122 116.443 77.5317 113.756 77.5317 110.433C77.5317 106.666 74.2177 105.262 72.6582 99.9115C72.3902 98.9397 71.0135 98.8917 70.7089 99.9115Z" fill="#D580FF"/>
</svg>
