<svg width="120" height="120" viewBox="0 0 120 120" fill="none" xmlns="http://www.w3.org/2000/svg">
<path fill-rule="evenodd" clip-rule="evenodd" d="M76.4751 11.7401C75.6797 11.7839 75.2981 12.7154 75.773 13.355C82.4566 22.3566 84.422 34.5986 79.8983 45.8614C75.3746 57.1242 65.4873 64.6056 54.4341 66.4833C53.6488 66.6167 53.28 67.5533 53.8241 68.1352C56.9956 71.5265 60.9339 74.2896 65.5155 76.1298C82.45 82.9315 101.759 74.5491 108.644 57.4073C115.529 40.2654 107.383 20.8553 90.4483 14.0536C85.8667 12.2135 81.1113 11.4847 76.4751 11.7401Z" fill="#FF99FF"/>
<path d="M34.4175 92.2582C32.4802 98.7281 28.3635 100.477 28.3635 105.038C28.3635 109.074 31.6175 112.338 35.6283 112.338C39.639 112.338 42.893 109.074 42.893 105.038C42.893 100.462 38.7763 98.7572 36.8391 92.2582C36.5061 91.0779 34.7958 91.0196 34.4175 92.2582ZM58.6333 92.2582C56.696 98.7281 52.5793 100.477 52.5793 105.038C52.5793 109.074 55.8333 112.338 59.844 112.338C63.8548 112.338 67.1088 109.074 67.1088 105.038C67.1088 100.462 62.9921 98.7572 61.0548 92.2582C60.7219 91.0779 59.0116 91.0196 58.6333 92.2582ZM82.849 92.2582C80.9118 98.7281 76.7951 100.477 76.7951 105.038C76.7951 109.074 80.0491 112.338 84.0598 112.338C88.0706 112.338 91.3246 109.074 91.3246 105.038C91.3246 100.462 87.2079 98.7572 85.2706 92.2582C84.9377 91.0779 83.2274 91.0196 82.849 92.2582Z" fill="#FF99FF"/>
<path d="M95.3417 60.7948C95.211 60.7948 95.1021 60.8382 94.9932 60.8382C95.2328 59.7085 95.3417 58.5354 95.3417 57.3188C95.3417 47.7164 87.5458 39.9389 77.9208 39.9389C72.5639 39.9389 67.8385 42.3939 64.6374 46.1957C60.587 38.3748 52.5081 32.987 43.0791 32.987C29.5997 32.987 18.6899 43.8711 18.6899 57.3188C18.6899 58.9047 18.8641 60.4255 19.1472 61.9245C10.8069 64.6618 4.75317 72.4176 4.75317 81.6506C4.75317 93.1648 14.1169 102.506 25.6582 102.506H95.3417C106.883 102.506 116.247 93.1648 116.247 81.6506C116.247 70.1365 106.883 60.7948 95.3417 60.7948Z" fill="#D580FF"/>
<path fill-rule="evenodd" clip-rule="evenodd" d="M90.8999 102.512C90.4551 101.228 89.6828 100.106 88.8196 98.8528C87.5978 97.0783 86.1938 95.0392 85.2788 91.9C84.9478 90.7 83.2476 90.6407 82.8715 91.9C81.9581 95.0196 80.5575 97.0596 79.3372 98.837C78.472 100.097 77.6975 101.225 77.2515 102.512H90.8999ZM66.6794 102.512C66.2347 101.228 65.4624 100.107 64.5992 98.8529C63.3773 97.0784 61.9734 95.0394 61.0584 91.9002C60.7274 90.7001 59.0272 90.6409 58.6511 91.9002C57.7377 95.0198 56.3371 97.0598 55.1168 98.8371C54.2516 100.097 53.4771 101.225 53.0311 102.512H66.6794ZM42.4563 102.512C42.0116 101.228 41.2393 100.107 40.3761 98.8529C39.1543 97.0784 37.7503 95.0394 36.8353 91.9002C36.5043 90.7001 34.8041 90.6409 34.428 91.9002C33.5146 95.0198 32.114 97.0598 30.8937 98.8371C30.0285 100.097 29.254 101.225 28.808 102.512H42.4563Z" fill="#9966FF"/>
<path fill-rule="evenodd" clip-rule="evenodd" d="M105.818 63.8299C102.795 62.1668 99.3181 61.2197 95.6189 61.2197C95.55 61.2197 95.4872 61.2316 95.4272 61.243C95.3724 61.2533 95.3201 61.2633 95.2677 61.2633C95.5091 60.1306 95.6189 58.9543 95.6189 57.7345C95.6189 49.3333 89.6359 42.3253 81.6656 40.6759C81.2744 42.4307 80.736 44.1772 80.0441 45.9C75.5238 57.1544 65.5724 64.6018 54.4195 66.4367C53.6289 66.5667 53.2575 67.5105 53.8076 68.093C57.0244 71.4998 61.0125 74.2813 65.6458 76.1422C80.5398 82.1244 97.1981 76.6254 105.818 63.8299Z" fill="#9966FF"/>
</svg>
