<svg width="120" height="120" viewBox="0 0 120 120" fill="none" xmlns="http://www.w3.org/2000/svg">
<path d="M91.494 41.981C91.374 41.981 91.274 42.0211 91.1741 42.0211C91.394 40.9785 91.494 39.8958 91.494 38.773C91.494 29.9111 84.3354 22.7334 75.497 22.7334C70.5779 22.7334 66.2387 24.999 63.2993 28.5077C59.58 21.2898 52.1614 16.3175 43.503 16.3175C31.1253 16.3175 21.1072 26.3623 21.1072 38.773C21.1072 40.2367 21.2671 41.6401 21.5271 43.0235C13.8685 45.5498 8.30957 52.7075 8.30957 61.2286C8.30957 71.8548 16.908 80.4762 27.506 80.4762H91.494C102.092 80.4762 110.69 71.8548 110.69 61.2286C110.69 50.6023 102.092 41.981 91.494 41.981Z" fill="#D580FF"/>
<rect x="53.8037" y="58.6349" width="10.5475" height="45.0476" rx="1" fill="#FF99FF"/>
<rect width="10.5865" height="44.8823" rx="1" transform="matrix(0.498161 -0.867085 0.86496 0.501841 37.0299 74.4865)" fill="#FF99FF"/>
<rect width="10.5865" height="44.8823" rx="1" transform="matrix(-0.498161 -0.867085 -0.86496 0.501841 82.0775 73.114)" fill="#FF99FF"/>
<path fill-rule="evenodd" clip-rule="evenodd" d="M69.4398 80.5074L81.3793 73.6141C81.8576 73.338 82.0215 72.7264 81.7453 72.2481L77.4456 64.8008C77.1695 64.3225 76.5579 64.1586 76.0796 64.4347L64.4319 71.1595V59.635C64.4319 59.0827 63.9842 58.635 63.4319 58.635H54.8325C54.2802 58.635 53.8325 59.0827 53.8325 59.635V71.9794L43.1419 65.8072C42.6636 65.5311 42.052 65.695 41.7759 66.1733L37.4762 73.6206C37.2 74.0989 37.3639 74.7105 37.8422 74.9866L47.4045 80.5074H69.4398Z" fill="#9966FF"/>
</svg>
