<svg width="120" height="120" viewBox="0 0 120 120" fill="none" xmlns="http://www.w3.org/2000/svg">
<rect x="52.6006" y="77.4606" width="4.10162" height="17.5176" rx="1" fill="#FF99FF"/>
<rect width="4.11677" height="17.4534" rx="1" transform="matrix(0.498161 -0.867085 0.86496 0.501841 46.0779 83.6248)" fill="#FF99FF"/>
<rect width="4.11677" height="17.4534" rx="1" transform="matrix(-0.498161 -0.867085 -0.86496 0.501841 63.5955 83.0911)" fill="#FF99FF"/>
<path fill-rule="evenodd" clip-rule="evenodd" d="M75.3852 1.21766C74.5866 1.28184 74.2328 2.23236 74.7328 2.85843C81.3924 11.1977 83.6775 22.7046 79.7632 33.4681C75.8488 44.2315 66.7057 51.5823 56.2449 53.6953C55.4595 53.854 55.12 54.8097 55.6909 55.3719C58.8303 58.4639 62.6687 60.9468 67.0805 62.5513C83.5163 68.5285 101.686 60.0502 107.663 43.6144C113.64 27.1786 105.162 9.00923 88.726 3.03199C84.3142 1.42756 79.7775 0.86467 75.3852 1.21766Z" fill="#FF99FF"/>
<path d="M93.4934 48.6239C93.3686 48.6239 93.2647 48.6651 93.1607 48.6651C93.3894 47.5922 93.4934 46.478 93.4934 45.3225C93.4934 36.2023 86.05 28.8155 76.86 28.8155C71.7453 28.8155 67.2335 31.1471 64.1771 34.758C60.3099 27.3298 52.5961 22.2126 43.5934 22.2126C30.7233 22.2126 20.3067 32.5502 20.3067 45.3225C20.3067 46.8287 20.473 48.2731 20.7433 49.6968C12.7801 52.2967 7 59.6629 7 68.4323C7 79.3682 15.9404 88.2407 26.96 88.2407H93.4934C104.513 88.2407 113.453 79.3682 113.453 68.4323C113.453 57.4964 104.513 48.6239 93.4934 48.6239Z" fill="#D580FF"/>
<path fill-rule="evenodd" clip-rule="evenodd" d="M103.581 51.3378C100.62 49.613 97.1729 48.6239 93.4936 48.6239C93.4284 48.6239 93.3688 48.6352 93.312 48.6459C93.2601 48.6557 93.2105 48.6651 93.1609 48.6651C93.3896 47.5922 93.4936 46.478 93.4936 45.3225C93.4936 37.6075 88.167 31.1327 80.9626 29.3208C80.6612 30.71 80.2628 32.0952 79.7634 33.4683C75.8491 44.2317 66.7059 51.5825 56.2451 53.6955C55.4598 53.8542 55.1203 54.8099 55.6911 55.3721C58.8305 58.4642 62.6689 60.9471 67.0807 62.5515C80.697 67.5034 95.503 62.5339 103.581 51.3378Z" fill="#9966FF"/>
<path fill-rule="evenodd" clip-rule="evenodd" d="M62.3154 88.2405L58.4782 86.0251L62.7294 83.5707C63.2077 83.2946 63.3715 82.683 63.0954 82.2047L62.0446 80.3846C61.7684 79.9063 61.1568 79.7425 60.6786 80.0186L56.7022 82.3144V78.4678C56.7022 77.9155 56.2545 77.4678 55.7022 77.4678H53.6006C53.0483 77.4678 52.6006 77.9155 52.6006 78.4678V82.6316L48.9946 80.5497C48.5163 80.2736 47.9047 80.4374 47.6286 80.9157L46.5777 82.7358C46.3016 83.2141 46.4655 83.8257 46.9438 84.1018L50.275 86.0251L46.4481 88.2345L46.4515 88.2405H62.3154Z" fill="#9966FF"/>
<rect x="31.0403" y="100.368" width="4.10162" height="17.5176" rx="1" fill="#FF99FF"/>
<rect width="4.11677" height="17.4534" rx="1" transform="matrix(0.498161 -0.867085 0.86496 0.501841 24.5176 106.532)" fill="#FF99FF"/>
<rect width="4.11677" height="17.4534" rx="1" transform="matrix(-0.498161 -0.867085 -0.86496 0.501841 42.0352 105.999)" fill="#FF99FF"/>
<rect x="74.1606" y="100.368" width="4.10162" height="17.5176" rx="1" fill="#FF99FF"/>
<rect width="4.11677" height="17.4534" rx="1" transform="matrix(0.498161 -0.867085 0.86496 0.501841 67.6379 106.532)" fill="#FF99FF"/>
<rect width="4.11677" height="17.4534" rx="1" transform="matrix(-0.498161 -0.867085 -0.86496 0.501841 85.1555 105.999)" fill="#FF99FF"/>
</svg>
