<svg width="120" height="120" viewBox="0 0 120 120" fill="none" xmlns="http://www.w3.org/2000/svg">
<path d="M50.3888 41.5983C50.3888 52.8607 59.5505 62.0224 70.8129 62.0224C82.0753 62.0224 91.237 52.8607 91.237 41.5983C91.237 30.3359 82.0753 21.1742 70.8129 21.1742C59.5505 21.1742 50.3888 30.3359 50.3888 41.5983ZM66.7256 3.80725C66.7256 2.15039 68.0688 0.807251 69.7256 0.807251H71.8839C73.5407 0.807251 74.8839 2.1504 74.8839 3.80725V10.0446C74.8839 11.7014 73.5407 13.0446 71.8839 13.0446H69.7256C68.0688 13.0446 66.7256 11.7014 66.7256 10.0446V3.80725ZM30.0137 40.5192C30.0137 38.8624 31.3568 37.5192 33.0137 37.5192H39.251C40.9079 37.5192 42.251 38.8624 42.251 40.5192V42.6774C42.251 44.3343 40.9078 45.6774 39.251 45.6774H33.0137C31.3568 45.6774 30.0137 44.3343 30.0137 42.6774V40.5192ZM99.3585 40.5192C99.3585 38.8624 100.702 37.5192 102.359 37.5192H108.596C110.253 37.5192 111.596 38.8624 111.596 40.5192V42.6774C111.596 44.3343 110.253 45.6774 108.596 45.6774H102.358C100.702 45.6774 99.3585 44.3343 99.3585 42.6774V40.5192ZM90.2296 20.6482C89.0581 19.4766 89.0581 17.5771 90.2296 16.4056L94.6429 11.9923C95.8144 10.8208 97.7139 10.8208 98.8855 11.9923L100.411 13.5176C101.582 14.6891 101.582 16.5886 100.411 17.7602L95.9975 22.1734C94.8259 23.345 92.9264 23.345 91.7549 22.1734L90.2296 20.6482ZM49.8551 22.177C48.6834 23.3488 46.7835 23.3486 45.612 22.1765L41.2026 17.765C40.0312 16.5931 40.0318 14.6934 41.2038 13.5221L42.7311 11.9959C43.9032 10.8247 45.8029 10.8255 46.974 11.9977L51.3819 16.4097C52.5525 17.5814 52.552 19.4801 51.3809 20.6513L49.8551 22.177Z" fill="#FDF72A"/>
<path d="M88.3417 53.4649C88.2273 53.4649 88.1319 53.5027 88.0366 53.5027C88.2464 52.5185 88.3417 51.4964 88.3417 50.4364C88.3417 42.0704 81.5138 35.2943 73.0837 35.2943C68.3919 35.2943 64.2531 37.4331 61.4495 40.7455C57.902 33.9315 50.8261 29.2374 42.5677 29.2374C30.7618 29.2374 21.2064 38.7202 21.2064 50.4364C21.2064 51.8181 21.359 53.1431 21.6069 54.4491C14.3022 56.834 9 63.5912 9 71.6354C9 81.6671 17.2012 89.806 27.3096 89.806H88.3417C98.4502 89.806 106.651 81.6671 106.651 71.6354C106.651 61.6038 98.4502 53.4649 88.3417 53.4649Z" fill="white"/>
<path fill-rule="evenodd" clip-rule="evenodd" d="M70.813 62.0225C59.5506 62.0225 50.3889 52.8608 50.3889 41.5984C50.3889 38.0864 51.2798 34.7787 52.8474 31.8894C56.5142 33.9268 59.5095 37.0191 61.4495 40.7455C64.2531 37.4331 68.3919 35.2943 73.0837 35.2943C81.5138 35.2943 88.3418 42.0704 88.3418 50.4365C88.3418 51.0491 88.3099 51.6491 88.2425 52.2364C84.6497 58.1014 78.1809 62.0225 70.813 62.0225Z" fill="#F7D056"/>
<rect x="52.0662" y="79.9172" width="3.76248" height="16.0692" rx="1" fill="white"/>
<rect width="3.77637" height="16.0103" rx="1" transform="matrix(0.498161 -0.867085 0.86496 0.501841 46.0828 85.5718)" fill="white"/>
<rect width="3.77637" height="16.0103" rx="1" transform="matrix(-0.498161 -0.867085 -0.86496 0.501841 62.1519 85.0822)" fill="white"/>
<path fill-rule="evenodd" clip-rule="evenodd" d="M61.1271 89.8059C61.0731 89.7558 61.0126 89.7108 60.9461 89.6724L57.4578 87.6585L61.2858 85.4484C61.7641 85.1722 61.928 84.5606 61.6518 84.0823L60.7706 82.556C60.4945 82.0777 59.8829 81.9138 59.4046 82.19L55.8286 84.2546V80.8087C55.8286 80.2564 55.3809 79.8087 54.8286 79.8087H53.0661C52.5138 79.8087 52.0661 80.2564 52.0661 80.8087V84.5456L48.8299 82.6772C48.3516 82.401 47.74 82.5649 47.4639 83.0432L46.5826 84.5695C46.3065 85.0478 46.4704 85.6594 46.9487 85.9356L49.9328 87.6585L47.2884 89.1852C47.0449 89.3258 46.8829 89.5533 46.819 89.8059H61.1271Z" fill="#D4D4DE"/>
<rect x="32.2888" y="100.931" width="3.76248" height="16.0692" rx="1" fill="white"/>
<rect width="3.77637" height="16.0103" rx="1" transform="matrix(0.498161 -0.867085 0.86496 0.501841 26.3054 106.585)" fill="white"/>
<rect width="3.77637" height="16.0103" rx="1" transform="matrix(-0.498161 -0.867085 -0.86496 0.501841 42.3745 106.096)" fill="white"/>
<rect x="71.8438" y="100.931" width="3.76248" height="16.0692" rx="1" fill="white"/>
<rect width="3.77637" height="16.0103" rx="1" transform="matrix(0.498161 -0.867085 0.86496 0.501841 65.8604 106.585)" fill="white"/>
<rect width="3.77637" height="16.0103" rx="1" transform="matrix(-0.498161 -0.867085 -0.86496 0.501841 81.9294 106.096)" fill="white"/>
</svg>
