<svg width="120" height="120" viewBox="0 0 120 120" fill="none" xmlns="http://www.w3.org/2000/svg">
<path d="M34.2206 82.0037V70.0705C34.2206 69.5575 33.5405 69.3772 33.2863 69.8227L24.4714 85.2759C24.2813 85.6093 24.522 86.0237 24.9058 86.0237H34.2206V97.9569C34.2206 98.4698 34.9008 98.6502 35.1549 98.2046L43.9698 82.7514C44.1599 82.4181 43.9192 82.0037 43.5355 82.0037H34.2206Z" fill="#FDF72A"/>
<path d="M81.7072 82.0037V68.1848L71.958 85.2759C71.7679 85.6093 72.0086 86.0237 72.3923 86.0237H81.7072V97.9569C81.7072 98.4698 82.3874 98.6502 82.6415 98.2046L91.4564 82.7514C91.6465 82.4181 91.4058 82.0037 91.022 82.0037H81.7072Z" fill="#FDF72A"/>
<path fill-rule="evenodd" clip-rule="evenodd" d="M69.7652 9.08823C68.9695 9.18211 68.6609 10.1483 69.1839 10.7553C74.9599 17.4591 77.2599 26.8975 74.4512 35.9743C71.6424 45.0511 64.4136 51.5408 55.8608 53.8107C55.0864 54.0162 54.7953 54.9878 55.3989 55.5147C58.1107 57.8818 61.3502 59.7332 65.0104 60.8658C79.0287 65.2036 93.9094 57.3561 98.2472 43.3377C102.585 29.3194 94.7375 14.4388 80.7191 10.101C77.0589 8.96834 73.3399 8.66645 69.7652 9.08823Z" fill="#FF99FF"/>
<path d="M87.5725 45.1199C87.4678 45.1199 87.3806 45.1545 87.2934 45.1545C87.4853 44.2542 87.5725 43.3193 87.5725 42.3498C87.5725 34.6976 81.3271 28.4996 73.6162 28.4996C69.3247 28.4996 65.5391 30.4559 62.9746 33.4857C59.7298 27.2531 53.2576 22.9595 45.7038 22.9595C34.9051 22.9595 26.165 31.6332 26.165 42.3498C26.165 43.6137 26.3046 44.8256 26.5314 46.0201C19.8498 48.2016 15 54.3822 15 61.7402C15 70.916 22.5015 78.3605 31.7475 78.3605H87.5725C96.8185 78.3605 104.32 70.916 104.32 61.7402C104.32 52.5644 96.8185 45.1199 87.5725 45.1199Z" fill="#D580FF"/>
<path fill-rule="evenodd" clip-rule="evenodd" d="M96.4817 47.6658C93.901 46.0531 90.8461 45.1199 87.5726 45.1199C87.5179 45.1199 87.4679 45.1294 87.4202 45.1384C87.3767 45.1466 87.3351 45.1545 87.2935 45.1545C87.4854 44.2542 87.5726 43.3194 87.5726 42.3498C87.5726 35.3796 82.3908 29.6159 75.6397 28.6439C75.5906 31.0735 75.2048 33.537 74.4506 35.9744C71.6418 45.0512 64.413 51.541 55.8601 53.8108C55.0858 54.0163 54.7947 54.988 55.3983 55.5149C58.11 57.882 61.3496 59.7333 65.0098 60.8659C77.5106 64.7342 90.6971 58.9124 96.4817 47.6658Z" fill="#9966FF"/>
<path d="M57.964 92.1793V80.2461C57.964 79.7332 57.2839 79.5529 57.0297 79.9984L48.2149 95.4516C48.0247 95.7849 48.2654 96.1993 48.6492 96.1993H57.964V108.133C57.964 108.645 58.6442 108.826 58.8983 108.38L67.7132 92.9271C67.9033 92.5937 67.6626 92.1793 67.2789 92.1793H57.964Z" fill="#FDF72A"/>
<path fill-rule="evenodd" clip-rule="evenodd" d="M81.7071 78.3605V70.0705C81.7071 69.5576 81.027 69.3772 80.7728 69.8228L75.9027 78.3605H81.7071ZM34.2205 78.3605V70.0705C34.2205 69.5575 33.5403 69.3772 33.2862 69.8227L28.6252 77.9937C29.7222 78.2339 30.8614 78.3605 32.03 78.3605H34.2205Z" fill="#FEB800"/>
<path d="M44.6572 102.837C43.1265 108.065 39.8738 109.478 39.8738 113.164C39.8738 116.426 42.4449 119.063 45.6139 119.063C48.7829 119.063 51.354 116.426 51.354 113.164C51.354 109.466 48.1013 108.089 46.5706 102.837C46.3075 101.883 44.9562 101.836 44.6572 102.837Z" fill="#FF99FF"/>
<path d="M69.5315 102.837C68.0008 108.065 64.748 109.478 64.748 113.164C64.748 116.426 67.3191 119.063 70.4882 119.063C73.6572 119.063 76.2283 116.426 76.2283 113.164C76.2283 109.466 72.9756 108.089 71.4449 102.837C71.1818 101.883 69.8305 101.836 69.5315 102.837Z" fill="#FF99FF"/>
</svg>
