<svg width="120" height="120" viewBox="0 0 120 120" fill="none" xmlns="http://www.w3.org/2000/svg">
<path d="M91.8348 38.9368C91.7135 38.9368 91.6125 38.9773 91.5114 38.9773C91.7337 37.9237 91.8348 36.8295 91.8348 35.6947C91.8348 26.7384 84.5999 19.4842 75.6674 19.4842C70.6959 19.4842 66.3105 21.7739 63.3397 25.32C59.5808 18.0253 52.0832 13 43.3326 13C30.823 13 20.6982 23.1518 20.6982 35.6947C20.6982 37.1739 20.8599 38.5924 21.1226 39.9905C13.3825 42.5437 7.76428 49.7776 7.76428 58.3894C7.76428 69.1289 16.4543 77.8421 27.1652 77.8421H91.8348C102.546 77.8421 111.236 69.1289 111.236 58.3894C111.236 47.65 102.546 38.9368 91.8348 38.9368Z" fill="#D580FF"/>
<path d="M46.7954 59.907L85.9834 59.907C86.7889 59.9068 87.5644 59.6204 88.153 59.1059C88.7416 58.5913 89.0996 57.8869 89.1545 57.1349C89.2094 56.383 88.9572 55.6395 88.4488 55.0548C87.9404 54.4702 87.2138 54.0878 86.4158 53.9851L85.9834 53.9573L46.7954 53.9573C44.6993 53.9573 42.6502 53.3757 40.9074 52.2861C39.1645 51.1965 37.8061 49.6479 37.004 47.8359C36.2018 46.024 35.9919 44.0302 36.4009 42.1066C36.8098 40.1831 37.8192 38.4162 39.3014 37.0294C40.7835 35.6426 42.672 34.6982 44.7278 34.3156C46.7837 33.933 48.9146 34.1293 50.8512 34.8799C52.7878 35.6304 54.443 36.9014 55.6075 38.5321C56.7721 40.1628 57.3936 42.0799 57.3936 44.0412C57.3936 44.8302 57.7286 45.5868 58.3249 46.1447C58.9211 46.7026 59.7299 47.016 60.5731 47.016C61.4163 47.016 62.2251 46.7026 62.8213 46.1447C63.4176 45.5868 63.7526 44.8302 63.7526 44.0412C63.7525 40.9406 62.7814 37.9079 60.9593 35.3181C59.1372 32.7282 56.544 30.6946 53.5002 29.4687C50.4564 28.2427 47.0953 27.8781 43.8324 28.4199C40.5695 28.9617 37.5478 30.3861 35.1407 32.5172C32.7336 34.6482 31.0466 37.3925 30.2883 40.4108C29.5299 43.4292 29.7334 46.5893 30.8736 49.5006C32.0138 52.4118 34.0407 54.9468 36.7039 56.792C39.3671 58.6372 42.5497 59.7119 45.8585 59.8832L46.7912 59.907L85.9876 59.907L46.7954 59.907Z" fill="#9966FF"/>
<path d="M41.4338 70.9439H84.1729C85.0514 70.9442 85.8972 71.274 86.5391 71.8666C87.1811 72.4592 87.5715 73.2706 87.6313 74.1366C87.6912 75.0027 87.4162 75.8589 86.8617 76.5323C86.3073 77.2057 85.5148 77.6461 84.6445 77.7644L84.1729 77.7964H41.4338C39.1477 77.7964 36.913 78.4662 35.0122 79.7211C33.1114 80.9761 31.6299 82.7597 30.7551 84.8466C29.8802 86.9335 29.6513 89.2298 30.0973 91.4452C30.5433 93.6606 31.6441 95.6956 33.2606 97.2928C34.8771 98.8901 36.9367 99.9778 39.1788 100.418C41.421 100.859 43.745 100.633 45.8571 99.7686C47.9692 98.9041 49.7744 97.4403 51.0444 95.5622C52.3145 93.684 52.9924 91.476 52.9924 89.2171C52.9924 88.3085 53.3577 87.437 54.008 86.7944C54.6583 86.1519 55.5403 85.7909 56.46 85.7909C57.3796 85.7909 58.2616 86.1519 58.9119 86.7944C59.5622 87.437 59.9276 88.3085 59.9276 89.2171C59.9275 92.7882 58.8684 96.281 56.8812 99.2638C54.894 102.247 52.0658 104.589 48.7462 106.001C45.4265 107.413 41.7609 107.833 38.2023 107.209C34.6437 106.585 31.3482 104.944 28.7229 102.49C26.0977 100.035 24.2579 96.8746 23.4308 93.3983C22.6037 89.922 22.8257 86.2824 24.0692 82.9294C25.3127 79.5764 27.5233 76.6568 30.4278 74.5316C33.3323 72.4064 36.8034 71.1686 40.412 70.9713L41.4292 70.9439H84.1775H41.4338Z" fill="#FF99FF"/>
<path fill-rule="evenodd" clip-rule="evenodd" d="M40.4012 77.8421C40.7435 77.8117 41.0881 77.7964 41.4338 77.7964H84.1729L84.6445 77.7644C85.5148 77.6461 86.3073 77.2058 86.8617 76.5324C87.4162 75.859 87.6912 75.0027 87.6313 74.1367C87.5715 73.2706 87.1811 72.4593 86.5391 71.8666C85.8972 71.274 85.0514 70.9442 84.1729 70.944H41.4338H41.4292L40.412 70.9714C36.8034 71.1687 33.3323 72.4064 30.4278 74.5316C29.1241 75.4856 27.9601 76.5996 26.9607 77.841C27.0288 77.8417 27.097 77.8421 27.1652 77.8421H40.4012Z" fill="#9966FF"/>
<rect x="68.4675" y="84.7401" width="38.6293" height="6.89809" rx="3" fill="#FF99FF"/>
</svg>
