<svg width="28" height="28" viewBox="0 0 28 28" fill="none" xmlns="http://www.w3.org/2000/svg">
<g clip-path="url(#clip0_2110_17502)">
<path d="M17.9042 9.95634C17.9042 9.95634 17.941 9.94896 17.963 9.94896C17.963 11.136 16.5102 12.4792 15.8318 12.4792C13.6272 11.331 13.6549 9.63688 9.97615 10.8355C6.29742 12.0341 6.31211 15.7323 6.31211 15.7323L4.94582 17.47C1.34678 18.2664 1.79056 15.4502 1.79056 13.4934C1.79056 11.9242 2.81296 10.6062 4.22151 10.1409C4.1737 9.88619 4.14428 9.62774 4.14428 9.35822C4.14428 7.0728 5.9868 5.22305 8.2633 5.22305C9.85573 5.22305 11.2202 6.1387 11.9042 7.46786C12.4448 6.82174 13.2429 6.40453 14.1476 6.40453C15.7731 6.40453 17.963 7.7263 17.963 9.35822C17.963 9.56498 17.9446 9.76435 17.9042 9.95634Z" fill="url(#paint0_linear_2110_17502)"/>
<path d="M22.189 16.142C22.2108 16.142 22.2326 16.1332 22.2588 16.1332C24.5697 16.1332 26.4447 18.0155 26.4447 20.3355C26.4447 22.6555 24.5697 24.5378 22.2588 24.5378H20.9592H8.30577C5.99481 24.5378 4.11987 22.6555 4.11987 20.3355C4.11987 18.4751 5.33204 16.9124 7.00204 16.3608C6.94535 16.0588 6.91047 15.7524 6.91047 15.4328C6.91047 12.7232 9.09499 10.5301 11.794 10.5301C13.682 10.5301 15.2997 11.6157 16.1107 13.1916C16.7517 12.4255 17.6979 11.9309 18.7705 11.9309C20.6978 11.9309 22.2588 13.498 22.2588 15.4328C22.2588 15.678 22.237 15.9143 22.189 16.142Z" fill="url(#paint1_linear_2110_17502)" stroke="#D580FF" stroke-width="1.5" stroke-linecap="round" stroke-linejoin="round"/>
<path d="M17.411 9.51767C17.411 7.80169 16.0266 6.41183 14.3173 6.41183C13.366 6.41183 12.5268 6.85053 11.9583 7.52993C11.2391 6.1323 9.80435 5.16949 8.12989 5.16949C5.73613 5.16949 3.7987 7.11453 3.7987 9.51767C3.7987 9.80108 3.82963 10.0728 3.87991 10.3407C2.39879 10.8299 1.32373 12.2159 1.32373 13.8658C1.32373 14.9057 1.74844 15.8464 2.43315 16.5226" stroke="#D580FF" stroke-width="1.5" stroke-linecap="round" stroke-linejoin="round"/>
</g>
<defs>
<linearGradient id="paint0_linear_2110_17502" x1="9.86811" y1="5.22305" x2="9.86811" y2="17.6084" gradientUnits="userSpaceOnUse">
<stop stop-color="#D372E2"/>
<stop offset="1" stop-color="#F091FF" stop-opacity="0.2"/>
</linearGradient>
<linearGradient id="paint1_linear_2110_17502" x1="15.2823" y1="10.5301" x2="15.2823" y2="24.5378" gradientUnits="userSpaceOnUse">
<stop stop-color="#D372E2"/>
<stop offset="1" stop-color="#F091FF" stop-opacity="0.2"/>
</linearGradient>
<clipPath id="clip0_2110_17502">
<rect width="28" height="28" fill="white"/>
</clipPath>
</defs>
</svg>
