<svg width="28" height="28" viewBox="0 0 28 28" fill="none" xmlns="http://www.w3.org/2000/svg">
<path d="M20.7466 8.92685C20.7696 8.92685 20.7926 8.9176 20.8203 8.9176C23.2626 8.9176 25.244 10.9068 25.244 13.3587C25.244 15.8105 23.2626 17.7997 20.8203 17.7997H19.4469H6.07459C3.63233 17.7997 1.65088 15.8105 1.65088 13.3587C1.65088 11.3926 2.93191 9.74104 4.69679 9.15815C4.63688 8.83895 4.60002 8.51513 4.60002 8.17742C4.60002 5.31386 6.90864 2.99619 9.76102 2.99619C11.7563 2.99619 13.4659 4.14346 14.323 5.80886C15.0003 4.99929 16.0003 4.47654 17.1339 4.47654C19.1706 4.47654 20.8203 6.13268 20.8203 8.17742C20.8203 8.43648 20.7973 8.68629 20.7466 8.92685Z" fill="url(#paint0_linear_162_3572)"/>
<ellipse cx="15.1656" cy="17.3846" rx="1.32916" ry="1.31971" fill="white"/>
<ellipse cx="10.0732" cy="20.3476" rx="1.65502" ry="1.64324" fill="white"/>
<ellipse cx="15.29" cy="25.5536" rx="2.14747" ry="2.13219" fill="white"/>
<path d="M5.98257 17.9633C3.47763 17.9633 1.44531 15.923 1.44531 13.4082C1.44531 11.3916 2.75923 9.69774 4.5694 9.09989C4.50796 8.77249 4.47015 8.44036 4.47015 8.09398C4.47015 5.15692 6.83803 2.77975 9.76362 2.77975C11.8101 2.77975 13.5636 3.95648 14.4427 5.66462C15.1374 4.83427 16.163 4.29811 17.3257 4.29811C19.4147 4.29811 21.1068 5.99676 21.1068 8.09398C21.1068 8.35969 21.0831 8.61591 21.0311 8.86265C21.0548 8.86265 21.0784 8.85316 21.1068 8.85316C23.6117 8.85316 25.644 10.8934 25.644 13.4082C25.644 15.923 23.6117 17.9633 21.1068 17.9633" stroke="#F3F4F7" stroke-width="1.5" stroke-linecap="round" stroke-linejoin="round"/>
<path d="M11.1743 17.0632L12.2185 15.0223" stroke="#D4D4DE" stroke-width="1.5" stroke-linecap="round"/>
<path d="M17.1858 21.5608L18.372 19.1884" stroke="#D4D4DE" stroke-width="2" stroke-linecap="round"/>
<path d="M16.2847 15.0685L17.2376 13.3232" stroke="#D4D4DE" stroke-linecap="round"/>
<defs>
<linearGradient id="paint0_linear_162_3572" x1="13.4474" y1="2.99619" x2="13.4474" y2="17.7997" gradientUnits="userSpaceOnUse">
<stop stop-color="#E6E6EF"/>
<stop offset="1" stop-color="#D4D4DE" stop-opacity="0.43"/>
</linearGradient>
</defs>
</svg>
