<svg width="28" height="28" viewBox="0 0 28 28" fill="none" xmlns="http://www.w3.org/2000/svg">
<g clip-path="url(#clip0_4_160)">
<path d="M13.9156 6.6024C14.519 7.40693 15.9268 7.85949 15.4242 11.7145C14.5721 11.8961 12.6165 12.3598 11.6108 12.7621C10.6052 13.1643 10.242 15.5276 10.1862 16.659L8.42626 17.9161C5.44282 18.2848 3.27236 15.0527 2.56006 13.3906C4.65518 13.642 7.1693 12.5526 9.09681 11.3374C10.6388 10.3653 11.1081 6.46274 11.15 4.633C11.8204 4.95425 13.3122 5.79788 13.9156 6.6024Z" fill="#F091FF" fill-opacity="0.3"/>
<path d="M22.8886 16.3558C22.9069 16.3558 22.9251 16.3485 22.9469 16.3485C24.8779 16.3485 26.4446 17.9213 26.4446 19.8598C26.4446 21.7984 24.8779 23.3712 22.9469 23.3712H21.8611H11.2882C9.35718 23.3712 7.79053 21.7984 7.79053 19.8598C7.79053 18.3053 8.80338 16.9995 10.1988 16.5387C10.1514 16.2863 10.1223 16.0303 10.1223 15.7633C10.1223 13.4992 11.9476 11.6667 14.2029 11.6667C15.7804 11.6667 17.1321 12.5738 17.8098 13.8905C18.3454 13.2505 19.136 12.8371 20.0322 12.8371C21.6426 12.8371 22.9469 14.1466 22.9469 15.7633C22.9469 15.9681 22.9287 16.1656 22.8886 16.3558Z" fill="url(#paint0_linear_4_160)" stroke="#D580FF" stroke-width="1.5" stroke-linecap="round" stroke-linejoin="round"/>
<path d="M10.3279 4.23028C11.3926 4.56869 12.3551 5.16954 13.1267 5.97751C13.8982 6.78547 14.4541 7.77458 14.7431 8.85375M2.30754 13.2709C2.74165 14.3003 3.42779 15.204 4.30277 15.8986C4.8984 16.3715 5.56851 16.7372 6.28301 16.9822" stroke="#FF99FF" stroke-width="1.5" stroke-linecap="round"/>
<path d="M10.306 4.24131C10.7325 5.39646 10.8303 6.64724 10.5886 7.85464C10.3469 9.06204 9.77512 10.1788 8.93684 11.0807C8.09857 11.9827 7.02661 12.6345 5.84011 12.9639C4.6536 13.2932 3.39902 13.287 2.21579 12.9461" stroke="#FF99FF" stroke-width="1.5" stroke-linecap="round"/>
</g>
<defs>
<linearGradient id="paint0_linear_4_160" x1="17.1175" y1="11.6667" x2="17.1175" y2="23.3712" gradientUnits="userSpaceOnUse">
<stop stop-color="#D372E2"/>
<stop offset="1" stop-color="#F091FF" stop-opacity="0.2"/>
</linearGradient>
<clipPath id="clip0_4_160">
<rect width="28" height="28" fill="white"/>
</clipPath>
</defs>
</svg>
