<svg width="28" height="28" viewBox="0 0 28 28" fill="none" xmlns="http://www.w3.org/2000/svg">
<g clip-path="url(#clip0_162_3618)">
<path d="M20.4758 26.8832L20.4758 22.0277" stroke="white" stroke-width="1.5" stroke-linecap="round"/>
<path d="M22.5784 25.6694L18.3734 23.2416" stroke="white" stroke-width="1.5" stroke-linecap="round"/>
<path d="M18.3733 25.6694L22.5783 23.2416" stroke="white" stroke-width="1.5" stroke-linecap="round"/>
<path d="M12.8843 9.78253C11.0804 10.4314 10.7689 12.2941 9.76998 14.2918C9.02384 15.7841 7.37219 14.7206 6.59841 13.821C5.82463 12.9214 5.35693 11.751 5.35693 10.4713C5.35693 7.63281 7.65796 5.33179 10.4964 5.33179C11.7385 5.33179 12.8777 5.7724 13.7662 6.50586C14.9132 7.45272 14.6883 9.13371 12.8843 9.78253Z" fill="#F7D056"/>
<path d="M23.0309 13.9563C23.0493 13.9563 23.0677 13.9489 23.0897 13.9489C25.0389 13.9489 26.6203 15.5365 26.6203 17.4934C26.6203 19.4502 25.0389 21.0378 23.0897 21.0378H21.9936H11.3211C9.37193 21.0378 7.79053 19.4502 7.79053 17.4934C7.79053 15.9242 8.81293 14.6061 10.2215 14.1409C10.1737 13.8862 10.1442 13.6277 10.1442 13.3582C10.1442 11.0728 11.9868 9.22302 14.2633 9.22302C15.8557 9.22302 17.2201 10.1387 17.9042 11.4678C18.4448 10.8217 19.2429 10.4045 20.1476 10.4045C21.7731 10.4045 23.0897 11.7263 23.0897 13.3582C23.0897 13.5649 23.0713 13.7643 23.0309 13.9563Z" fill="url(#paint0_linear_162_3618)"/>
<path d="M11.2882 21.0378C9.35718 21.0378 7.79053 19.465 7.79053 17.5265C7.79053 15.972 8.80338 14.6662 10.1988 14.2053C10.1514 13.9529 10.1223 13.6969 10.1223 13.4299C10.1223 11.1658 11.9476 9.33331 14.2029 9.33331C15.7804 9.33331 17.1321 10.2404 17.8098 11.5572C18.3454 10.9171 19.136 10.5038 20.0322 10.5038C21.6426 10.5038 22.9469 11.8132 22.9469 13.4299C22.9469 13.6347 22.9287 13.8322 22.8886 14.0224C22.9069 14.0224 22.9251 14.0151 22.9469 14.0151C24.8779 14.0151 26.4446 15.5879 26.4446 17.5265C26.4446 19.465 24.8779 21.0378 22.9469 21.0378" stroke="#F3F4F7" stroke-width="1.5" stroke-linecap="round" stroke-linejoin="round"/>
<path d="M14.8306 25.1378L17.5738 19.1942" stroke="#3FD5FE" stroke-width="1.5" stroke-linecap="round"/>
<path d="M11.2844 26.7199L14.0277 20.7762" stroke="#3FD5FE" stroke-width="1.5" stroke-linecap="round"/>
<path d="M6.91977 13.4931C6.177 12.6045 5.79113 11.4716 5.83719 10.3144C5.88324 9.15721 6.35793 8.05849 7.16897 7.23181C7.98001 6.40513 9.06946 5.90955 10.2256 5.8414C11.3816 5.77325 12.5218 6.13741 13.4243 6.86308" stroke="#FDF72A" stroke-width="1.5" stroke-linecap="round"/>
<path d="M16.634 4.70465L18.133 3.28815" stroke="#FDF72A" stroke-width="1.5" stroke-linecap="round"/>
<path d="M3.19238 18.063L4.6913 16.6465" stroke="#FDF72A" stroke-width="1.5" stroke-linecap="round"/>
<path d="M4.77466 4.70465L3.27574 3.28815" stroke="#FDF72A" stroke-width="1.5" stroke-linecap="round"/>
<path d="M10.7354 2.74237V0.680033" stroke="#FDF72A" stroke-width="1.5" stroke-linecap="round"/>
<path d="M0.64624 10.6653H2.70858" stroke="#FDF72A" stroke-width="1.5" stroke-linecap="round"/>
</g>
<defs>
<linearGradient id="paint0_linear_162_3618" x1="17.2054" y1="9.22302" x2="17.2054" y2="21.0378" gradientUnits="userSpaceOnUse">
<stop stop-color="#E6E6EF"/>
<stop offset="1" stop-color="#D4D4DE" stop-opacity="0.43"/>
</linearGradient>
<clipPath id="clip0_162_3618">
<rect width="28" height="28" fill="white"/>
</clipPath>
</defs>
</svg>
