<svg width="28" height="28" viewBox="0 0 28 28" fill="none" xmlns="http://www.w3.org/2000/svg">
<g clip-path="url(#clip0_4_166)">
<path d="M13.8155 4.12306C14.419 4.92759 15.8267 5.38015 15.3241 9.23516C14.472 9.41674 12.5164 9.88047 11.5107 10.2827C10.5051 10.685 10.1419 13.0483 10.0861 14.1797L8.32617 15.4367C5.34272 15.8055 3.17226 12.5734 2.45996 10.9113C4.55508 11.1627 7.0692 10.0732 8.99671 8.85805C10.5387 7.88591 11.008 3.9834 11.0499 2.15366C11.7203 2.47491 13.2121 3.31854 13.8155 4.12306Z" fill="#F091FF" fill-opacity="0.3"/>
<path d="M23.0309 13.9563C23.0493 13.9563 23.0677 13.949 23.0897 13.949C25.0389 13.949 26.6203 15.5366 26.6203 17.4934C26.6203 19.4502 25.0389 21.0378 23.0897 21.0378H21.9936H11.3211C9.37193 21.0378 7.79053 19.4502 7.79053 17.4934C7.79053 15.9242 8.81293 14.6062 10.2215 14.1409C10.1737 13.8862 10.1442 13.6277 10.1442 13.3582C10.1442 11.0728 11.9868 9.22305 14.2633 9.22305C15.8557 9.22305 17.2201 10.1387 17.9042 11.4679C18.4448 10.8217 19.2429 10.4045 20.1476 10.4045C21.7731 10.4045 23.0897 11.7263 23.0897 13.3582C23.0897 13.565 23.0713 13.7644 23.0309 13.9563Z" fill="url(#paint0_linear_4_166)"/>
<path d="M11.2882 21.0378C9.35718 21.0378 7.79053 19.465 7.79053 17.5265C7.79053 15.972 8.80338 14.6662 10.1988 14.2053C10.1514 13.953 10.1223 13.6969 10.1223 13.4299C10.1223 11.1658 11.9476 9.33334 14.2029 9.33334C15.7804 9.33334 17.1321 10.2404 17.8098 11.5572C18.3454 10.9171 19.136 10.5038 20.0322 10.5038C21.6426 10.5038 22.9469 11.8132 22.9469 13.4299C22.9469 13.6347 22.9287 13.8323 22.8886 14.0225C22.9069 14.0225 22.9251 14.0151 22.9469 14.0151C24.8779 14.0151 26.4446 15.5879 26.4446 17.5265C26.4446 19.465 24.8779 21.0378 22.9469 21.0378H21.8611" stroke="#D580FF" stroke-width="1.5" stroke-linecap="round" stroke-linejoin="round"/>
<path d="M15.5242 25.0833L18.2674 19.1396" stroke="#3FD5FE" stroke-width="1.5" stroke-linecap="round"/>
<path d="M11.6667 26.9437L14.41 21" stroke="#3FD5FE" stroke-width="1.5" stroke-linecap="round"/>
<path d="M19.1816 24.8784L20.0961 23.0496" stroke="#3FD5FE" stroke-width="1.5" stroke-linecap="round"/>
<path d="M10.3279 1.89694C11.3926 2.23534 12.3551 2.8362 13.1267 3.64416C13.8982 4.45213 14.4541 5.44124 14.7431 6.52041M2.30754 10.9376C2.74165 11.967 3.42779 12.8706 4.30277 13.5653C4.8984 14.0382 5.56851 14.4038 6.28301 14.6489" stroke="#D580FF" stroke-width="1.5" stroke-linecap="round"/>
<path d="M10.306 1.90797C10.7325 3.06312 10.8303 4.31389 10.5886 5.52129C10.3469 6.72869 9.77512 7.84543 8.93684 8.74739C8.09857 9.64934 7.02661 10.3012 5.84011 10.6305C4.6536 10.9598 3.39902 10.9537 2.21579 10.6128" stroke="#D580FF" stroke-width="1.5" stroke-linecap="round"/>
</g>
<defs>
<linearGradient id="paint0_linear_4_166" x1="17.2054" y1="9.22305" x2="17.2054" y2="21.0378" gradientUnits="userSpaceOnUse">
<stop stop-color="#D372E2"/>
<stop offset="1" stop-color="#F091FF" stop-opacity="0.2"/>
</linearGradient>
<clipPath id="clip0_4_166">
<rect width="28" height="28" fill="white"/>
</clipPath>
</defs>
</svg>
