<svg width="28" height="28" viewBox="0 0 28 28" fill="none" xmlns="http://www.w3.org/2000/svg">
<path d="M22.0438 7.81063C22.0691 7.81063 22.0945 7.8 22.125 7.8C24.8164 7.8 27 10.0844 27 12.9C27 15.7156 24.8164 18 22.125 18H20.6115H5.875C3.18359 18 1 15.7156 1 12.9C1 10.6422 2.41172 8.74563 4.35664 8.07625C4.29063 7.70969 4.25 7.33781 4.25 6.95C4.25 3.66156 6.79414 1 9.9375 1C12.1363 1 14.0203 2.3175 14.9648 4.23C15.7113 3.30031 16.8133 2.7 18.0625 2.7C20.307 2.7 22.125 4.60188 22.125 6.95C22.125 7.2475 22.0996 7.53438 22.0438 7.81063Z" fill="url(#paint0_linear_4_169)"/>
<path d="M5.96778 17.8535C3.30872 17.8535 1.15137 15.6877 1.15137 13.0182C1.15137 10.8776 2.54612 9.07946 4.46767 8.44482C4.40245 8.09728 4.36231 7.74471 4.36231 7.37703C4.36231 4.25926 6.87588 1.73584 9.98146 1.73584C12.1539 1.73584 14.0152 2.98496 14.9484 4.7982C15.6859 3.91676 16.7746 3.34761 18.0088 3.34761C20.2264 3.34761 22.0225 5.15077 22.0225 7.37703C22.0225 7.65909 21.9974 7.93107 21.9422 8.19298C21.9673 8.19298 21.9924 8.18291 22.0225 8.18291C24.6816 8.18291 26.8389 10.3487 26.8389 13.0182C26.8389 15.6877 24.6816 17.8535 22.0225 17.8535H19.0828" stroke="#F3F4F7" stroke-width="1.5" stroke-linecap="round" stroke-linejoin="round"/>
<path d="M12.2117 22.4172L12.2117 15" stroke="white" stroke-width="1.5" stroke-linecap="round"/>
<path d="M15.4236 20.5629L9.00015 16.8544" stroke="white" stroke-width="1.5" stroke-linecap="round"/>
<path d="M9 20.5629L15.4234 16.8544" stroke="white" stroke-width="1.5" stroke-linecap="round"/>
<defs>
<linearGradient id="paint0_linear_4_169" x1="14" y1="1" x2="14" y2="18" gradientUnits="userSpaceOnUse">
<stop stop-color="#E6E6EF"/>
<stop offset="1" stop-color="#D4D4DE" stop-opacity="0.43"/>
</linearGradient>
</defs>
</svg>
