<svg width="28" height="28" viewBox="0 0 28 28" fill="none" xmlns="http://www.w3.org/2000/svg">
<g clip-path="url(#clip0_892_9041)">
<path d="M12.6607 3.84288C13.2642 4.64741 14.6719 5.09997 14.1693 8.95497C13.3172 9.13656 12.0322 9.84388 11.0265 10.2461C10.0208 10.6484 9.65769 13.0117 9.60182 14.1431L7.84192 15.4001C4.85847 15.7689 2.01747 12.2932 1.30518 10.6311C3.40029 10.8825 5.91441 9.79304 7.84192 8.57787C9.38393 7.60573 9.85323 3.70322 9.89512 1.87347C10.5656 2.19473 12.0573 3.03836 12.6607 3.84288Z" fill="#F091FF" fill-opacity="0.3"/>
<path d="M23.0309 13.9564C23.0493 13.9564 23.0677 13.949 23.0897 13.949C25.0389 13.949 26.6203 15.5366 26.6203 17.4934C26.6203 19.4502 25.0389 21.0378 23.0897 21.0378H21.9936H11.3211C9.37193 21.0378 7.79053 19.4502 7.79053 17.4934C7.79053 15.9243 8.81293 14.6062 10.2215 14.141C10.1737 13.8862 10.1442 13.6278 10.1442 13.3582C10.1442 11.0728 11.9868 9.22308 14.2633 9.22308C15.8557 9.22308 17.2201 10.1387 17.9042 11.4679C18.4448 10.8218 19.2429 10.4046 20.1476 10.4046C21.7731 10.4046 23.0897 11.7263 23.0897 13.3582C23.0897 13.565 23.0713 13.7644 23.0309 13.9564Z" fill="url(#paint0_linear_892_9041)"/>
<path d="M11.2882 21.0379C9.35718 21.0379 7.79053 19.4651 7.79053 17.5265C7.79053 15.972 8.80338 14.6662 10.1988 14.2054C10.1514 13.953 10.1223 13.697 10.1223 13.4299C10.1223 11.1659 11.9476 9.33337 14.2029 9.33337C15.7804 9.33337 17.1321 10.2405 17.8098 11.5572C18.3454 10.9171 19.136 10.5038 20.0322 10.5038C21.6426 10.5038 22.9469 11.8133 22.9469 13.4299C22.9469 13.6348 22.9287 13.8323 22.8886 14.0225C22.9069 14.0225 22.9251 14.0152 22.9469 14.0152C24.8779 14.0152 26.4446 15.588 26.4446 17.5265C26.4446 19.4651 24.8779 21.0379 22.9469 21.0379H21.8611" stroke="#D580FF" stroke-width="1.5" stroke-linecap="round" stroke-linejoin="round"/>
<path d="M15.3089 17.7947L13.9233 20.5615H16.0396L14.1752 24.219" stroke="#FDF72A" stroke-width="1.5" stroke-linecap="round" stroke-linejoin="round"/>
<path d="M10.887 25.4844L12.0122 23.0347" stroke="#3FD5FE" stroke-width="1.5" stroke-linecap="round"/>
<path d="M16.6384 25.51L18.9058 20.5974" stroke="#3FD5FE" stroke-width="1.5" stroke-linecap="round"/>
<path d="M19.6616 24.3763L20.4174 22.8647" stroke="#3FD5FE" stroke-width="1.5" stroke-linecap="round"/>
<path d="M9.16825 1.63906C10.233 1.97747 11.1954 2.57832 11.967 3.38629C12.7386 4.19425 13.2944 5.18336 13.5834 6.26253M1.14787 10.6797C1.58199 11.7091 2.26813 12.6128 3.1431 13.3074C3.73874 13.7803 4.40884 14.146 5.12334 14.391" stroke="#FF99FF" stroke-width="1.5" stroke-linecap="round"/>
<path d="M9.14636 1.6501C9.57283 2.80525 9.67064 4.05602 9.42893 5.26342C9.18722 6.47082 8.61545 7.58755 7.77718 8.48951C6.9389 9.39147 5.86694 10.0433 4.68044 10.3726C3.49393 10.7019 2.23935 10.6958 1.05613 10.3549" stroke="#FF99FF" stroke-width="1.5" stroke-linecap="round"/>
</g>
<defs>
<linearGradient id="paint0_linear_892_9041" x1="17.2054" y1="9.22308" x2="17.2054" y2="21.0378" gradientUnits="userSpaceOnUse">
<stop stop-color="#D372E2"/>
<stop offset="1" stop-color="#F091FF" stop-opacity="0.2"/>
</linearGradient>
<clipPath id="clip0_892_9041">
<rect width="28" height="28" fill="white"/>
</clipPath>
</defs>
</svg>
