<svg width="120" height="120" viewBox="0 0 120 120" fill="none" xmlns="http://www.w3.org/2000/svg">
<path d="M94.6562 37.2C94.5244 37.2 94.4146 37.2441 94.3047 37.2441C94.5464 36.0984 94.6562 34.9088 94.6562 33.675C94.6562 23.9372 86.79 16.05 77.0781 16.05C71.6729 16.05 66.9048 18.5395 63.6748 22.395C59.5879 14.4637 51.436 9 41.9219 9C28.3208 9 17.3125 20.0377 17.3125 33.675C17.3125 35.2833 17.4883 36.8255 17.7739 38.3456C9.3584 41.1216 3.25 48.9867 3.25 58.35C3.25 70.0266 12.6982 79.5 24.3438 79.5H94.6562C106.302 79.5 115.75 70.0266 115.75 58.35C115.75 46.6734 106.302 37.2 94.6562 37.2Z" fill="#FF99FF"/>
<path d="M85 79.5C84.9016 79.5 84.8195 79.5328 84.7375 79.5328C84.918 78.6797 85 77.7938 85 76.875C85 69.6234 79.1266 63.75 71.875 63.75C67.8391 63.75 64.2789 65.6039 61.8672 68.475C58.8156 62.5687 52.7289 58.5 45.625 58.5C35.4695 58.5 27.25 65.8664 27.25 76.0219C27.25 77.2195 27.3813 78.368 27.5945 79.5C21.3109 81.5672 16.75 88.2773 16.75 95.25C16.75 103.945 23.8047 111 32.5 111H85C93.6953 111 100.75 103.945 100.75 95.25C100.75 86.5547 93.6953 79.5 85 79.5Z" fill="#D580FF"/>
<path fill-rule="evenodd" clip-rule="evenodd" d="M27.5945 79.5L84.7444 79.5C84.9201 78.657 85 77.782 85 76.875C85 69.6234 79.1266 63.75 71.875 63.75C67.8391 63.75 64.2789 65.6039 61.8672 68.475C58.8156 62.5687 52.7289 58.5 45.625 58.5C35.4695 58.5 27.25 65.8664 27.25 76.0219C27.25 77.2195 27.3813 78.368 27.5945 79.5Z" fill="#9966FF"/>
</svg>
