<svg width="120" height="120" viewBox="0 0 120 120" fill="none" xmlns="http://www.w3.org/2000/svg">
<path fill-rule="evenodd" clip-rule="evenodd" d="M76.3094 21.4808C75.505 21.4717 75.068 22.3929 75.5152 23.0616C81.291 31.6978 82.5691 42.999 77.899 53.0478C73.2288 63.0967 63.7662 69.4062 53.4408 70.5594C52.6414 70.6487 52.219 71.5767 52.7445 72.1857C55.5426 75.4281 59.0627 78.1457 63.2059 80.0712C78.7142 87.2787 97.0788 80.6575 104.224 65.2824C111.37 49.9073 104.59 31.6006 89.082 24.3931C84.9389 22.4676 80.5919 21.5291 76.3094 21.4808Z" fill="#FF99FF"/>
<path d="M91.9778 68.7973C91.8579 68.7973 91.758 68.8371 91.658 68.8371C91.8779 67.8024 91.9778 66.728 91.9778 65.6137C91.9778 56.8191 84.8228 49.6959 75.9889 49.6959C71.0724 49.6959 66.7354 51.9443 63.7974 55.4263C60.08 48.2633 52.6652 43.3288 44.0112 43.3288C31.6398 43.3288 21.6268 53.2973 21.6268 65.6137C21.6268 67.0662 21.7867 68.459 22.0465 69.8319C14.3918 72.339 8.83569 79.4423 8.83569 87.8987C8.83569 98.4442 17.4297 107 28.0223 107H91.9778C102.57 107 111.164 98.4442 111.164 87.8987C111.164 77.3531 102.57 68.7973 91.9778 68.7973Z" fill="#D580FF"/>
<path fill-rule="evenodd" clip-rule="evenodd" d="M100.613 70.8534C98.0418 69.5851 95.1439 68.8719 92.0788 68.8719C92.016 68.8719 91.9587 68.8827 91.904 68.8931C91.8541 68.9026 91.8064 68.9116 91.7586 68.9116C91.9787 67.879 92.0788 66.8066 92.0788 65.6945C92.0788 58.0507 86.646 51.672 79.4014 50.1519C79.07 51.0995 78.6889 52.0396 78.2569 52.9691C73.3388 63.5515 63.1186 69.9807 52.2256 70.5649C55.135 74.415 59.0036 77.6283 63.6851 79.804C76.8304 85.9132 92.0974 81.8489 100.613 70.8534Z" fill="#9966FF"/>
</svg>
