<svg width="120" height="120" viewBox="0 0 120 120" fill="none" xmlns="http://www.w3.org/2000/svg">
<path d="M34.4025 50.5696C34.4025 62.4489 44.066 72.1124 55.9453 72.1124C67.8246 72.1124 77.4881 62.4489 77.4881 50.5696C77.4881 38.6903 67.8246 29.0269 55.9453 29.0269C44.066 29.0269 34.4025 38.6903 34.4025 50.5696ZM51.6342 10.5443C51.6342 8.88746 52.9773 7.54431 54.6342 7.54431H57.2392C58.8961 7.54431 60.2392 8.88746 60.2392 10.5443V17.4519C60.2392 19.1088 58.8961 20.4519 57.2392 20.4519H54.6342C52.9773 20.4519 51.6342 19.1088 51.6342 17.4519V10.5443ZM12.9114 49.2671C12.9114 47.6102 14.2545 46.2671 15.9114 46.2671H22.819C24.4758 46.2671 25.819 47.6102 25.819 49.2671V51.8722C25.819 53.529 24.4758 54.8722 22.819 54.8722H15.9114C14.2545 54.8722 12.9114 53.529 12.9114 51.8722V49.2671ZM86.0544 49.2671C86.0544 47.6102 87.3976 46.2671 89.0544 46.2671H95.962C97.6189 46.2671 98.962 47.6102 98.962 49.2671V51.8722C98.962 53.529 97.6189 54.8722 95.962 54.8722H89.0544C87.3976 54.8722 86.0544 53.529 86.0544 51.8722V49.2671ZM76.3094 28.3558C75.1378 27.1843 75.1378 25.2848 76.3094 24.1132L81.1967 19.2259C82.3683 18.0543 84.2678 18.0543 85.4393 19.2259L87.2805 21.067C88.452 22.2386 88.452 24.1381 87.2805 25.3096L82.3931 30.197C81.2216 31.3685 79.3221 31.3685 78.1505 30.197L76.3094 28.3558ZM33.7234 30.2008C32.5516 31.3725 30.6517 31.3723 29.4803 30.2003L24.597 25.3147C23.4256 24.1427 23.4261 22.2431 24.5982 21.0718L26.4417 19.2297C27.6138 18.0584 29.5134 18.0592 30.6846 19.2314L35.566 24.1175C36.7367 25.2892 36.7362 27.1879 35.565 28.3591L33.7234 30.2008Z" fill="#FDF72A"/>
<path d="M92.6875 76.1241C92.5668 76.1241 92.4662 76.164 92.3656 76.164C92.5869 75.1259 92.6875 74.0478 92.6875 72.9298C92.6875 64.1055 85.4855 56.9582 76.5938 56.9582C71.6449 56.9582 67.2795 59.2142 64.3223 62.708C60.5805 55.5208 53.117 50.5696 44.4062 50.5696C31.9537 50.5696 21.875 60.5718 21.875 72.9298C21.875 74.3872 22.0359 75.7847 22.2975 77.1622C14.5926 79.6777 9 86.805 9 95.2899C9 105.871 17.6504 114.456 28.3125 114.456H92.6875C103.35 114.456 112 105.871 112 95.2899C112 84.7088 103.35 76.1241 92.6875 76.1241Z" fill="white"/>
<path fill-rule="evenodd" clip-rule="evenodd" d="M76.5215 56.9584C71.6025 56.9803 67.2652 59.2312 64.3223 62.708C60.5805 55.5208 53.1171 50.5696 44.4063 50.5696C40.859 50.5696 37.5042 51.3813 34.5203 52.8279C35.6525 63.6498 44.8288 72.1125 55.9456 72.1125C65.6014 72.1125 73.7932 65.7279 76.5215 56.9584Z" fill="#F7D056"/>
</svg>
