<svg width="120" height="120" viewBox="0 0 120 120" fill="none" xmlns="http://www.w3.org/2000/svg">
<path d="M50.5108 38.0752C50.5108 48.0356 58.6133 56.1381 68.5737 56.1381C78.534 56.1381 86.6365 48.0356 86.6365 38.0752C86.6365 28.1149 78.534 20.0124 68.5737 20.0124C58.6133 20.0124 50.5108 28.1149 50.5108 38.0752ZM64.9589 5C64.9589 3.34315 66.3021 2 67.9589 2H69.174C70.8308 2 72.174 3.34315 72.174 5V9.82257C72.174 11.4794 70.8308 12.8226 69.174 12.8226H67.9589C66.3021 12.8226 64.9589 11.4794 64.9589 9.82257V5ZM32.4912 37.4677C32.4912 35.8109 33.8344 34.4677 35.4912 34.4677H40.3138C41.9706 34.4677 43.3138 35.8109 43.3138 37.4677V38.6828C43.3138 40.3396 41.9706 41.6828 40.3138 41.6828H35.4912C33.8344 41.6828 32.4912 40.3396 32.4912 38.6828V37.4677ZM93.8191 37.4677C93.8191 35.8109 95.1623 34.4677 96.8191 34.4677H101.642C103.299 34.4677 104.642 35.8109 104.642 37.4677V38.6828C104.642 40.3396 103.299 41.6828 101.642 41.6828H96.8191C95.1623 41.6828 93.8191 40.3396 93.8191 38.6828V37.4677ZM85.9909 19.7924C84.8193 18.6208 84.8193 16.7213 85.9909 15.5498L89.4034 12.1372C90.575 10.9657 92.4745 10.9657 93.6461 12.1372L94.5045 12.9956C95.676 14.1672 95.676 16.0667 94.5045 17.2383L91.0919 20.6508C89.9204 21.8224 88.0209 21.8224 86.8493 20.6508L85.9909 19.7924ZM50.2841 20.6539C49.1123 21.8257 47.2125 21.8255 46.041 20.6534L42.6318 17.2426C41.4604 16.0707 41.461 14.171 42.6331 12.9997L43.4931 12.1403C44.6651 10.9691 46.5648 10.9699 47.736 12.1421L51.144 15.5534C52.3146 16.7251 52.3142 18.6238 51.143 19.795L50.2841 20.6539Z" fill="#F7D056"/>
<path d="M85.1691 50.7562C85.0679 50.7562 84.9835 50.7897 84.8992 50.7897C85.0847 49.9192 85.1691 49.0153 85.1691 48.0779C85.1691 40.6791 79.1305 34.6863 71.675 34.6863C67.5256 34.6863 63.8653 36.5779 61.3858 39.5073C58.2484 33.4811 51.9906 29.3297 44.6869 29.3297C34.2459 29.3297 25.7952 37.7162 25.7952 48.0779C25.7952 49.2999 25.9302 50.4716 26.1495 51.6267C19.6892 53.7358 15 59.7118 15 66.8261C15 75.698 22.2531 82.896 31.1929 82.896H85.1691C94.1089 82.896 101.362 75.698 101.362 66.8261C101.362 57.9542 94.1089 50.7562 85.1691 50.7562Z" fill="#D4D4DE"/>
<path fill-rule="evenodd" clip-rule="evenodd" d="M68.5734 56.1382C58.613 56.1382 50.5105 48.0357 50.5105 38.0753C50.5105 35.4964 51.0537 33.042 52.0317 30.8206C56.0702 32.5413 59.3713 35.6378 61.3859 39.5073C63.8654 36.5779 67.5257 34.6864 71.6751 34.6864C78.3073 34.6864 83.8182 39.4287 84.9545 45.6845C82.0778 51.853 75.8169 56.1382 68.5734 56.1382Z" fill="#FEB800"/>
<rect x="38.5972" y="73.0574" width="3.83943" height="16.3978" rx="1" fill="#3FD5FE"/>
<rect width="3.8536" height="16.3377" rx="1" transform="matrix(0.498161 -0.867085 0.86496 0.501841 32.4912 78.8275)" fill="#3FD5FE"/>
<rect width="3.8536" height="16.3377" rx="1" transform="matrix(-0.498161 -0.867085 -0.86496 0.501841 48.8892 78.3279)" fill="#3FD5FE"/>
<rect x="69.2063" y="73.0574" width="3.83943" height="16.3978" rx="1" fill="#3FD5FE"/>
<rect width="3.8536" height="16.3377" rx="1" transform="matrix(0.498161 -0.867085 0.86496 0.501841 63.1003 78.8275)" fill="#3FD5FE"/>
<rect width="3.8536" height="16.3377" rx="1" transform="matrix(-0.498161 -0.867085 -0.86496 0.501841 79.4983 78.3279)" fill="#3FD5FE"/>
<rect x="53.9016" y="89.4552" width="3.83943" height="16.3978" rx="1" fill="#3FD5FE"/>
<rect width="3.8536" height="16.3377" rx="1" transform="matrix(0.498161 -0.867085 0.86496 0.501841 47.7957 95.2253)" fill="#3FD5FE"/>
<rect width="3.8536" height="16.3377" rx="1" transform="matrix(-0.498161 -0.867085 -0.86496 0.501841 64.1936 94.7257)" fill="#3FD5FE"/>
<path fill-rule="evenodd" clip-rule="evenodd" d="M47.3565 83.039L44.1413 81.1826L48.0452 78.9287C48.5235 78.6526 48.6874 78.041 48.4112 77.5627L47.4996 75.9836C47.2234 75.5053 46.6118 75.3415 46.1335 75.6176L42.4857 77.7237V74.2059C42.4857 73.6536 42.038 73.2059 41.4857 73.2059H39.6624C39.1101 73.2059 38.6624 73.6536 38.6624 74.2059V78.0194L35.3598 76.1127C34.8815 75.8365 34.2699 76.0004 33.9938 76.4787L33.0821 78.0578C32.806 78.536 32.9699 79.1476 33.4482 79.4238L36.4946 81.1826L33.2794 83.039H47.3565Z" fill="#0090C3"/>
<path fill-rule="evenodd" clip-rule="evenodd" d="M77.9429 83.039L74.7277 81.1826L78.6316 78.9287C79.1099 78.6526 79.2738 78.041 78.9976 77.5627L78.086 75.9836C77.8098 75.5053 77.1982 75.3415 76.72 75.6176L73.0721 77.7237V74.2059C73.0721 73.6536 72.6244 73.2059 72.0721 73.2059H70.2488C69.6965 73.2059 69.2488 73.6536 69.2488 74.2059V78.0194L65.9463 76.1127C65.468 75.8365 64.8564 76.0004 64.5802 76.4787L63.6686 78.0578C63.3924 78.536 63.5563 79.1476 64.0346 79.4238L67.081 81.1826L63.8658 83.039H77.9429Z" fill="#0090C3"/>
<path d="M42.5821 102.189C41.1021 107.244 37.957 108.61 37.957 112.174C37.957 115.328 40.443 117.878 43.5071 117.878C46.5711 117.878 49.0571 115.328 49.0571 112.174C49.0571 108.599 45.9121 107.267 44.4321 102.189C44.1777 101.267 42.8711 101.221 42.5821 102.189Z" fill="#6A9CFF"/>
<path d="M66.6324 102.189C65.1523 107.244 62.0073 108.61 62.0073 112.174C62.0073 115.328 64.4933 117.878 67.5574 117.878C70.6214 117.878 73.1074 115.328 73.1074 112.174C73.1074 108.599 69.9624 107.267 68.4824 102.189C68.228 101.267 66.9214 101.221 66.6324 102.189Z" fill="#6A9CFF"/>
</svg>
