<svg width="120" height="120" viewBox="0 0 120 120" fill="none" xmlns="http://www.w3.org/2000/svg">
<path d="M57.723 57.9078C55.8276 64.3816 51.7999 66.1313 51.7999 70.6951C51.7999 74.7339 54.9836 78 58.9076 78C62.8317 78 66.0153 74.7339 66.0153 70.6951C66.0153 66.1167 61.9876 64.4108 60.0922 57.9078C59.7665 56.7267 58.0932 56.6684 57.723 57.9078Z" fill="#6A9CFF"/>
<path d="M33.9231 57.9078C32.0277 64.3816 28 66.1313 28 70.6951C28 74.7339 31.1837 78 35.1077 78C39.0317 78 42.2154 74.7339 42.2154 70.6951C42.2154 66.1167 38.1877 64.4108 36.2923 57.9078C35.9665 56.7267 34.2933 56.6684 33.9231 57.9078Z" fill="#6A9CFF"/>
<path d="M81.5231 57.9078C79.6277 64.3816 75.6 66.1313 75.6 70.6951C75.6 74.7339 78.7836 78 82.7077 78C86.6317 78 89.8154 74.7339 89.8154 70.6951C89.8154 66.1167 85.7877 64.4108 83.8923 57.9078C83.5665 56.7267 81.8932 56.6684 81.5231 57.9078Z" fill="#6A9CFF"/>
<path d="M92.3125 31.52C92.1894 31.52 92.0869 31.5611 91.9843 31.5611C92.2099 30.4918 92.3125 29.3815 92.3125 28.23C92.3125 19.1413 84.9706 11.78 75.9062 11.78C70.8613 11.78 66.4111 14.1035 63.3964 17.702C59.582 10.2995 51.9736 5.19995 43.0937 5.19995C30.3993 5.19995 20.1249 15.5018 20.1249 28.23C20.1249 29.731 20.289 31.1704 20.5556 32.5892C12.7011 35.1801 6.99988 42.5209 6.99988 51.26C6.99988 62.1581 15.8182 71 26.6874 71H92.3125C103.182 71 112 62.1581 112 51.26C112 40.3619 103.182 31.52 92.3125 31.52Z" fill="#D4D4DE"/>
<path fill-rule="evenodd" clip-rule="evenodd" d="M89.594 71.0001C89.598 70.8989 89.6001 70.7972 89.6001 70.6951C89.6001 68.2918 88.4903 66.68 87.1616 64.7504C85.9592 63.004 84.5774 60.9972 83.677 57.9078C83.3512 56.7267 81.6779 56.6684 81.3077 57.9078C80.4089 60.978 79.0304 62.9856 77.8294 64.7348C76.498 66.6741 75.3847 68.2956 75.3847 70.6951C75.3847 70.7972 75.3867 70.8989 75.3907 71.0001H89.594ZM65.9017 71.0001C65.9057 70.8989 65.9077 70.7972 65.9077 70.6951C65.9077 68.2918 64.7979 66.68 63.4693 64.7504C62.2668 63.004 60.8851 60.9972 59.9846 57.9078C59.6589 56.7267 57.9856 56.6684 57.6154 57.9078C56.7165 60.978 55.3381 62.9856 54.1371 64.7348C52.8057 66.6741 51.6923 68.2956 51.6923 70.6951C51.6923 70.7972 51.6944 70.8989 51.6984 71.0001H65.9017ZM42.2093 71.0001C42.2134 70.8989 42.2154 70.7972 42.2154 70.6951C42.2154 68.2918 41.1056 66.68 39.777 64.7504C38.5745 63.004 37.1928 60.9972 36.2923 57.9078C35.9665 56.7267 34.2933 56.6684 33.9231 57.9078C33.0242 60.978 31.6458 62.9856 30.4448 64.7348C29.1133 66.6741 28 68.2956 28 70.6951C28 70.7972 28.002 70.8989 28.0061 71.0001H42.2093Z" fill="#3377FF"/>
<path d="M46.5229 77.5078C44.6275 83.9816 40.5999 85.7313 40.5999 90.2951C40.5999 94.3339 43.7835 97.6 47.7075 97.6C51.6316 97.6 54.8152 94.3339 54.8152 90.2951C54.8152 85.7167 50.7876 84.0108 48.8922 77.5078C48.5664 76.3267 46.8931 76.2684 46.5229 77.5078Z" fill="#6A9CFF"/>
<path d="M68.923 77.5078C67.0276 83.9816 62.9999 85.7313 62.9999 90.2951C62.9999 94.3339 66.1835 97.6 70.1076 97.6C74.0316 97.6 77.2153 94.3339 77.2153 90.2951C77.2153 85.7167 73.1876 84.0108 71.2922 77.5078C70.9664 76.3267 69.2932 76.2684 68.923 77.5078Z" fill="#6A9CFF"/>
<path d="M57.723 95.7078C55.8276 102.182 51.7999 103.931 51.7999 108.495C51.7999 112.534 54.9836 115.8 58.9076 115.8C62.8317 115.8 66.0153 112.534 66.0153 108.495C66.0153 103.917 61.9876 102.211 60.0922 95.7078C59.7665 94.5268 58.0932 94.4685 57.723 95.7078Z" fill="#6A9CFF"/>
</svg>
