<svg width="120" height="120" viewBox="0 0 120 120" fill="none" xmlns="http://www.w3.org/2000/svg">
<path d="M88.5625 31.592C88.4535 31.592 88.3627 31.6285 88.2719 31.6285C88.4717 30.6814 88.5625 29.6979 88.5625 28.678C88.5625 20.6281 82.0598 14.108 74.0312 14.108C69.5629 14.108 65.6213 16.166 62.9512 19.3532C59.5727 12.7967 52.8338 8.28003 44.9688 8.28003C33.7252 8.28003 24.625 17.4045 24.625 28.678C24.625 30.0075 24.7703 31.2824 25.0064 32.5391C18.0496 34.8339 13 41.3357 13 49.076C13 58.7287 20.8105 66.56 30.4375 66.56H88.5625C98.1895 66.56 106 58.7287 106 49.076C106 39.4234 98.1895 31.592 88.5625 31.592Z" fill="white"/>
<rect x="39.7659" y="57.88" width="4.35505" height="18.6" rx="1" fill="white"/>
<rect width="4.37113" height="18.5318" rx="1" transform="matrix(0.498161 -0.867085 0.86496 0.501841 32.8401 64.425)" fill="white"/>
<rect width="4.37113" height="18.5318" rx="1" transform="matrix(-0.498161 -0.867085 -0.86496 0.501841 51.4402 63.8584)" fill="white"/>
<rect x="74.4858" y="57.88" width="4.35505" height="18.6" rx="1" fill="white"/>
<rect width="4.37113" height="18.5318" rx="1" transform="matrix(0.498161 -0.867085 0.86496 0.501841 67.5601 64.425)" fill="white"/>
<rect width="4.37113" height="18.5318" rx="1" transform="matrix(-0.498161 -0.867085 -0.86496 0.501841 86.1602 63.8584)" fill="white"/>
<rect x="57.1257" y="76.48" width="4.35505" height="18.6" rx="1" fill="white"/>
<rect width="4.37113" height="18.5318" rx="1" transform="matrix(0.498161 -0.867085 0.86496 0.501841 50.2 83.0251)" fill="white"/>
<rect width="4.37113" height="18.5318" rx="1" transform="matrix(-0.498161 -0.867085 -0.86496 0.501841 68.8 82.4584)" fill="white"/>
<path fill-rule="evenodd" clip-rule="evenodd" d="M46.7035 66.7222L50.5996 64.4728C51.0779 64.1967 51.2418 63.5851 50.9656 63.1068L49.7972 61.0831C49.5211 60.6048 48.9095 60.4409 48.4312 60.717L44.1772 63.1731V59.0486C44.1772 58.4964 43.7295 58.0486 43.1772 58.0486H40.8404C40.2881 58.0486 39.8404 58.4964 39.8404 59.0486V63.5085L35.978 61.2786C35.4997 61.0025 34.8881 61.1663 34.612 61.6446L33.4436 63.6683C33.1675 64.1466 33.3313 64.7582 33.8096 65.0344L36.7331 66.7222H46.7035Z" fill="#D4D4DE"/>
<path fill-rule="evenodd" clip-rule="evenodd" d="M81.3981 66.7222L85.2942 64.4728C85.7725 64.1967 85.9363 63.5851 85.6602 63.1068L84.4918 61.0831C84.2157 60.6048 83.6041 60.4409 83.1258 60.717L78.8718 63.1731V59.0486C78.8718 58.4964 78.4241 58.0486 77.8718 58.0486H75.535C74.9827 58.0486 74.535 58.4964 74.535 59.0486V63.5085L70.6726 61.2786C70.1943 61.0025 69.5827 61.1663 69.3066 61.6446L68.1382 63.6683C67.862 64.1466 68.0259 64.7582 68.5042 65.0344L71.4277 66.7222H81.3981Z" fill="#D4D4DE"/>
<path d="M44.2862 90.9241C42.6074 96.6581 39.04 98.2078 39.04 102.25C39.04 105.827 41.8598 108.72 45.3354 108.72C48.811 108.72 51.6308 105.827 51.6308 102.25C51.6308 98.1949 48.0634 96.6839 46.3847 90.9241C46.0961 89.878 44.6141 89.8264 44.2862 90.9241Z" fill="#3FD5FE"/>
<path d="M71.5662 90.9241C69.8875 96.6581 66.3201 98.2078 66.3201 102.25C66.3201 105.827 69.1399 108.72 72.6155 108.72C76.091 108.72 78.9108 105.827 78.9108 102.25C78.9108 98.1949 75.3435 96.6839 73.6647 90.9241C73.3761 89.878 71.8941 89.8264 71.5662 90.9241Z" fill="#3FD5FE"/>
</svg>
