<svg width="120" height="120" viewBox="0 0 120 120" fill="none" xmlns="http://www.w3.org/2000/svg">
<path fill-rule="evenodd" clip-rule="evenodd" d="M76.4751 11.7402C75.6797 11.784 75.2981 12.7155 75.773 13.3551C82.4566 22.3567 84.422 34.5987 79.8983 45.8615C75.3746 57.1243 65.4873 64.6057 54.4341 66.4833C53.6488 66.6168 53.28 67.5534 53.8241 68.1352C56.9956 71.5266 60.9339 74.2896 65.5155 76.1298C82.45 82.9315 101.759 74.5492 108.644 57.4073C115.529 40.2655 107.383 20.8554 90.4483 14.0537C85.8667 12.2135 81.1113 11.4848 76.4751 11.7402Z" fill="#FF99FF"/>
<path d="M34.4175 92.2583C32.4802 98.7281 28.3635 100.477 28.3635 105.038C28.3635 109.074 31.6175 112.338 35.6283 112.338C39.639 112.338 42.893 109.074 42.893 105.038C42.893 100.462 38.7763 98.7573 36.8391 92.2583C36.5061 91.078 34.7958 91.0197 34.4175 92.2583ZM58.6333 92.2583C56.696 98.7281 52.5793 100.477 52.5793 105.038C52.5793 109.074 55.8333 112.338 59.844 112.338C63.8548 112.338 67.1088 109.074 67.1088 105.038C67.1088 100.462 62.9921 98.7573 61.0548 92.2583C60.7219 91.078 59.0116 91.0197 58.6333 92.2583ZM82.849 92.2583C80.9118 98.7281 76.7951 100.477 76.7951 105.038C76.7951 109.074 80.0491 112.338 84.0598 112.338C88.0706 112.338 91.3246 109.074 91.3246 105.038C91.3246 100.462 87.2079 98.7573 85.2706 92.2583C84.9377 91.078 83.2274 91.0197 82.849 92.2583Z" fill="#FF99FF"/>
<path d="M95.3417 60.7949C95.211 60.7949 95.1021 60.8383 94.9932 60.8383C95.2328 59.7086 95.3417 58.5355 95.3417 57.3189C95.3417 47.7165 87.5458 39.939 77.9208 39.939C72.5639 39.939 67.8385 42.3939 64.6374 46.1958C60.587 38.3748 52.5081 32.9871 43.0791 32.9871C29.5997 32.9871 18.6899 43.8712 18.6899 57.3189C18.6899 58.9048 18.8641 60.4255 19.1472 61.9245C10.8069 64.6619 4.75317 72.4176 4.75317 81.6507C4.75317 93.1649 14.1169 102.507 25.6582 102.507H95.3417C106.883 102.507 116.247 93.1649 116.247 81.6507C116.247 70.1365 106.883 60.7949 95.3417 60.7949Z" fill="#D580FF"/>
<path fill-rule="evenodd" clip-rule="evenodd" d="M90.8998 102.512C90.4551 101.228 89.6828 100.107 88.8195 98.8528C87.5977 97.0783 86.1937 95.0392 85.2788 91.9001C84.9478 90.7 83.2476 90.6407 82.8714 91.9001C81.9581 95.0196 80.5575 97.0596 79.3371 98.837C78.472 100.097 77.6974 101.225 77.2514 102.512H90.8998ZM66.6794 102.512C66.2346 101.228 65.4623 100.107 64.5991 98.8529C63.3773 97.0784 61.9733 95.0394 61.0584 91.9002C60.7274 90.7002 59.0272 90.6409 58.651 91.9002C57.7377 95.0198 56.337 97.0598 55.1167 98.8372C54.2516 100.097 53.4771 101.225 53.0311 102.512H66.6794ZM42.4563 102.512C42.0115 101.228 41.2393 100.107 40.3761 98.8529C39.1542 97.0784 37.7503 95.0394 36.8353 91.9002C36.5043 90.7002 34.8041 90.6409 34.4279 91.9002C33.5146 95.0198 32.114 97.0598 30.8937 98.8372C30.0285 100.097 29.254 101.225 28.808 102.512H42.4563Z" fill="#9966FF"/>
<path fill-rule="evenodd" clip-rule="evenodd" d="M105.818 63.83C102.795 62.1668 99.3181 61.2197 95.6189 61.2197C95.55 61.2197 95.4872 61.2316 95.4272 61.243C95.3724 61.2534 95.3201 61.2633 95.2677 61.2633C95.5091 60.1306 95.6189 58.9543 95.6189 57.7345C95.6189 49.3333 89.6359 42.3254 81.6656 40.6759C81.2744 42.4308 80.7361 44.1772 80.0441 45.9001C75.5238 57.1544 65.5724 64.6018 54.4195 66.4367C53.6289 66.5668 53.2575 67.5105 53.8076 68.0931C57.0244 71.4999 61.0125 74.2813 65.6458 76.1423C80.5398 82.1244 97.1981 76.6254 105.818 63.83Z" fill="#9966FF"/>
</svg>
