<svg width="120" height="120" viewBox="0 0 120 120" fill="none" xmlns="http://www.w3.org/2000/svg">
<path d="M48.1971 54.4122C48.1971 66.8091 58.2816 76.8936 70.6785 76.8936C83.0754 76.8936 93.1599 66.8091 93.1599 54.4122C93.1599 42.0153 83.0754 31.9308 70.6785 31.9308C58.2816 31.9308 48.1971 42.0153 48.1971 54.4122ZM66.1795 12.5122C66.1795 10.8554 67.5227 9.51221 69.1795 9.51221H72.1595C73.8164 9.51221 75.1595 10.8554 75.1595 12.5122V19.9822C75.1595 21.6391 73.8164 22.9822 72.1595 22.9822H69.1795C67.5227 22.9822 66.1795 21.6391 66.1795 19.9822V12.5122ZM25.7695 52.9222C25.7695 51.2653 27.1127 49.9222 28.7695 49.9222H36.2395C37.8964 49.9222 39.2395 51.2653 39.2395 52.9222V55.9022C39.2395 57.559 37.8964 58.9022 36.2395 58.9022H28.7695C27.1127 58.9022 25.7695 57.559 25.7695 55.9022V52.9222ZM102.099 52.9222C102.099 51.2653 103.443 49.9222 105.099 49.9222H112.569C114.226 49.9222 115.569 51.2653 115.569 52.9222V55.9022C115.569 57.559 114.226 58.9022 112.569 58.9022H105.099C103.443 58.9022 102.099 57.559 102.099 55.9022V52.9222ZM91.8374 31.1381C90.6658 29.9665 90.6658 28.067 91.8374 26.8954L97.1225 21.6103C98.2941 20.4387 100.194 20.4387 101.365 21.6103L103.471 23.7165C104.643 24.8881 104.643 26.7876 103.471 27.9592L98.1862 33.2443C97.0147 34.4159 95.1152 34.4159 93.9436 33.2443L91.8374 31.1381ZM47.3959 33.2483C46.2241 34.42 44.3243 34.4198 43.1528 33.2478L37.8719 27.9644C36.7005 26.7924 36.701 24.8928 37.8731 23.7215L39.9818 21.6143C41.1539 20.443 43.0536 20.4438 44.2247 21.616L49.5036 26.8999C50.6742 28.0717 50.6738 29.9704 49.5026 31.1416L47.3959 33.2483Z" fill="#F7D056"/>
<path d="M91.3338 70.1952C91.2079 70.1952 91.1029 70.2369 90.9979 70.2369C91.2289 69.1535 91.3338 68.0284 91.3338 66.8617C91.3338 57.653 83.8181 50.1943 74.5389 50.1943C69.3744 50.1943 64.8188 52.5486 61.7327 56.1946C57.8279 48.6942 50.0392 43.5273 40.9489 43.5273C27.9538 43.5273 17.436 53.9653 17.436 66.8617C17.436 68.3826 17.6039 69.841 17.8768 71.2786C9.83625 73.9037 4 81.3415 4 90.1961C4 101.238 13.0273 110.197 24.154 110.197H91.3338C102.461 110.197 111.488 101.238 111.488 90.1961C111.488 79.1539 102.461 70.1952 91.3338 70.1952Z" fill="#D4D4DE"/>
<path d="M56.017 97.4732C54.175 103.765 50.2606 105.465 50.2606 109.901C50.2606 113.826 53.3547 117 57.1683 117C60.9819 117 64.076 113.826 64.076 109.901C64.076 105.451 60.1616 103.793 58.3196 97.4732C58.003 96.3254 56.3768 96.2687 56.017 97.4732Z" fill="#6A9CFF"/>
<path d="M32.8868 97.4732C31.0447 103.765 27.1304 105.465 27.1304 109.901C27.1304 113.826 30.2244 117 34.0381 117C37.8517 117 40.9457 113.826 40.9457 109.901C40.9457 105.451 37.0314 103.793 35.1893 97.4732C34.8727 96.3254 33.2466 96.2687 32.8868 97.4732Z" fill="#6A9CFF"/>
<path d="M79.1472 97.4732C77.3051 103.765 73.3907 105.465 73.3907 109.901C73.3907 113.826 76.4848 117 80.2984 117C84.1121 117 87.2061 113.826 87.2061 109.901C87.2061 105.451 83.2918 103.793 81.4497 97.4732C81.1331 96.3254 79.5069 96.2687 79.1472 97.4732Z" fill="#6A9CFF"/>
<path fill-rule="evenodd" clip-rule="evenodd" d="M86.9911 110.197C86.995 110.099 86.997 110 86.997 109.901C86.997 107.565 85.9184 105.999 84.6272 104.123C83.4586 102.426 82.1157 100.476 81.2406 97.4732C80.924 96.3254 79.2978 96.2687 78.938 97.4732C78.0645 100.457 76.7248 102.408 75.5576 104.108C74.2636 105.993 73.1816 107.569 73.1816 109.901C73.1816 110 73.1836 110.099 73.1875 110.197H86.9911ZM63.9655 110.197C63.9694 110.099 63.9714 110 63.9714 109.901C63.9714 107.565 62.8928 105.999 61.6016 104.123C60.4329 102.426 59.0901 100.476 58.215 97.4732C57.8984 96.3254 56.2722 96.2687 55.9124 97.4732C55.0388 100.457 53.6992 102.408 52.532 104.108C51.238 105.993 50.156 107.569 50.156 109.901C50.156 110 50.158 110.099 50.1619 110.197H63.9655ZM40.9398 110.197C40.9438 110.099 40.9457 110 40.9457 109.901C40.9457 107.565 39.8672 105.999 38.576 104.123C37.4073 102.426 36.0645 100.476 35.1893 97.4732C34.8727 96.3254 33.2466 96.2687 32.8868 97.4732C32.0132 100.457 30.6735 102.408 29.5064 104.108C28.2124 105.993 27.1304 107.569 27.1304 109.901C27.1304 110 27.1323 110.099 27.1363 110.197H40.9398Z" fill="#3377FF"/>
<path fill-rule="evenodd" clip-rule="evenodd" d="M70.6787 76.8937C58.2818 76.8937 48.1973 66.8091 48.1973 54.4122C48.1973 51.2025 48.8733 48.1478 50.0905 45.3829C55.1168 47.5247 59.2254 51.3786 61.7327 56.1946C64.8188 52.5486 69.3744 50.1943 74.5388 50.1943C82.7936 50.1943 89.6527 56.0969 91.0667 63.8832C87.4863 71.5605 79.6939 76.8937 70.6787 76.8937Z" fill="#FEB800"/>
</svg>
