<svg width="120" height="120" viewBox="0 0 120 120" fill="none" xmlns="http://www.w3.org/2000/svg">
<path d="M91.494 41.9808C91.374 41.9808 91.274 42.0209 91.1741 42.0209C91.394 40.9784 91.494 39.8957 91.494 38.7729C91.494 29.911 84.3354 22.7332 75.497 22.7332C70.5779 22.7332 66.2387 24.9989 63.2993 28.5075C59.58 21.2897 52.1614 16.3174 43.503 16.3174C31.1253 16.3174 21.1072 26.3622 21.1072 38.7729C21.1072 40.2365 21.2671 41.64 21.5271 43.0234C13.8685 45.5497 8.30957 52.7074 8.30957 61.2284C8.30957 71.8547 16.908 80.476 27.506 80.476H91.494C102.092 80.476 110.69 71.8547 110.69 61.2284C110.69 50.6022 102.092 41.9808 91.494 41.9808Z" fill="#D580FF"/>
<rect x="53.8037" y="58.6348" width="10.5475" height="45.0476" rx="1" fill="#FF99FF"/>
<rect width="10.5865" height="44.8823" rx="1" transform="matrix(0.498161 -0.867085 0.86496 0.501841 37.0299 74.4863)" fill="#FF99FF"/>
<rect width="10.5865" height="44.8823" rx="1" transform="matrix(-0.498161 -0.867085 -0.86496 0.501841 82.0775 73.1138)" fill="#FF99FF"/>
<path fill-rule="evenodd" clip-rule="evenodd" d="M69.4398 80.5072L81.3793 73.6139C81.8576 73.3377 82.0215 72.7261 81.7453 72.2479L77.4456 64.8005C77.1695 64.3222 76.5579 64.1584 76.0796 64.4345L64.4319 71.1593V59.6348C64.4319 59.0825 63.9842 58.6348 63.4319 58.6348H54.8325C54.2802 58.6348 53.8325 59.0825 53.8325 59.6348V71.9792L43.1419 65.807C42.6636 65.5308 42.052 65.6947 41.7759 66.173L37.4762 73.6203C37.2 74.0986 37.3639 74.7102 37.8422 74.9864L47.4045 80.5072H69.4398Z" fill="#9966FF"/>
</svg>
