<svg width="120" height="120" viewBox="0 0 120 120" fill="none" xmlns="http://www.w3.org/2000/svg">
<path d="M93.807 44.5188C93.6784 44.5188 93.5712 44.5618 93.4639 44.5618C93.6998 43.4439 93.807 42.2829 93.807 41.079C93.807 31.5764 86.1308 23.8797 76.6535 23.8797C71.3788 23.8797 66.7259 26.3091 63.5739 30.0714C59.5857 22.3318 51.6308 17 42.3464 17C29.0739 17 18.3315 27.771 18.3315 41.079C18.3315 42.6484 18.503 44.1534 18.7817 45.6368C10.5695 48.3457 4.60864 56.0209 4.60864 65.158C4.60864 76.5525 13.8287 85.7971 25.1929 85.7971H93.807C105.171 85.7971 114.391 76.5525 114.391 65.158C114.391 53.7635 105.171 44.5188 93.807 44.5188Z" fill="#D580FF"/>
<rect x="54.1436" y="74.087" width="4.45549" height="19.029" rx="1" fill="#FF99FF"/>
<rect width="4.47194" height="18.9592" rx="1" transform="matrix(0.498161 -0.867085 0.86496 0.501841 47.0579 80.7831)" fill="#FF99FF"/>
<rect width="4.47194" height="18.9592" rx="1" transform="matrix(-0.498161 -0.867085 -0.86496 0.501841 66.0869 80.2032)" fill="#FF99FF"/>
<path fill-rule="evenodd" clip-rule="evenodd" d="M64.6108 85.797L60.528 83.4282L65.2254 80.7029C65.7016 80.4266 65.8649 79.8172 65.5906 79.3398L64.3592 77.1964C64.0833 76.7161 63.4694 76.5516 62.9903 76.8296L58.5988 79.3775V75.0869C58.5988 74.5346 58.151 74.0869 57.5988 74.0869H55.1433C54.591 74.0869 54.1433 74.5346 54.1433 75.0869V79.7239L50.1541 77.4094C49.6749 77.1314 49.0611 77.2959 48.7851 77.7762L47.5537 79.9195C47.2794 80.397 47.4427 81.0063 47.919 81.2827L51.6171 83.4282L48.3213 85.3404C48.1325 85.4499 47.9929 85.6118 47.9102 85.797H64.6108Z" fill="#9966FF"/>
<rect x="30.7234" y="98.9711" width="4.45549" height="19.029" rx="1" fill="#FF99FF"/>
<rect width="4.47194" height="18.9592" rx="1" transform="matrix(0.498161 -0.867085 0.86496 0.501841 23.6377 105.667)" fill="#FF99FF"/>
<rect width="4.47194" height="18.9592" rx="1" transform="matrix(-0.498161 -0.867085 -0.86496 0.501841 42.6667 105.087)" fill="#FF99FF"/>
<rect x="77.564" y="98.9711" width="4.45549" height="19.029" rx="1" fill="#FF99FF"/>
<rect width="4.47194" height="18.9592" rx="1" transform="matrix(0.498161 -0.867085 0.86496 0.501841 70.4783 105.667)" fill="#FF99FF"/>
<rect width="4.47194" height="18.9592" rx="1" transform="matrix(-0.498161 -0.867085 -0.86496 0.501841 89.5073 105.087)" fill="#FF99FF"/>
</svg>
