<svg width="120" height="120" viewBox="0 0 120 120" fill="none" xmlns="http://www.w3.org/2000/svg">
<path d="M88.5625 31.4187C88.4535 31.4187 88.3627 31.4551 88.2719 31.4551C88.4717 30.5081 88.5625 29.5246 88.5625 28.5047C88.5625 20.4548 82.0598 13.9347 74.0312 13.9347C69.5629 13.9347 65.6213 15.9927 62.9512 19.1799C59.5727 12.6234 52.8338 8.10669 44.9688 8.10669C33.7252 8.10669 24.625 17.2312 24.625 28.5047C24.625 29.8342 24.7703 31.1091 25.0064 32.3657C18.0496 34.6605 13 41.1624 13 48.9027C13 58.5553 20.8105 66.3867 30.4375 66.3867H88.5625C98.1895 66.3867 106 58.5553 106 48.9027C106 39.2501 98.1895 31.4187 88.5625 31.4187Z" fill="white"/>
<path d="M85.0593 70.3971V57.0892C85.0593 56.5763 84.3792 56.3959 84.125 56.8415L74.2979 74.0694C74.1077 74.4027 74.3484 74.8171 74.7322 74.8171H85.0593V88.125C85.0593 88.638 85.7395 88.8183 85.9937 88.3728L95.8208 71.1449C96.011 70.8116 95.7703 70.3971 95.3865 70.3971H85.0593Z" fill="#FDF72A"/>
<path d="M32.8484 70.3971V57.0892C32.8484 56.5763 32.1682 56.3959 31.9141 56.8415L22.0869 74.0694C21.8968 74.4027 22.1375 74.8171 22.5212 74.8171H32.8484V88.125C32.8484 88.638 33.5286 88.8183 33.7827 88.3728L43.6099 71.1449C43.8 70.8116 43.5593 70.3971 43.1756 70.3971H32.8484Z" fill="#FDF72A"/>
<path d="M58.9539 81.5852V68.2773C58.9539 67.7643 58.2737 67.584 58.0196 68.0295L48.1924 85.2574C48.0023 85.5907 48.243 86.0051 48.6267 86.0051H58.9539V99.3131C58.9539 99.826 59.634 100.006 59.8882 99.5608L69.7154 82.3329C69.9055 81.9996 69.6648 81.5852 69.281 81.5852H58.9539Z" fill="#FDF72A"/>
<path fill-rule="evenodd" clip-rule="evenodd" d="M85.059 66.3914V57.089C85.059 56.5761 84.3788 56.3957 84.1247 56.8413L78.677 66.3914H85.059ZM32.8483 66.3914V57.089C32.8483 56.5761 32.1681 56.3957 31.914 56.8413L26.6963 65.9883C27.9023 66.2523 29.1547 66.3914 30.4394 66.3914H32.8483Z" fill="#F7D056"/>
<path d="M44.2862 93.2307C42.6074 98.9646 39.04 100.514 39.04 104.557C39.04 108.134 41.8598 111.027 45.3354 111.027C48.811 111.027 51.6308 108.134 51.6308 104.557C51.6308 100.501 48.0634 98.9905 46.3847 93.2307C46.0961 92.1846 44.6141 92.133 44.2862 93.2307Z" fill="#3FD5FE"/>
<path d="M71.566 93.2307C69.8872 98.9646 66.3198 100.514 66.3198 104.557C66.3198 108.134 69.1396 111.027 72.6152 111.027C76.0908 111.027 78.9106 108.134 78.9106 104.557C78.9106 100.501 75.3432 98.9905 73.6644 93.2307C73.3759 92.1846 71.8939 92.133 71.566 93.2307Z" fill="#3FD5FE"/>
</svg>
