<svg width="120" height="120" viewBox="0 0 120 120" fill="none" xmlns="http://www.w3.org/2000/svg">
<path d="M50.4366 36C50.4366 45.9396 58.5222 54.0252 68.4618 54.0252C78.4014 54.0252 86.487 45.9396 86.487 36C86.487 26.0604 78.4014 17.9748 68.4618 17.9748C58.5222 17.9748 50.4366 26.0604 50.4366 36ZM64.8546 3C64.8546 1.34315 66.1977 0 67.8546 0H69.0546C70.7114 0 72.0546 1.34315 72.0546 3V7.8C72.0546 9.45685 70.7114 10.8 69.0546 10.8H67.8546C66.1977 10.8 64.8546 9.45685 64.8546 7.8V3ZM32.4546 35.4C32.4546 33.7431 33.7977 32.4 35.4546 32.4H40.2546C41.9114 32.4 43.2546 33.7431 43.2546 35.4V36.6C43.2546 38.2569 41.9114 39.6 40.2546 39.6H35.4546C33.7977 39.6 32.4546 38.2569 32.4546 36.6V35.4ZM93.6546 35.4C93.6546 33.7431 94.9977 32.4 96.6546 32.4H101.455C103.111 32.4 104.455 33.7431 104.455 35.4V36.6C104.455 38.2569 103.111 39.6 101.455 39.6H96.6546C94.9977 39.6 93.6546 38.2569 93.6546 36.6V35.4ZM85.8471 17.7597C84.6755 16.5881 84.6755 14.6887 85.8471 13.5171L89.2437 10.1205C90.4152 8.94895 92.3147 8.94895 93.4863 10.1205L94.3341 10.9683C95.5056 12.1399 95.5056 14.0393 94.3341 15.2109L90.9375 18.6075C89.7659 19.7791 87.8664 19.7791 86.6949 18.6075L85.8471 17.7597ZM50.2148 18.6106C49.043 19.7823 47.1432 19.7821 45.9717 18.6101L42.5785 15.2153C41.4071 14.0433 41.4076 12.1436 42.5797 10.9724L43.4291 10.1236C44.6012 8.95236 46.5008 8.95315 47.672 10.1254L51.0641 13.5207C52.2347 14.6924 52.2343 16.5911 51.0631 17.7623L50.2148 18.6106Z" fill="#F7D056"/>
<path d="M85.0227 48.6545C84.9217 48.6545 84.8376 48.6879 84.7534 48.6879C84.9386 47.8193 85.0227 46.9172 85.0227 45.9818C85.0227 38.5984 78.9967 32.6182 71.5568 32.6182C67.416 32.6182 63.7634 34.5058 61.2891 37.4291C58.1582 31.4154 51.9134 27.2727 44.625 27.2727C34.2058 27.2727 25.7727 35.6417 25.7727 45.9818C25.7727 47.2012 25.9074 48.3705 26.1262 49.5232C19.6794 51.6279 15 57.5915 15 64.6909C15 73.5443 22.2379 80.7272 31.1591 80.7272H85.0227C93.9439 80.7272 101.182 73.5443 101.182 64.6909C101.182 55.8375 93.9439 48.6545 85.0227 48.6545Z" fill="#D4D4DE"/>
<path d="M79.3636 84.2425V72.7948C79.3636 72.2819 78.6834 72.1016 78.4293 72.5471L69.9719 87.3736C69.7818 87.7069 70.0225 88.1213 70.4062 88.1213H79.3636V99.569C79.3636 100.082 80.0438 100.262 80.2979 99.8167L88.7552 84.9903C88.9454 84.6569 88.7047 84.2425 88.3209 84.2425H79.3636Z" fill="#F7D056"/>
<path d="M33.5455 84.2425V72.7948C33.5455 72.2819 32.8653 72.1016 32.6112 72.5471L24.1538 87.3736C23.9637 87.7069 24.2044 88.1213 24.5881 88.1213H33.5455V99.569C33.5455 100.082 34.2256 100.262 34.4798 99.8167L42.9371 84.9903C43.1273 84.6569 42.8866 84.2425 42.5028 84.2425H33.5455Z" fill="#F7D056"/>
<path d="M56.4547 94.0606V82.613C56.4547 82.1 55.7745 81.9197 55.5203 82.3652L47.063 97.1917C46.8729 97.525 47.1136 97.9394 47.4973 97.9394H56.4547V109.387C56.4547 109.9 57.1348 110.08 57.389 109.635L65.8463 94.8084C66.0364 94.475 65.7957 94.0606 65.412 94.0606H56.4547Z" fill="#F7D056"/>
<path d="M43.6154 104.344C42.1385 109.388 39 110.752 39 114.308C39 117.455 41.4808 120 44.5385 120C47.5962 120 50.0769 117.455 50.0769 114.308C50.0769 110.74 46.9385 109.411 45.4615 104.344C45.2077 103.424 43.9038 103.378 43.6154 104.344Z" fill="#6A9CFF"/>
<path d="M67.6154 104.344C66.1385 109.388 63 110.752 63 114.308C63 117.455 65.4808 120 68.5385 120C71.5962 120 74.0769 117.455 74.0769 114.308C74.0769 110.74 70.9385 109.411 69.4615 104.344C69.2077 103.424 67.9038 103.378 67.6154 104.344Z" fill="#6A9CFF"/>
<path fill-rule="evenodd" clip-rule="evenodd" d="M79.3636 80.7273V72.7948C79.3636 72.2818 78.6834 72.1015 78.4293 72.547L73.7631 80.7273H79.3636ZM33.5454 80.7273V72.7948C33.5454 72.2819 32.8652 72.1015 32.6111 72.5471L28.1467 80.3735C29.2051 80.6052 30.3043 80.7273 31.4318 80.7273H33.5454Z" fill="#FEB800"/>
<path fill-rule="evenodd" clip-rule="evenodd" d="M68.4617 54.0253C58.5221 54.0253 50.4365 45.9397 50.4365 36.0001C50.4365 33.4265 50.9786 30.9773 51.9545 28.7605C55.9846 30.4777 59.2788 33.5677 61.2891 37.4291C63.7635 34.5059 67.4161 32.6182 71.5569 32.6182C78.1753 32.6182 83.6748 37.3507 84.8086 43.5935C81.9379 49.7491 75.6901 54.0253 68.4617 54.0253Z" fill="#FEB800"/>
</svg>
