<svg width="120" height="120" viewBox="0 0 120 120" fill="none" xmlns="http://www.w3.org/2000/svg">
<path d="M91.6875 37.2586C91.5668 37.2586 91.4662 37.299 91.3656 37.299C91.5869 36.2501 91.6875 35.1608 91.6875 34.0313C91.6875 25.1158 84.4855 17.8946 75.5938 17.8946C70.6449 17.8946 66.2795 20.1739 63.3223 23.7038C59.5805 16.4423 52.117 11.4399 43.4062 11.4399C30.9537 11.4399 20.875 21.5455 20.875 34.0313C20.875 35.5037 21.0359 36.9157 21.2975 38.3075C13.5926 40.849 8 48.05 8 56.6226C8 67.3132 16.6504 75.9866 27.3125 75.9866H91.6875C102.35 75.9866 111 67.3132 111 56.6226C111 45.9321 102.35 37.2586 91.6875 37.2586Z" fill="#D580FF"/>
<path d="M60.8734 69.0763V50.5701C60.8734 50.0465 60.1706 49.8751 59.9295 50.3399L42.712 83.54C42.5394 83.8728 42.781 84.2702 43.1559 84.2702H60.8734V102.776C60.8734 103.3 61.5762 103.471 61.8172 103.007L79.0347 69.8065C79.2073 69.4737 78.9658 69.0763 78.5908 69.0763H60.8734Z" fill="#FDF72A"/>
<path fill-rule="evenodd" clip-rule="evenodd" d="M75.8298 75.9866L79.0347 69.8065C79.2073 69.4737 78.9658 69.0763 78.5909 69.0763H60.8734V50.5701C60.8734 50.0465 60.1706 49.8751 59.9296 50.3399L46.6293 75.9866H75.8298Z" fill="#FEB800"/>
<path d="M39.5866 96.761V86.3296C39.5866 85.8028 38.8772 85.6342 38.6401 86.1045L28.9654 105.3C28.7978 105.633 29.0395 106.026 29.4119 106.026H39.5866V116.457C39.5866 116.984 40.2961 117.152 40.5331 116.682L50.2079 97.486C50.3755 97.1534 50.1338 96.761 49.7614 96.761H39.5866Z" fill="#FDF72A"/>
<path d="M82.16 96.761V86.3296C82.16 85.8028 81.4506 85.6342 81.2135 86.1045L71.5388 105.3C71.3712 105.633 71.6129 106.026 71.9853 106.026H82.16V116.457C82.16 116.984 82.8694 117.152 83.1065 116.682L92.7813 97.486C92.9489 97.1534 92.7071 96.761 92.3348 96.761H82.16Z" fill="#FDF72A"/>
</svg>
