<svg width="120" height="120" viewBox="0 0 120 120" fill="none" xmlns="http://www.w3.org/2000/svg">
<path d="M91.8348 38.9368C91.7135 38.9368 91.6125 38.9773 91.5114 38.9773C91.7337 37.9237 91.8348 36.8295 91.8348 35.6947C91.8348 26.7384 84.5999 19.4842 75.6674 19.4842C70.6959 19.4842 66.3105 21.7739 63.3397 25.32C59.5808 18.0253 52.0832 13 43.3326 13C30.823 13 20.6982 23.1518 20.6982 35.6947C20.6982 37.1739 20.8599 38.5924 21.1226 39.9905C13.3825 42.5437 7.76428 49.7776 7.76428 58.3894C7.76428 69.1289 16.4543 77.8421 27.1652 77.8421H91.8348C102.546 77.8421 111.236 69.1289 111.236 58.3894C111.236 47.65 102.546 38.9368 91.8348 38.9368Z" fill="white"/>
<path d="M46.7953 59.907L85.9832 59.907C86.7888 59.9068 87.5643 59.6204 88.1529 59.1059C88.7415 58.5913 89.0994 57.8869 89.1543 57.1349C89.2093 56.383 88.957 55.6395 88.4487 55.0548C87.9403 54.4702 87.2137 54.0878 86.4157 53.9851L85.9832 53.9573L46.7953 53.9573C44.6992 53.9573 42.6501 53.3757 40.9073 52.2861C39.1644 51.1965 37.806 49.6479 37.0038 47.8359C36.2017 46.024 35.9918 44.0302 36.4007 42.1066C36.8097 40.1831 37.819 38.4162 39.3012 37.0294C40.7834 35.6426 42.6718 34.6982 44.7277 34.3156C46.7835 33.933 48.9145 34.1293 50.8511 34.8799C52.7876 35.6304 54.4428 36.9014 55.6074 38.5321C56.7719 40.1628 57.3935 42.0799 57.3935 44.0412C57.3935 44.8302 57.7285 45.5868 58.3248 46.1447C58.921 46.7026 59.7297 47.016 60.573 47.016C61.4162 47.016 62.2249 46.7026 62.8212 46.1447C63.4175 45.5868 63.7524 44.8302 63.7524 44.0412C63.7524 40.9406 62.7813 37.9079 60.9592 35.3181C59.1371 32.7282 56.5439 30.6946 53.5001 29.4687C50.4562 28.2427 47.0952 27.8781 43.8323 28.4199C40.5694 28.9617 37.5477 30.3861 35.1406 32.5172C32.7335 34.6482 31.0465 37.3925 30.2882 40.4108C29.5298 43.4292 29.7333 46.5893 30.8735 49.5006C32.0137 52.4118 34.0406 54.9468 36.7038 56.792C39.3669 58.6372 42.5496 59.7119 45.8584 59.8832L46.7911 59.907L85.9875 59.907L46.7953 59.907Z" fill="#D4D4DE"/>
<path d="M41.4339 70.9439H84.173C85.0516 70.9442 85.8973 71.274 86.5392 71.8666C87.1812 72.4592 87.5716 73.2706 87.6315 74.1366C87.6913 75.0027 87.4163 75.8589 86.8618 76.5323C86.3074 77.2057 85.515 77.6461 84.6446 77.7644L84.173 77.7964H41.4339C39.1479 77.7964 36.9131 78.4662 35.0123 79.7211C33.1115 80.9761 31.63 82.7597 30.7552 84.8466C29.8803 86.9335 29.6514 89.2298 30.0974 91.4452C30.5434 93.6606 31.6443 95.6956 33.2608 97.2928C34.8773 98.8901 36.9368 99.9778 39.179 100.418C41.4211 100.859 43.7452 100.633 45.8572 99.7686C47.9693 98.9041 49.7745 97.4403 51.0446 95.5622C52.3146 93.684 52.9925 91.476 52.9925 89.2171C52.9925 88.3085 53.3579 87.437 54.0082 86.7944C54.6585 86.1519 55.5404 85.7909 56.4601 85.7909C57.3798 85.7909 58.2618 86.1519 58.9121 86.7944C59.5624 87.437 59.9277 88.3085 59.9277 89.2171C59.9276 92.7882 58.8685 96.281 56.8813 99.2638C54.8941 102.247 52.0659 104.589 48.7463 106.001C45.4266 107.413 41.761 107.833 38.2024 107.209C34.6438 106.585 31.3483 104.944 28.7231 102.49C26.0978 100.035 24.258 96.8746 23.4309 93.3983C22.6039 89.922 22.8258 86.2824 24.0693 82.9294C25.3129 79.5764 27.5235 76.6568 30.4279 74.5316C33.3324 72.4064 36.8035 71.1686 40.4122 70.9713L41.4293 70.9439H84.1776H41.4339Z" fill="#D4D4DE"/>
<path fill-rule="evenodd" clip-rule="evenodd" d="M40.4011 77.8421C40.7435 77.8117 41.088 77.7964 41.4338 77.7964H84.1728L84.6444 77.7644C85.5148 77.6461 86.3073 77.2057 86.8617 76.5323C87.4161 75.8589 87.6912 75.0027 87.6313 74.1366C87.5714 73.2706 87.181 72.4592 86.5391 71.8666C85.8971 71.274 85.0514 70.9442 84.1728 70.9439H41.4338H41.4291L40.412 70.9713C36.8033 71.1686 33.3323 72.4064 30.4278 74.5316C29.124 75.4856 27.9601 76.5996 26.9607 77.841C27.0288 77.8417 27.0969 77.8421 27.1652 77.8421H40.4011Z" fill="#90929E"/>
<rect x="68.4675" y="84.7401" width="38.6293" height="6.89809" rx="3" fill="#D4D4DE"/>
</svg>
