<svg width="20" height="20" viewBox="0 0 20 20" fill="none" xmlns="http://www.w3.org/2000/svg">
<path fill-rule="evenodd" clip-rule="evenodd" d="M14.688 5.02673C14.6222 5.10153 14.5 5.31333 14.5 5.83334C14.5 6.24755 14.1642 6.58334 13.75 6.58334C13.3358 6.58334 13 6.24755 13 5.83334C13 5.10334 13.1695 4.48181 13.562 4.03578C13.9669 3.57568 14.5073 3.41667 15 3.41667C15.4631 3.41667 15.8605 3.54974 16.1694 3.83202C16.4502 4.0886 16.5874 4.4094 16.6682 4.61415C16.7668 4.8639 17.0589 5.13101 17.3584 5.03283C17.6905 4.92399 17.5833 4.49394 17.5833 4.16667C17.5833 3.75246 17.9191 3.41667 18.3333 3.41667C18.7475 3.41667 19.0833 3.75246 19.0833 4.16667C19.0833 4.67274 18.9627 5.36755 18.5791 5.90468C18.3777 6.18652 18.0878 6.44532 17.6916 6.5774C17.2932 6.7102 16.8635 6.68951 16.4295 6.54485C15.9946 6.39988 15.7294 6.11231 15.5627 5.82886C15.4491 5.63584 15.3608 5.39891 15.3056 5.25097C15.2108 4.99668 14.934 4.74721 14.688 5.02673Z" fill="#6A9CFF"/>
<path fill-rule="evenodd" clip-rule="evenodd" d="M3.33342 5.35712C3.33342 3.14798 5.12428 1.35712 7.33342 1.35712C9.54256 1.35712 11.3334 3.14798 11.3334 5.35712L11.3334 9.65293C12.3613 10.6776 13.0001 12.0977 13.0001 13.6667C13.0001 16.7963 10.463 19.3333 7.33341 19.3333C4.2038 19.3333 1.66675 16.7963 1.66675 13.6667C1.66675 12.0977 2.30555 10.6776 3.33342 9.65292L3.33342 5.35712ZM4.83342 10.333L4.83342 5.35712C4.83342 3.97641 5.95271 2.85712 7.33342 2.85712C8.71413 2.85712 9.83342 3.9764 9.83342 5.35712L9.83342 10.333C10.8455 11.0932 11.5001 12.3035 11.5001 13.6667C11.5001 15.9679 9.6346 17.8333 7.33341 17.8333C5.03223 17.8333 3.16675 15.9679 3.16675 13.6667C3.16675 12.3035 3.82138 11.0932 4.83342 10.333Z" fill="#6A9CFF"/>
<path fill-rule="evenodd" clip-rule="evenodd" d="M7.29897 8C6.82493 8 6.44064 8.38429 6.44064 8.85833L6.44064 11.8647C5.62005 12.2126 5.04443 13.0256 5.04443 13.973C5.04443 15.2371 6.0692 16.2619 7.33332 16.2619C8.59743 16.2619 9.6222 15.2371 9.6222 13.973C9.6222 12.9994 9.01428 12.1677 8.15731 11.8369V8.85833C8.15731 8.38429 7.77302 8 7.29897 8Z" fill="#6A9CFF"/>
</svg>
