<svg width="20" height="20" viewBox="0 0 20 20" fill="none" xmlns="http://www.w3.org/2000/svg">
<path fill-rule="evenodd" clip-rule="evenodd" d="M17.6008 4.12164C18.0863 4.12164 18.4798 3.72809 18.4798 3.24263C18.4798 2.75717 18.0863 2.36362 17.6008 2.36362L2.95066 2.36362C2.46519 2.36362 2.07165 2.75716 2.07165 3.24263C2.07165 3.72809 2.46519 4.12164 2.95066 4.12164L17.6008 4.12164ZM14.9267 6.4843C15.3806 6.65647 15.609 7.164 15.4369 7.61791L15.0836 8.54937C14.9114 9.00327 14.4038 9.23167 13.9499 9.05949C13.496 8.88732 13.2676 8.37979 13.4398 7.92588L13.7931 6.99442C13.9653 6.54052 14.4728 6.31212 14.9267 6.4843ZM5.65659 7.61791C5.82876 7.16401 5.60037 6.65647 5.14646 6.4843C4.69255 6.31212 4.18501 6.54052 4.01284 6.99442L3.65953 7.92588C3.48736 8.37979 3.71575 8.88732 4.16966 9.05949C4.62357 9.23167 5.1311 9.00327 5.30327 8.54937L5.65659 7.61791ZM4.24334 11.3437C4.41552 10.8898 4.18712 10.3823 3.73322 10.2101C3.27931 10.0379 2.77177 10.2663 2.5996 10.7202L1.89298 12.5832C1.72081 13.0371 1.9492 13.5446 2.40311 13.7168C2.85701 13.8889 3.36455 13.6605 3.53672 13.2066L4.24334 11.3437ZM2.47679 16.001C2.64896 15.5471 2.42057 15.0396 1.96666 14.8674C1.51276 14.6952 1.00522 14.9236 0.833049 15.3775L0.479739 16.309C0.307567 16.7629 0.535959 17.2704 0.989866 17.4426C1.44377 17.6148 1.95131 17.3864 2.12348 16.9325L2.47679 16.001ZM10.5467 7.61791C10.7189 7.16401 10.4905 6.65647 10.0366 6.4843C9.58269 6.31212 9.07515 6.54052 8.90298 6.99442L8.54967 7.92588C8.3775 8.37979 8.60589 8.88732 9.0598 9.05949C9.51371 9.23167 10.0212 9.00327 10.1934 8.54937L10.5467 7.61791ZM9.13348 11.3437C9.30565 10.8898 9.07726 10.3823 8.62336 10.2101C8.16945 10.0379 7.66191 10.2663 7.48974 10.7202L6.78312 12.5832C6.61095 13.0371 6.83934 13.5446 7.29325 13.7168C7.74715 13.8889 8.25469 13.6605 8.42686 13.2066L9.13348 11.3437Z" fill="#6A9CFF"/>
</svg>
