<svg width="20" height="20" viewBox="0 0 20 20" fill="none" xmlns="http://www.w3.org/2000/svg">
<path fill-rule="evenodd" clip-rule="evenodd" d="M3.25 10C3.25 6.27208 6.27208 3.25 10 3.25C13.7279 3.25 16.75 6.27208 16.75 10C16.75 13.7279 13.7279 16.75 10 16.75C6.27208 16.75 3.25 13.7279 3.25 10ZM10 1.75C5.44365 1.75 1.75 5.44365 1.75 10C1.75 14.5563 5.44365 18.25 10 18.25C14.5563 18.25 18.25 14.5563 18.25 10C18.25 5.44365 14.5563 1.75 10 1.75ZM8.7 9.14167C8.45833 9.4 8.33333 9.7 8.33333 10.05C8.33333 10.4167 8.45833 10.725 8.70833 10.975C8.95833 11.225 9.26667 11.35 9.625 11.35C9.99167 11.35 10.3 11.225 10.5583 10.975C10.8167 10.725 10.9417 10.4167 10.9417 10.05C10.9417 9.76667 10.875 9.525 10.725 9.31667L12.0793 6.41883C12.1563 6.25421 12.0907 6.05818 11.9301 5.97304C11.7792 5.89303 11.5925 5.93693 11.493 6.07576L9.58333 8.74167C9.24167 8.75 8.94167 8.88333 8.7 9.14167Z" fill="#6A9CFF"/>
</svg>
