<svg width="20" height="20" viewBox="0 0 20 20" fill="none" xmlns="http://www.w3.org/2000/svg">
<g clip-path="url(#clip0_2188_48622)">
<path d="M12.7003 6.61726C12.7003 6.06322 12.5361 5.52161 12.2282 5.06094C11.9204 4.60027 11.4829 4.24122 10.9711 4.0292C10.4592 3.81718 9.89594 3.7617 9.35254 3.86979C8.80915 3.97788 8.31 4.24468 7.91824 4.63645C7.52647 5.02821 7.25967 5.52736 7.15158 6.07076C7.04349 6.61415 7.09897 7.1774 7.31099 7.68927C7.52301 8.20114 7.88206 8.63864 8.34273 8.94645C8.8034 9.25426 9.34501 9.41856 9.89905 9.41856H17.5627" stroke="#6A9CFF" stroke-width="1.5" stroke-linecap="round"/>
<path d="M6.00848 10.7414C6.00848 10.3643 5.89667 9.9957 5.68718 9.68218C5.47769 9.36866 5.17994 9.1243 4.83158 8.98001C4.48322 8.83571 4.09989 8.79796 3.73007 8.87152C3.36025 8.94508 3.02054 9.12665 2.75392 9.39328C2.48729 9.65991 2.30572 9.99961 2.23216 10.3694C2.1586 10.7392 2.19635 11.1226 2.34065 11.4709C2.48494 11.8193 2.7293 12.1171 3.04282 12.3265C3.35634 12.536 3.72494 12.6478 4.102 12.6478H15.5967" stroke="#6A9CFF" stroke-width="1.5" stroke-linecap="round"/>
<path d="M7.13977 12.6592C6.82796 12.6592 6.52211 12.7446 6.25539 12.9061C5.98867 13.0676 5.77127 13.2991 5.62677 13.5754C5.48228 13.8517 5.41621 14.1623 5.43573 14.4735C5.45525 14.7847 5.55962 15.0846 5.73752 15.3407C5.91541 15.5968 6.16003 15.7993 6.44485 15.9262C6.72966 16.0531 7.04379 16.0996 7.35316 16.0606C7.66253 16.0216 7.95531 15.8987 8.19976 15.7051C8.4442 15.5116 8.63097 15.2547 8.7398 14.9625" stroke="#6A9CFF" stroke-width="1.5" stroke-linecap="round"/>
<path d="M12.0515 15.3187L19.3829 15.3187" stroke="#6A9CFF" stroke-width="1.5" stroke-linecap="round"/>
</g>
<defs>
<clipPath id="clip0_2188_48622">
<rect width="20" height="20" fill="white"/>
</clipPath>
</defs>
</svg>
