<svg width="120" height="120" fill="none" xmlns="http://www.w3.org/2000/svg"><path d="M32.973 59.975C32.973 74.877 45.101 87 60.011 87s27.038-12.123 27.038-27.025c0-14.903-12.129-27.025-27.038-27.025-14.91 0-27.038 12.122-27.038 27.025ZM54.6 9a3 3 0 0 1 3-3h4.8a3 3 0 0 1 3 3v10.192a3 3 0 0 1-3 3h-4.8a3 3 0 0 1-3-3V9ZM6 57.577a3 3 0 0 1 3-3h10.2a3 3 0 0 1 3 3v4.795a3 3 0 0 1-3 3H9a3 3 0 0 1-3-3v-4.795Zm91.8 0a3 3 0 0 1 3-3H111a3 3 0 0 1 3 3v4.795a3 3 0 0 1-3 3h-10.2a3 3 0 0 1-3-3v-4.795ZM85.03 31.57a3 3 0 0 1 0-4.244l7.215-7.212a3 3 0 0 1 4.241 0l3.392 3.39a3 3 0 0 1 0 4.244l-7.215 7.212a3 3 0 0 1-4.241 0l-3.392-3.39Zm-53.451 3.395a3 3 0 0 1-4.242 0l-7.21-7.21a3 3 0 0 1 .001-4.245l3.395-3.391a3 3 0 0 1 4.242.002l7.207 7.21a3 3 0 0 1 0 4.243l-3.393 3.39Z" fill="#F7D056"/><path d="M32.973 60.025C32.973 45.123 45.101 33 60.011 33s27.038 12.123 27.038 27.025c0 14.903-12.129 27.025-27.038 27.025-14.91 0-27.038-12.122-27.038-27.025ZM54.6 112a2 2 0 0 0 2 2h6.8a2 2 0 0 0 2-2V99.808a2 2 0 0 0-2-2h-6.8a2 2 0 0 0-2 2V112ZM6 63.423a2 2 0 0 0 2 2h12.2a2 2 0 0 0 2-2v-6.795a2 2 0 0 0-2-2H8a2 2 0 0 0-2 2v6.795Zm91.8 0a2 2 0 0 0 2 2H112a2 2 0 0 0 2-2v-6.795a2 2 0 0 0-2-2H99.8a2 2 0 0 0-2 2v6.795ZM84.322 89.139a2 2 0 0 0 0 2.829l8.63 8.626c.78.78 2.047.78 2.828 0l4.806-4.805a2 2 0 0 0 0-2.829l-8.63-8.625a2 2 0 0 0-2.828 0l-4.806 4.804Zm-53.45-4.81a2 2 0 0 0-2.828 0l-8.625 8.625a2 2 0 0 0 .001 2.83l4.81 4.805a2 2 0 0 0 2.829-.002l8.62-8.624a2 2 0 0 0 0-2.829l-4.807-4.805Z" fill="#F7D056"/><circle cx="60" cy="60" r="28.227" fill="#FDF72A"/><path fill-rule="evenodd" clip-rule="evenodd" d="M60 73.5c3.006 0 5.713-1.023 7.749-2.666.86-.694 2.114-.805 2.952-.085l.689.593c.837.72.94 1.994.12 2.734-2.992 2.7-7.065 4.333-11.51 4.333-4.446 0-8.518-1.634-11.51-4.333-.82-.74-.718-2.014.12-2.734l.689-.593c.837-.72 2.092-.61 2.952.085C54.287 72.477 56.994 73.5 60 73.5ZM26.863 48.955A6.136 6.136 0 0 1 33 42.818h14.727a6.138 6.138 0 0 1 5.626 3.682H65.42a6.138 6.138 0 0 1 5.625-3.682h14.728a6.136 6.136 0 0 1 6.136 6.137v8.59a6.136 6.136 0 0 1-6.136 6.137H71.045a6.136 6.136 0 0 1-6.136-6.137v-3.681H53.863v3.681a6.136 6.136 0 0 1-6.136 6.137H33a6.136 6.136 0 0 1-6.137-6.137v-8.59Z" fill="#F7D056"/><path fill-rule="evenodd" clip-rule="evenodd" d="M88.042 63.248c.123-1.066.185-2.15.185-3.248a28.104 28.104 0 0 0-5.83-17.182H71.045A6.138 6.138 0 0 0 65.42 46.5H53.353a6.138 6.138 0 0 0-5.626-3.682H37.603A28.104 28.104 0 0 0 31.773 60c0 1.22.077 2.422.227 3.6.326.054.66.082 1 .082h14.727a6.136 6.136 0 0 0 6.137-6.137v-3.681h11.045v3.681a6.136 6.136 0 0 0 6.136 6.137h14.728c.802 0 1.567-.154 2.27-.434Z" fill="#FEB800"/></svg>