<svg width="120" height="120" fill="none" xmlns="http://www.w3.org/2000/svg"><path d="M94.656 37.2c-.132 0-.241.044-.351.044a17.25 17.25 0 0 0 .351-3.569c0-9.738-7.866-17.625-17.578-17.625-5.405 0-10.173 2.49-13.403 6.345C59.588 14.464 51.436 9 41.922 9c-13.601 0-24.61 11.038-24.61 24.675 0 1.608.176 3.15.462 4.67C9.358 41.123 3.25 48.988 3.25 58.35c0 11.677 9.448 21.15 21.094 21.15h70.312c11.646 0 21.094-9.473 21.094-21.15 0-11.677-9.448-21.15-21.094-21.15Z" fill="#3FD5FE"/><path d="M85 79.5c-.098 0-.18.033-.263.033.181-.853.263-1.74.263-2.658 0-7.252-5.873-13.125-13.125-13.125-4.036 0-7.596 1.854-10.008 4.725-3.051-5.906-9.138-9.975-16.242-9.975-10.156 0-18.375 7.366-18.375 17.522 0 1.197.131 2.346.345 3.478-6.284 2.067-10.845 8.777-10.845 15.75 0 8.695 7.055 15.75 15.75 15.75H85c8.695 0 15.75-7.055 15.75-15.75S93.695 79.5 85 79.5Z" fill="#6A9CFF"/><path fill-rule="evenodd" clip-rule="evenodd" d="M27.595 79.5h57.15c.175-.843.255-1.718.255-2.625 0-7.252-5.873-13.125-13.125-13.125-4.036 0-7.596 1.854-10.008 4.725-3.051-5.906-9.138-9.975-16.242-9.975-10.156 0-18.375 7.366-18.375 17.522 0 1.197.131 2.346.345 3.478Z" fill="#37F"/></svg>