<svg width="120" height="120" fill="none" xmlns="http://www.w3.org/2000/svg"><path d="M92.313 41.32c-.124 0-.226.041-.329.041.226-1.07.329-2.18.329-3.331 0-9.089-7.342-16.45-16.407-16.45-5.045 0-9.495 2.324-12.51 5.922C59.583 20.1 51.975 15 43.095 15c-12.695 0-22.969 10.302-22.969 23.03 0 1.501.164 2.94.43 4.36C12.702 44.98 7 52.32 7 61.06 7 71.958 15.818 80.8 26.688 80.8h65.624c10.87 0 19.688-8.842 19.688-19.74 0-10.898-8.818-19.74-19.688-19.74Z" fill="#F9F"/><rect x="28" y="73.8" width="35" height="7" rx="3" fill="#96F"/><rect x="12.6" y="86.4" width="35" height="7" rx="3" fill="#D580FF"/><rect x="71.4" y="73.8" width="22.4" height="7" rx="3" fill="#96F"/><rect x="56" y="86.4" width="22.4" height="7" rx="3" fill="#D580FF"/><rect x="28" y="99" width="36.4" height="7" rx="3" fill="#D580FF"/><rect x="89.6" y="86.4" width="18.2" height="7" rx="3" fill="#D580FF"/><rect x="75.6" y="99" width="18.2" height="7" rx="3" fill="#D580FF"/></svg>