<svg width="120" height="120" fill="none" xmlns="http://www.w3.org/2000/svg"><path d="M90.28 32.69c-.116 0-.212.038-.308.038.211-1.003.307-2.045.307-3.125 0-8.526-6.887-15.43-15.39-15.43-4.732 0-8.906 2.179-11.734 5.554C59.577 12.783 52.44 8 44.11 8c-11.907 0-21.545 9.663-21.545 21.603 0 1.408.154 2.758.404 4.09-7.368 2.43-12.716 9.316-12.716 17.513 0 10.223 8.272 18.517 18.468 18.517h61.558c10.196 0 18.468-8.294 18.468-18.517 0-10.223-8.272-18.517-18.468-18.517Z" fill="#3FD5FE"/><circle cx="70.006" cy="107.151" r="9.849" fill="#6A9CFF"/><circle cx="41.771" cy="82.855" r="7.88" fill="#6A9CFF"/><circle cx="75.259" cy="69.066" r="9.849" fill="#6A9CFF"/><path fill-rule="evenodd" clip-rule="evenodd" d="M85.087 69.723c.014-.217.022-.436.022-.657 0-5.44-4.41-9.85-9.85-9.85-5.44 0-9.85 4.41-9.85 9.85 0 .22.008.44.022.657h19.656Z" fill="#37F"/></svg>