<svg width="120" height="120" fill="none" xmlns="http://www.w3.org/2000/svg"><path d="M34.403 50.57c0 11.879 9.663 21.542 21.542 21.542 11.88 0 21.543-9.663 21.543-21.542 0-11.88-9.663-21.543-21.543-21.543-11.879 0-21.542 9.663-21.542 21.543Zm17.231-40.026a3 3 0 0 1 3-3h2.605a3 3 0 0 1 3 3v6.908a3 3 0 0 1-3 3h-2.605a3 3 0 0 1-3-3v-6.908ZM12.911 49.267a3 3 0 0 1 3-3h6.908a3 3 0 0 1 3 3v2.605a3 3 0 0 1-3 3h-6.908a3 3 0 0 1-3-3v-2.605Zm73.143 0a3 3 0 0 1 3-3h6.908a3 3 0 0 1 3 3v2.605a3 3 0 0 1-3 3h-6.908a3 3 0 0 1-3-3v-2.605ZM76.31 28.356a3 3 0 0 1 0-4.243l4.888-4.887a3 3 0 0 1 4.242 0l1.842 1.841a3 3 0 0 1 0 4.243l-4.888 4.887a3 3 0 0 1-4.243 0l-1.84-1.841ZM33.723 30.2a3 3 0 0 1-4.243 0l-4.883-4.886a3 3 0 0 1 .001-4.243l1.844-1.842a3 3 0 0 1 4.243.001l4.881 4.886a3 3 0 0 1-.001 4.242l-1.842 1.842Z" fill="#FDF72A"/><path d="M92.688 76.124c-.121 0-.222.04-.322.04.22-1.038.322-2.116.322-3.234 0-8.825-7.203-15.972-16.094-15.972-4.95 0-9.314 2.256-12.272 5.75C60.58 55.521 53.117 50.57 44.406 50.57c-12.452 0-22.531 10.002-22.531 22.36 0 1.457.16 2.855.422 4.232C14.593 79.678 9 86.805 9 95.29c0 10.581 8.65 19.166 19.313 19.166h64.374c10.663 0 19.313-8.585 19.313-19.166s-8.65-19.166-19.313-19.166Z" fill="#3FD5FE"/><path fill-rule="evenodd" clip-rule="evenodd" d="M76.522 56.958c-4.92.022-9.257 2.273-12.2 5.75C60.58 55.521 53.117 50.57 44.406 50.57c-3.547 0-6.902.811-9.886 2.258C35.653 63.65 44.83 72.112 55.946 72.112c9.655 0 17.847-6.384 20.576-15.154Z" fill="#F7D056"/></svg>