<svg width="120" height="120" fill="none" xmlns="http://www.w3.org/2000/svg"><path fill-rule="evenodd" clip-rule="evenodd" d="M58.863 27.575c9.787 5.158 16.45 15.37 16.45 27.124s-6.663 21.966-16.45 27.124a31.042 31.042 0 0 0 14.515 3.574c17.101 0 30.965-13.744 30.965-30.698C104.343 37.744 90.479 24 73.378 24a31.042 31.042 0 0 0-14.515 3.575Z" fill="#D580FF"/><path d="M91.978 68.797c-.12 0-.22.04-.32.04.22-1.035.32-2.109.32-3.223 0-8.795-7.155-15.918-15.99-15.918-4.916 0-9.253 2.248-12.19 5.73C60.08 48.263 52.664 43.33 44.01 43.33c-12.371 0-22.384 9.968-22.384 22.285 0 1.452.16 2.845.42 4.218-7.655 2.507-13.211 9.61-13.211 18.067C8.836 98.444 17.43 107 28.022 107h63.956c10.592 0 19.186-8.556 19.186-19.101 0-10.546-8.594-19.102-19.186-19.102Z" fill="#F9F"/><path fill-rule="evenodd" clip-rule="evenodd" d="M99.677 70.422c-2.33-.997-4.9-1.55-7.598-1.55-.063 0-.12.01-.175.021-.05.01-.098.019-.145.019.22-1.033.32-2.105.32-3.218 0-8.777-7.164-15.886-16.008-15.886-.275 0-.548.007-.819.02.232 1.516.353 3.068.353 4.648 0 11.67-6.56 21.808-16.191 26.928A30.343 30.343 0 0 0 73.7 84.953c10.986 0 20.614-5.813 25.977-14.53Z" fill="#96F"/></svg>