<svg width="120" height="120" fill="none" xmlns="http://www.w3.org/2000/svg"><path d="M92.313 31.52c-.124 0-.226.041-.329.041.226-1.07.329-2.18.329-3.331 0-9.089-7.342-16.45-16.407-16.45-5.045 0-9.495 2.324-12.51 5.922C59.582 10.299 51.974 5.2 43.094 5.2c-12.695 0-22.97 10.302-22.97 23.03 0 1.501.165 2.94.432 4.36C12.7 35.18 7 42.52 7 51.26 7 62.158 15.818 71 26.687 71h65.626C103.181 71 112 62.158 112 51.26c0-10.898-8.818-19.74-19.688-19.74Z" fill="#3FD5FE"/><path d="M57.723 57.908C55.828 64.382 51.8 66.13 51.8 70.695c0 4.039 3.184 7.305 7.108 7.305 3.924 0 7.107-3.266 7.107-7.305 0-4.578-4.027-6.284-5.923-12.787-.325-1.181-1.999-1.24-2.369 0ZM33.923 57.908C32.028 64.382 28 66.13 28 70.695 28 74.734 31.184 78 35.108 78c3.924 0 7.107-3.266 7.107-7.305 0-4.578-4.027-6.284-5.923-12.787-.325-1.181-1.999-1.24-2.369 0ZM81.523 57.908C79.628 64.382 75.6 66.13 75.6 70.695c0 4.039 3.184 7.305 7.108 7.305 3.924 0 7.107-3.266 7.107-7.305 0-4.578-4.027-6.284-5.923-12.787-.325-1.181-1.999-1.24-2.369 0Z" fill="#6A9CFF"/><path fill-rule="evenodd" clip-rule="evenodd" d="M89.594 71c.004-.101.006-.203.006-.305 0-2.403-1.11-4.015-2.438-5.945-1.203-1.746-2.585-3.753-3.485-6.842-.326-1.181-2-1.24-2.37 0-.898 3.07-2.277 5.078-3.478 6.827-1.331 1.939-2.444 3.56-2.444 5.96 0 .102.002.204.006.305h14.203Zm-23.692 0c.004-.101.006-.203.006-.305 0-2.403-1.11-4.015-2.439-5.945-1.202-1.746-2.584-3.753-3.484-6.842-.326-1.181-2-1.24-2.37 0-.898 3.07-2.277 5.078-3.478 6.827-1.331 1.939-2.445 3.56-2.445 5.96 0 .102.002.204.006.305h14.204Zm-23.693 0c.004-.101.006-.203.006-.305 0-2.403-1.11-4.015-2.438-5.945-1.203-1.746-2.584-3.753-3.485-6.842-.325-1.181-1.999-1.24-2.369 0-.899 3.07-2.277 5.078-3.478 6.827-1.332 1.939-2.445 3.56-2.445 5.96 0 .102.002.204.006.305H42.21Z" fill="#37F"/><path d="M46.523 77.508C44.627 83.982 40.6 85.73 40.6 90.295c0 4.039 3.183 7.305 7.108 7.305 3.924 0 7.107-3.266 7.107-7.305 0-4.578-4.027-6.284-5.923-12.787-.326-1.181-1.999-1.24-2.37 0ZM68.923 77.508C67.028 83.982 63 85.73 63 90.295c0 4.039 3.183 7.305 7.108 7.305 3.924 0 7.107-3.266 7.107-7.305 0-4.578-4.027-6.284-5.923-12.787-.326-1.181-1.999-1.24-2.369 0ZM57.723 95.708c-1.895 6.474-5.923 8.223-5.923 12.787 0 4.039 3.184 7.305 7.108 7.305 3.924 0 7.107-3.266 7.107-7.305 0-4.578-4.027-6.284-5.923-12.787-.325-1.181-1.999-1.24-2.369 0Z" fill="#6A9CFF"/></svg>