<svg width="120" height="120" fill="none" xmlns="http://www.w3.org/2000/svg"><path d="M50.51 38.075c0 9.96 8.103 18.063 18.064 18.063 9.96 0 18.063-8.102 18.063-18.063 0-9.96-8.103-18.063-18.063-18.063-9.96 0-18.063 8.103-18.063 18.063ZM64.96 5a3 3 0 0 1 3-3h1.215a3 3 0 0 1 3 3v4.823a3 3 0 0 1-3 3h-1.215a3 3 0 0 1-3-3V5ZM32.49 37.468a3 3 0 0 1 3-3h4.823a3 3 0 0 1 3 3v1.215a3 3 0 0 1-3 3H35.49a3 3 0 0 1-3-3v-1.215Zm61.328 0a3 3 0 0 1 3-3h4.823a3 3 0 0 1 3 3v1.215a3 3 0 0 1-3 3h-4.823a3 3 0 0 1-3-3v-1.215Zm-7.828-17.676a3 3 0 0 1 0-4.242l3.412-3.413a3 3 0 0 1 4.243 0l.858.859a3 3 0 0 1 0 4.242l-3.412 3.413a3 3 0 0 1-4.243 0l-.858-.859Zm-35.707.862a3 3 0 0 1-4.243 0l-3.41-3.411A3 3 0 0 1 42.634 13l.86-.86a3 3 0 0 1 4.243.002l3.408 3.411a3 3 0 0 1-.001 4.242l-.859.859Z" fill="#FDF72A"/><path d="M85.17 50.756c-.102 0-.186.034-.27.034.185-.87.27-1.775.27-2.712 0-7.399-6.04-13.392-13.495-13.392-4.15 0-7.81 1.892-10.29 4.821-3.137-6.026-9.394-10.177-16.698-10.177-10.441 0-18.892 8.386-18.892 18.748 0 1.222.135 2.394.354 3.549C19.69 53.736 15 59.712 15 66.827c0 8.871 7.253 16.069 16.193 16.069h53.976c8.94 0 16.193-7.198 16.193-16.07s-7.253-16.07-16.193-16.07Z" fill="#3FD5FE"/><path fill-rule="evenodd" clip-rule="evenodd" d="M68.573 56.138c-9.96 0-18.062-8.102-18.062-18.063 0-2.579.543-5.033 1.52-7.254 4.04 1.72 7.34 4.817 9.355 8.686 2.48-2.929 6.14-4.82 10.29-4.82 6.631 0 12.142 4.742 13.278 10.998-2.876 6.168-9.137 10.453-16.38 10.453Z" fill="#F7D056"/><rect x="38.597" y="73.057" width="3.839" height="16.398" rx="1" fill="#6A9CFF"/><rect width="3.854" height="16.338" rx="1" transform="matrix(.49816 -.86708 .86496 .50184 32.491 78.828)" fill="#6A9CFF"/><rect width="3.854" height="16.338" rx="1" transform="matrix(-.49816 -.86708 -.86496 .50184 48.89 78.328)" fill="#6A9CFF"/><rect x="69.206" y="73.057" width="3.839" height="16.398" rx="1" fill="#6A9CFF"/><rect width="3.854" height="16.338" rx="1" transform="matrix(.49816 -.86708 .86496 .50184 63.1 78.828)" fill="#6A9CFF"/><rect width="3.854" height="16.338" rx="1" transform="matrix(-.49816 -.86708 -.86496 .50184 79.498 78.328)" fill="#6A9CFF"/><rect x="53.902" y="89.455" width="3.839" height="16.398" rx="1" fill="#6A9CFF"/><rect width="3.854" height="16.338" rx="1" transform="matrix(.49816 -.86708 .86496 .50184 47.796 95.225)" fill="#6A9CFF"/><rect width="3.854" height="16.338" rx="1" transform="matrix(-.49816 -.86708 -.86496 .50184 64.194 94.726)" fill="#6A9CFF"/><path fill-rule="evenodd" clip-rule="evenodd" d="m47.356 83.039-3.215-1.856 3.904-2.254a1 1 0 0 0 .366-1.366l-.911-1.58a1 1 0 0 0-1.367-.365l-3.647 2.106v-3.518a1 1 0 0 0-1-1h-1.824a1 1 0 0 0-1 1v3.813l-3.302-1.906a1 1 0 0 0-1.366.366l-.912 1.579a1 1 0 0 0 .366 1.366l3.047 1.759-3.216 1.856h14.077ZM77.943 83.039l-3.215-1.856 3.904-2.254a1 1 0 0 0 .366-1.366l-.912-1.58a1 1 0 0 0-1.366-.365l-3.648 2.106v-3.518a1 1 0 0 0-1-1H70.25a1 1 0 0 0-1 1v3.813l-3.303-1.906a1 1 0 0 0-1.366.366l-.911 1.579a1 1 0 0 0 .366 1.366l3.046 1.759-3.215 1.856h14.077Z" fill="#37F"/><path d="M42.582 102.189c-1.48 5.055-4.625 6.421-4.625 9.985 0 3.154 2.486 5.704 5.55 5.704 3.064 0 5.55-2.55 5.55-5.704 0-3.575-3.145-4.907-4.625-9.985-.254-.922-1.56-.968-1.85 0ZM66.632 102.189c-1.48 5.055-4.625 6.421-4.625 9.985 0 3.154 2.486 5.704 5.55 5.704 3.064 0 5.55-2.55 5.55-5.704 0-3.575-3.145-4.907-4.625-9.985-.254-.922-1.56-.968-1.85 0Z" fill="#6A9CFF"/></svg>