<svg width="120" height="120" fill="none" xmlns="http://www.w3.org/2000/svg"><path fill-rule="evenodd" clip-rule="evenodd" d="M58.924 6.71c8.556 4.547 14.38 13.552 14.38 23.917 0 10.365-5.825 19.369-14.38 23.917a26.95 26.95 0 0 0 12.689 3.152c14.95 0 27.07-12.12 27.07-27.07 0-14.95-12.12-27.069-27.07-27.069-4.585 0-8.904 1.14-12.689 3.152Z" fill="#D580FF"/><path d="M87.938 43.413c-.107 0-.196.035-.285.035.196-.917.284-1.87.284-2.858 0-7.796-6.362-14.11-14.218-14.11-4.372 0-8.23 1.993-10.842 5.08-3.306-6.35-9.9-10.725-17.596-10.725-11.002 0-19.906 8.837-19.906 19.755 0 1.288.142 2.523.373 3.74C18.941 46.552 14 52.85 14 60.346c0 9.348 7.643 16.932 17.063 16.932h56.874c9.42 0 17.063-7.584 17.063-16.932 0-9.349-7.643-16.933-17.063-16.933Z" fill="#F9F"/><rect x="41.168" y="69.215" width="4.046" height="17.279" rx="1" fill="#D580FF"/><rect width="4.061" height="17.215" rx="1" transform="matrix(.49816 -.86708 .86496 .50184 34.734 75.295)" fill="#D580FF"/><rect width="4.061" height="17.215" rx="1" transform="matrix(-.49816 -.86708 -.86496 .50184 52.013 74.769)" fill="#D580FF"/><rect x="73.421" y="69.215" width="4.046" height="17.279" rx="1" fill="#D580FF"/><rect width="4.061" height="17.215" rx="1" transform="matrix(.49816 -.86708 .86496 .50184 66.987 75.295)" fill="#D580FF"/><rect width="4.061" height="17.215" rx="1" transform="matrix(-.49816 -.86708 -.86496 .50184 84.266 74.769)" fill="#D580FF"/><rect x="57.295" y="86.494" width="4.046" height="17.279" rx="1" fill="#D580FF"/><rect width="4.061" height="17.215" rx="1" transform="matrix(.49816 -.86708 .86496 .50184 50.86 92.574)" fill="#D580FF"/><rect width="4.061" height="17.215" rx="1" transform="matrix(-.49816 -.86708 -.86496 .50184 68.14 92.047)" fill="#D580FF"/><path fill-rule="evenodd" clip-rule="evenodd" d="m47.613 77.43 4.423-2.555-2.014-3.489-4.756 2.746v-4.76h-4.029v5.072l-4.392-2.536-2.015 3.489 3.52 2.032h9.263ZM79.842 77.43l4.424-2.555-2.015-3.489-4.756 2.746v-4.76h-4.028v5.072l-4.393-2.536-2.014 3.489 3.52 2.032h9.262ZM94.686 44.79a17.108 17.108 0 0 0-6.749-1.377.817.817 0 0 0-.155.019c-.044.008-.086.016-.129.016.196-.917.284-1.87.284-2.858 0-7.796-6.362-14.11-14.218-14.11-.244 0-.486.006-.727.018.206 1.346.313 2.725.313 4.129 0 10.365-5.826 19.369-14.38 23.917a26.95 26.95 0 0 0 12.688 3.152c9.758 0 18.31-5.163 23.073-12.906Z" fill="#96F"/><path d="M45.367 99.912c-1.56 5.326-4.873 6.766-4.873 10.521 0 3.323 2.62 6.01 5.848 6.01 3.228 0 5.848-2.687 5.848-6.01 0-3.767-3.314-5.171-4.874-10.522-.268-.971-1.644-1.02-1.949 0ZM70.709 99.912c-1.56 5.326-4.874 6.766-4.874 10.521 0 3.323 2.62 6.01 5.849 6.01 3.228 0 5.848-2.687 5.848-6.01 0-3.767-3.314-5.171-4.874-10.522-.268-.971-1.645-1.02-1.95 0Z" fill="#D580FF"/></svg>