<svg width="120" height="120" fill="none" xmlns="http://www.w3.org/2000/svg"><path d="M88.563 31.592c-.11 0-.2.037-.291.037.2-.948.29-1.931.29-2.951 0-8.05-6.502-14.57-14.53-14.57-4.47 0-8.41 2.058-11.08 5.245C59.571 12.797 52.833 8.28 44.968 8.28c-11.244 0-20.344 9.124-20.344 20.398 0 1.33.145 2.604.381 3.861C18.05 34.834 13 41.336 13 49.076c0 9.653 7.81 17.484 17.438 17.484h58.124C98.19 66.56 106 58.729 106 49.076c0-9.653-7.81-17.484-17.438-17.484Z" fill="#F9F"/><rect x="39.766" y="57.88" width="4.355" height="18.6" rx="1" fill="#D580FF"/><rect width="4.371" height="18.532" rx="1" transform="matrix(.49816 -.86708 .86496 .50184 32.84 64.425)" fill="#D580FF"/><rect width="4.371" height="18.532" rx="1" transform="matrix(-.49816 -.86708 -.86496 .50184 51.44 63.858)" fill="#D580FF"/><rect x="74.486" y="57.88" width="4.355" height="18.6" rx="1" fill="#D580FF"/><rect width="4.371" height="18.532" rx="1" transform="matrix(.49816 -.86708 .86496 .50184 67.56 64.425)" fill="#D580FF"/><rect width="4.371" height="18.532" rx="1" transform="matrix(-.49816 -.86708 -.86496 .50184 86.16 63.858)" fill="#D580FF"/><rect x="57.126" y="76.48" width="4.355" height="18.6" rx="1" fill="#D580FF"/><rect width="4.371" height="18.532" rx="1" transform="matrix(.49816 -.86708 .86496 .50184 50.2 83.025)" fill="#D580FF"/><rect width="4.371" height="18.532" rx="1" transform="matrix(-.49816 -.86708 -.86496 .50184 68.8 82.458)" fill="#D580FF"/><path fill-rule="evenodd" clip-rule="evenodd" d="m46.703 66.722 4.763-2.75-2.169-3.755-5.12 2.956V58.05H39.84v5.46l-4.728-2.73-2.168 3.755 3.79 2.188h9.97ZM81.398 66.722l4.762-2.75-2.168-3.755-5.12 2.956V58.05h-4.337v5.46l-4.728-2.73-2.169 3.755 3.79 2.188h9.97Z" fill="#96F"/><path d="M44.286 90.924c-1.679 5.734-5.246 7.284-5.246 11.326 0 3.577 2.82 6.47 6.295 6.47 3.476 0 6.296-2.893 6.296-6.47 0-4.055-3.568-5.566-5.246-11.326-.289-1.046-1.77-1.098-2.099 0ZM71.566 90.924c-1.678 5.734-5.246 7.284-5.246 11.326 0 3.577 2.82 6.47 6.296 6.47 3.475 0 6.295-2.893 6.295-6.47 0-4.055-3.567-5.566-5.246-11.326-.289-1.046-1.77-1.098-2.099 0Z" fill="#D580FF"/></svg>