<svg width="120" height="120" fill="none" xmlns="http://www.w3.org/2000/svg"><path fill-rule="evenodd" clip-rule="evenodd" d="M59.844 15.895c10.443 5.62 17.554 16.746 17.554 29.553 0 12.807-7.11 23.933-17.554 29.553a32.581 32.581 0 0 0 15.49 3.895c18.248 0 33.042-14.975 33.042-33.448S93.582 12 75.333 12a32.582 32.582 0 0 0-15.489 3.895Z" fill="#D580FF"/><path d="M34.417 92.92c-1.937 6.47-6.054 8.219-6.054 12.78 0 4.036 3.255 7.3 7.265 7.3 4.011 0 7.265-3.264 7.265-7.3 0-4.576-4.117-6.28-6.054-12.78-.333-1.18-2.043-1.238-2.422 0Zm24.216 0c-1.937 6.47-6.054 8.219-6.054 12.78 0 4.036 3.254 7.3 7.265 7.3 4.01 0 7.265-3.264 7.265-7.3 0-4.576-4.117-6.28-6.054-12.78-.333-1.18-2.043-1.238-2.422 0Zm24.216 0c-1.937 6.47-6.054 8.219-6.054 12.78 0 4.036 3.254 7.3 7.265 7.3 4.01 0 7.265-3.264 7.265-7.3 0-4.576-4.117-6.28-6.054-12.78-.333-1.18-2.044-1.238-2.422 0Z" fill="#D580FF"/><path d="M33.913 94.175c-1.776 6.066-5.55 7.705-5.55 11.981 0 3.784 2.983 6.844 6.66 6.844 3.676 0 6.66-3.06 6.66-6.844 0-4.29-3.774-5.888-5.55-11.98-.306-1.107-1.873-1.162-2.22 0ZM58.835 94.175c-1.776 6.066-5.55 7.705-5.55 11.981 0 3.784 2.984 6.844 6.66 6.844s6.66-3.06 6.66-6.844c0-4.29-3.774-5.888-5.55-11.98-.305-1.107-1.873-1.162-2.22 0ZM83.757 94.175c-1.776 6.066-5.55 7.705-5.55 11.981 0 3.784 2.984 6.844 6.66 6.844 3.677 0 6.66-3.06 6.66-6.844 0-4.29-3.774-5.888-5.55-11.98-.305-1.107-1.873-1.162-2.22 0Z" fill="#D580FF"/><path d="M95.342 60.795c-.131 0-.24.043-.349.043.24-1.13.349-2.303.349-3.52 0-9.602-7.796-17.38-17.421-17.38-5.357 0-10.083 2.456-13.284 6.258-4.05-7.821-12.129-13.209-21.558-13.209-13.48 0-24.39 10.884-24.39 24.332 0 1.586.175 3.106.458 4.605-8.34 2.738-14.394 10.494-14.394 19.727 0 11.514 9.364 20.855 20.905 20.855h69.684c11.541 0 20.905-9.341 20.905-20.855 0-11.514-9.364-20.856-20.905-20.856Z" fill="#F9F"/><path fill-rule="evenodd" clip-rule="evenodd" d="M90.632 103.042c-.452-1.22-1.197-2.302-2.025-3.505-1.222-1.774-2.626-3.813-3.541-6.953-.331-1.2-2.031-1.259-2.407 0-.914 3.12-2.314 5.16-3.535 6.937-.83 1.21-1.577 2.298-2.03 3.521h13.538Zm-24.074 0c-.452-1.22-1.197-2.302-2.025-3.505-1.222-1.774-2.626-3.813-3.54-6.953-.332-1.2-2.032-1.259-2.408 0-.913 3.12-2.314 5.16-3.534 6.937-.83 1.21-1.578 2.298-2.03 3.521h13.537Zm-24.074 0c-.452-1.22-1.196-2.302-2.025-3.505-1.221-1.774-2.625-3.813-3.54-6.953-.331-1.2-2.032-1.259-2.408 0-.913 3.12-2.314 5.16-3.534 6.937-.83 1.21-1.577 2.298-2.03 3.521h13.537ZM103.953 62.92a21.126 21.126 0 0 0-8.334-1.7c-.069 0-.132.012-.192.023a.863.863 0 0 1-.16.02c.242-1.132.352-2.309.352-3.529 0-9.627-7.858-17.426-17.56-17.426-.3 0-.6.008-.897.023.254 1.662.386 3.365.386 5.098 0 12.8-7.194 23.92-17.76 29.537a33.283 33.283 0 0 0 15.67 3.893c12.051 0 22.613-6.376 28.495-15.939Z" fill="#96F"/></svg>