<svg width="120" height="120" fill="none" xmlns="http://www.w3.org/2000/svg"><path d="M48.197 54.412c0 12.397 10.085 22.482 22.481 22.482 12.397 0 22.482-10.085 22.482-22.482 0-12.397-10.085-22.481-22.481-22.481-12.397 0-22.482 10.084-22.482 22.481Zm17.983-41.9a3 3 0 0 1 3-3h2.98a3 3 0 0 1 3 3v7.47a3 3 0 0 1-3 3h-2.98a3 3 0 0 1-3-3v-7.47Zm-40.41 40.41a3 3 0 0 1 3-3h7.47a3 3 0 0 1 3 3v2.98a3 3 0 0 1-3 3h-7.47a3 3 0 0 1-3-3v-2.98Zm76.329 0a3 3 0 0 1 3-3h7.47a3 3 0 0 1 3 3v2.98a3 3 0 0 1-3 3h-7.47a3 3 0 0 1-3-3v-2.98ZM91.837 31.138a3 3 0 0 1 0-4.243l5.285-5.285a3 3 0 0 1 4.243 0l2.106 2.107a3 3 0 0 1 0 4.242l-5.285 5.285a3 3 0 0 1-4.242 0l-2.107-2.106Zm-44.441 2.11a3 3 0 0 1-4.243 0l-5.281-5.284a3 3 0 0 1 .001-4.242l2.109-2.108a3 3 0 0 1 4.243.002l5.279 5.284a3 3 0 0 1-.001 4.242l-2.107 2.106Z" fill="#FDF72A"/><path d="M91.334 70.195c-.126 0-.231.042-.336.042.23-1.084.336-2.209.336-3.375 0-9.21-7.516-16.668-16.795-16.668-5.165 0-9.72 2.354-12.806 6-3.905-7.5-11.694-12.667-20.784-12.667-12.995 0-23.513 10.438-23.513 23.335 0 1.52.168 2.979.44 4.417C9.837 73.904 4 81.342 4 90.196c0 11.042 9.027 20.001 20.154 20.001h67.18c11.127 0 20.154-8.959 20.154-20 0-11.043-9.027-20.002-20.154-20.002Z" fill="#3FD5FE"/><path d="M56.017 97.473c-1.842 6.292-5.756 7.992-5.756 12.428 0 3.925 3.094 7.099 6.907 7.099 3.814 0 6.908-3.174 6.908-7.099 0-4.45-3.914-6.108-5.756-12.428-.317-1.148-1.943-1.204-2.303 0ZM32.887 97.473c-1.842 6.292-5.757 7.992-5.757 12.428 0 3.925 3.094 7.099 6.908 7.099 3.814 0 6.908-3.174 6.908-7.099 0-4.45-3.915-6.108-5.757-12.428-.316-1.148-1.942-1.204-2.302 0ZM79.147 97.473c-1.842 6.292-5.756 7.992-5.756 12.428 0 3.925 3.094 7.099 6.907 7.099 3.814 0 6.908-3.174 6.908-7.099 0-4.45-3.914-6.108-5.756-12.428-.317-1.148-1.943-1.204-2.303 0Z" fill="#6A9CFF"/><path fill-rule="evenodd" clip-rule="evenodd" d="M86.991 110.197c.004-.098.006-.197.006-.296 0-2.336-1.079-3.902-2.37-5.778-1.168-1.697-2.511-3.647-3.386-6.65-.317-1.148-1.943-1.204-2.303 0-.874 2.984-2.213 4.935-3.38 6.635-1.294 1.885-2.376 3.461-2.376 5.793 0 .099.002.198.005.296h13.804Zm-23.026 0c.004-.098.006-.197.006-.296 0-2.336-1.078-3.902-2.37-5.778-1.168-1.697-2.51-3.647-3.386-6.65-.317-1.148-1.943-1.204-2.303 0-.873 2.984-2.213 4.935-3.38 6.635-1.294 1.885-2.376 3.461-2.376 5.793 0 .099.002.198.006.296h13.803Zm-23.025 0a7.27 7.27 0 0 0 .006-.296c0-2.336-1.079-3.902-2.37-5.778-1.169-1.697-2.511-3.647-3.387-6.65-.316-1.148-1.942-1.204-2.302 0-.874 2.984-2.213 4.935-3.38 6.635-1.295 1.885-2.377 3.461-2.377 5.793 0 .099.002.198.006.296H40.94Z" fill="#37F"/><path fill-rule="evenodd" clip-rule="evenodd" d="M70.679 76.894c-12.397 0-22.482-10.085-22.482-22.482 0-3.21.676-6.264 1.893-9.03 5.027 2.143 9.135 5.997 11.643 10.813 3.086-3.647 7.641-6 12.806-6 8.254 0 15.114 5.902 16.528 13.688-3.58 7.677-11.373 13.01-20.388 13.01Z" fill="#F7D056"/></svg>