<svg width="120" height="120" fill="none" xmlns="http://www.w3.org/2000/svg"><path d="M93.924 40.612c-.13 0-.237.044-.344.044.236-1.122.344-2.287.344-3.495 0-9.535-7.703-17.258-17.212-17.258-5.293 0-9.962 2.438-13.124 6.213C59.586 18.35 51.604 13 42.288 13 28.97 13 18.191 23.808 18.191 37.16c0 1.576.172 3.086.452 4.574-8.24 2.718-14.221 10.42-14.221 19.588 0 11.433 9.251 20.71 20.654 20.71h68.848c11.403 0 20.654-9.277 20.654-20.71 0-11.433-9.251-20.71-20.654-20.71Z" fill="#F9F"/><rect x="53.371" y="58.531" width="11.349" height="48.469" rx="1" fill="#D580FF"/><rect width="11.39" height="48.291" rx="1" transform="matrix(.49816 -.86708 .86496 .50184 35.323 75.587)" fill="#D580FF"/><rect width="11.39" height="48.291" rx="1" transform="matrix(-.49816 -.86708 -.86496 .50184 83.792 74.11)" fill="#D580FF"/><path fill-rule="evenodd" clip-rule="evenodd" d="m71.45 81.34 11.657-6.73a1 1 0 0 0 .366-1.366L78.77 65.1a1 1 0 0 0-1.367-.366l-12.597 7.273V59.531a1 1 0 0 0-1-1h-9.405a1 1 0 0 0-1 1V72.89L41.834 66.21a1 1 0 0 0-1.366.366l-4.702 8.145a1 1 0 0 0 .366 1.366l9.099 5.253H71.45Z" fill="#96F"/></svg>