<svg width="120" height="120" fill="none" xmlns="http://www.w3.org/2000/svg"><path d="M93.807 44.519c-.129 0-.236.043-.343.043a16.83 16.83 0 0 0 .343-3.483c0-9.503-7.676-17.2-17.154-17.2-5.274 0-9.927 2.43-13.08 6.192C59.587 22.331 51.632 17 42.347 17c-13.272 0-24.014 10.771-24.014 24.079 0 1.57.171 3.074.45 4.558C10.569 48.346 4.609 56.02 4.609 65.158c0 11.394 9.22 20.64 20.584 20.64h68.614c11.364 0 20.584-9.246 20.584-20.64 0-11.395-9.22-20.64-20.584-20.64Z" fill="#F9F"/><rect x="54.144" y="74.087" width="4.455" height="19.029" rx="1" fill="#D580FF"/><rect width="4.472" height="18.959" rx="1" transform="matrix(.49816 -.86708 .86496 .50184 47.058 80.783)" fill="#D580FF"/><rect width="4.472" height="18.959" rx="1" transform="matrix(-.49816 -.86708 -.86496 .50184 66.087 80.203)" fill="#D580FF"/><path fill-rule="evenodd" clip-rule="evenodd" d="m64.61 85.797-4.082-2.369 4.697-2.725a1 1 0 0 0 .366-1.363l-1.232-2.144a1 1 0 0 0-1.369-.366L58.6 79.377v-4.29a1 1 0 0 0-1-1h-2.456a1 1 0 0 0-1 1v4.637l-3.989-2.315a1 1 0 0 0-1.369.367l-1.231 2.144a1 1 0 0 0 .365 1.363l3.698 2.145-3.296 1.912a.996.996 0 0 0-.41.457h16.7Z" fill="#96F"/><rect x="30.723" y="98.971" width="4.455" height="19.029" rx="1" fill="#D580FF"/><rect width="4.472" height="18.959" rx="1" transform="matrix(.49816 -.86708 .86496 .50184 23.638 105.667)" fill="#D580FF"/><rect width="4.472" height="18.959" rx="1" transform="matrix(-.49816 -.86708 -.86496 .50184 42.667 105.087)" fill="#D580FF"/><rect x="77.564" y="98.971" width="4.455" height="19.029" rx="1" fill="#D580FF"/><rect width="4.472" height="18.959" rx="1" transform="matrix(.49816 -.86708 .86496 .50184 70.478 105.667)" fill="#D580FF"/><rect width="4.472" height="18.959" rx="1" transform="matrix(-.49816 -.86708 -.86496 .50184 89.507 105.087)" fill="#D580FF"/></svg>