<svg width="120" height="120" fill="none" xmlns="http://www.w3.org/2000/svg"><path fill-rule="evenodd" clip-rule="evenodd" d="M59.553 5.687c10.008 5.321 16.823 15.854 16.823 27.98 0 12.125-6.815 22.658-16.823 27.979a31.527 31.527 0 0 0 14.844 3.687c17.489 0 31.666-14.178 31.666-31.666C106.063 16.177 91.886 2 74.397 2a31.528 31.528 0 0 0-14.844 3.687Z" fill="#D580FF"/><path d="M93.493 48.624c-.124 0-.228.041-.332.041.228-1.073.332-2.187.332-3.343 0-9.12-7.443-16.507-16.633-16.507-5.115 0-9.626 2.332-12.683 5.943-3.867-7.428-11.58-12.545-20.584-12.545-12.87 0-23.286 10.337-23.286 23.11 0 1.506.166 2.95.436 4.374C12.78 52.297 7 59.663 7 68.432c0 10.936 8.94 19.809 19.96 19.809h66.533c11.02 0 19.96-8.873 19.96-19.809 0-10.936-8.94-19.808-19.96-19.808Z" fill="#F9F"/><path fill-rule="evenodd" clip-rule="evenodd" d="M101.388 50.235a20.015 20.015 0 0 0-7.895-1.611.952.952 0 0 0-.181.022c-.052.01-.102.02-.151.02.228-1.074.332-2.188.332-3.344 0-9.12-7.443-16.507-16.633-16.507-.285 0-.569.008-.85.022.24 1.575.366 3.188.366 4.83 0 12.125-6.815 22.658-16.823 27.979a31.527 31.527 0 0 0 14.844 3.687c11.415 0 21.419-6.04 26.991-15.098Z" fill="#96F"/><rect x="52.601" y="77.461" width="4.102" height="17.518" rx="1" fill="#D580FF"/><rect width="4.117" height="17.453" rx="1" transform="matrix(.49816 -.86708 .86496 .50184 46.078 83.625)" fill="#D580FF"/><rect width="4.117" height="17.453" rx="1" transform="matrix(-.49816 -.86708 -.86496 .50184 63.596 83.091)" fill="#D580FF"/><path fill-rule="evenodd" clip-rule="evenodd" d="m62.533 88.24-4.055-2.34 4.252-2.455a1 1 0 0 0 .366-1.366l-1.051-1.82a1 1 0 0 0-1.366-.366l-3.977 2.296v-3.846a1 1 0 0 0-1-1h-2.101a1 1 0 0 0-1 1v4.163l-3.606-2.082a1 1 0 0 0-1.366.366l-1.051 1.82a1 1 0 0 0 .366 1.367l3.331 1.923-3.827 2.21.076.13h16.009Z" fill="#96F"/><rect x="31.04" y="100.368" width="4.102" height="17.518" rx="1" fill="#D580FF"/><rect width="4.117" height="17.453" rx="1" transform="matrix(.49816 -.86708 .86496 .50184 24.518 106.533)" fill="#D580FF"/><rect width="4.117" height="17.453" rx="1" transform="matrix(-.49816 -.86708 -.86496 .50184 42.035 105.999)" fill="#D580FF"/><rect x="74.161" y="100.368" width="4.102" height="17.518" rx="1" fill="#D580FF"/><rect width="4.117" height="17.453" rx="1" transform="matrix(.49816 -.86708 .86496 .50184 67.638 106.533)" fill="#D580FF"/><rect width="4.117" height="17.453" rx="1" transform="matrix(-.49816 -.86708 -.86496 .50184 85.156 105.999)" fill="#D580FF"/></svg>