<svg width="120" height="120" fill="none" xmlns="http://www.w3.org/2000/svg"><path d="M50.389 41.598c0 11.263 9.161 20.424 20.424 20.424 11.262 0 20.424-9.161 20.424-20.424 0-11.262-9.162-20.424-20.424-20.424-11.263 0-20.424 9.162-20.424 20.424Zm16.337-37.79a3 3 0 0 1 3-3h2.158a3 3 0 0 1 3 3v6.237a3 3 0 0 1-3 3h-2.158a3 3 0 0 1-3-3V3.807ZM30.014 40.518a3 3 0 0 1 3-3h6.237a3 3 0 0 1 3 3v2.158a3 3 0 0 1-3 3h-6.237a3 3 0 0 1-3-3V40.52Zm69.345 0a3 3 0 0 1 3-3h6.237a3 3 0 0 1 3 3v2.158a3 3 0 0 1-3 3h-6.238a3 3 0 0 1-3-3V40.52Zm-9.13-19.87a3 3 0 0 1 0-4.243l4.414-4.414a3 3 0 0 1 4.242 0l1.526 1.526a3.001 3.001 0 0 1 0 4.242l-4.413 4.413a3 3 0 0 1-4.243 0l-1.525-1.525Zm-40.374 1.528a3 3 0 0 1-4.243 0l-4.41-4.412a3 3 0 0 1 .002-4.243l1.527-1.526a3 3 0 0 1 4.243.002l4.408 4.412a3 3 0 0 1-.001 4.241l-1.526 1.526Z" fill="#FDF72A"/><path d="M88.342 53.465c-.115 0-.21.038-.305.038.21-.984.305-2.007.305-3.067 0-8.366-6.828-15.142-15.258-15.142-4.692 0-8.83 2.14-11.635 5.452-3.547-6.815-10.623-11.509-18.881-11.509-11.806 0-21.362 9.483-21.362 21.2 0 1.381.153 2.706.4 4.012C14.303 56.834 9 63.591 9 71.635c0 10.032 8.201 18.171 18.31 18.171h61.032c10.108 0 18.309-8.139 18.309-18.17 0-10.032-8.2-18.171-18.31-18.171Z" fill="#3FD5FE"/><path fill-rule="evenodd" clip-rule="evenodd" d="M70.813 62.023c-11.262 0-20.424-9.162-20.424-20.425 0-3.512.89-6.82 2.458-9.709a21.488 21.488 0 0 1 8.602 8.857c2.804-3.313 6.943-5.452 11.635-5.452 8.43 0 15.258 6.776 15.258 15.143 0 .612-.032 1.212-.1 1.8-3.592 5.864-10.061 9.785-17.429 9.785Z" fill="#F7D056"/><rect x="52.066" y="79.917" width="3.762" height="16.069" rx="1" fill="#6A9CFF"/><rect width="3.776" height="16.01" rx="1" transform="matrix(.49816 -.86708 .86496 .50184 46.083 85.572)" fill="#6A9CFF"/><rect width="3.776" height="16.01" rx="1" transform="matrix(-.49816 -.86708 -.86496 .50184 62.152 85.082)" fill="#6A9CFF"/><path fill-rule="evenodd" clip-rule="evenodd" d="M61.127 89.806a1.005 1.005 0 0 0-.18-.134l-3.49-2.013 3.829-2.21a1 1 0 0 0 .366-1.367l-.881-1.526a1 1 0 0 0-1.366-.366l-3.576 2.065v-3.446a1 1 0 0 0-1-1h-1.763a1 1 0 0 0-1 1v3.737l-3.236-1.869a1 1 0 0 0-1.366.366l-.881 1.526a1 1 0 0 0 .366 1.367l2.984 1.722-2.645 1.527a.997.997 0 0 0-.469.62h14.308Z" fill="#37F"/><rect x="32.289" y="100.931" width="3.762" height="16.069" rx="1" fill="#6A9CFF"/><rect width="3.776" height="16.01" rx="1" transform="matrix(.49816 -.86708 .86496 .50184 26.305 106.585)" fill="#6A9CFF"/><rect width="3.776" height="16.01" rx="1" transform="matrix(-.49816 -.86708 -.86496 .50184 42.374 106.096)" fill="#6A9CFF"/><rect x="71.844" y="100.931" width="3.762" height="16.069" rx="1" fill="#6A9CFF"/><rect width="3.776" height="16.01" rx="1" transform="matrix(.49816 -.86708 .86496 .50184 65.86 106.585)" fill="#6A9CFF"/><rect width="3.776" height="16.01" rx="1" transform="matrix(-.49816 -.86708 -.86496 .50184 81.93 106.096)" fill="#6A9CFF"/></svg>