<svg width="120" height="120" fill="none" xmlns="http://www.w3.org/2000/svg"><path d="M91.688 37.259c-.121 0-.222.04-.322.04.22-1.049.322-2.138.322-3.268 0-8.915-7.203-16.136-16.094-16.136-4.95 0-9.314 2.279-12.272 5.809C59.58 16.442 52.117 11.44 43.406 11.44c-12.452 0-22.531 10.106-22.531 22.591 0 1.473.16 2.885.422 4.276C13.593 40.85 8 48.05 8 56.623c0 10.69 8.65 19.364 19.313 19.364h64.374c10.663 0 19.313-8.674 19.313-19.364 0-10.69-8.65-19.364-19.313-19.364Z" fill="#3FD5FE"/><path d="M60.873 69.076V48.52l-18.54 35.75h18.54v20.557l18.54-35.75h-18.54Z" fill="#6A9CFF"/><path fill-rule="evenodd" clip-rule="evenodd" d="m75.83 75.987 3.583-6.91h-18.54V48.52L46.63 75.987h29.2Z" fill="#37F"/><path d="M39.587 96.761V84.227L28.6 106.026h10.987v12.534l10.986-21.799H39.587ZM82.16 96.761V84.227l-10.987 21.799H82.16v12.534l10.987-21.799H82.16Z" fill="#6A9CFF"/></svg>