<svg width="120" height="120" fill="none" xmlns="http://www.w3.org/2000/svg"><path d="M50.437 36c0 9.94 8.085 18.025 18.025 18.025 9.94 0 18.025-8.085 18.025-18.025 0-9.94-8.086-18.025-18.025-18.025-9.94 0-18.025 8.085-18.025 18.025ZM64.855 3a3 3 0 0 1 3-3h1.2a3 3 0 0 1 3 3v4.8a3 3 0 0 1-3 3h-1.2a3 3 0 0 1-3-3V3Zm-32.4 32.4a3 3 0 0 1 3-3h4.8a3 3 0 0 1 3 3v1.2a3 3 0 0 1-3 3h-4.8a3 3 0 0 1-3-3v-1.2Zm61.2 0a3 3 0 0 1 3-3h4.8a3 3 0 0 1 3 3v1.2a3 3 0 0 1-3 3h-4.8a3 3 0 0 1-3-3v-1.2Zm-7.808-17.64a3 3 0 0 1 0-4.243l3.397-3.396a3 3 0 0 1 4.242 0l.848.847a3 3 0 0 1 0 4.243l-3.397 3.397a3 3 0 0 1-4.242 0l-.848-.848Zm-35.632.85a3 3 0 0 1-4.243 0l-3.394-3.395a3 3 0 0 1 .002-4.243l.85-.848a3 3 0 0 1 4.242.001l3.392 3.396a3 3 0 0 1 0 4.241l-.85.849Z" fill="#FDF72A"/><path d="M85.023 48.654c-.101 0-.185.034-.27.034.186-.869.27-1.77.27-2.706 0-7.384-6.026-13.364-13.466-13.364-4.141 0-7.794 1.888-10.268 4.811-3.13-6.014-9.376-10.156-16.664-10.156-10.42 0-18.852 8.369-18.852 18.709 0 1.22.134 2.389.353 3.541C19.68 51.628 15 57.592 15 64.691c0 8.853 7.238 16.036 16.16 16.036h53.863c8.92 0 16.159-7.183 16.159-16.036 0-8.854-7.238-16.037-16.16-16.037Z" fill="#3FD5FE"/><path d="M79.364 84.242V70.91l-9.819 17.212h9.819v13.334l9.818-17.213h-9.818ZM33.545 84.242V70.91l-9.818 17.212h9.818v13.334l9.819-17.213h-9.819ZM56.455 94.06V80.728L46.636 97.94h9.819v13.334l9.818-17.212h-9.818ZM43.615 104.344c-1.477 5.044-4.615 6.408-4.615 9.964 0 3.147 2.48 5.692 5.538 5.692 3.058 0 5.539-2.545 5.539-5.692 0-3.568-3.139-4.897-4.615-9.964-.254-.921-1.558-.966-1.847 0ZM67.615 104.344c-1.477 5.044-4.615 6.408-4.615 9.964 0 3.147 2.48 5.692 5.538 5.692 3.058 0 5.539-2.545 5.539-5.692 0-3.568-3.138-4.897-4.615-9.964-.254-.921-1.558-.966-1.847 0Z" fill="#6A9CFF"/><path fill-rule="evenodd" clip-rule="evenodd" d="M79.364 80.727V70.91l-5.6 9.818h5.6Zm-45.819 0V70.91l-5.398 9.464c1.058.232 2.157.354 3.285.354h2.113Z" fill="#37F"/><path fill-rule="evenodd" clip-rule="evenodd" d="M68.462 54.025c-9.94 0-18.026-8.085-18.026-18.025 0-2.574.543-5.023 1.519-7.24 4.03 1.718 7.324 4.808 9.334 8.67 2.474-2.924 6.127-4.812 10.268-4.812 6.618 0 12.118 4.733 13.252 10.975-2.871 6.156-9.119 10.432-16.347 10.432Z" fill="#F7D056"/></svg>