<svg width="120" height="120" fill="none" xmlns="http://www.w3.org/2000/svg"><path fill-rule="evenodd" clip-rule="evenodd" d="M59.095 9.094C67.492 13.558 73.21 22.396 73.21 32.57c0 10.173-5.718 19.011-14.115 23.476a26.453 26.453 0 0 0 12.454 3.094c14.674 0 26.57-11.896 26.57-26.57S86.223 6 71.55 6c-4.5 0-8.74 1.119-12.454 3.094Z" fill="#D580FF"/><path d="M87.573 45.12c-.105 0-.192.035-.28.035.192-.9.28-1.836.28-2.805 0-7.652-6.246-13.85-13.957-13.85-4.291 0-8.077 1.956-10.641 4.986-3.245-6.233-9.717-10.526-17.271-10.526-10.799 0-19.539 8.673-19.539 19.39 0 1.264.14 2.476.366 3.67C19.85 48.202 15 54.382 15 61.74c0 9.176 7.502 16.62 16.747 16.62h55.826c9.246 0 16.747-7.444 16.747-16.62 0-9.176-7.501-16.62-16.747-16.62Z" fill="#F9F"/><path fill-rule="evenodd" clip-rule="evenodd" d="M94.197 46.472a16.793 16.793 0 0 0-6.624-1.352c-.055 0-.105.01-.153.018a.682.682 0 0 1-.127.017c.192-.9.28-1.836.28-2.805 0-7.652-6.246-13.85-13.957-13.85-.24 0-.477.006-.713.018.202 1.32.307 2.674.307 4.052 0 10.173-5.718 19.012-14.115 23.476a26.454 26.454 0 0 0 12.454 3.094c9.578 0 17.972-5.068 22.648-12.668Z" fill="#96F"/><path d="M81.707 82.004v-13.82l-10.175 17.84h10.175v13.819l10.176-17.84H81.707ZM34.22 82.004v-13.82l-10.175 17.84H34.22v13.819l10.175-17.84H34.221ZM57.964 92.18V78.36L47.788 96.2h10.176v13.818L68.14 92.179H57.964Z" fill="#D580FF"/><path fill-rule="evenodd" clip-rule="evenodd" d="M81.707 78.36V68.186L75.903 78.36h5.804Zm-47.486 0V68.186l-5.596 9.809c1.097.24 2.236.367 3.405.367h2.19Z" fill="#96F"/><path d="M44.657 102.837c-1.53 5.228-4.783 6.641-4.783 10.327 0 3.262 2.57 5.899 5.74 5.899 3.169 0 5.74-2.637 5.74-5.899 0-3.698-3.253-5.075-4.783-10.327-.264-.954-1.615-1.001-1.914 0ZM69.531 102.837c-1.53 5.228-4.783 6.641-4.783 10.327 0 3.262 2.571 5.899 5.74 5.899 3.17 0 5.74-2.637 5.74-5.899 0-3.698-3.252-5.075-4.783-10.327-.263-.954-1.614-1.001-1.913 0Z" fill="#D580FF"/></svg>