<svg width="120" height="120" fill="none" xmlns="http://www.w3.org/2000/svg"><path d="M91.835 38.937c-.121 0-.222.04-.324.04.223-1.053.324-2.147.324-3.282 0-8.957-7.235-16.21-16.168-16.21-4.971 0-9.356 2.289-12.327 5.835C59.58 18.025 52.083 13 43.333 13c-12.51 0-22.635 10.152-22.635 22.695 0 1.479.162 2.897.425 4.295-7.74 2.554-13.359 9.788-13.359 18.4 0 10.739 8.69 19.452 19.401 19.452h64.67c10.711 0 19.401-8.713 19.401-19.453 0-10.739-8.69-19.452-19.401-19.452Z" fill="#F9F"/><path d="M46.795 59.907h39.188c.806 0 1.581-.287 2.17-.801a2.902 2.902 0 0 0 1.001-1.971 2.849 2.849 0 0 0-.705-2.08 3.239 3.239 0 0 0-2.033-1.07l-.433-.028H46.795c-2.096 0-4.145-.581-5.888-1.67-1.742-1.09-3.1-2.64-3.903-4.451a9.324 9.324 0 0 1-.603-5.73c.409-1.923 1.418-3.69 2.9-5.077 1.482-1.386 3.371-2.33 5.427-2.713a11.277 11.277 0 0 1 6.123.564c1.937.75 3.592 2.021 4.757 3.652a9.468 9.468 0 0 1 1.786 5.51c0 .788.335 1.545.93 2.103a3.294 3.294 0 0 0 2.25.871c.842 0 1.651-.313 2.247-.871a2.88 2.88 0 0 0 .932-2.104c0-3.1-.972-6.133-2.794-8.723-1.822-2.59-4.415-4.623-7.459-5.85a18.032 18.032 0 0 0-9.668-1.048c-3.263.542-6.284 1.966-8.691 4.097-2.407 2.131-4.094 4.875-4.853 7.894a14.9 14.9 0 0 0 .586 9.09c1.14 2.91 3.167 5.446 5.83 7.291 2.663 1.845 5.846 2.92 9.154 3.091l.933.024h39.197-39.193ZM41.434 70.944h42.739c.878 0 1.724.33 2.366.923a3.399 3.399 0 0 1 .323 4.666 3.478 3.478 0 0 1-2.218 1.231l-.471.032h-42.74c-2.285 0-4.52.67-6.42 1.925a11.451 11.451 0 0 0-4.258 5.126 11.294 11.294 0 0 0-.658 6.598 11.38 11.38 0 0 0 3.164 5.848 11.598 11.598 0 0 0 5.918 3.125c2.242.441 4.566.215 6.678-.65a11.53 11.53 0 0 0 5.187-4.206 11.324 11.324 0 0 0 1.948-6.345c0-.909.366-1.78 1.016-2.423a3.49 3.49 0 0 1 2.452-1.003c.92 0 1.802.36 2.452 1.003a3.406 3.406 0 0 1 1.016 2.423c0 3.571-1.06 7.064-3.047 10.047A18.44 18.44 0 0 1 48.746 106a18.699 18.699 0 0 1-10.544 1.208 18.58 18.58 0 0 1-9.48-4.719 18.227 18.227 0 0 1-5.291-9.092 18.067 18.067 0 0 1 .638-10.469 18.294 18.294 0 0 1 6.359-8.397 18.633 18.633 0 0 1 9.984-3.56l1.017-.028h42.748-42.743Z" fill="#D580FF"/><path fill-rule="evenodd" clip-rule="evenodd" d="M40.401 77.842c.342-.03.687-.046 1.033-.046h42.739l.471-.032a3.478 3.478 0 0 0 2.218-1.232 3.399 3.399 0 0 0-.323-4.665 3.49 3.49 0 0 0-2.366-.923H41.429l-1.017.027a18.633 18.633 0 0 0-9.984 3.56 18.398 18.398 0 0 0-3.467 3.31l.204.001h13.236Z" fill="#96F"/><rect x="68.468" y="84.74" width="38.629" height="6.898" rx="3" fill="#D580FF"/></svg>