<svg width="120" height="120" fill="none" xmlns="http://www.w3.org/2000/svg"><path d="M37.978 59.98c0 12.142 9.882 22.02 22.03 22.02 12.15 0 22.032-9.878 22.032-22.02 0-12.143-9.883-22.021-22.031-22.021-12.149 0-22.031 9.878-22.031 22.02ZM55.6 18a2 2 0 0 1 2-2h4.8a2 2 0 0 1 2 2v9.194a2 2 0 0 1-2 2h-4.8a2 2 0 0 1-2-2V18ZM16 57.581a2 2 0 0 1 2-2h9.2a2 2 0 0 1 2 2v4.796a2 2 0 0 1-2 2H18a2 2 0 0 1-2-2v-4.796Zm74.8 0a2 2 0 0 1 2-2h9.2a2 2 0 0 1 2 2v4.796a2 2 0 0 1-2 2h-9.2a2 2 0 0 1-2-2v-4.796ZM80.08 36.52a2 2 0 0 1 0-2.829l6.508-6.504a2 2 0 0 1 2.828 0l3.392 3.39a2 2 0 0 1 0 2.83L86.3 39.91a2 2 0 0 1-2.828 0l-3.392-3.39Zm-43.552 3.395a2 2 0 0 1-2.828 0l-6.504-6.504a2 2 0 0 1 .001-2.829l3.396-3.392a2 2 0 0 1 2.828.002l6.5 6.503a2 2 0 0 1 0 2.829l-3.393 3.391Z" fill="#F7D056"/><path d="M37.978 60.02c0-12.142 9.882-22.02 22.03-22.02 12.15 0 22.032 9.878 22.032 22.02 0 12.143-9.883 22.021-22.031 22.021-12.149 0-22.031-9.878-22.031-22.02ZM55.6 102a2 2 0 0 0 2 2h4.8a2 2 0 0 0 2-2v-9.194a2 2 0 0 0-2-2h-4.8a2 2 0 0 0-2 2V102ZM16 62.419a2 2 0 0 0 2 2h9.2a2 2 0 0 0 2-2v-4.796a2 2 0 0 0-2-2H18a2 2 0 0 0-2 2v4.796Zm74.8 0a2 2 0 0 0 2 2h9.2a2 2 0 0 0 2-2v-4.796a2 2 0 0 0-2-2h-9.2a2 2 0 0 0-2 2v4.796ZM80.08 83.48a2 2 0 0 0 0 2.829l6.508 6.504a2 2 0 0 0 2.828 0l3.392-3.39a2 2 0 0 0 0-2.83L86.3 80.09a2 2 0 0 0-2.828 0l-3.392 3.39Zm-43.552-3.395a2 2 0 0 0-2.828 0l-6.504 6.504a2 2 0 0 0 .001 2.829l3.396 3.392a2 2 0 0 0 2.828-.002l6.5-6.504a2 2 0 0 0 0-2.828l-3.393-3.391Z" fill="#F7D056"/><circle cx="60" cy="60" r="23" fill="#FDF72A"/><path fill-rule="evenodd" clip-rule="evenodd" d="M60 71c2.308 0 4.4-.74 6.021-1.946.887-.659 2.142-.774 2.979-.054.837.72.94 1.997.1 2.713C66.69 73.767 63.486 75 60 75c-3.486 0-6.69-1.233-9.1-3.287-.84-.716-.737-1.993.1-2.713s2.092-.605 2.979.054C55.6 70.26 57.692 71 60 71ZM33 51a5 5 0 0 1 5-5h12a5.001 5.001 0 0 1 4.584 3h9.832A5.001 5.001 0 0 1 69 46h12a5 5 0 0 1 5 5v7a5 5 0 0 1-5 5H69a5 5 0 0 1-5-5v-3h-9v3a5 5 0 0 1-5 5H38a5 5 0 0 1-5-5v-7Z" fill="#F7D056"/><path fill-rule="evenodd" clip-rule="evenodd" d="M82.85 62.647c.099-.869.15-1.752.15-2.647a22.9 22.9 0 0 0-4.75-14H69a5.001 5.001 0 0 0-4.584 3h-9.832A5.001 5.001 0 0 0 50 46h-8.25A22.9 22.9 0 0 0 37 60c0 .994.063 1.973.185 2.934.265.043.538.066.815.066h12a5 5 0 0 0 5-5v-3h9v3a5 5 0 0 0 5 5h12c.653 0 1.277-.125 1.85-.353Z" fill="#FEB800"/></svg>