<svg width="120" height="120" fill="none" xmlns="http://www.w3.org/2000/svg"><path d="M82.938 44.8c-.088 0-.162.03-.235.03.161-.764.234-1.557.234-2.38 0-6.492-5.244-11.75-11.718-11.75-3.604 0-6.782 1.66-8.936 4.23C59.56 29.642 54.124 26 47.781 26c-9.067 0-16.406 7.358-16.406 16.45 0 1.072.117 2.1.308 3.114C26.073 47.414 22 52.658 22 58.9 22 66.684 28.299 73 36.063 73h46.874C90.701 73 97 66.684 97 58.9s-6.299-14.1-14.063-14.1Z" fill="#F9F"/><path d="M76.5 73c-.066 0-.12.022-.175.022.12-.569.175-1.16.175-1.772a8.748 8.748 0 0 0-8.75-8.75c-2.69 0-5.064 1.236-6.672 3.15C59.044 61.712 54.986 59 50.25 59 43.48 59 38 63.91 38 70.681c0 .799.087 1.564.23 2.319C34.04 74.378 31 78.852 31 83.5 31 89.297 35.703 94 41.5 94h35C82.297 94 87 89.297 87 83.5S82.297 73 76.5 73Z" fill="#D580FF"/><path fill-rule="evenodd" clip-rule="evenodd" d="M38.23 73h38.1a8.56 8.56 0 0 0 .17-1.75 8.748 8.748 0 0 0-8.75-8.75c-2.69 0-5.064 1.236-6.672 3.15C59.044 61.712 54.986 59 50.25 59 43.48 59 38 63.91 38 70.681c0 .799.087 1.564.23 2.319Z" fill="#96F"/></svg>