<svg width="120" height="120" fill="none" xmlns="http://www.w3.org/2000/svg"><path d="M82.938 39.8c-.088 0-.162.03-.235.03.161-.764.234-1.557.234-2.38 0-6.492-5.244-11.75-11.718-11.75-3.604 0-6.782 1.66-8.936 4.23C59.56 24.642 54.124 21 47.781 21c-9.067 0-16.406 7.358-16.406 16.45 0 1.072.117 2.1.308 3.114C26.073 42.414 22 47.658 22 53.9 22 61.684 28.299 68 36.063 68h46.874C90.701 68 97 61.684 97 53.9s-6.299-14.1-14.063-14.1Z" fill="#F9F"/><circle cx="67.5" cy="96.5" r="7.5" fill="#D580FF"/><circle cx="46" cy="78" r="6" fill="#D580FF"/><circle cx="71.5" cy="67.5" r="7.5" fill="#D580FF"/><path fill-rule="evenodd" clip-rule="evenodd" d="M78.984 68a7.5 7.5 0 1 0-14.967 0h14.967Z" fill="#96F"/></svg>