<svg width="120" height="120" fill="none" xmlns="http://www.w3.org/2000/svg"><path fill-rule="evenodd" clip-rule="evenodd" d="M59 26.144C67.607 30.681 73.468 39.662 73.468 50c0 10.338-5.86 19.32-14.468 23.856A27.302 27.302 0 0 0 71.766 77C86.806 77 99 64.912 99 50S86.807 23 71.766 23A27.302 27.302 0 0 0 59 26.144Z" fill="#D580FF"/><path d="M88.125 62.4c-.106 0-.193.035-.281.035.193-.91.281-1.855.281-2.835 0-7.735-6.293-14-14.063-14-4.324 0-8.138 1.977-10.722 5.04C60.07 44.34 53.549 40 45.937 40c-10.88 0-19.687 8.767-19.687 19.6 0 1.277.14 2.502.37 3.71C19.886 65.515 15 71.763 15 79.2 15 88.475 22.559 96 31.875 96h56.25C97.441 96 105 88.475 105 79.2s-7.559-16.8-16.875-16.8Z" fill="#F9F"/><path fill-rule="evenodd" clip-rule="evenodd" d="M94.896 63.83a16.941 16.941 0 0 0-6.682-1.364c-.055 0-.106.01-.154.018a.694.694 0 0 1-.128.017c.194-.909.282-1.852.282-2.83 0-7.72-6.3-13.973-14.08-13.973-.241 0-.481.007-.72.019.205 1.333.31 2.698.31 4.088 0 10.263-5.768 19.18-14.24 23.683A26.686 26.686 0 0 0 72.05 76.61c9.662 0 18.13-5.112 22.847-12.78Z" fill="#96F"/></svg>