<svg width="120" height="120" fill="none" xmlns="http://www.w3.org/2000/svg"><path d="M40.483 51c0 9.111 7.412 16.523 16.524 16.523 9.11 0 16.523-7.412 16.523-16.523s-7.412-16.523-16.523-16.523c-9.112 0-16.523 7.412-16.523 16.523ZM53.7 20a2 2 0 0 1 2-2h2.6a2 2 0 0 1 2 2v5.9a2 2 0 0 1-2 2h-2.6a2 2 0 0 1-2-2V20ZM24 49.7a2 2 0 0 1 2-2h5.9a2 2 0 0 1 2 2v2.6a2 2 0 0 1-2 2H26a2 2 0 0 1-2-2v-2.6Zm56.1 0a2 2 0 0 1 2-2H88a2 2 0 0 1 2 2v2.6a2 2 0 0 1-2 2h-5.9a2 2 0 0 1-2-2v-2.6Zm-7.687-15.95a2 2 0 0 1 0-2.829l4.174-4.174a2 2 0 0 1 2.828 0l1.838 1.838a2 2 0 0 1 0 2.828l-4.174 4.174a2 2 0 0 1-2.828 0l-1.838-1.838ZM39.75 35.59a2 2 0 0 1-2.829 0l-4.171-4.173a2 2 0 0 1 0-2.829l1.84-1.838a2 2 0 0 1 2.83 0l4.169 4.174a2 2 0 0 1-.001 2.828L39.75 35.59Z" fill="#FDF72A"/><path d="M85.188 70.6c-.093 0-.17.03-.247.03.17-.796.246-1.623.246-2.48 0-6.768-5.523-12.25-12.343-12.25-3.796 0-7.144 1.73-9.412 4.41-2.87-5.513-8.595-9.31-15.276-9.31-9.55 0-17.281 7.672-17.281 17.15 0 1.118.123 2.19.324 3.246C25.289 73.326 21 78.792 21 85.3c0 8.116 6.635 14.7 14.813 14.7h49.374C93.365 100 100 93.416 100 85.3s-6.635-14.7-14.813-14.7Z" fill="#3FD5FE"/><path fill-rule="evenodd" clip-rule="evenodd" d="M72.788 55.9c-3.773.017-7.1 1.743-9.356 4.41-2.87-5.513-8.595-9.31-15.276-9.31-2.72 0-5.294.623-7.582 1.732.868 8.3 7.906 14.791 16.433 14.791 7.405 0 13.689-4.897 15.781-11.623Z" fill="#F7D056"/></svg>