<svg width="120" height="120" fill="none" xmlns="http://www.w3.org/2000/svg"><path d="M82.938 39.8c-.088 0-.162.03-.235.03.161-.764.234-1.557.234-2.38 0-6.492-5.244-11.75-11.718-11.75-3.604 0-6.782 1.66-8.936 4.23C59.56 24.642 54.124 21 47.781 21c-9.067 0-16.406 7.358-16.406 16.45 0 1.072.117 2.1.308 3.114C26.073 42.414 22 47.658 22 53.9 22 61.684 28.299 68 36.063 68h46.874C90.701 68 97 61.684 97 53.9s-6.299-14.1-14.063-14.1Z" fill="#F9F"/><path d="M58.23 58.648C56.878 63.273 54 64.522 54 67.782 54 70.667 56.274 73 59.077 73s5.077-2.333 5.077-5.218c0-3.27-2.877-4.489-4.23-9.134-.234-.843-1.429-.885-1.693 0ZM41.23 58.648C39.878 63.273 37 64.522 37 67.782 37 70.667 39.274 73 42.077 73s5.077-2.333 5.077-5.218c0-3.27-2.877-4.489-4.23-9.134-.234-.843-1.429-.885-1.693 0ZM75.23 58.648C73.878 63.273 71 64.522 71 67.782 71 70.667 73.274 73 76.077 73s5.077-2.333 5.077-5.218c0-3.27-2.877-4.489-4.23-9.134-.234-.843-1.429-.885-1.693 0Z" fill="#D580FF"/><path fill-rule="evenodd" clip-rule="evenodd" d="M80.996 68a5.62 5.62 0 0 0 .004-.218c0-1.716-.793-2.868-1.742-4.246-.859-1.247-1.846-2.68-2.489-4.888-.233-.843-1.428-.885-1.692 0-.642 2.193-1.627 3.627-2.485 4.877-.95 1.385-1.746 2.543-1.746 4.257 0 .073.002.146.004.218h10.146Zm-16.923 0c.003-.072.004-.145.004-.218 0-1.716-.793-2.868-1.742-4.246-.859-1.247-1.846-2.68-2.489-4.888-.232-.843-1.428-.885-1.692 0-.642 2.193-1.627 3.627-2.485 4.877-.95 1.385-1.746 2.543-1.746 4.257 0 .073.002.146.004.218h10.146ZM47.15 68c.002-.072.004-.145.004-.218 0-1.716-.793-2.868-1.742-4.246-.859-1.247-1.846-2.68-2.489-4.888-.233-.843-1.428-.885-1.692 0-.642 2.193-1.627 3.627-2.485 4.877C37.796 64.91 37 66.068 37 67.782c0 .073.002.146.004.218H47.15Z" fill="#96F"/><path d="M50.23 72.648C48.878 77.273 46 78.522 46 81.782 46 84.667 48.274 87 51.077 87s5.077-2.333 5.077-5.218c0-3.27-2.877-4.489-4.23-9.134-.234-.843-1.429-.885-1.693 0ZM66.23 72.648C64.878 77.273 62 78.522 62 81.782 62 84.667 64.274 87 67.077 87s5.077-2.333 5.077-5.218c0-3.27-2.877-4.489-4.23-9.134-.234-.843-1.429-.885-1.693 0ZM58.23 85.648C56.878 90.273 54 91.522 54 94.782c0 2.885 2.274 5.218 5.077 5.218s5.077-2.333 5.077-5.218c0-3.27-2.877-4.489-4.23-9.134-.234-.843-1.429-.885-1.693 0Z" fill="#D580FF"/></svg>