<svg xmlns="http://www.w3.org/2000/svg" fill="none" viewBox="0 0 120 120"><path d="M51.48 39a16.53 16.53 0 0 0 33.06 0c0-9.11-7.4-16.52-16.51-16.52A16.54 16.54 0 0 0 51.48 39ZM64.7 8c0-1.1.9-2 2-2h2.6a2 2 0 0 1 2 2v5.9a2 2 0 0 1-2 2h-2.6a2 2 0 0 1-2-2V8ZM35 37.7c0-1.1.9-2 2-2h5.9a2 2 0 0 1 2 2v2.6a2 2 0 0 1-2 2H37a2 2 0 0 1-2-2v-2.6Zm56.1 0c0-1.1.9-2 2-2H99a2 2 0 0 1 2 2v2.6a2 2 0 0 1-2 2h-5.9a2 2 0 0 1-2-2v-2.6Zm-7.69-15.95a2 2 0 0 1 0-2.83l4.18-4.17a2 2 0 0 1 2.83 0l1.83 1.83a2 2 0 0 1 0 2.83l-4.17 4.21a2 2 0 0 1-2.83 0l-1.84-1.84ZM50.75 23.6a2 2 0 0 1-2.83 0l-4.17-4.17a2 2 0 0 1 0-2.83l1.84-1.86a2 2 0 0 1 2.83 0l4.17 4.17a2 2 0 0 1 0 2.83l-1.84 1.84Z" fill="#FDF72A"/><path d="M83.19 50.6c-.1 0-.17.03-.25.03a12.3 12.3 0 0 0-21.5-10.32A17.2 17.2 0 0 0 46.15 31a17.2 17.2 0 0 0-17.28 17.15c0 1.12.12 2.19.32 3.25a14.66 14.66 0 0 0-10.2 13.9A14.77 14.77 0 0 0 33.8 80h49.4C91.37 80 98 73.42 98 65.3s-6.63-14.7-14.81-14.7Z" fill="#3FD5FE"/><path d="M68 55.52a16.54 16.54 0 0 1-15.13-23.16 17.34 17.34 0 0 1 8.56 7.95A12.32 12.32 0 0 1 83 45.96a16.54 16.54 0 0 1-14.98 9.56Z" fill="#F7D056" fill-rule="evenodd" clip-rule="evenodd"/><rect fill="#6A9CFF" width="3.51" height="15" x="40.59" y="71" rx="1"/><rect fill="#6A9CFF" width="3.53" height="14.95" rx="1" transform="matrix(.49816 -.86708 .86496 .50184 35 76.28)"/><rect fill="#6A9CFF" width="3.53" height="14.95" rx="1" transform="matrix(-.49816 -.86708 -.86496 .50184 50 75.82)"/><rect fill="#6A9CFF" width="3.51" height="15" x="68.59" y="71" rx="1"/><rect fill="#6A9CFF" width="3.53" height="14.95" rx="1" transform="matrix(.49816 -.86708 .86496 .50184 63 76.28)"/><rect fill="#6A9CFF" width="3.53" height="14.95" rx="1" transform="matrix(-.49816 -.86708 -.86496 .50184 78 75.82)"/><rect fill="#6A9CFF" width="3.51" height="15" x="54.59" y="86" rx="1"/><rect fill="#6A9CFF" width="3.53" height="14.95" rx="1" transform="matrix(.49816 -.86708 .86496 .50184 49 91.28)"/><rect fill="#6A9CFF" width="3.53" height="14.95" rx="1" transform="matrix(-.49816 -.86708 -.86496 .50184 64 90.82)"/><path d="m48.6 80.13-2.94-1.7 3.5-2.02a1 1 0 0 0 .36-1.36l-.75-1.3a1 1 0 0 0-1.36-.37l-3.27 1.89v-3.13a1 1 0 0 0-1-1h-1.5a1 1 0 0 0-1 1v3.4l-2.94-1.7a1 1 0 0 0-1.37.36l-.75 1.3a1 1 0 0 0 .37 1.37l2.71 1.56-2.94 1.7H48.6Zm27.98 0-2.94-1.7 3.5-2.02a1 1 0 0 0 .36-1.36l-.75-1.3a1 1 0 0 0-1.36-.37l-3.27 1.89v-3.13a1 1 0 0 0-1-1h-1.5a1 1 0 0 0-1 1v3.4l-2.94-1.7a1 1 0 0 0-1.37.36l-.75 1.3a1 1 0 0 0 .37 1.37l2.71 1.56-2.94 1.7h12.88Z" fill="#37F" fill-rule="evenodd" clip-rule="evenodd"/><path d="M44.23 97.65c-1.35 4.62-4.23 5.87-4.23 9.13a5.15 5.15 0 0 0 5.08 5.22c2.8 0 5.07-2.33 5.07-5.22 0-3.27-2.87-4.49-4.23-9.13a.88.88 0 0 0-1.69 0Zm22 0c-1.35 4.62-4.23 5.87-4.23 9.13a5.15 5.15 0 0 0 5.08 5.22c2.8 0 5.07-2.33 5.07-5.22 0-3.27-2.87-4.49-4.23-9.13a.88.88 0 0 0-1.7 0Z" fill="#6A9CFF"/></svg>