<svg width="120" height="120" fill="none" xmlns="http://www.w3.org/2000/svg"><path fill-rule="evenodd" clip-rule="evenodd" d="M59 13.736c7.427 3.949 12.484 11.766 12.484 20.764S66.427 51.315 59 55.264A23.397 23.397 0 0 0 70.016 58c12.978 0 23.5-10.521 23.5-23.5S82.994 11 70.016 11c-3.981 0-7.73.99-11.016 2.736Z" fill="#D580FF"/><path d="M84.188 45.6c-.093 0-.17.03-.247.03.17-.796.246-1.623.246-2.48 0-6.768-5.523-12.25-12.343-12.25-3.796 0-7.144 1.73-9.412 4.41-2.87-5.513-8.595-9.31-15.276-9.31-9.55 0-17.281 7.672-17.281 17.15 0 1.118.123 2.19.324 3.246C24.289 48.326 20 53.792 20 60.3 20 68.416 26.635 75 34.813 75h49.374C92.365 75 99 68.416 99 60.3s-6.635-14.7-14.813-14.7Z" fill="#F9F"/><rect x="43.585" y="68" width="3.512" height="15" rx="1" fill="#D580FF"/><rect width="3.525" height="14.945" rx="1" transform="matrix(.49816 -.86708 .86496 .50184 38 73.278)" fill="#D580FF"/><rect width="3.525" height="14.945" rx="1" transform="matrix(-.49816 -.86708 -.86496 .50184 53 72.821)" fill="#D580FF"/><rect x="71.585" y="68" width="3.512" height="15" rx="1" fill="#D580FF"/><rect width="3.525" height="14.945" rx="1" transform="matrix(.49816 -.86708 .86496 .50184 66 73.278)" fill="#D580FF"/><rect width="3.525" height="14.945" rx="1" transform="matrix(-.49816 -.86708 -.86496 .50184 81 72.821)" fill="#D580FF"/><rect x="57.585" y="83" width="3.512" height="15" rx="1" fill="#D580FF"/><rect width="3.525" height="14.945" rx="1" transform="matrix(.49816 -.86708 .86496 .50184 52 88.278)" fill="#D580FF"/><rect width="3.525" height="14.945" rx="1" transform="matrix(-.49816 -.86708 -.86496 .50184 67 87.821)" fill="#D580FF"/><path fill-rule="evenodd" clip-rule="evenodd" d="m49.18 75.13 3.84-2.216-1.748-3.03-4.129 2.385v-4.133h-3.497v4.403l-3.814-2.201-1.748 3.028 3.056 1.765h8.04ZM77.16 75.13 81 72.915l-1.749-3.03-4.129 2.385v-4.133h-3.497v4.403l-3.813-2.201-1.75 3.028 3.057 1.765h8.04ZM90.046 46.796a14.853 14.853 0 0 0-5.859-1.196c-.048 0-.092.008-.134.016-.039.008-.076.015-.112.015.17-.797.246-1.623.246-2.481 0-6.768-5.523-12.25-12.343-12.25-.212 0-.422.005-.631.016.179 1.169.271 2.365.271 3.584 0 8.998-5.057 16.815-12.484 20.764A23.396 23.396 0 0 0 70.016 58c8.47 0 15.895-4.482 20.03-11.204Z" fill="#96F"/><path d="M47.23 94.648c-1.353 4.625-4.23 5.874-4.23 9.134 0 2.885 2.274 5.218 5.077 5.218s5.077-2.333 5.077-5.218c0-3.27-2.877-4.489-4.23-9.134-.234-.843-1.429-.885-1.693 0ZM69.23 94.648c-1.353 4.625-4.23 5.874-4.23 9.134 0 2.885 2.274 5.218 5.077 5.218s5.077-2.333 5.077-5.218c0-3.27-2.877-4.489-4.23-9.134-.234-.843-1.429-.885-1.693 0Z" fill="#D580FF"/></svg>