<svg width="120" height="120" fill="none" xmlns="http://www.w3.org/2000/svg"><path d="M82.938 36.8c-.088 0-.162.03-.235.03.161-.764.234-1.557.234-2.38 0-6.492-5.244-11.75-11.718-11.75-3.604 0-6.782 1.66-8.936 4.23C59.56 21.642 54.124 18 47.781 18c-9.067 0-16.406 7.358-16.406 16.45 0 1.072.117 2.1.308 3.114C26.073 39.414 22 44.658 22 50.9 22 58.684 28.299 65 36.063 65h46.874C90.701 65 97 58.684 97 50.9s-6.299-14.1-14.063-14.1Z" fill="#3FD5FE"/><rect x="43.585" y="58" width="3.512" height="15" rx="1" fill="#6A9CFF"/><rect width="3.525" height="14.945" rx="1" transform="matrix(.49816 -.86708 .86496 .50184 38 63.278)" fill="#6A9CFF"/><rect width="3.525" height="14.945" rx="1" transform="matrix(-.49816 -.86708 -.86496 .50184 53 62.821)" fill="#6A9CFF"/><rect x="71.585" y="58" width="3.512" height="15" rx="1" fill="#6A9CFF"/><rect width="3.525" height="14.945" rx="1" transform="matrix(.49816 -.86708 .86496 .50184 66 63.278)" fill="#6A9CFF"/><rect width="3.525" height="14.945" rx="1" transform="matrix(-.49816 -.86708 -.86496 .50184 81 62.821)" fill="#6A9CFF"/><rect x="57.585" y="73" width="3.512" height="15" rx="1" fill="#6A9CFF"/><rect width="3.525" height="14.945" rx="1" transform="matrix(.49816 -.86708 .86496 .50184 52 78.278)" fill="#6A9CFF"/><rect width="3.525" height="14.945" rx="1" transform="matrix(-.49816 -.86708 -.86496 .50184 67 77.821)" fill="#6A9CFF"/><path fill-rule="evenodd" clip-rule="evenodd" d="m49.18 65.13 3.84-2.216-1.748-3.03-4.129 2.385v-4.133h-3.497v4.403l-3.814-2.201-1.748 3.028 3.056 1.765h8.04ZM77.16 65.13 81 62.915l-1.749-3.03-4.129 2.385v-4.133h-3.497v4.403l-3.813-2.201-1.75 3.028 3.057 1.765h8.04Z" fill="#37F"/><path d="M47.23 84.648C45.878 89.273 43 90.522 43 93.782 43 96.667 45.274 99 48.077 99s5.077-2.333 5.077-5.218c0-3.27-2.877-4.489-4.23-9.134-.234-.843-1.429-.885-1.693 0ZM69.23 84.648C67.878 89.273 65 90.522 65 93.782 65 96.667 67.274 99 70.077 99s5.077-2.333 5.077-5.218c0-3.27-2.877-4.489-4.23-9.134-.234-.843-1.429-.885-1.693 0Z" fill="#6A9CFF"/></svg>