<svg width="120" height="120" fill="none" xmlns="http://www.w3.org/2000/svg"><path fill-rule="evenodd" clip-rule="evenodd" d="M60 23.97c7.962 4.284 13.383 12.766 13.383 22.53 0 9.764-5.421 18.246-13.383 22.53A24.84 24.84 0 0 0 71.808 72C85.721 72 97 60.583 97 46.5S85.721 21 71.808 21A24.84 24.84 0 0 0 60 23.97Z" fill="#D580FF"/><path d="M40.615 82.692C39.138 87.624 36 88.957 36 92.434 36 95.512 38.48 98 41.538 98c3.058 0 5.539-2.488 5.539-5.566 0-3.488-3.139-4.788-4.615-9.742-.254-.9-1.558-.945-1.847 0Zm18.462 0c-1.477 4.932-4.615 6.265-4.615 9.742C54.462 95.512 56.941 98 60 98c3.058 0 5.538-2.488 5.538-5.566 0-3.488-3.138-4.788-4.615-9.742-.254-.9-1.558-.945-1.846 0Zm18.462 0c-1.478 4.932-4.616 6.265-4.616 9.742 0 3.078 2.48 5.566 5.538 5.566C81.52 98 84 95.512 84 92.434c0-3.488-3.138-4.788-4.615-9.742-.254-.9-1.558-.945-1.847 0Z" fill="#D580FF"/><path d="M40.23 83.648C38.878 88.273 36 89.522 36 92.782 36 95.667 38.274 98 41.077 98s5.077-2.333 5.077-5.218c0-3.27-2.877-4.489-4.23-9.134-.234-.843-1.429-.885-1.693 0ZM59.23 83.648C57.878 88.273 55 89.522 55 92.782 55 95.667 57.274 98 60.077 98s5.077-2.333 5.077-5.218c0-3.27-2.877-4.489-4.23-9.134-.234-.843-1.429-.885-1.693 0ZM78.23 83.648C76.878 88.273 74 89.522 74 92.782 74 95.667 76.274 98 79.077 98s5.077-2.333 5.077-5.218c0-3.27-2.877-4.489-4.23-9.134-.234-.843-1.429-.885-1.693 0Z" fill="#D580FF"/><path d="M87.063 58.2c-.1 0-.183.033-.266.033.183-.861.266-1.755.266-2.683 0-7.32-5.944-13.25-13.282-13.25-4.084 0-7.686 1.872-10.127 4.77C60.566 41.108 54.407 37 47.22 37c-10.277 0-18.594 8.298-18.594 18.55 0 1.21.133 2.368.349 3.511C22.615 61.148 18 67.061 18 74.1 18 82.878 25.139 90 33.938 90h53.124C95.862 90 103 82.878 103 74.1s-7.139-15.9-15.938-15.9Z" fill="#F9F"/><path fill-rule="evenodd" clip-rule="evenodd" d="M83.472 90.409c-.345-.93-.912-1.756-1.544-2.673-.931-1.353-2.002-2.907-2.7-5.3-.252-.915-1.548-.96-1.835 0-.696 2.378-1.764 3.933-2.694 5.288-.633.922-1.203 1.752-1.548 2.684h10.32Zm-18.353 0c-.345-.93-.913-1.756-1.544-2.673-.932-1.353-2.002-2.907-2.7-5.3-.252-.915-1.548-.96-1.835 0-.696 2.378-1.764 3.933-2.694 5.288-.633.922-1.203 1.752-1.548 2.684h10.32Zm-18.354 0c-.344-.93-.912-1.756-1.543-2.673-.932-1.353-2.002-2.907-2.7-5.3-.252-.915-1.548-.96-1.835 0-.696 2.378-1.764 3.933-2.694 5.288-.634.922-1.203 1.752-1.548 2.684h10.32ZM93.628 59.82a16.109 16.109 0 0 0-6.354-1.296c-.053 0-.1.009-.146.018a.658.658 0 0 1-.122.015c.184-.863.268-1.76.268-2.69 0-7.34-5.99-13.285-13.387-13.285-.23 0-.458.005-.684.017.194 1.267.294 2.565.294 3.887 0 9.758-5.484 18.236-13.54 22.518a25.373 25.373 0 0 0 11.947 2.968c9.187 0 17.239-4.861 21.724-12.151Z" fill="#96F"/></svg>