<svg width="120" height="120" fill="none" xmlns="http://www.w3.org/2000/svg"><path d="M51.483 53c0 9.111 7.412 16.523 16.524 16.523 9.11 0 16.523-7.412 16.523-16.523s-7.412-16.523-16.523-16.523c-9.112 0-16.524 7.412-16.524 16.523ZM64.7 22a2 2 0 0 1 2-2h2.6a2 2 0 0 1 2 2v5.9a2 2 0 0 1-2 2h-2.6a2 2 0 0 1-2-2V22ZM35 51.7a2 2 0 0 1 2-2h5.9a2 2 0 0 1 2 2v2.6a2 2 0 0 1-2 2H37a2 2 0 0 1-2-2v-2.6Zm56.1 0a2 2 0 0 1 2-2H99a2 2 0 0 1 2 2v2.6a2 2 0 0 1-2 2h-5.9a2 2 0 0 1-2-2v-2.6Zm-7.687-15.95a2 2 0 0 1 0-2.829l4.174-4.174a2 2 0 0 1 2.828 0l1.838 1.838a2 2 0 0 1 0 2.828l-4.174 4.174a2 2 0 0 1-2.828 0l-1.838-1.838ZM50.75 37.59a2 2 0 0 1-2.829 0l-4.171-4.173a2 2 0 0 1 0-2.829l1.84-1.838a2 2 0 0 1 2.83 0l4.169 4.174a2 2 0 0 1-.001 2.828L50.75 37.59Z" fill="#FDF72A"/><path d="M83.188 64.6c-.093 0-.17.03-.247.03.17-.796.246-1.622.246-2.48 0-6.768-5.523-12.25-12.343-12.25-3.796 0-7.144 1.73-9.412 4.41-2.87-5.513-8.595-9.31-15.276-9.31-9.55 0-17.281 7.672-17.281 17.15 0 1.118.123 2.19.324 3.246C23.289 67.326 19 72.792 19 79.3 19 87.416 25.635 94 33.813 94h49.374C91.365 94 98 87.416 98 79.3s-6.635-14.7-14.813-14.7Z" fill="#3FD5FE"/><path d="M57.23 84.648C55.878 89.273 53 90.522 53 93.782 53 96.667 55.274 99 58.077 99s5.077-2.333 5.077-5.218c0-3.27-2.877-4.489-4.23-9.134-.234-.843-1.429-.885-1.693 0ZM40.23 84.648C38.878 89.273 36 90.522 36 93.782 36 96.667 38.274 99 41.077 99s5.077-2.333 5.077-5.218c0-3.27-2.877-4.489-4.23-9.134-.234-.843-1.429-.885-1.693 0ZM74.23 84.648C72.878 89.273 70 90.522 70 93.782 70 96.667 72.274 99 75.077 99s5.077-2.333 5.077-5.218c0-3.27-2.877-4.489-4.23-9.134-.234-.843-1.429-.885-1.693 0Z" fill="#6A9CFF"/><path fill-rule="evenodd" clip-rule="evenodd" d="M79.996 94a5.62 5.62 0 0 0 .004-.218c0-1.716-.793-2.868-1.742-4.246-.859-1.247-1.846-2.68-2.489-4.888-.233-.843-1.428-.885-1.692 0-.642 2.193-1.627 3.627-2.485 4.877-.95 1.385-1.746 2.543-1.746 4.257 0 .073.002.146.004.218h10.146Zm-16.923 0c.002-.072.004-.145.004-.218 0-1.716-.793-2.868-1.742-4.246-.859-1.247-1.846-2.68-2.489-4.888-.232-.843-1.428-.885-1.692 0-.642 2.193-1.627 3.627-2.485 4.877-.95 1.385-1.746 2.543-1.746 4.257 0 .073.002.146.004.218h10.146ZM46.15 94c.002-.072.004-.145.004-.218 0-1.716-.793-2.868-1.742-4.246-.859-1.247-1.846-2.68-2.489-4.888-.233-.843-1.428-.885-1.692 0-.642 2.193-1.627 3.627-2.485 4.877C36.796 90.91 36 92.068 36 93.782c0 .073.002.146.004.218H46.15Z" fill="#37F"/><path fill-rule="evenodd" clip-rule="evenodd" d="M68.007 69.523c-9.112 0-16.524-7.412-16.524-16.523 0-2.359.497-4.604 1.392-6.636a17.34 17.34 0 0 1 8.557 7.946c2.268-2.68 5.616-4.41 9.412-4.41 6.067 0 11.108 4.338 12.147 10.06-2.631 5.643-8.358 9.563-14.984 9.563Z" fill="#F7D056"/></svg>