<svg width="120" height="120" fill="none" xmlns="http://www.w3.org/2000/svg"><path d="M86.6 44.737c-.102 0-.187.035-.271.035.186-.884.27-1.8.27-2.752 0-7.506-6.063-13.586-13.55-13.586-4.166 0-7.841 1.92-10.33 4.891C59.567 27.212 53.283 23 45.95 23c-10.484 0-18.97 8.508-18.97 19.02 0 1.24.136 2.429.356 3.6-6.487 2.14-11.195 8.203-11.195 15.42 0 9.001 7.283 16.304 16.26 16.304H86.6c8.976 0 16.259-7.303 16.259-16.303 0-9.001-7.283-16.303-16.26-16.303Z" fill="#3FD5FE"/><rect x="54.675" y="58.844" width="8.934" height="38.156" rx="1" fill="#6A9CFF"/><rect width="8.967" height="38.016" rx="1" transform="matrix(.49816 -.86708 .86496 .50184 40.467 72.27)" fill="#6A9CFF"/><rect width="8.967" height="38.016" rx="1" transform="matrix(-.49816 -.86708 -.86496 .50184 78.624 71.108)" fill="#6A9CFF"/><path fill-rule="evenodd" clip-rule="evenodd" d="m68.907 76.8 8.993-5.192a1 1 0 0 0 .366-1.366l-3.49-6.043a1 1 0 0 0-1.365-.366l-9.733 5.62v-9.61a1 1 0 0 0-1-1H55.7a1 1 0 0 0-1 1v10.304l-8.923-5.152a1 1 0 0 0-1.366.366l-3.49 6.043a1 1 0 0 0 .367 1.366l6.979 4.03h20.64Z" fill="#37F"/></svg>