<svg width="120" height="120" fill="none" xmlns="http://www.w3.org/2000/svg"><path fill-rule="evenodd" clip-rule="evenodd" d="M59 17.736c7.427 3.949 12.484 11.766 12.484 20.764S66.427 55.315 59 59.264A23.397 23.397 0 0 0 70.016 62c12.978 0 23.5-10.521 23.5-23.5S82.994 15 70.016 15c-3.981 0-7.73.99-11.016 2.736Z" fill="#D580FF"/><path d="M84.188 49.6c-.093 0-.17.03-.247.03.17-.796.246-1.623.246-2.48 0-6.768-5.523-12.25-12.343-12.25-3.796 0-7.144 1.73-9.412 4.41-2.87-5.513-8.595-9.31-15.276-9.31-9.55 0-17.281 7.672-17.281 17.15 0 1.118.123 2.19.324 3.246C24.289 52.326 20 57.792 20 64.3 20 72.416 26.635 79 34.813 79h49.374C92.365 79 99 72.416 99 64.3s-6.635-14.7-14.813-14.7Z" fill="#F9F"/><path fill-rule="evenodd" clip-rule="evenodd" d="M90.046 50.796a14.853 14.853 0 0 0-5.859-1.196c-.048 0-.092.008-.134.016a.608.608 0 0 1-.112.015c.17-.797.246-1.623.246-2.481 0-6.768-5.523-12.25-12.343-12.25-.212 0-.422.005-.631.016.179 1.169.271 2.366.271 3.584 0 8.998-5.057 16.815-12.484 20.764A23.397 23.397 0 0 0 70.016 62c8.47 0 15.895-4.482 20.03-11.204Z" fill="#96F"/><rect x="53.841" y="71" width="3.044" height="13" rx="1" fill="#D580FF"/><rect width="3.055" height="12.952" rx="1" transform="matrix(.49816 -.86708 .86496 .50184 49 75.575)" fill="#D580FF"/><rect width="3.055" height="12.952" rx="1" transform="matrix(-.49816 -.86708 -.86496 .50184 62 75.178)" fill="#D580FF"/><path fill-rule="evenodd" clip-rule="evenodd" d="m61.212 79-3.01-1.737 2.932-1.693a1 1 0 0 0 .366-1.366l-.522-.904a1 1 0 0 0-1.366-.366l-2.727 1.575v-2.597a1 1 0 0 0-1-1H54.84a1 1 0 0 0-1 1v2.832l-2.453-1.416a1 1 0 0 0-1.366.366l-.522.904a1 1 0 0 0 .366 1.366l2.249 1.299-2.84 1.64.056.097h11.88Z" fill="#96F"/><rect x="37.841" y="88" width="3.044" height="13" rx="1" fill="#D580FF"/><rect width="3.055" height="12.952" rx="1" transform="matrix(.49816 -.86708 .86496 .50184 33 92.575)" fill="#D580FF"/><rect width="3.055" height="12.952" rx="1" transform="matrix(-.49816 -.86708 -.86496 .50184 46 92.178)" fill="#D580FF"/><rect x="69.841" y="88" width="3.044" height="13" rx="1" fill="#D580FF"/><rect width="3.055" height="12.952" rx="1" transform="matrix(.49816 -.86708 .86496 .50184 65 92.575)" fill="#D580FF"/><rect width="3.055" height="12.952" rx="1" transform="matrix(-.49816 -.86708 -.86496 .50184 78 92.178)" fill="#D580FF"/></svg>