<svg width="120" height="120" fill="none" xmlns="http://www.w3.org/2000/svg"><path d="M51.483 44c0 9.111 7.412 16.523 16.524 16.523 9.11 0 16.523-7.412 16.523-16.523s-7.412-16.523-16.523-16.523c-9.112 0-16.524 7.412-16.524 16.523ZM64.7 13a2 2 0 0 1 2-2h2.6a2 2 0 0 1 2 2v5.9a2 2 0 0 1-2 2h-2.6a2 2 0 0 1-2-2V13ZM35 42.7a2 2 0 0 1 2-2h5.9a2 2 0 0 1 2 2v2.6a2 2 0 0 1-2 2H37a2 2 0 0 1-2-2v-2.6Zm56.1 0a2 2 0 0 1 2-2H99a2 2 0 0 1 2 2v2.6a2 2 0 0 1-2 2h-5.9a2 2 0 0 1-2-2v-2.6Zm-7.687-15.95a2 2 0 0 1 0-2.829l4.174-4.174a2 2 0 0 1 2.828 0l1.838 1.838a2 2 0 0 1 0 2.828l-4.174 4.174a2 2 0 0 1-2.828 0l-1.838-1.838ZM50.75 28.59a2 2 0 0 1-2.829 0l-4.171-4.173a2 2 0 0 1 0-2.829l1.84-1.838a2 2 0 0 1 2.83 0l4.169 4.174a2 2 0 0 1-.001 2.828L50.75 28.59Z" fill="#FDF72A"/><path d="M82.188 53.6c-.093 0-.17.03-.247.03.17-.796.246-1.623.246-2.48 0-6.768-5.523-12.25-12.343-12.25-3.796 0-7.144 1.73-9.412 4.41-2.87-5.513-8.595-9.31-15.276-9.31-9.55 0-17.281 7.672-17.281 17.15 0 1.118.123 2.19.324 3.246C22.289 56.326 18 61.792 18 68.3 18 76.416 24.635 83 32.813 83h49.374C90.365 83 97 76.416 97 68.3s-6.635-14.7-14.813-14.7Z" fill="#3FD5FE"/><path fill-rule="evenodd" clip-rule="evenodd" d="M68.007 60.523c-9.112 0-16.524-7.412-16.524-16.523 0-2.841.721-5.517 1.99-7.855a17.383 17.383 0 0 1 6.959 7.165c2.268-2.68 5.616-4.41 9.412-4.41 6.82 0 12.344 5.482 12.344 12.25 0 .495-.026.98-.08 1.456-2.907 4.745-8.14 7.917-14.101 7.917Z" fill="#F7D056"/><rect x="52.841" y="75" width="3.044" height="13" rx="1" fill="#6A9CFF"/><rect width="3.055" height="12.952" rx="1" transform="matrix(.49816 -.86708 .86496 .50184 48 79.575)" fill="#6A9CFF"/><rect width="3.055" height="12.952" rx="1" transform="matrix(-.49816 -.86708 -.86496 .50184 61 79.178)" fill="#6A9CFF"/><path fill-rule="evenodd" clip-rule="evenodd" d="M60.108 83a1 1 0 0 0-.249-.204l-2.657-1.533 2.932-1.693a1 1 0 0 0 .366-1.366l-.522-.904a1 1 0 0 0-1.366-.366l-2.727 1.575v-2.597a1 1 0 0 0-1-1H53.84a1 1 0 0 0-1 1v2.832l-2.453-1.416a1 1 0 0 0-1.366.366l-.522.904a1 1 0 0 0 .366 1.366l2.249 1.299-1.974 1.14a.997.997 0 0 0-.463.597h11.43Z" fill="#37F"/><rect x="36.841" y="92" width="3.044" height="13" rx="1" fill="#6A9CFF"/><rect width="3.055" height="12.952" rx="1" transform="matrix(.49816 -.86708 .86496 .50184 32 96.575)" fill="#6A9CFF"/><rect width="3.055" height="12.952" rx="1" transform="matrix(-.49816 -.86708 -.86496 .50184 45 96.178)" fill="#6A9CFF"/><rect x="68.841" y="92" width="3.044" height="13" rx="1" fill="#6A9CFF"/><rect width="3.055" height="12.952" rx="1" transform="matrix(.49816 -.86708 .86496 .50184 64 96.575)" fill="#6A9CFF"/><rect width="3.055" height="12.952" rx="1" transform="matrix(-.49816 -.86708 -.86496 .50184 77 96.178)" fill="#6A9CFF"/></svg>