<svg width="120" height="120" viewBox="0 0 120 120" fill="none" xmlns="http://www.w3.org/2000/svg">
<path d="M82.9375 39.8C82.8496 39.8 82.7764 39.8294 82.7031 39.8294C82.8643 39.0656 82.9375 38.2725 82.9375 37.45C82.9375 30.9581 77.6934 25.7 71.2188 25.7C67.6152 25.7 64.4365 27.3597 62.2832 29.93C59.5586 24.6425 54.124 21 47.7813 21C38.7139 21 31.375 28.3584 31.375 37.45C31.375 38.5222 31.4922 39.5503 31.6826 40.5638C26.0723 42.4144 22 47.6578 22 53.9C22 61.6844 28.2988 68 36.0625 68H82.9375C90.7012 68 97 61.6844 97 53.9C97 46.1156 90.7012 39.8 82.9375 39.8Z" fill="#FF99FF"/>
<rect x="55.8407" y="60" width="3.04385" height="13" rx="1" fill="#D580FF"/>
<rect width="3.05509" height="12.9523" rx="1" transform="matrix(0.498161 -0.867085 0.86496 0.501841 51 64.5745)" fill="#D580FF"/>
<rect width="3.05509" height="12.9523" rx="1" transform="matrix(-0.498161 -0.867085 -0.86496 0.501841 64 64.1785)" fill="#D580FF"/>
<path fill-rule="evenodd" clip-rule="evenodd" d="M62.9743 68C62.9396 67.9732 62.9028 67.9484 62.8638 67.9258L60.2025 66.3817L63.1387 64.6782C63.6149 64.4018 63.7782 63.7925 63.5039 63.315L62.9783 62.4002C62.7023 61.9199 62.0885 61.7554 61.6094 62.0334L58.8844 63.6144V61C58.8844 60.4477 58.4367 60 57.8844 60H56.8406C56.2883 60 55.8406 60.4477 55.8406 61V63.851L53.3905 62.4295C52.9114 62.1515 52.2975 62.316 52.0216 62.7963L51.496 63.7111C51.2217 64.1885 51.385 64.7979 51.8612 65.0742L54.1148 66.3817L52.1361 67.5297C51.9427 67.6419 51.8009 67.8091 51.719 68H62.9743Z" fill="#9966FF"/>
<rect x="39.8407" y="77" width="3.04385" height="13" rx="1" fill="#D580FF"/>
<rect width="3.05509" height="12.9523" rx="1" transform="matrix(0.498161 -0.867085 0.86496 0.501841 35 81.5745)" fill="#D580FF"/>
<rect width="3.05509" height="12.9523" rx="1" transform="matrix(-0.498161 -0.867085 -0.86496 0.501841 48 81.1785)" fill="#D580FF"/>
<rect x="71.8407" y="77" width="3.04385" height="13" rx="1" fill="#D580FF"/>
<rect width="3.05509" height="12.9523" rx="1" transform="matrix(0.498161 -0.867085 0.86496 0.501841 67 81.5745)" fill="#D580FF"/>
<rect width="3.05509" height="12.9523" rx="1" transform="matrix(-0.498161 -0.867085 -0.86496 0.501841 80 81.1785)" fill="#D580FF"/>
</svg>
