<svg width="120" height="120" fill="none" xmlns="http://www.w3.org/2000/svg"><path d="M82.938 39.8c-.088 0-.162.03-.235.03.161-.764.234-1.557.234-2.38 0-6.492-5.244-11.75-11.718-11.75-3.604 0-6.782 1.66-8.936 4.23C59.56 24.642 54.124 21 47.781 21c-9.067 0-16.406 7.358-16.406 16.45 0 1.072.117 2.1.308 3.114C26.073 42.414 22 47.658 22 53.9 22 61.684 28.299 68 36.063 68h46.874C90.701 68 97 61.684 97 53.9s-6.299-14.1-14.063-14.1Z" fill="#F9F"/><rect x="55.841" y="60" width="3.044" height="13" rx="1" fill="#D580FF"/><rect width="3.055" height="12.952" rx="1" transform="matrix(.49816 -.86708 .86496 .50184 51 64.575)" fill="#D580FF"/><rect width="3.055" height="12.952" rx="1" transform="matrix(-.49816 -.86708 -.86496 .50184 64 64.178)" fill="#D580FF"/><path fill-rule="evenodd" clip-rule="evenodd" d="M62.974 68a1.005 1.005 0 0 0-.11-.074l-2.661-1.544 2.936-1.704a1 1 0 0 0 .365-1.363l-.526-.915a1 1 0 0 0-1.369-.367l-2.725 1.581V61a1 1 0 0 0-1-1h-1.043a1 1 0 0 0-1 1v2.851l-2.45-1.422a1 1 0 0 0-1.37.367l-.525.915a1 1 0 0 0 .365 1.363l2.254 1.308-1.979 1.148a.996.996 0 0 0-.417.47h11.255Z" fill="#96F"/><rect x="39.841" y="77" width="3.044" height="13" rx="1" fill="#D580FF"/><rect width="3.055" height="12.952" rx="1" transform="matrix(.49816 -.86708 .86496 .50184 35 81.575)" fill="#D580FF"/><rect width="3.055" height="12.952" rx="1" transform="matrix(-.49816 -.86708 -.86496 .50184 48 81.178)" fill="#D580FF"/><rect x="71.841" y="77" width="3.044" height="13" rx="1" fill="#D580FF"/><rect width="3.055" height="12.952" rx="1" transform="matrix(.49816 -.86708 .86496 .50184 67 81.575)" fill="#D580FF"/><rect width="3.055" height="12.952" rx="1" transform="matrix(-.49816 -.86708 -.86496 .50184 80 81.178)" fill="#D580FF"/></svg>