<svg width="120" height="120" fill="none" xmlns="http://www.w3.org/2000/svg"><path d="M82.938 44.8c-.088 0-.162.03-.235.03.161-.764.234-1.557.234-2.38 0-6.492-5.244-11.75-11.718-11.75-3.604 0-6.782 1.66-8.936 4.23C59.56 29.642 54.124 26 47.781 26c-9.067 0-16.406 7.358-16.406 16.45 0 1.072.117 2.1.308 3.114C26.073 47.414 22 52.658 22 58.9 22 66.684 28.299 73 36.063 73h46.874C90.701 73 97 66.684 97 58.9s-6.299-14.1-14.063-14.1Z" fill="#F9F"/><path d="M60.5 67.968V53L47 79.032h13.5V94L74 67.968H60.5Z" fill="#D580FF"/><path fill-rule="evenodd" clip-rule="evenodd" d="M71.39 73 74 67.968H60.5V53L50.128 73h21.263Z" fill="#96F"/><path d="M45 88.127V79l-8 15.873h8V104l8-15.873h-8ZM76 88.127V79l-8 15.873h8V104l8-15.873h-8Z" fill="#D580FF"/></svg>