<svg width="120" height="120" fill="none" xmlns="http://www.w3.org/2000/svg"><path d="M82.938 44.8c-.088 0-.162.03-.235.03.161-.764.234-1.557.234-2.38 0-6.492-5.244-11.75-11.718-11.75-3.604 0-6.782 1.66-8.936 4.23C59.56 29.642 54.124 26 47.781 26c-9.067 0-16.406 7.358-16.406 16.45 0 1.072.117 2.1.308 3.114C26.073 47.414 22 52.658 22 58.9 22 66.684 28.299 73 36.063 73h46.874C90.701 73 97 66.684 97 58.9s-6.299-14.1-14.063-14.1Z" fill="#F9F"/><path d="M80 76.222V64l-9 15.778h9V92l9-15.778h-9ZM38 76.222V64l-9 15.778h9V92l9-15.778h-9ZM59 85.222V73l-9 15.778h9V101l9-15.778h-9Z" fill="#D580FF"/><path fill-rule="evenodd" clip-rule="evenodd" d="M80 73v-9l-5.134 9H80Zm-42 0v-9l-4.949 8.676c.97.212 1.978.324 3.011.324H38Z" fill="#96F"/><path d="M47.23 94.648c-1.353 4.625-4.23 5.874-4.23 9.134 0 2.885 2.274 5.218 5.077 5.218s5.077-2.333 5.077-5.218c0-3.27-2.877-4.489-4.23-9.134-.234-.843-1.429-.885-1.693 0ZM69.23 94.648c-1.353 4.625-4.23 5.874-4.23 9.134 0 2.885 2.274 5.218 5.077 5.218s5.077-2.333 5.077-5.218c0-3.27-2.877-4.489-4.23-9.134-.234-.843-1.429-.885-1.693 0Z" fill="#D580FF"/></svg>