<svg width="120" height="120" fill="none" xmlns="http://www.w3.org/2000/svg"><path fill-rule="evenodd" clip-rule="evenodd" d="M58 17.736c7.427 3.949 12.484 11.766 12.484 20.764S65.427 55.315 58 59.264A23.397 23.397 0 0 0 69.016 62c12.978 0 23.5-10.521 23.5-23.5S81.994 15 69.016 15c-3.981 0-7.73.99-11.016 2.736Z" fill="#D580FF"/><path d="M83.188 49.6c-.093 0-.17.03-.247.03.17-.796.246-1.623.246-2.48 0-6.768-5.523-12.25-12.343-12.25-3.796 0-7.144 1.73-9.412 4.41-2.87-5.513-8.595-9.31-15.276-9.31-9.55 0-17.281 7.672-17.281 17.15 0 1.118.123 2.19.324 3.246C23.289 52.326 19 57.792 19 64.3 19 72.416 25.635 79 33.813 79h49.374C91.365 79 98 72.416 98 64.3s-6.635-14.7-14.813-14.7Z" fill="#F9F"/><path fill-rule="evenodd" clip-rule="evenodd" d="M89.046 50.796a14.853 14.853 0 0 0-5.859-1.196c-.048 0-.092.008-.134.016a.608.608 0 0 1-.112.015c.17-.797.246-1.623.246-2.481 0-6.768-5.523-12.25-12.343-12.25-.212 0-.422.005-.631.016.179 1.169.271 2.366.271 3.584 0 8.998-5.057 16.815-12.484 20.764A23.397 23.397 0 0 0 69.016 62c8.47 0 15.895-4.482 20.03-11.204Z" fill="#96F"/><path d="M78 82.222V70l-9 15.778h9V98l9-15.778h-9ZM36 82.222V70l-9 15.778h9V98l9-15.778h-9ZM57 91.222V79l-9 15.778h9V107l9-15.778h-9Z" fill="#D580FF"/><path fill-rule="evenodd" clip-rule="evenodd" d="M78 79v-9l-5.134 9H78Zm-42 0v-9l-4.949 8.676c.97.212 1.978.324 3.012.324H36Z" fill="#96F"/><path d="M45.23 100.648c-1.353 4.625-4.23 5.874-4.23 9.134 0 2.885 2.274 5.218 5.077 5.218s5.077-2.333 5.077-5.218c0-3.27-2.877-4.489-4.23-9.134-.234-.843-1.429-.885-1.693 0ZM67.23 100.648c-1.353 4.625-4.23 5.874-4.23 9.134 0 2.885 2.274 5.218 5.077 5.218s5.077-2.333 5.077-5.218c0-3.27-2.877-4.489-4.23-9.134-.234-.843-1.429-.885-1.693 0Z" fill="#D580FF"/></svg>