<svg width="120" height="120" fill="none" xmlns="http://www.w3.org/2000/svg"><path d="M51.483 38c0 9.111 7.412 16.523 16.524 16.523 9.11 0 16.523-7.412 16.523-16.523s-7.412-16.523-16.523-16.523c-9.112 0-16.524 7.412-16.524 16.523ZM64.7 7a2 2 0 0 1 2-2h2.6a2 2 0 0 1 2 2v5.9a2 2 0 0 1-2 2h-2.6a2 2 0 0 1-2-2V7ZM35 36.7a2 2 0 0 1 2-2h5.9a2 2 0 0 1 2 2v2.6a2 2 0 0 1-2 2H37a2 2 0 0 1-2-2v-2.6Zm56.1 0a2 2 0 0 1 2-2H99a2 2 0 0 1 2 2v2.6a2 2 0 0 1-2 2h-5.9a2 2 0 0 1-2-2v-2.6Zm-7.687-15.95a2 2 0 0 1 0-2.829l4.174-4.174a2 2 0 0 1 2.828 0l1.838 1.838a2 2 0 0 1 0 2.828l-4.174 4.174a2 2 0 0 1-2.828 0l-1.838-1.838ZM50.75 22.59a2 2 0 0 1-2.829 0l-4.171-4.173a2 2 0 0 1 0-2.829l1.84-1.838a2 2 0 0 1 2.83 0l4.169 4.174a2 2 0 0 1-.001 2.828L50.75 22.59Z" fill="#FDF72A"/><path d="M83.188 49.6c-.093 0-.17.03-.247.03.17-.796.246-1.623.246-2.48 0-6.768-5.523-12.25-12.343-12.25-3.796 0-7.144 1.73-9.412 4.41-2.87-5.513-8.595-9.31-15.276-9.31-9.55 0-17.281 7.672-17.281 17.15 0 1.118.123 2.19.324 3.246C23.289 52.326 19 57.792 19 64.3 19 72.416 25.635 79 33.813 79h49.374C91.365 79 98 72.416 98 64.3s-6.635-14.7-14.813-14.7Z" fill="#3FD5FE"/><path d="M78 82.222V70l-9 15.778h9V98l9-15.778h-9ZM36 82.222V70l-9 15.778h9V98l9-15.778h-9ZM57 91.222V79l-9 15.778h9V107l9-15.778h-9ZM45.23 100.648c-1.353 4.625-4.23 5.874-4.23 9.134 0 2.885 2.274 5.218 5.077 5.218s5.077-2.333 5.077-5.218c0-3.27-2.877-4.489-4.23-9.134-.234-.843-1.429-.885-1.693 0ZM67.23 100.648c-1.353 4.625-4.23 5.874-4.23 9.134 0 2.885 2.274 5.218 5.077 5.218s5.077-2.333 5.077-5.218c0-3.27-2.877-4.489-4.23-9.134-.234-.843-1.429-.885-1.693 0Z" fill="#6A9CFF"/><path fill-rule="evenodd" clip-rule="evenodd" d="M78 79v-9l-5.134 9H78Zm-42 0v-9l-4.949 8.676c.97.212 1.978.324 3.012.324H36Z" fill="#37F"/><path fill-rule="evenodd" clip-rule="evenodd" d="M68.007 54.523c-9.112 0-16.524-7.412-16.524-16.523 0-2.359.497-4.604 1.392-6.636a17.34 17.34 0 0 1 8.557 7.946c2.268-2.68 5.616-4.41 9.412-4.41 6.067 0 11.108 4.338 12.147 10.06-2.631 5.643-8.358 9.563-14.984 9.563Z" fill="#F7D056"/></svg>