<svg width="120" height="120" fill="none" xmlns="http://www.w3.org/2000/svg"><path d="M82.938 44.8c-.088 0-.162.03-.235.03.161-.764.234-1.557.234-2.38 0-6.492-5.244-11.75-11.718-11.75-3.604 0-6.782 1.66-8.936 4.23C59.56 29.642 54.124 26 47.781 26c-9.067 0-16.406 7.358-16.406 16.45 0 1.072.117 2.1.308 3.114C26.073 47.414 22 52.658 22 58.9 22 66.684 28.299 73 36.063 73h46.874C90.701 73 97 66.684 97 58.9s-6.299-14.1-14.063-14.1Z" fill="#F9F"/><path d="M50.291 60h28.405c.584 0 1.146-.208 1.573-.58.426-.374.686-.884.726-1.43a2.065 2.065 0 0 0-.512-1.507 2.347 2.347 0 0 0-1.474-.775l-.313-.02H50.291a8.063 8.063 0 0 1-4.268-1.212 7.313 7.313 0 0 1-2.829-3.226 6.758 6.758 0 0 1-.437-4.152 7.058 7.058 0 0 1 2.102-3.68 7.858 7.858 0 0 1 3.933-1.968 8.174 8.174 0 0 1 4.439.41 7.595 7.595 0 0 1 3.447 2.647 6.863 6.863 0 0 1 1.295 3.993c0 .572.243 1.12.675 1.525a2.388 2.388 0 0 0 1.63.631c.611 0 1.197-.227 1.63-.631.432-.405.674-.953.674-1.525 0-2.248-.704-4.446-2.024-6.323-1.321-1.877-3.2-3.351-5.407-4.24a13.071 13.071 0 0 0-7.008-.76c-2.365.393-4.555 1.425-6.3 2.97-1.744 1.544-2.967 3.534-3.517 5.721a10.8 10.8 0 0 0 .425 6.589c.826 2.11 2.295 3.948 4.226 5.285a12.826 12.826 0 0 0 6.635 2.24l.676.018H78.7 50.291ZM46.405 68h30.979c.637 0 1.25.24 1.715.669a2.464 2.464 0 0 1 .234 3.382 2.52 2.52 0 0 1-1.607.893l-.342.023H46.405a8.45 8.45 0 0 0-4.655 1.395 8.3 8.3 0 0 0-3.085 3.715 8.186 8.186 0 0 0-.477 4.783A8.249 8.249 0 0 0 40.48 87.1a8.41 8.41 0 0 0 4.29 2.265c1.625.32 3.31.156 4.84-.47a8.357 8.357 0 0 0 3.76-3.05 8.208 8.208 0 0 0 1.412-4.599c0-.659.265-1.29.736-1.756a2.53 2.53 0 0 1 1.778-.727c.666 0 1.306.261 1.777.727.471.466.736 1.097.736 1.756 0 2.589-.768 5.12-2.208 7.282a13.367 13.367 0 0 1-5.897 4.883 13.553 13.553 0 0 1-7.642.876 13.466 13.466 0 0 1-6.871-3.42 13.21 13.21 0 0 1-3.836-6.59c-.6-2.52-.439-5.158.462-7.588a13.26 13.26 0 0 1 4.61-6.088 13.506 13.506 0 0 1 7.236-2.58l.738-.02h30.985-30.982Z" fill="#D580FF"/><path fill-rule="evenodd" clip-rule="evenodd" d="M45.657 73a8.47 8.47 0 0 1 .748-.033h30.979l.342-.023a2.52 2.52 0 0 0 1.607-.893 2.464 2.464 0 0 0-.234-3.382A2.53 2.53 0 0 0 77.384 68H46.402l-.738.02a13.505 13.505 0 0 0-7.237 2.58 13.332 13.332 0 0 0-2.513 2.4h9.743Z" fill="#96F"/><rect x="66" y="78" width="28" height="5" rx="2.5" fill="#D580FF"/></svg>